M48
; DRILL file {KiCad 6.0.5-a6ca702e91~116~ubuntu20.04.1} date Mon 25 Jul 2022 12:40:50 BST
; FORMAT={-:-/ absolute / inch / decimal}
; #@! TF.CreationDate,2022-07-25T12:40:50+01:00
; #@! TF.GenerationSoftware,Kicad,Pcbnew,6.0.5-a6ca702e91~116~ubuntu20.04.1
; #@! TF.FileFunction,Plated,1,4,PTH
FMAT,2
INCH
; #@! TA.AperFunction,Plated,PTH,ViaDrill
T1C0.0118
; #@! TA.AperFunction,Plated,PTH,ComponentDrill
T2C0.0472
; #@! TA.AperFunction,Plated,PTH,ComponentDrill
T3C0.0551
%
G90
G05
T1
X6.939Y-4.5728
X6.9783Y-4.0354
X6.9941Y-3.9665
X7.0236Y-3.8957
X7.0256Y-4.3602
X7.0354Y-3.752
X7.063Y-4.3622
X7.1081Y-3.9216
X7.1654Y-3.7421
X7.1909Y-4.374
X7.1929Y-3.8386
X7.1929Y-4.2618
X7.1988Y-3.9161
X7.215Y-3.74
X7.2264Y-4.4567
X7.227Y-4.263
X7.2323Y-3.4744
X7.2323Y-3.9528
X7.247Y-3.739
X7.2482Y-3.7085
X7.286Y-3.971
X7.2874Y-3.5669
X7.293Y-3.489
X7.3406Y-4.3425
X7.3554Y-3.7626
X7.3563Y-3.8916
X7.3795Y-3.5333
X7.3839Y-4.2106
X7.3868Y-3.6896
X7.4094Y-3.5157
X7.4098Y-4.3012
X7.4173Y-3.6904
X7.4429Y-3.4882
X7.4528Y-3.6083
X7.5138Y-4.7106
X7.5236Y-3.9705
X7.5236Y-4.4626
X7.5512Y-3.8858
X7.5546Y-3.8498
X7.5886Y-3.9272
X7.6142Y-3.4921
X7.6358Y-4.0472
X7.6417Y-4.0032
X7.6437Y-4.4035
X7.689Y-3.5079
X7.7172Y-3.9075
X7.7303Y-3.5827
X7.738Y-4.118
X7.739Y-4.025
X7.7402Y-4.7244
X7.766Y-4.057
X7.7739Y-3.5739
X7.7795Y-3.9055
X7.7835Y-4.7205
X7.7991Y-3.6829
X7.815Y-4.2461
X7.817Y-4.061
X7.817Y-4.1458
X7.8268Y-4.7205
X7.8307Y-3.5709
X7.8386Y-4.5925
X7.8406Y-4.2618
X7.8445Y-4.4724
X7.8445Y-4.5118
X7.858Y-3.742
X7.867Y-4.064
X7.8799Y-4.3917
X7.893Y-3.907
X7.9094Y-4.6319
X7.9094Y-4.7185
X7.9134Y-3.5787
X7.919Y-3.772
X7.919Y-3.866
X7.9213Y-4.252
X7.922Y-4.081
X7.944Y-3.904
X7.9477Y-4.4646
X7.9587Y-4.7008
X7.965Y-4.124
X7.97Y-3.77
X7.97Y-3.864
X8.0217Y-4.2461
X8.074Y-4.124
X8.2047Y-4.2126
X8.753Y-4.038
X8.754Y-3.994
X8.754Y-4.081
X8.755Y-4.168
X8.759Y-4.296
T2
X6.9372Y-3.5386
X6.9372Y-3.8437
T3
X7.0868Y-3.5445
X7.0868Y-3.8378
T0
M30
