M48
; DRILL file {KiCad 6.0.5-a6ca702e91~116~ubuntu20.04.1} date Tue 26 Jul 2022 15:58:12 BST
; FORMAT={-:-/ absolute / inch / decimal}
; #@! TF.CreationDate,2022-07-26T15:58:12+01:00
; #@! TF.GenerationSoftware,Kicad,Pcbnew,6.0.5-a6ca702e91~116~ubuntu20.04.1
; #@! TF.FileFunction,Plated,1,4,PTH
FMAT,2
INCH
; #@! TA.AperFunction,Plated,PTH,ViaDrill
T1C0.0118
; #@! TA.AperFunction,Plated,PTH,ComponentDrill
T2C0.0472
; #@! TA.AperFunction,Plated,PTH,ComponentDrill
T3C0.0551
%
G90
G05
T1
X6.939Y-4.5728
X6.9961Y-3.7825
X7.0079Y-3.501
X7.0197Y-4.436
X7.0256Y-4.3602
X7.0443Y-4.5217
X7.062Y-4.3671
X7.0728Y-4.4272
X7.0738Y-4.4616
X7.0817Y-3.939
X7.0827Y-4.0659
X7.124Y-3.7825
X7.1289Y-3.8868
X7.1654Y-3.7421
X7.1693Y-3.9498
X7.186Y-4.0984
X7.1909Y-4.4911
X7.1959Y-3.4557
X7.215Y-3.74
X7.2195Y-4.561
X7.2203Y-3.7748
X7.2359Y-4.267
X7.2396Y-3.8364
X7.247Y-3.739
X7.2482Y-3.7085
X7.2785Y-3.5551
X7.286Y-3.971
X7.2904Y-3.4892
X7.3406Y-4.3425
X7.3573Y-3.6909
X7.3593Y-4.1211
X7.3839Y-4.2106
X7.3868Y-3.6896
X7.4098Y-4.3012
X7.4173Y-3.6904
X7.4252Y-4.1171
X7.4262Y-3.9695
X7.4459Y-4.6122
X7.4528Y-3.6083
X7.4596Y-4.2598
X7.4614Y-4.2294
X7.4695Y-4.1555
X7.503Y-3.9724
X7.5138Y-4.7106
X7.5236Y-4.4626
X7.5562Y-3.8593
X7.5563Y-3.8906
X7.5679Y-3.435
X7.5728Y-4.6594
X7.5807Y-4.3927
X7.5827Y-4.3612
X7.5846Y-4.3297
X7.5886Y-3.9272
X7.6348Y-3.9183
X7.6565Y-3.8976
X7.699Y-3.9626
X7.7087Y-4.4409
X7.7116Y-3.8693
X7.7205Y-3.4882
X7.7303Y-3.5827
X7.738Y-4.118
X7.739Y-4.025
X7.7402Y-4.7244
X7.766Y-4.057
X7.7739Y-3.5739
X7.7835Y-4.7205
X7.7991Y-3.6829
X7.8022Y-3.4498
X7.8091Y-3.5728
X7.812Y-3.8012
X7.815Y-4.2461
X7.817Y-4.061
X7.817Y-4.1458
X7.8268Y-4.7205
X7.8386Y-4.5925
X7.8406Y-4.2618
X7.8445Y-4.4724
X7.8445Y-4.5118
X7.8504Y-3.9055
X7.858Y-3.742
X7.867Y-4.064
X7.8799Y-4.3917
X7.893Y-3.907
X7.8986Y-3.6624
X7.9094Y-4.6319
X7.9094Y-4.7185
X7.919Y-3.772
X7.919Y-3.866
X7.922Y-4.081
X7.9227Y-4.2569
X7.944Y-3.904
X7.9477Y-4.4646
X7.9587Y-4.7008
X7.965Y-4.124
X7.97Y-3.77
X7.97Y-3.864
X8.0226Y-4.2815
X8.0463Y-4.2589
X8.0463Y-4.4321
X8.06Y-3.8278
X8.074Y-4.124
X8.1752Y-3.9144
X8.1762Y-3.9469
X8.2037Y-3.7352
X8.2047Y-4.2126
X8.753Y-4.038
X8.754Y-3.994
X8.754Y-4.081
X8.755Y-4.168
X8.759Y-4.296
T2
X6.9372Y-3.5386
X6.9372Y-3.8437
T3
X7.0868Y-3.5445
X7.0868Y-3.8378
T0
M30
