%TF.GenerationSoftware,KiCad,Pcbnew,6.0.5-a6ca702e91~116~ubuntu20.04.1*%
%TF.CreationDate,2022-07-25T12:39:34+01:00*%
%TF.ProjectId,sd-mux,73642d6d-7578-42e6-9b69-6361645f7063,rev?*%
%TF.SameCoordinates,Original*%
%TF.FileFunction,Paste,Top*%
%TF.FilePolarity,Positive*%
%FSLAX46Y46*%
G04 Gerber Fmt 4.6, Leading zero omitted, Abs format (unit mm)*
G04 Created by KiCad (PCBNEW 6.0.5-a6ca702e91~116~ubuntu20.04.1) date 2022-07-25 12:39:34*
%MOMM*%
%LPD*%
G01*
G04 APERTURE LIST*
G04 Aperture macros list*
%AMRoundRect*
0 Rectangle with rounded corners*
0 $1 Rounding radius*
0 $2 $3 $4 $5 $6 $7 $8 $9 X,Y pos of 4 corners*
0 Add a 4 corners polygon primitive as box body*
4,1,4,$2,$3,$4,$5,$6,$7,$8,$9,$2,$3,0*
0 Add four circle primitives for the rounded corners*
1,1,$1+$1,$2,$3*
1,1,$1+$1,$4,$5*
1,1,$1+$1,$6,$7*
1,1,$1+$1,$8,$9*
0 Add four rect primitives between the rounded corners*
20,1,$1+$1,$2,$3,$4,$5,0*
20,1,$1+$1,$4,$5,$6,$7,0*
20,1,$1+$1,$6,$7,$8,$9,0*
20,1,$1+$1,$8,$9,$2,$3,0*%
G04 Aperture macros list end*
%ADD10RoundRect,0.079500X0.079500X0.100500X-0.079500X0.100500X-0.079500X-0.100500X0.079500X-0.100500X0*%
%ADD11R,0.600000X1.100000*%
%ADD12RoundRect,0.100000X0.100000X-0.637500X0.100000X0.637500X-0.100000X0.637500X-0.100000X-0.637500X0*%
%ADD13RoundRect,0.079500X-0.079500X-0.100500X0.079500X-0.100500X0.079500X0.100500X-0.079500X0.100500X0*%
%ADD14RoundRect,0.079500X-0.100500X0.079500X-0.100500X-0.079500X0.100500X-0.079500X0.100500X0.079500X0*%
%ADD15RoundRect,0.079500X0.100500X-0.079500X0.100500X0.079500X-0.100500X0.079500X-0.100500X-0.079500X0*%
%ADD16R,0.300000X0.900000*%
%ADD17R,0.900000X0.300000*%
%ADD18R,4.200000X4.200000*%
%ADD19R,1.475000X0.450000*%
G04 APERTURE END LIST*
D10*
%TO.C,D1*%
X197486500Y-89093600D03*
X196796500Y-89093600D03*
%TD*%
D11*
%TO.C,Y1*%
X182500000Y-101800000D03*
X181100000Y-101800000D03*
%TD*%
D12*
%TO.C,U4*%
X196577000Y-106494500D03*
X197227000Y-106494500D03*
X197877000Y-106494500D03*
X198527000Y-106494500D03*
X199177000Y-106494500D03*
X199827000Y-106494500D03*
X200477000Y-106494500D03*
X201127000Y-106494500D03*
X201777000Y-106494500D03*
X202427000Y-106494500D03*
X203077000Y-106494500D03*
X203727000Y-106494500D03*
X203727000Y-100769500D03*
X203077000Y-100769500D03*
X202427000Y-100769500D03*
X201777000Y-100769500D03*
X201127000Y-100769500D03*
X200477000Y-100769500D03*
X199827000Y-100769500D03*
X199177000Y-100769500D03*
X198527000Y-100769500D03*
X197877000Y-100769500D03*
X197227000Y-100769500D03*
X196577000Y-100769500D03*
%TD*%
D13*
%TO.C,R4*%
X198500000Y-99250000D03*
X199190000Y-99250000D03*
%TD*%
D14*
%TO.C,R11*%
X194741800Y-105982400D03*
X194741800Y-105292400D03*
%TD*%
D13*
%TO.C,C18*%
X192105000Y-91650000D03*
X192795000Y-91650000D03*
%TD*%
%TO.C,R13*%
X189395000Y-112250000D03*
X188705000Y-112250000D03*
%TD*%
D14*
%TO.C,R12*%
X195529200Y-105292400D03*
X195529200Y-105982400D03*
%TD*%
D10*
%TO.C,C4*%
X197650000Y-97712600D03*
X196960000Y-97712600D03*
%TD*%
D13*
%TO.C,C8*%
X186704800Y-88620600D03*
X186014800Y-88620600D03*
%TD*%
D10*
%TO.C,D2*%
X200970900Y-89100000D03*
X201660900Y-89100000D03*
%TD*%
%TO.C,R14*%
X178375000Y-99860000D03*
X179065000Y-99860000D03*
%TD*%
D13*
%TO.C,C25*%
X177795000Y-116150000D03*
X177105000Y-116150000D03*
%TD*%
D10*
%TO.C,R19*%
X199625000Y-89906400D03*
X198935000Y-89906400D03*
%TD*%
D13*
%TO.C,C20*%
X194955000Y-96900000D03*
X195645000Y-96900000D03*
%TD*%
D14*
%TO.C,R5*%
X185900000Y-91269400D03*
X185900000Y-90579400D03*
%TD*%
%TO.C,R16*%
X194050000Y-99745000D03*
X194050000Y-99055000D03*
%TD*%
D13*
%TO.C,C5*%
X192105000Y-100850000D03*
X192795000Y-100850000D03*
%TD*%
D10*
%TO.C,C15*%
X185318000Y-113195100D03*
X184628000Y-113195100D03*
%TD*%
D13*
%TO.C,R6*%
X186689600Y-89408000D03*
X185999600Y-89408000D03*
%TD*%
%TO.C,C14*%
X183655000Y-90100000D03*
X184345000Y-90100000D03*
%TD*%
D10*
%TO.C,R17*%
X196802200Y-89906400D03*
X197492200Y-89906400D03*
%TD*%
D13*
%TO.C,R3*%
X197650000Y-98500000D03*
X196960000Y-98500000D03*
%TD*%
D15*
%TO.C,C26*%
X183500000Y-109790000D03*
X183500000Y-109100000D03*
%TD*%
D14*
%TO.C,R15*%
X184023000Y-99557400D03*
X184023000Y-98867400D03*
%TD*%
D16*
%TO.C,U1*%
X186607000Y-99716000D03*
X187107000Y-99716000D03*
X187607000Y-99716000D03*
X188107000Y-99716000D03*
X188607000Y-99716000D03*
X189107000Y-99716000D03*
X189607000Y-99716000D03*
X190107000Y-99716000D03*
X190607000Y-99716000D03*
X191107000Y-99716000D03*
X191607000Y-99716000D03*
X192107000Y-99716000D03*
D17*
X192807000Y-99016000D03*
X192807000Y-98516000D03*
X192807000Y-98016000D03*
X192807000Y-97516000D03*
X192807000Y-97016000D03*
X192807000Y-96516000D03*
X192807000Y-96016000D03*
X192807000Y-95516000D03*
X192807000Y-95016000D03*
X192807000Y-94516000D03*
X192807000Y-94016000D03*
X192807000Y-93516000D03*
D16*
X192107000Y-92816000D03*
X191607000Y-92816000D03*
X191107000Y-92816000D03*
X190607000Y-92816000D03*
X190107000Y-92816000D03*
X189607000Y-92816000D03*
X189107000Y-92816000D03*
X188607000Y-92816000D03*
X188107000Y-92816000D03*
X187607000Y-92816000D03*
X187107000Y-92816000D03*
X186607000Y-92816000D03*
D17*
X185907000Y-93516000D03*
X185907000Y-94016000D03*
X185907000Y-94516000D03*
X185907000Y-95016000D03*
X185907000Y-95516000D03*
X185907000Y-96016000D03*
X185907000Y-96516000D03*
X185907000Y-97016000D03*
X185907000Y-97516000D03*
X185907000Y-98016000D03*
X185907000Y-98516000D03*
X185907000Y-99016000D03*
D18*
X189357000Y-96266000D03*
%TD*%
D10*
%TO.C,R7*%
X183663200Y-91719400D03*
X184353200Y-91719400D03*
%TD*%
D14*
%TO.C,FB2*%
X179650000Y-94445000D03*
X179650000Y-93755000D03*
%TD*%
D13*
%TO.C,C3*%
X184723600Y-98069400D03*
X184033600Y-98069400D03*
%TD*%
D14*
%TO.C,C1*%
X178400000Y-101395000D03*
X178400000Y-100705000D03*
%TD*%
D10*
%TO.C,FB4*%
X188295000Y-90450000D03*
X187605000Y-90450000D03*
%TD*%
D13*
%TO.C,C9*%
X192105000Y-90800000D03*
X192795000Y-90800000D03*
%TD*%
D14*
%TO.C,C23*%
X183550000Y-111845000D03*
X183550000Y-111155000D03*
%TD*%
D13*
%TO.C,C13*%
X187605000Y-91250000D03*
X188295000Y-91250000D03*
%TD*%
D14*
%TO.C,C10*%
X178700000Y-94450000D03*
X178700000Y-93760000D03*
%TD*%
%TO.C,R9*%
X193939600Y-105982400D03*
X193939600Y-105292400D03*
%TD*%
D15*
%TO.C,C24*%
X193924800Y-104415000D03*
X193924800Y-103725000D03*
%TD*%
D10*
%TO.C,FB3*%
X189723200Y-100863400D03*
X190413200Y-100863400D03*
%TD*%
D15*
%TO.C,C22*%
X194700000Y-103725000D03*
X194700000Y-104415000D03*
%TD*%
%TO.C,C21*%
X182712600Y-109100000D03*
X182712600Y-109790000D03*
%TD*%
%TO.C,C17*%
X176350000Y-100750000D03*
X176350000Y-101440000D03*
%TD*%
D19*
%TO.C,U3*%
X191126600Y-110752600D03*
X191126600Y-110102600D03*
X191126600Y-109452600D03*
X191126600Y-108802600D03*
X191126600Y-108152600D03*
X191126600Y-107502600D03*
X191126600Y-106852600D03*
X191126600Y-106202600D03*
X191126600Y-105552600D03*
X191126600Y-104902600D03*
X191126600Y-104252600D03*
X191126600Y-103602600D03*
X191126600Y-102952600D03*
X191126600Y-102302600D03*
X185250600Y-102302600D03*
X185250600Y-102952600D03*
X185250600Y-103602600D03*
X185250600Y-104252600D03*
X185250600Y-104902600D03*
X185250600Y-105552600D03*
X185250600Y-106202600D03*
X185250600Y-106852600D03*
X185250600Y-107502600D03*
X185250600Y-108152600D03*
X185250600Y-108802600D03*
X185250600Y-109452600D03*
X185250600Y-110102600D03*
X185250600Y-110752600D03*
%TD*%
D14*
%TO.C,R8*%
X193152200Y-105292400D03*
X193152200Y-105982400D03*
%TD*%
D13*
%TO.C,R10*%
X185318000Y-112356900D03*
X184628000Y-112356900D03*
%TD*%
D15*
%TO.C,R2*%
X179900000Y-100545000D03*
X179900000Y-99855000D03*
%TD*%
%TO.C,C7*%
X186712800Y-91269400D03*
X186712800Y-90579400D03*
%TD*%
D10*
%TO.C,R1*%
X184353200Y-90932000D03*
X183663200Y-90932000D03*
%TD*%
%TO.C,R18*%
X201645000Y-89912800D03*
X200955000Y-89912800D03*
%TD*%
%TO.C,C2*%
X179235000Y-101400000D03*
X179925000Y-101400000D03*
%TD*%
D13*
%TO.C,C12*%
X188228800Y-88620600D03*
X187538800Y-88620600D03*
%TD*%
D10*
%TO.C,D3*%
X198935000Y-89093600D03*
X199625000Y-89093600D03*
%TD*%
M02*
