%TF.GenerationSoftware,KiCad,Pcbnew,6.0.5-a6ca702e91~116~ubuntu20.04.1*%
%TF.CreationDate,2022-07-26T15:57:37+01:00*%
%TF.ProjectId,sd-mux,73642d6d-7578-42e6-9b69-6361645f7063,rev?*%
%TF.SameCoordinates,Original*%
%TF.FileFunction,Legend,Top*%
%TF.FilePolarity,Positive*%
%FSLAX46Y46*%
G04 Gerber Fmt 4.6, Leading zero omitted, Abs format (unit mm)*
G04 Created by KiCad (PCBNEW 6.0.5-a6ca702e91~116~ubuntu20.04.1) date 2022-07-26 15:57:37*
%MOMM*%
%LPD*%
G01*
G04 APERTURE LIST*
%ADD10C,0.150000*%
%ADD11C,0.120000*%
%ADD12C,0.200000*%
%ADD13C,0.250000*%
G04 APERTURE END LIST*
D10*
X192675000Y-100700000D02*
X193325000Y-100700000D01*
X192675000Y-100950000D02*
X192675000Y-100700000D01*
X195400000Y-100900000D02*
X195400000Y-100075000D01*
X183175000Y-96775000D02*
X183900000Y-96775000D01*
X200902220Y-87870428D02*
X201474977Y-87297672D01*
X201693169Y-87515865D01*
X201720444Y-87597687D01*
X201720444Y-87652235D01*
X201693169Y-87734058D01*
X201611347Y-87815880D01*
X201529525Y-87843154D01*
X201474977Y-87843154D01*
X201393154Y-87815880D01*
X201174961Y-87597687D01*
X201993185Y-87815880D02*
X201556799Y-88525007D01*
X202075007Y-88224992D01*
X201774992Y-88743200D01*
X202484119Y-88306814D01*
X202456845Y-89425053D02*
X202538667Y-88961393D01*
X202129555Y-89097764D02*
X202702312Y-88525007D01*
X202920505Y-88743200D01*
X202947779Y-88825022D01*
X202947779Y-88879571D01*
X202920505Y-88961393D01*
X202838682Y-89043215D01*
X202756860Y-89070490D01*
X202702312Y-89070490D01*
X202620490Y-89043215D01*
X202402297Y-88825022D01*
X203211301Y-90029509D02*
X203784058Y-89456753D01*
X203511317Y-89729494D02*
X203838606Y-90056784D01*
X203538591Y-90356799D02*
X204111347Y-89784042D01*
X204493185Y-90165880D02*
X204602281Y-90274977D01*
X204629555Y-90356799D01*
X204629555Y-90465895D01*
X204547733Y-90602266D01*
X204356814Y-90793185D01*
X204220444Y-90875007D01*
X204111347Y-90875007D01*
X204029525Y-90847733D01*
X203920428Y-90738637D01*
X203893154Y-90656814D01*
X203893154Y-90547718D01*
X203974977Y-90411347D01*
X204165895Y-90220428D01*
X204302266Y-90138606D01*
X204411362Y-90138606D01*
X204493185Y-90165880D01*
X204411362Y-91175022D02*
X204465911Y-91284119D01*
X204602281Y-91420490D01*
X204684104Y-91447764D01*
X204738652Y-91447764D01*
X204820474Y-91420490D01*
X204875022Y-91365941D01*
X204902297Y-91284119D01*
X204902297Y-91229571D01*
X204875022Y-91147748D01*
X204793200Y-91011378D01*
X204765926Y-90929555D01*
X204765926Y-90875007D01*
X204793200Y-90793185D01*
X204847748Y-90738637D01*
X204929571Y-90711362D01*
X204984119Y-90711362D01*
X205065941Y-90738637D01*
X205202312Y-90875007D01*
X205256860Y-90984104D01*
X205447779Y-91120474D02*
X205775068Y-91447764D01*
X205038667Y-91856875D02*
X205611424Y-91284119D01*
X206322679Y-93190888D02*
X206895436Y-92618131D01*
X207031807Y-92754502D01*
X207086355Y-92863598D01*
X207086355Y-92972695D01*
X207059081Y-93054517D01*
X206977258Y-93190888D01*
X206895436Y-93272710D01*
X206759065Y-93354532D01*
X206677243Y-93381807D01*
X206568147Y-93381807D01*
X206459050Y-93327258D01*
X206322679Y-93190888D01*
X207468192Y-93190888D02*
X207004532Y-93654548D01*
X206977258Y-93736370D01*
X206977258Y-93790918D01*
X207004532Y-93872741D01*
X207113629Y-93981837D01*
X207195451Y-94009111D01*
X207250000Y-94009111D01*
X207331822Y-93981837D01*
X207795482Y-93518177D01*
X207986401Y-93709096D02*
X208313690Y-94036385D01*
X207577289Y-94445497D02*
X208150045Y-93872741D01*
X188900000Y-122250000D02*
X179400000Y-122250000D01*
X179400000Y-122250000D02*
X179400000Y-120600000D01*
X179400000Y-120600000D02*
X188900000Y-120600000D01*
X188900000Y-120600000D02*
X188900000Y-122250000D01*
G36*
X188900000Y-122250000D02*
G01*
X179400000Y-122250000D01*
X179400000Y-120600000D01*
X188900000Y-120600000D01*
X188900000Y-122250000D01*
G37*
X179225714Y-118614378D02*
X179225714Y-118190092D01*
X179187142Y-118112950D01*
X179110000Y-118074378D01*
X178955714Y-118074378D01*
X178878571Y-118112950D01*
X179225714Y-118575807D02*
X179148571Y-118614378D01*
X178955714Y-118614378D01*
X178878571Y-118575807D01*
X178840000Y-118498664D01*
X178840000Y-118421521D01*
X178878571Y-118344378D01*
X178955714Y-118305807D01*
X179148571Y-118305807D01*
X179225714Y-118267235D01*
X179958571Y-118074378D02*
X179958571Y-118614378D01*
X179611428Y-118074378D02*
X179611428Y-118498664D01*
X179650000Y-118575807D01*
X179727142Y-118614378D01*
X179842857Y-118614378D01*
X179920000Y-118575807D01*
X179958571Y-118537235D01*
X180228571Y-118074378D02*
X180537142Y-118074378D01*
X180344285Y-117804378D02*
X180344285Y-118498664D01*
X180382857Y-118575807D01*
X180460000Y-118614378D01*
X180537142Y-118614378D01*
X180922857Y-118614378D02*
X180845714Y-118575807D01*
X180807142Y-118537235D01*
X180768571Y-118460092D01*
X180768571Y-118228664D01*
X180807142Y-118151521D01*
X180845714Y-118112950D01*
X180922857Y-118074378D01*
X181038571Y-118074378D01*
X181115714Y-118112950D01*
X181154285Y-118151521D01*
X181192857Y-118228664D01*
X181192857Y-118460092D01*
X181154285Y-118537235D01*
X181115714Y-118575807D01*
X181038571Y-118614378D01*
X180922857Y-118614378D01*
X181540000Y-118614378D02*
X181540000Y-117804378D01*
X181617142Y-118305807D02*
X181848571Y-118614378D01*
X181848571Y-118074378D02*
X181540000Y-118382950D01*
X182195714Y-118614378D02*
X182195714Y-118074378D01*
X182195714Y-117804378D02*
X182157142Y-117842950D01*
X182195714Y-117881521D01*
X182234285Y-117842950D01*
X182195714Y-117804378D01*
X182195714Y-117881521D01*
X182465714Y-118074378D02*
X182774285Y-118074378D01*
X182581428Y-117804378D02*
X182581428Y-118498664D01*
X182620000Y-118575807D01*
X182697142Y-118614378D01*
X182774285Y-118614378D01*
X183044285Y-118305807D02*
X183661428Y-118305807D01*
X184008571Y-118575807D02*
X184085714Y-118614378D01*
X184240000Y-118614378D01*
X184317142Y-118575807D01*
X184355714Y-118498664D01*
X184355714Y-118460092D01*
X184317142Y-118382950D01*
X184240000Y-118344378D01*
X184124285Y-118344378D01*
X184047142Y-118305807D01*
X184008571Y-118228664D01*
X184008571Y-118190092D01*
X184047142Y-118112950D01*
X184124285Y-118074378D01*
X184240000Y-118074378D01*
X184317142Y-118112950D01*
X185050000Y-118614378D02*
X185050000Y-117804378D01*
X185050000Y-118575807D02*
X184972857Y-118614378D01*
X184818571Y-118614378D01*
X184741428Y-118575807D01*
X184702857Y-118537235D01*
X184664285Y-118460092D01*
X184664285Y-118228664D01*
X184702857Y-118151521D01*
X184741428Y-118112950D01*
X184818571Y-118074378D01*
X184972857Y-118074378D01*
X185050000Y-118112950D01*
X185435714Y-118305807D02*
X186052857Y-118305807D01*
X186438571Y-118614378D02*
X186438571Y-118074378D01*
X186438571Y-118151521D02*
X186477142Y-118112950D01*
X186554285Y-118074378D01*
X186670000Y-118074378D01*
X186747142Y-118112950D01*
X186785714Y-118190092D01*
X186785714Y-118614378D01*
X186785714Y-118190092D02*
X186824285Y-118112950D01*
X186901428Y-118074378D01*
X187017142Y-118074378D01*
X187094285Y-118112950D01*
X187132857Y-118190092D01*
X187132857Y-118614378D01*
X187865714Y-118074378D02*
X187865714Y-118614378D01*
X187518571Y-118074378D02*
X187518571Y-118498664D01*
X187557142Y-118575807D01*
X187634285Y-118614378D01*
X187750000Y-118614378D01*
X187827142Y-118575807D01*
X187865714Y-118537235D01*
X188174285Y-118614378D02*
X188598571Y-118074378D01*
X188174285Y-118074378D02*
X188598571Y-118614378D01*
X177586428Y-119378478D02*
X177779285Y-119918478D01*
X177972142Y-119378478D01*
X178589285Y-119879907D02*
X178512142Y-119918478D01*
X178357857Y-119918478D01*
X178280714Y-119879907D01*
X178242142Y-119802764D01*
X178242142Y-119494192D01*
X178280714Y-119417050D01*
X178357857Y-119378478D01*
X178512142Y-119378478D01*
X178589285Y-119417050D01*
X178627857Y-119494192D01*
X178627857Y-119571335D01*
X178242142Y-119648478D01*
X178975000Y-119918478D02*
X178975000Y-119378478D01*
X178975000Y-119532764D02*
X179013571Y-119455621D01*
X179052142Y-119417050D01*
X179129285Y-119378478D01*
X179206428Y-119378478D01*
X179437857Y-119879907D02*
X179515000Y-119918478D01*
X179669285Y-119918478D01*
X179746428Y-119879907D01*
X179785000Y-119802764D01*
X179785000Y-119764192D01*
X179746428Y-119687050D01*
X179669285Y-119648478D01*
X179553571Y-119648478D01*
X179476428Y-119609907D01*
X179437857Y-119532764D01*
X179437857Y-119494192D01*
X179476428Y-119417050D01*
X179553571Y-119378478D01*
X179669285Y-119378478D01*
X179746428Y-119417050D01*
X180132142Y-119918478D02*
X180132142Y-119378478D01*
X180132142Y-119108478D02*
X180093571Y-119147050D01*
X180132142Y-119185621D01*
X180170714Y-119147050D01*
X180132142Y-119108478D01*
X180132142Y-119185621D01*
X180633571Y-119918478D02*
X180556428Y-119879907D01*
X180517857Y-119841335D01*
X180479285Y-119764192D01*
X180479285Y-119532764D01*
X180517857Y-119455621D01*
X180556428Y-119417050D01*
X180633571Y-119378478D01*
X180749285Y-119378478D01*
X180826428Y-119417050D01*
X180865000Y-119455621D01*
X180903571Y-119532764D01*
X180903571Y-119764192D01*
X180865000Y-119841335D01*
X180826428Y-119879907D01*
X180749285Y-119918478D01*
X180633571Y-119918478D01*
X181250714Y-119378478D02*
X181250714Y-119918478D01*
X181250714Y-119455621D02*
X181289285Y-119417050D01*
X181366428Y-119378478D01*
X181482142Y-119378478D01*
X181559285Y-119417050D01*
X181597857Y-119494192D01*
X181597857Y-119918478D01*
X181983571Y-119841335D02*
X182022142Y-119879907D01*
X181983571Y-119918478D01*
X181945000Y-119879907D01*
X181983571Y-119841335D01*
X181983571Y-119918478D01*
X181983571Y-119417050D02*
X182022142Y-119455621D01*
X181983571Y-119494192D01*
X181945000Y-119455621D01*
X181983571Y-119417050D01*
X181983571Y-119494192D01*
X183410714Y-119918478D02*
X182947857Y-119918478D01*
X183179285Y-119918478D02*
X183179285Y-119108478D01*
X183102142Y-119224192D01*
X183025000Y-119301335D01*
X182947857Y-119339907D01*
X183757857Y-119841335D02*
X183796428Y-119879907D01*
X183757857Y-119918478D01*
X183719285Y-119879907D01*
X183757857Y-119841335D01*
X183757857Y-119918478D01*
X184297857Y-119108478D02*
X184375000Y-119108478D01*
X184452142Y-119147050D01*
X184490714Y-119185621D01*
X184529285Y-119262764D01*
X184567857Y-119417050D01*
X184567857Y-119609907D01*
X184529285Y-119764192D01*
X184490714Y-119841335D01*
X184452142Y-119879907D01*
X184375000Y-119918478D01*
X184297857Y-119918478D01*
X184220714Y-119879907D01*
X184182142Y-119841335D01*
X184143571Y-119764192D01*
X184105000Y-119609907D01*
X184105000Y-119417050D01*
X184143571Y-119262764D01*
X184182142Y-119185621D01*
X184220714Y-119147050D01*
X184297857Y-119108478D01*
X185763571Y-120227050D02*
X185725000Y-120188478D01*
X185647857Y-120072764D01*
X185609285Y-119995621D01*
X185570714Y-119879907D01*
X185532142Y-119687050D01*
X185532142Y-119532764D01*
X185570714Y-119339907D01*
X185609285Y-119224192D01*
X185647857Y-119147050D01*
X185725000Y-119031335D01*
X185763571Y-118992764D01*
X186419285Y-119918478D02*
X186419285Y-119108478D01*
X186419285Y-119879907D02*
X186342142Y-119918478D01*
X186187857Y-119918478D01*
X186110714Y-119879907D01*
X186072142Y-119841335D01*
X186033571Y-119764192D01*
X186033571Y-119532764D01*
X186072142Y-119455621D01*
X186110714Y-119417050D01*
X186187857Y-119378478D01*
X186342142Y-119378478D01*
X186419285Y-119417050D01*
X186805000Y-119918478D02*
X186805000Y-119378478D01*
X186805000Y-119532764D02*
X186843571Y-119455621D01*
X186882142Y-119417050D01*
X186959285Y-119378478D01*
X187036428Y-119378478D01*
X187653571Y-119918478D02*
X187653571Y-119494192D01*
X187615000Y-119417050D01*
X187537857Y-119378478D01*
X187383571Y-119378478D01*
X187306428Y-119417050D01*
X187653571Y-119879907D02*
X187576428Y-119918478D01*
X187383571Y-119918478D01*
X187306428Y-119879907D01*
X187267857Y-119802764D01*
X187267857Y-119725621D01*
X187306428Y-119648478D01*
X187383571Y-119609907D01*
X187576428Y-119609907D01*
X187653571Y-119571335D01*
X187923571Y-119378478D02*
X188232142Y-119378478D01*
X188039285Y-119918478D02*
X188039285Y-119224192D01*
X188077857Y-119147050D01*
X188155000Y-119108478D01*
X188232142Y-119108478D01*
X188386428Y-119378478D02*
X188695000Y-119378478D01*
X188502142Y-119108478D02*
X188502142Y-119802764D01*
X188540714Y-119879907D01*
X188617857Y-119918478D01*
X188695000Y-119918478D01*
X188887857Y-120227050D02*
X188926428Y-120188478D01*
X189003571Y-120072764D01*
X189042142Y-119995621D01*
X189080714Y-119879907D01*
X189119285Y-119687050D01*
X189119285Y-119532764D01*
X189080714Y-119339907D01*
X189042142Y-119224192D01*
X189003571Y-119147050D01*
X188926428Y-119031335D01*
X188887857Y-118992764D01*
%TO.C,Y1*%
X180889285Y-100530714D02*
X180889285Y-100916428D01*
X180619285Y-100106428D02*
X180889285Y-100530714D01*
X181159285Y-100106428D01*
X181853571Y-100916428D02*
X181390714Y-100916428D01*
X181622142Y-100916428D02*
X181622142Y-100106428D01*
X181545000Y-100222142D01*
X181467857Y-100299285D01*
X181390714Y-100337857D01*
%TO.C,D1*%
X207886355Y-96681852D02*
X207313598Y-96109096D01*
X207449969Y-95972725D01*
X207559065Y-95918177D01*
X207668162Y-95918177D01*
X207749984Y-95945451D01*
X207886355Y-96027274D01*
X207968177Y-96109096D01*
X208050000Y-96245467D01*
X208077274Y-96327289D01*
X208077274Y-96436385D01*
X208022725Y-96545482D01*
X207886355Y-96681852D01*
X208759127Y-95809081D02*
X208431837Y-96136370D01*
X208595482Y-95972725D02*
X208022725Y-95399969D01*
X208050000Y-95536339D01*
X208050000Y-95645436D01*
X208022725Y-95727258D01*
%TO.C,D2*%
X204686355Y-93781852D02*
X204113598Y-93209096D01*
X204249969Y-93072725D01*
X204359065Y-93018177D01*
X204468162Y-93018177D01*
X204549984Y-93045451D01*
X204686355Y-93127274D01*
X204768177Y-93209096D01*
X204850000Y-93345467D01*
X204877274Y-93427289D01*
X204877274Y-93536385D01*
X204822725Y-93645482D01*
X204686355Y-93781852D01*
X204713629Y-92718162D02*
X204713629Y-92663614D01*
X204740903Y-92581791D01*
X204877274Y-92445421D01*
X204959096Y-92418147D01*
X205013644Y-92418147D01*
X205095467Y-92445421D01*
X205150015Y-92499969D01*
X205204563Y-92609065D01*
X205204563Y-93263644D01*
X205559127Y-92909081D01*
%TO.C,D3*%
X199461355Y-88527734D02*
X198888598Y-87954978D01*
X199024969Y-87818607D01*
X199134065Y-87764059D01*
X199243162Y-87764059D01*
X199324984Y-87791333D01*
X199461355Y-87873156D01*
X199543177Y-87954978D01*
X199625000Y-88091349D01*
X199652274Y-88173171D01*
X199652274Y-88282267D01*
X199597725Y-88391364D01*
X199461355Y-88527734D01*
X199406807Y-87436770D02*
X199761370Y-87082206D01*
X199788644Y-87491318D01*
X199870467Y-87409496D01*
X199952289Y-87382221D01*
X200006837Y-87382221D01*
X200088660Y-87409496D01*
X200225030Y-87545866D01*
X200252304Y-87627689D01*
X200252304Y-87682237D01*
X200225030Y-87764059D01*
X200061385Y-87927704D01*
X199979563Y-87954978D01*
X199925015Y-87954978D01*
%TO.C,R4*%
X207116428Y-100510000D02*
X206730714Y-100780000D01*
X207116428Y-100972857D02*
X206306428Y-100972857D01*
X206306428Y-100664285D01*
X206345000Y-100587142D01*
X206383571Y-100548571D01*
X206460714Y-100510000D01*
X206576428Y-100510000D01*
X206653571Y-100548571D01*
X206692142Y-100587142D01*
X206730714Y-100664285D01*
X206730714Y-100972857D01*
X206576428Y-99815714D02*
X207116428Y-99815714D01*
X206267857Y-100008571D02*
X206846428Y-100201428D01*
X206846428Y-99700000D01*
%TO.C,R11*%
X193329285Y-113341428D02*
X193059285Y-112955714D01*
X192866428Y-113341428D02*
X192866428Y-112531428D01*
X193175000Y-112531428D01*
X193252142Y-112570000D01*
X193290714Y-112608571D01*
X193329285Y-112685714D01*
X193329285Y-112801428D01*
X193290714Y-112878571D01*
X193252142Y-112917142D01*
X193175000Y-112955714D01*
X192866428Y-112955714D01*
X194100714Y-113341428D02*
X193637857Y-113341428D01*
X193869285Y-113341428D02*
X193869285Y-112531428D01*
X193792142Y-112647142D01*
X193715000Y-112724285D01*
X193637857Y-112762857D01*
X194872142Y-113341428D02*
X194409285Y-113341428D01*
X194640714Y-113341428D02*
X194640714Y-112531428D01*
X194563571Y-112647142D01*
X194486428Y-112724285D01*
X194409285Y-112762857D01*
%TO.C,R13*%
X188404285Y-114766428D02*
X188134285Y-114380714D01*
X187941428Y-114766428D02*
X187941428Y-113956428D01*
X188250000Y-113956428D01*
X188327142Y-113995000D01*
X188365714Y-114033571D01*
X188404285Y-114110714D01*
X188404285Y-114226428D01*
X188365714Y-114303571D01*
X188327142Y-114342142D01*
X188250000Y-114380714D01*
X187941428Y-114380714D01*
X189175714Y-114766428D02*
X188712857Y-114766428D01*
X188944285Y-114766428D02*
X188944285Y-113956428D01*
X188867142Y-114072142D01*
X188790000Y-114149285D01*
X188712857Y-114187857D01*
X189445714Y-113956428D02*
X189947142Y-113956428D01*
X189677142Y-114265000D01*
X189792857Y-114265000D01*
X189870000Y-114303571D01*
X189908571Y-114342142D01*
X189947142Y-114419285D01*
X189947142Y-114612142D01*
X189908571Y-114689285D01*
X189870000Y-114727857D01*
X189792857Y-114766428D01*
X189561428Y-114766428D01*
X189484285Y-114727857D01*
X189445714Y-114689285D01*
%TO.C,R12*%
X197596428Y-111370714D02*
X197210714Y-111640714D01*
X197596428Y-111833571D02*
X196786428Y-111833571D01*
X196786428Y-111525000D01*
X196825000Y-111447857D01*
X196863571Y-111409285D01*
X196940714Y-111370714D01*
X197056428Y-111370714D01*
X197133571Y-111409285D01*
X197172142Y-111447857D01*
X197210714Y-111525000D01*
X197210714Y-111833571D01*
X197596428Y-110599285D02*
X197596428Y-111062142D01*
X197596428Y-110830714D02*
X196786428Y-110830714D01*
X196902142Y-110907857D01*
X196979285Y-110985000D01*
X197017857Y-111062142D01*
X196863571Y-110290714D02*
X196825000Y-110252142D01*
X196786428Y-110175000D01*
X196786428Y-109982142D01*
X196825000Y-109905000D01*
X196863571Y-109866428D01*
X196940714Y-109827857D01*
X197017857Y-109827857D01*
X197133571Y-109866428D01*
X197596428Y-110329285D01*
X197596428Y-109827857D01*
%TO.C,R14*%
X176266428Y-104195714D02*
X175880714Y-104465714D01*
X176266428Y-104658571D02*
X175456428Y-104658571D01*
X175456428Y-104350000D01*
X175495000Y-104272857D01*
X175533571Y-104234285D01*
X175610714Y-104195714D01*
X175726428Y-104195714D01*
X175803571Y-104234285D01*
X175842142Y-104272857D01*
X175880714Y-104350000D01*
X175880714Y-104658571D01*
X176266428Y-103424285D02*
X176266428Y-103887142D01*
X176266428Y-103655714D02*
X175456428Y-103655714D01*
X175572142Y-103732857D01*
X175649285Y-103810000D01*
X175687857Y-103887142D01*
X175726428Y-102730000D02*
X176266428Y-102730000D01*
X175417857Y-102922857D02*
X175996428Y-103115714D01*
X175996428Y-102614285D01*
%TO.C,R19*%
X198046880Y-89866123D02*
X197583220Y-89784301D01*
X197719591Y-90193413D02*
X197146834Y-89620656D01*
X197365027Y-89402463D01*
X197446849Y-89375189D01*
X197501398Y-89375189D01*
X197583220Y-89402463D01*
X197665042Y-89484286D01*
X197692316Y-89566108D01*
X197692316Y-89620656D01*
X197665042Y-89702479D01*
X197446849Y-89920671D01*
X198592362Y-89320641D02*
X198265073Y-89647930D01*
X198428718Y-89484286D02*
X197855961Y-88911529D01*
X197883235Y-89047900D01*
X197883235Y-89156996D01*
X197855961Y-89238819D01*
X198865104Y-89047900D02*
X198974200Y-88938803D01*
X199001474Y-88856981D01*
X199001474Y-88802433D01*
X198974200Y-88666062D01*
X198892378Y-88529691D01*
X198674185Y-88311498D01*
X198592362Y-88284224D01*
X198537814Y-88284224D01*
X198455992Y-88311498D01*
X198346895Y-88420595D01*
X198319621Y-88502417D01*
X198319621Y-88556966D01*
X198346895Y-88638788D01*
X198483266Y-88775158D01*
X198565088Y-88802433D01*
X198619637Y-88802433D01*
X198701459Y-88775158D01*
X198810555Y-88666062D01*
X198837829Y-88584240D01*
X198837829Y-88529691D01*
X198810555Y-88447869D01*
%TO.C,R5*%
X187090000Y-87691428D02*
X186820000Y-87305714D01*
X186627142Y-87691428D02*
X186627142Y-86881428D01*
X186935714Y-86881428D01*
X187012857Y-86920000D01*
X187051428Y-86958571D01*
X187090000Y-87035714D01*
X187090000Y-87151428D01*
X187051428Y-87228571D01*
X187012857Y-87267142D01*
X186935714Y-87305714D01*
X186627142Y-87305714D01*
X187822857Y-86881428D02*
X187437142Y-86881428D01*
X187398571Y-87267142D01*
X187437142Y-87228571D01*
X187514285Y-87190000D01*
X187707142Y-87190000D01*
X187784285Y-87228571D01*
X187822857Y-87267142D01*
X187861428Y-87344285D01*
X187861428Y-87537142D01*
X187822857Y-87614285D01*
X187784285Y-87652857D01*
X187707142Y-87691428D01*
X187514285Y-87691428D01*
X187437142Y-87652857D01*
X187398571Y-87614285D01*
%TO.C,R6*%
X175566428Y-87860000D02*
X175180714Y-88130000D01*
X175566428Y-88322857D02*
X174756428Y-88322857D01*
X174756428Y-88014285D01*
X174795000Y-87937142D01*
X174833571Y-87898571D01*
X174910714Y-87860000D01*
X175026428Y-87860000D01*
X175103571Y-87898571D01*
X175142142Y-87937142D01*
X175180714Y-88014285D01*
X175180714Y-88322857D01*
X174756428Y-87165714D02*
X174756428Y-87320000D01*
X174795000Y-87397142D01*
X174833571Y-87435714D01*
X174949285Y-87512857D01*
X175103571Y-87551428D01*
X175412142Y-87551428D01*
X175489285Y-87512857D01*
X175527857Y-87474285D01*
X175566428Y-87397142D01*
X175566428Y-87242857D01*
X175527857Y-87165714D01*
X175489285Y-87127142D01*
X175412142Y-87088571D01*
X175219285Y-87088571D01*
X175142142Y-87127142D01*
X175103571Y-87165714D01*
X175065000Y-87242857D01*
X175065000Y-87397142D01*
X175103571Y-87474285D01*
X175142142Y-87512857D01*
X175219285Y-87551428D01*
%TO.C,R17*%
X206415903Y-98152304D02*
X205952243Y-98070482D01*
X206088614Y-98479594D02*
X205515857Y-97906837D01*
X205734050Y-97688644D01*
X205815872Y-97661370D01*
X205870421Y-97661370D01*
X205952243Y-97688644D01*
X206034065Y-97770467D01*
X206061339Y-97852289D01*
X206061339Y-97906837D01*
X206034065Y-97988660D01*
X205815872Y-98206852D01*
X206961385Y-97606822D02*
X206634096Y-97934111D01*
X206797741Y-97770467D02*
X206224984Y-97197710D01*
X206252258Y-97334081D01*
X206252258Y-97443177D01*
X206224984Y-97525000D01*
X206579548Y-96843147D02*
X206961385Y-96461309D01*
X207288675Y-97279532D01*
%TO.C,R3*%
X191415000Y-116241428D02*
X191145000Y-115855714D01*
X190952142Y-116241428D02*
X190952142Y-115431428D01*
X191260714Y-115431428D01*
X191337857Y-115470000D01*
X191376428Y-115508571D01*
X191415000Y-115585714D01*
X191415000Y-115701428D01*
X191376428Y-115778571D01*
X191337857Y-115817142D01*
X191260714Y-115855714D01*
X190952142Y-115855714D01*
X191685000Y-115431428D02*
X192186428Y-115431428D01*
X191916428Y-115740000D01*
X192032142Y-115740000D01*
X192109285Y-115778571D01*
X192147857Y-115817142D01*
X192186428Y-115894285D01*
X192186428Y-116087142D01*
X192147857Y-116164285D01*
X192109285Y-116202857D01*
X192032142Y-116241428D01*
X191800714Y-116241428D01*
X191723571Y-116202857D01*
X191685000Y-116164285D01*
%TO.C,R15*%
X184277380Y-102167857D02*
X183801190Y-102501190D01*
X184277380Y-102739285D02*
X183277380Y-102739285D01*
X183277380Y-102358333D01*
X183325000Y-102263095D01*
X183372619Y-102215476D01*
X183467857Y-102167857D01*
X183610714Y-102167857D01*
X183705952Y-102215476D01*
X183753571Y-102263095D01*
X183801190Y-102358333D01*
X183801190Y-102739285D01*
X184277380Y-101215476D02*
X184277380Y-101786904D01*
X184277380Y-101501190D02*
X183277380Y-101501190D01*
X183420238Y-101596428D01*
X183515476Y-101691666D01*
X183563095Y-101786904D01*
X183277380Y-100310714D02*
X183277380Y-100786904D01*
X183753571Y-100834523D01*
X183705952Y-100786904D01*
X183658333Y-100691666D01*
X183658333Y-100453571D01*
X183705952Y-100358333D01*
X183753571Y-100310714D01*
X183848809Y-100263095D01*
X184086904Y-100263095D01*
X184182142Y-100310714D01*
X184229761Y-100358333D01*
X184277380Y-100453571D01*
X184277380Y-100691666D01*
X184229761Y-100786904D01*
X184182142Y-100834523D01*
%TO.C,R7*%
X183791428Y-90160000D02*
X183405714Y-90430000D01*
X183791428Y-90622857D02*
X182981428Y-90622857D01*
X182981428Y-90314285D01*
X183020000Y-90237142D01*
X183058571Y-90198571D01*
X183135714Y-90160000D01*
X183251428Y-90160000D01*
X183328571Y-90198571D01*
X183367142Y-90237142D01*
X183405714Y-90314285D01*
X183405714Y-90622857D01*
X182981428Y-89890000D02*
X182981428Y-89350000D01*
X183791428Y-89697142D01*
%TO.C,FB2*%
X180717142Y-95375000D02*
X180717142Y-95645000D01*
X181141428Y-95645000D02*
X180331428Y-95645000D01*
X180331428Y-95259285D01*
X180717142Y-94680714D02*
X180755714Y-94565000D01*
X180794285Y-94526428D01*
X180871428Y-94487857D01*
X180987142Y-94487857D01*
X181064285Y-94526428D01*
X181102857Y-94565000D01*
X181141428Y-94642142D01*
X181141428Y-94950714D01*
X180331428Y-94950714D01*
X180331428Y-94680714D01*
X180370000Y-94603571D01*
X180408571Y-94565000D01*
X180485714Y-94526428D01*
X180562857Y-94526428D01*
X180640000Y-94565000D01*
X180678571Y-94603571D01*
X180717142Y-94680714D01*
X180717142Y-94950714D01*
X180408571Y-94179285D02*
X180370000Y-94140714D01*
X180331428Y-94063571D01*
X180331428Y-93870714D01*
X180370000Y-93793571D01*
X180408571Y-93755000D01*
X180485714Y-93716428D01*
X180562857Y-93716428D01*
X180678571Y-93755000D01*
X181141428Y-94217857D01*
X181141428Y-93716428D01*
%TO.C,FB4*%
X189725000Y-87292142D02*
X189455000Y-87292142D01*
X189455000Y-87716428D02*
X189455000Y-86906428D01*
X189840714Y-86906428D01*
X190419285Y-87292142D02*
X190535000Y-87330714D01*
X190573571Y-87369285D01*
X190612142Y-87446428D01*
X190612142Y-87562142D01*
X190573571Y-87639285D01*
X190535000Y-87677857D01*
X190457857Y-87716428D01*
X190149285Y-87716428D01*
X190149285Y-86906428D01*
X190419285Y-86906428D01*
X190496428Y-86945000D01*
X190535000Y-86983571D01*
X190573571Y-87060714D01*
X190573571Y-87137857D01*
X190535000Y-87215000D01*
X190496428Y-87253571D01*
X190419285Y-87292142D01*
X190149285Y-87292142D01*
X191306428Y-87176428D02*
X191306428Y-87716428D01*
X191113571Y-86867857D02*
X190920714Y-87446428D01*
X191422142Y-87446428D01*
%TO.C,R9*%
X194990000Y-109141428D02*
X194720000Y-108755714D01*
X194527142Y-109141428D02*
X194527142Y-108331428D01*
X194835714Y-108331428D01*
X194912857Y-108370000D01*
X194951428Y-108408571D01*
X194990000Y-108485714D01*
X194990000Y-108601428D01*
X194951428Y-108678571D01*
X194912857Y-108717142D01*
X194835714Y-108755714D01*
X194527142Y-108755714D01*
X195375714Y-109141428D02*
X195530000Y-109141428D01*
X195607142Y-109102857D01*
X195645714Y-109064285D01*
X195722857Y-108948571D01*
X195761428Y-108794285D01*
X195761428Y-108485714D01*
X195722857Y-108408571D01*
X195684285Y-108370000D01*
X195607142Y-108331428D01*
X195452857Y-108331428D01*
X195375714Y-108370000D01*
X195337142Y-108408571D01*
X195298571Y-108485714D01*
X195298571Y-108678571D01*
X195337142Y-108755714D01*
X195375714Y-108794285D01*
X195452857Y-108832857D01*
X195607142Y-108832857D01*
X195684285Y-108794285D01*
X195722857Y-108755714D01*
X195761428Y-108678571D01*
%TO.C,R8*%
X193340000Y-109166428D02*
X193070000Y-108780714D01*
X192877142Y-109166428D02*
X192877142Y-108356428D01*
X193185714Y-108356428D01*
X193262857Y-108395000D01*
X193301428Y-108433571D01*
X193340000Y-108510714D01*
X193340000Y-108626428D01*
X193301428Y-108703571D01*
X193262857Y-108742142D01*
X193185714Y-108780714D01*
X192877142Y-108780714D01*
X193802857Y-108703571D02*
X193725714Y-108665000D01*
X193687142Y-108626428D01*
X193648571Y-108549285D01*
X193648571Y-108510714D01*
X193687142Y-108433571D01*
X193725714Y-108395000D01*
X193802857Y-108356428D01*
X193957142Y-108356428D01*
X194034285Y-108395000D01*
X194072857Y-108433571D01*
X194111428Y-108510714D01*
X194111428Y-108549285D01*
X194072857Y-108626428D01*
X194034285Y-108665000D01*
X193957142Y-108703571D01*
X193802857Y-108703571D01*
X193725714Y-108742142D01*
X193687142Y-108780714D01*
X193648571Y-108857857D01*
X193648571Y-109012142D01*
X193687142Y-109089285D01*
X193725714Y-109127857D01*
X193802857Y-109166428D01*
X193957142Y-109166428D01*
X194034285Y-109127857D01*
X194072857Y-109089285D01*
X194111428Y-109012142D01*
X194111428Y-108857857D01*
X194072857Y-108780714D01*
X194034285Y-108742142D01*
X193957142Y-108703571D01*
%TO.C,R10*%
X184804285Y-113266428D02*
X184534285Y-112880714D01*
X184341428Y-113266428D02*
X184341428Y-112456428D01*
X184650000Y-112456428D01*
X184727142Y-112495000D01*
X184765714Y-112533571D01*
X184804285Y-112610714D01*
X184804285Y-112726428D01*
X184765714Y-112803571D01*
X184727142Y-112842142D01*
X184650000Y-112880714D01*
X184341428Y-112880714D01*
X185575714Y-113266428D02*
X185112857Y-113266428D01*
X185344285Y-113266428D02*
X185344285Y-112456428D01*
X185267142Y-112572142D01*
X185190000Y-112649285D01*
X185112857Y-112687857D01*
X186077142Y-112456428D02*
X186154285Y-112456428D01*
X186231428Y-112495000D01*
X186270000Y-112533571D01*
X186308571Y-112610714D01*
X186347142Y-112765000D01*
X186347142Y-112957857D01*
X186308571Y-113112142D01*
X186270000Y-113189285D01*
X186231428Y-113227857D01*
X186154285Y-113266428D01*
X186077142Y-113266428D01*
X186000000Y-113227857D01*
X185961428Y-113189285D01*
X185922857Y-113112142D01*
X185884285Y-112957857D01*
X185884285Y-112765000D01*
X185922857Y-112610714D01*
X185961428Y-112533571D01*
X186000000Y-112495000D01*
X186077142Y-112456428D01*
%TO.C,R2*%
X176316428Y-101685000D02*
X175930714Y-101955000D01*
X176316428Y-102147857D02*
X175506428Y-102147857D01*
X175506428Y-101839285D01*
X175545000Y-101762142D01*
X175583571Y-101723571D01*
X175660714Y-101685000D01*
X175776428Y-101685000D01*
X175853571Y-101723571D01*
X175892142Y-101762142D01*
X175930714Y-101839285D01*
X175930714Y-102147857D01*
X175583571Y-101376428D02*
X175545000Y-101337857D01*
X175506428Y-101260714D01*
X175506428Y-101067857D01*
X175545000Y-100990714D01*
X175583571Y-100952142D01*
X175660714Y-100913571D01*
X175737857Y-100913571D01*
X175853571Y-100952142D01*
X176316428Y-101415000D01*
X176316428Y-100913571D01*
%TO.C,R1*%
X180090000Y-92416428D02*
X179820000Y-92030714D01*
X179627142Y-92416428D02*
X179627142Y-91606428D01*
X179935714Y-91606428D01*
X180012857Y-91645000D01*
X180051428Y-91683571D01*
X180090000Y-91760714D01*
X180090000Y-91876428D01*
X180051428Y-91953571D01*
X180012857Y-91992142D01*
X179935714Y-92030714D01*
X179627142Y-92030714D01*
X180861428Y-92416428D02*
X180398571Y-92416428D01*
X180630000Y-92416428D02*
X180630000Y-91606428D01*
X180552857Y-91722142D01*
X180475714Y-91799285D01*
X180398571Y-91837857D01*
%TO.C,R18*%
X203215903Y-95077304D02*
X202752243Y-94995482D01*
X202888614Y-95404594D02*
X202315857Y-94831837D01*
X202534050Y-94613644D01*
X202615872Y-94586370D01*
X202670421Y-94586370D01*
X202752243Y-94613644D01*
X202834065Y-94695467D01*
X202861339Y-94777289D01*
X202861339Y-94831837D01*
X202834065Y-94913660D01*
X202615872Y-95131852D01*
X203761385Y-94531822D02*
X203434096Y-94859111D01*
X203597741Y-94695467D02*
X203024984Y-94122710D01*
X203052258Y-94259081D01*
X203052258Y-94368177D01*
X203024984Y-94450000D01*
X203761385Y-93877243D02*
X203679563Y-93904517D01*
X203625015Y-93904517D01*
X203543192Y-93877243D01*
X203515918Y-93849969D01*
X203488644Y-93768147D01*
X203488644Y-93713598D01*
X203515918Y-93631776D01*
X203625015Y-93522679D01*
X203706837Y-93495405D01*
X203761385Y-93495405D01*
X203843208Y-93522679D01*
X203870482Y-93549954D01*
X203897756Y-93631776D01*
X203897756Y-93686324D01*
X203870482Y-93768147D01*
X203761385Y-93877243D01*
X203734111Y-93959065D01*
X203734111Y-94013614D01*
X203761385Y-94095436D01*
X203870482Y-94204532D01*
X203952304Y-94231807D01*
X204006852Y-94231807D01*
X204088675Y-94204532D01*
X204197771Y-94095436D01*
X204225045Y-94013614D01*
X204225045Y-93959065D01*
X204197771Y-93877243D01*
X204088675Y-93768147D01*
X204006852Y-93740872D01*
X203952304Y-93740872D01*
X203870482Y-93768147D01*
%TO.C,C18*%
X193579285Y-87614285D02*
X193540714Y-87652857D01*
X193425000Y-87691428D01*
X193347857Y-87691428D01*
X193232142Y-87652857D01*
X193155000Y-87575714D01*
X193116428Y-87498571D01*
X193077857Y-87344285D01*
X193077857Y-87228571D01*
X193116428Y-87074285D01*
X193155000Y-86997142D01*
X193232142Y-86920000D01*
X193347857Y-86881428D01*
X193425000Y-86881428D01*
X193540714Y-86920000D01*
X193579285Y-86958571D01*
X194350714Y-87691428D02*
X193887857Y-87691428D01*
X194119285Y-87691428D02*
X194119285Y-86881428D01*
X194042142Y-86997142D01*
X193965000Y-87074285D01*
X193887857Y-87112857D01*
X194813571Y-87228571D02*
X194736428Y-87190000D01*
X194697857Y-87151428D01*
X194659285Y-87074285D01*
X194659285Y-87035714D01*
X194697857Y-86958571D01*
X194736428Y-86920000D01*
X194813571Y-86881428D01*
X194967857Y-86881428D01*
X195045000Y-86920000D01*
X195083571Y-86958571D01*
X195122142Y-87035714D01*
X195122142Y-87074285D01*
X195083571Y-87151428D01*
X195045000Y-87190000D01*
X194967857Y-87228571D01*
X194813571Y-87228571D01*
X194736428Y-87267142D01*
X194697857Y-87305714D01*
X194659285Y-87382857D01*
X194659285Y-87537142D01*
X194697857Y-87614285D01*
X194736428Y-87652857D01*
X194813571Y-87691428D01*
X194967857Y-87691428D01*
X195045000Y-87652857D01*
X195083571Y-87614285D01*
X195122142Y-87537142D01*
X195122142Y-87382857D01*
X195083571Y-87305714D01*
X195045000Y-87267142D01*
X194967857Y-87228571D01*
%TO.C,C4*%
X200539285Y-98085000D02*
X200577857Y-98123571D01*
X200616428Y-98239285D01*
X200616428Y-98316428D01*
X200577857Y-98432142D01*
X200500714Y-98509285D01*
X200423571Y-98547857D01*
X200269285Y-98586428D01*
X200153571Y-98586428D01*
X199999285Y-98547857D01*
X199922142Y-98509285D01*
X199845000Y-98432142D01*
X199806428Y-98316428D01*
X199806428Y-98239285D01*
X199845000Y-98123571D01*
X199883571Y-98085000D01*
X200076428Y-97390714D02*
X200616428Y-97390714D01*
X199767857Y-97583571D02*
X200346428Y-97776428D01*
X200346428Y-97275000D01*
%TO.C,C8*%
X182014285Y-89535000D02*
X182052857Y-89573571D01*
X182091428Y-89689285D01*
X182091428Y-89766428D01*
X182052857Y-89882142D01*
X181975714Y-89959285D01*
X181898571Y-89997857D01*
X181744285Y-90036428D01*
X181628571Y-90036428D01*
X181474285Y-89997857D01*
X181397142Y-89959285D01*
X181320000Y-89882142D01*
X181281428Y-89766428D01*
X181281428Y-89689285D01*
X181320000Y-89573571D01*
X181358571Y-89535000D01*
X181628571Y-89072142D02*
X181590000Y-89149285D01*
X181551428Y-89187857D01*
X181474285Y-89226428D01*
X181435714Y-89226428D01*
X181358571Y-89187857D01*
X181320000Y-89149285D01*
X181281428Y-89072142D01*
X181281428Y-88917857D01*
X181320000Y-88840714D01*
X181358571Y-88802142D01*
X181435714Y-88763571D01*
X181474285Y-88763571D01*
X181551428Y-88802142D01*
X181590000Y-88840714D01*
X181628571Y-88917857D01*
X181628571Y-89072142D01*
X181667142Y-89149285D01*
X181705714Y-89187857D01*
X181782857Y-89226428D01*
X181937142Y-89226428D01*
X182014285Y-89187857D01*
X182052857Y-89149285D01*
X182091428Y-89072142D01*
X182091428Y-88917857D01*
X182052857Y-88840714D01*
X182014285Y-88802142D01*
X181937142Y-88763571D01*
X181782857Y-88763571D01*
X181705714Y-88802142D01*
X181667142Y-88840714D01*
X181628571Y-88917857D01*
%TO.C,C20*%
X195904285Y-95059285D02*
X195865714Y-95097857D01*
X195750000Y-95136428D01*
X195672857Y-95136428D01*
X195557142Y-95097857D01*
X195480000Y-95020714D01*
X195441428Y-94943571D01*
X195402857Y-94789285D01*
X195402857Y-94673571D01*
X195441428Y-94519285D01*
X195480000Y-94442142D01*
X195557142Y-94365000D01*
X195672857Y-94326428D01*
X195750000Y-94326428D01*
X195865714Y-94365000D01*
X195904285Y-94403571D01*
X196212857Y-94403571D02*
X196251428Y-94365000D01*
X196328571Y-94326428D01*
X196521428Y-94326428D01*
X196598571Y-94365000D01*
X196637142Y-94403571D01*
X196675714Y-94480714D01*
X196675714Y-94557857D01*
X196637142Y-94673571D01*
X196174285Y-95136428D01*
X196675714Y-95136428D01*
X197177142Y-94326428D02*
X197254285Y-94326428D01*
X197331428Y-94365000D01*
X197370000Y-94403571D01*
X197408571Y-94480714D01*
X197447142Y-94635000D01*
X197447142Y-94827857D01*
X197408571Y-94982142D01*
X197370000Y-95059285D01*
X197331428Y-95097857D01*
X197254285Y-95136428D01*
X197177142Y-95136428D01*
X197100000Y-95097857D01*
X197061428Y-95059285D01*
X197022857Y-94982142D01*
X196984285Y-94827857D01*
X196984285Y-94635000D01*
X197022857Y-94480714D01*
X197061428Y-94403571D01*
X197100000Y-94365000D01*
X197177142Y-94326428D01*
%TO.C,C15*%
X187739285Y-116545714D02*
X187777857Y-116584285D01*
X187816428Y-116700000D01*
X187816428Y-116777142D01*
X187777857Y-116892857D01*
X187700714Y-116970000D01*
X187623571Y-117008571D01*
X187469285Y-117047142D01*
X187353571Y-117047142D01*
X187199285Y-117008571D01*
X187122142Y-116970000D01*
X187045000Y-116892857D01*
X187006428Y-116777142D01*
X187006428Y-116700000D01*
X187045000Y-116584285D01*
X187083571Y-116545714D01*
X187816428Y-115774285D02*
X187816428Y-116237142D01*
X187816428Y-116005714D02*
X187006428Y-116005714D01*
X187122142Y-116082857D01*
X187199285Y-116160000D01*
X187237857Y-116237142D01*
X187006428Y-115041428D02*
X187006428Y-115427142D01*
X187392142Y-115465714D01*
X187353571Y-115427142D01*
X187315000Y-115350000D01*
X187315000Y-115157142D01*
X187353571Y-115080000D01*
X187392142Y-115041428D01*
X187469285Y-115002857D01*
X187662142Y-115002857D01*
X187739285Y-115041428D01*
X187777857Y-115080000D01*
X187816428Y-115157142D01*
X187816428Y-115350000D01*
X187777857Y-115427142D01*
X187739285Y-115465714D01*
%TO.C,C14*%
X180329285Y-116514285D02*
X180290714Y-116552857D01*
X180175000Y-116591428D01*
X180097857Y-116591428D01*
X179982142Y-116552857D01*
X179905000Y-116475714D01*
X179866428Y-116398571D01*
X179827857Y-116244285D01*
X179827857Y-116128571D01*
X179866428Y-115974285D01*
X179905000Y-115897142D01*
X179982142Y-115820000D01*
X180097857Y-115781428D01*
X180175000Y-115781428D01*
X180290714Y-115820000D01*
X180329285Y-115858571D01*
X181100714Y-116591428D02*
X180637857Y-116591428D01*
X180869285Y-116591428D02*
X180869285Y-115781428D01*
X180792142Y-115897142D01*
X180715000Y-115974285D01*
X180637857Y-116012857D01*
X181795000Y-116051428D02*
X181795000Y-116591428D01*
X181602142Y-115742857D02*
X181409285Y-116321428D01*
X181910714Y-116321428D01*
%TO.C,C26*%
X181264285Y-106220714D02*
X181302857Y-106259285D01*
X181341428Y-106375000D01*
X181341428Y-106452142D01*
X181302857Y-106567857D01*
X181225714Y-106645000D01*
X181148571Y-106683571D01*
X180994285Y-106722142D01*
X180878571Y-106722142D01*
X180724285Y-106683571D01*
X180647142Y-106645000D01*
X180570000Y-106567857D01*
X180531428Y-106452142D01*
X180531428Y-106375000D01*
X180570000Y-106259285D01*
X180608571Y-106220714D01*
X180608571Y-105912142D02*
X180570000Y-105873571D01*
X180531428Y-105796428D01*
X180531428Y-105603571D01*
X180570000Y-105526428D01*
X180608571Y-105487857D01*
X180685714Y-105449285D01*
X180762857Y-105449285D01*
X180878571Y-105487857D01*
X181341428Y-105950714D01*
X181341428Y-105449285D01*
X180531428Y-104755000D02*
X180531428Y-104909285D01*
X180570000Y-104986428D01*
X180608571Y-105025000D01*
X180724285Y-105102142D01*
X180878571Y-105140714D01*
X181187142Y-105140714D01*
X181264285Y-105102142D01*
X181302857Y-105063571D01*
X181341428Y-104986428D01*
X181341428Y-104832142D01*
X181302857Y-104755000D01*
X181264285Y-104716428D01*
X181187142Y-104677857D01*
X180994285Y-104677857D01*
X180917142Y-104716428D01*
X180878571Y-104755000D01*
X180840000Y-104832142D01*
X180840000Y-104986428D01*
X180878571Y-105063571D01*
X180917142Y-105102142D01*
X180994285Y-105140714D01*
%TO.C,C3*%
X184889285Y-96685000D02*
X184927857Y-96723571D01*
X184966428Y-96839285D01*
X184966428Y-96916428D01*
X184927857Y-97032142D01*
X184850714Y-97109285D01*
X184773571Y-97147857D01*
X184619285Y-97186428D01*
X184503571Y-97186428D01*
X184349285Y-97147857D01*
X184272142Y-97109285D01*
X184195000Y-97032142D01*
X184156428Y-96916428D01*
X184156428Y-96839285D01*
X184195000Y-96723571D01*
X184233571Y-96685000D01*
X184156428Y-96415000D02*
X184156428Y-95913571D01*
X184465000Y-96183571D01*
X184465000Y-96067857D01*
X184503571Y-95990714D01*
X184542142Y-95952142D01*
X184619285Y-95913571D01*
X184812142Y-95913571D01*
X184889285Y-95952142D01*
X184927857Y-95990714D01*
X184966428Y-96067857D01*
X184966428Y-96299285D01*
X184927857Y-96376428D01*
X184889285Y-96415000D01*
%TO.C,C1*%
X177940000Y-106789285D02*
X177901428Y-106827857D01*
X177785714Y-106866428D01*
X177708571Y-106866428D01*
X177592857Y-106827857D01*
X177515714Y-106750714D01*
X177477142Y-106673571D01*
X177438571Y-106519285D01*
X177438571Y-106403571D01*
X177477142Y-106249285D01*
X177515714Y-106172142D01*
X177592857Y-106095000D01*
X177708571Y-106056428D01*
X177785714Y-106056428D01*
X177901428Y-106095000D01*
X177940000Y-106133571D01*
X178711428Y-106866428D02*
X178248571Y-106866428D01*
X178480000Y-106866428D02*
X178480000Y-106056428D01*
X178402857Y-106172142D01*
X178325714Y-106249285D01*
X178248571Y-106287857D01*
%TO.C,C9*%
X196464285Y-90085000D02*
X196502857Y-90123571D01*
X196541428Y-90239285D01*
X196541428Y-90316428D01*
X196502857Y-90432142D01*
X196425714Y-90509285D01*
X196348571Y-90547857D01*
X196194285Y-90586428D01*
X196078571Y-90586428D01*
X195924285Y-90547857D01*
X195847142Y-90509285D01*
X195770000Y-90432142D01*
X195731428Y-90316428D01*
X195731428Y-90239285D01*
X195770000Y-90123571D01*
X195808571Y-90085000D01*
X196541428Y-89699285D02*
X196541428Y-89545000D01*
X196502857Y-89467857D01*
X196464285Y-89429285D01*
X196348571Y-89352142D01*
X196194285Y-89313571D01*
X195885714Y-89313571D01*
X195808571Y-89352142D01*
X195770000Y-89390714D01*
X195731428Y-89467857D01*
X195731428Y-89622142D01*
X195770000Y-89699285D01*
X195808571Y-89737857D01*
X195885714Y-89776428D01*
X196078571Y-89776428D01*
X196155714Y-89737857D01*
X196194285Y-89699285D01*
X196232857Y-89622142D01*
X196232857Y-89467857D01*
X196194285Y-89390714D01*
X196155714Y-89352142D01*
X196078571Y-89313571D01*
%TO.C,C23*%
X180714285Y-111595714D02*
X180752857Y-111634285D01*
X180791428Y-111750000D01*
X180791428Y-111827142D01*
X180752857Y-111942857D01*
X180675714Y-112020000D01*
X180598571Y-112058571D01*
X180444285Y-112097142D01*
X180328571Y-112097142D01*
X180174285Y-112058571D01*
X180097142Y-112020000D01*
X180020000Y-111942857D01*
X179981428Y-111827142D01*
X179981428Y-111750000D01*
X180020000Y-111634285D01*
X180058571Y-111595714D01*
X180058571Y-111287142D02*
X180020000Y-111248571D01*
X179981428Y-111171428D01*
X179981428Y-110978571D01*
X180020000Y-110901428D01*
X180058571Y-110862857D01*
X180135714Y-110824285D01*
X180212857Y-110824285D01*
X180328571Y-110862857D01*
X180791428Y-111325714D01*
X180791428Y-110824285D01*
X179981428Y-110554285D02*
X179981428Y-110052857D01*
X180290000Y-110322857D01*
X180290000Y-110207142D01*
X180328571Y-110130000D01*
X180367142Y-110091428D01*
X180444285Y-110052857D01*
X180637142Y-110052857D01*
X180714285Y-110091428D01*
X180752857Y-110130000D01*
X180791428Y-110207142D01*
X180791428Y-110438571D01*
X180752857Y-110515714D01*
X180714285Y-110554285D01*
%TO.C,C13*%
X190354285Y-91839285D02*
X190315714Y-91877857D01*
X190200000Y-91916428D01*
X190122857Y-91916428D01*
X190007142Y-91877857D01*
X189930000Y-91800714D01*
X189891428Y-91723571D01*
X189852857Y-91569285D01*
X189852857Y-91453571D01*
X189891428Y-91299285D01*
X189930000Y-91222142D01*
X190007142Y-91145000D01*
X190122857Y-91106428D01*
X190200000Y-91106428D01*
X190315714Y-91145000D01*
X190354285Y-91183571D01*
X191125714Y-91916428D02*
X190662857Y-91916428D01*
X190894285Y-91916428D02*
X190894285Y-91106428D01*
X190817142Y-91222142D01*
X190740000Y-91299285D01*
X190662857Y-91337857D01*
X191395714Y-91106428D02*
X191897142Y-91106428D01*
X191627142Y-91415000D01*
X191742857Y-91415000D01*
X191820000Y-91453571D01*
X191858571Y-91492142D01*
X191897142Y-91569285D01*
X191897142Y-91762142D01*
X191858571Y-91839285D01*
X191820000Y-91877857D01*
X191742857Y-91916428D01*
X191511428Y-91916428D01*
X191434285Y-91877857D01*
X191395714Y-91839285D01*
%TO.C,C10*%
X176939285Y-94695714D02*
X176977857Y-94734285D01*
X177016428Y-94850000D01*
X177016428Y-94927142D01*
X176977857Y-95042857D01*
X176900714Y-95120000D01*
X176823571Y-95158571D01*
X176669285Y-95197142D01*
X176553571Y-95197142D01*
X176399285Y-95158571D01*
X176322142Y-95120000D01*
X176245000Y-95042857D01*
X176206428Y-94927142D01*
X176206428Y-94850000D01*
X176245000Y-94734285D01*
X176283571Y-94695714D01*
X177016428Y-93924285D02*
X177016428Y-94387142D01*
X177016428Y-94155714D02*
X176206428Y-94155714D01*
X176322142Y-94232857D01*
X176399285Y-94310000D01*
X176437857Y-94387142D01*
X176206428Y-93422857D02*
X176206428Y-93345714D01*
X176245000Y-93268571D01*
X176283571Y-93230000D01*
X176360714Y-93191428D01*
X176515000Y-93152857D01*
X176707857Y-93152857D01*
X176862142Y-93191428D01*
X176939285Y-93230000D01*
X176977857Y-93268571D01*
X177016428Y-93345714D01*
X177016428Y-93422857D01*
X176977857Y-93500000D01*
X176939285Y-93538571D01*
X176862142Y-93577142D01*
X176707857Y-93615714D01*
X176515000Y-93615714D01*
X176360714Y-93577142D01*
X176283571Y-93538571D01*
X176245000Y-93500000D01*
X176206428Y-93422857D01*
%TO.C,C24*%
X195682142Y-99607142D02*
X195634523Y-99654761D01*
X195491666Y-99702380D01*
X195396428Y-99702380D01*
X195253571Y-99654761D01*
X195158333Y-99559523D01*
X195110714Y-99464285D01*
X195063095Y-99273809D01*
X195063095Y-99130952D01*
X195110714Y-98940476D01*
X195158333Y-98845238D01*
X195253571Y-98750000D01*
X195396428Y-98702380D01*
X195491666Y-98702380D01*
X195634523Y-98750000D01*
X195682142Y-98797619D01*
X196063095Y-98797619D02*
X196110714Y-98750000D01*
X196205952Y-98702380D01*
X196444047Y-98702380D01*
X196539285Y-98750000D01*
X196586904Y-98797619D01*
X196634523Y-98892857D01*
X196634523Y-98988095D01*
X196586904Y-99130952D01*
X196015476Y-99702380D01*
X196634523Y-99702380D01*
X197491666Y-99035714D02*
X197491666Y-99702380D01*
X197253571Y-98654761D02*
X197015476Y-99369047D01*
X197634523Y-99369047D01*
%TO.C,C22*%
X194582142Y-100367857D02*
X194629761Y-100415476D01*
X194677380Y-100558333D01*
X194677380Y-100653571D01*
X194629761Y-100796428D01*
X194534523Y-100891666D01*
X194439285Y-100939285D01*
X194248809Y-100986904D01*
X194105952Y-100986904D01*
X193915476Y-100939285D01*
X193820238Y-100891666D01*
X193725000Y-100796428D01*
X193677380Y-100653571D01*
X193677380Y-100558333D01*
X193725000Y-100415476D01*
X193772619Y-100367857D01*
X193772619Y-99986904D02*
X193725000Y-99939285D01*
X193677380Y-99844047D01*
X193677380Y-99605952D01*
X193725000Y-99510714D01*
X193772619Y-99463095D01*
X193867857Y-99415476D01*
X193963095Y-99415476D01*
X194105952Y-99463095D01*
X194677380Y-100034523D01*
X194677380Y-99415476D01*
X193772619Y-99034523D02*
X193725000Y-98986904D01*
X193677380Y-98891666D01*
X193677380Y-98653571D01*
X193725000Y-98558333D01*
X193772619Y-98510714D01*
X193867857Y-98463095D01*
X193963095Y-98463095D01*
X194105952Y-98510714D01*
X194677380Y-99082142D01*
X194677380Y-98463095D01*
%TO.C,C21*%
X182864285Y-106220714D02*
X182902857Y-106259285D01*
X182941428Y-106375000D01*
X182941428Y-106452142D01*
X182902857Y-106567857D01*
X182825714Y-106645000D01*
X182748571Y-106683571D01*
X182594285Y-106722142D01*
X182478571Y-106722142D01*
X182324285Y-106683571D01*
X182247142Y-106645000D01*
X182170000Y-106567857D01*
X182131428Y-106452142D01*
X182131428Y-106375000D01*
X182170000Y-106259285D01*
X182208571Y-106220714D01*
X182208571Y-105912142D02*
X182170000Y-105873571D01*
X182131428Y-105796428D01*
X182131428Y-105603571D01*
X182170000Y-105526428D01*
X182208571Y-105487857D01*
X182285714Y-105449285D01*
X182362857Y-105449285D01*
X182478571Y-105487857D01*
X182941428Y-105950714D01*
X182941428Y-105449285D01*
X182941428Y-104677857D02*
X182941428Y-105140714D01*
X182941428Y-104909285D02*
X182131428Y-104909285D01*
X182247142Y-104986428D01*
X182324285Y-105063571D01*
X182362857Y-105140714D01*
%TO.C,C17*%
X206162142Y-111292857D02*
X206209761Y-111340476D01*
X206257380Y-111483333D01*
X206257380Y-111578571D01*
X206209761Y-111721428D01*
X206114523Y-111816666D01*
X206019285Y-111864285D01*
X205828809Y-111911904D01*
X205685952Y-111911904D01*
X205495476Y-111864285D01*
X205400238Y-111816666D01*
X205305000Y-111721428D01*
X205257380Y-111578571D01*
X205257380Y-111483333D01*
X205305000Y-111340476D01*
X205352619Y-111292857D01*
X206257380Y-110340476D02*
X206257380Y-110911904D01*
X206257380Y-110626190D02*
X205257380Y-110626190D01*
X205400238Y-110721428D01*
X205495476Y-110816666D01*
X205543095Y-110911904D01*
X205257380Y-110007142D02*
X205257380Y-109340476D01*
X206257380Y-109769047D01*
%TO.C,C7*%
X187040000Y-91919285D02*
X187001428Y-91957857D01*
X186885714Y-91996428D01*
X186808571Y-91996428D01*
X186692857Y-91957857D01*
X186615714Y-91880714D01*
X186577142Y-91803571D01*
X186538571Y-91649285D01*
X186538571Y-91533571D01*
X186577142Y-91379285D01*
X186615714Y-91302142D01*
X186692857Y-91225000D01*
X186808571Y-91186428D01*
X186885714Y-91186428D01*
X187001428Y-91225000D01*
X187040000Y-91263571D01*
X187310000Y-91186428D02*
X187850000Y-91186428D01*
X187502857Y-91996428D01*
%TO.C,C2*%
X175615000Y-100314285D02*
X175576428Y-100352857D01*
X175460714Y-100391428D01*
X175383571Y-100391428D01*
X175267857Y-100352857D01*
X175190714Y-100275714D01*
X175152142Y-100198571D01*
X175113571Y-100044285D01*
X175113571Y-99928571D01*
X175152142Y-99774285D01*
X175190714Y-99697142D01*
X175267857Y-99620000D01*
X175383571Y-99581428D01*
X175460714Y-99581428D01*
X175576428Y-99620000D01*
X175615000Y-99658571D01*
X175923571Y-99658571D02*
X175962142Y-99620000D01*
X176039285Y-99581428D01*
X176232142Y-99581428D01*
X176309285Y-99620000D01*
X176347857Y-99658571D01*
X176386428Y-99735714D01*
X176386428Y-99812857D01*
X176347857Y-99928571D01*
X175885000Y-100391428D01*
X176386428Y-100391428D01*
%TO.C,C12*%
X176014285Y-112295714D02*
X176052857Y-112334285D01*
X176091428Y-112450000D01*
X176091428Y-112527142D01*
X176052857Y-112642857D01*
X175975714Y-112720000D01*
X175898571Y-112758571D01*
X175744285Y-112797142D01*
X175628571Y-112797142D01*
X175474285Y-112758571D01*
X175397142Y-112720000D01*
X175320000Y-112642857D01*
X175281428Y-112527142D01*
X175281428Y-112450000D01*
X175320000Y-112334285D01*
X175358571Y-112295714D01*
X176091428Y-111524285D02*
X176091428Y-111987142D01*
X176091428Y-111755714D02*
X175281428Y-111755714D01*
X175397142Y-111832857D01*
X175474285Y-111910000D01*
X175512857Y-111987142D01*
X175358571Y-111215714D02*
X175320000Y-111177142D01*
X175281428Y-111100000D01*
X175281428Y-110907142D01*
X175320000Y-110830000D01*
X175358571Y-110791428D01*
X175435714Y-110752857D01*
X175512857Y-110752857D01*
X175628571Y-110791428D01*
X176091428Y-111254285D01*
X176091428Y-110752857D01*
%TO.C,C25*%
X180379285Y-114364285D02*
X180340714Y-114402857D01*
X180225000Y-114441428D01*
X180147857Y-114441428D01*
X180032142Y-114402857D01*
X179955000Y-114325714D01*
X179916428Y-114248571D01*
X179877857Y-114094285D01*
X179877857Y-113978571D01*
X179916428Y-113824285D01*
X179955000Y-113747142D01*
X180032142Y-113670000D01*
X180147857Y-113631428D01*
X180225000Y-113631428D01*
X180340714Y-113670000D01*
X180379285Y-113708571D01*
X180687857Y-113708571D02*
X180726428Y-113670000D01*
X180803571Y-113631428D01*
X180996428Y-113631428D01*
X181073571Y-113670000D01*
X181112142Y-113708571D01*
X181150714Y-113785714D01*
X181150714Y-113862857D01*
X181112142Y-113978571D01*
X180649285Y-114441428D01*
X181150714Y-114441428D01*
X181883571Y-113631428D02*
X181497857Y-113631428D01*
X181459285Y-114017142D01*
X181497857Y-113978571D01*
X181575000Y-113940000D01*
X181767857Y-113940000D01*
X181845000Y-113978571D01*
X181883571Y-114017142D01*
X181922142Y-114094285D01*
X181922142Y-114287142D01*
X181883571Y-114364285D01*
X181845000Y-114402857D01*
X181767857Y-114441428D01*
X181575000Y-114441428D01*
X181497857Y-114402857D01*
X181459285Y-114364285D01*
%TO.C,U4*%
X202682857Y-98656428D02*
X202682857Y-99312142D01*
X202721428Y-99389285D01*
X202760000Y-99427857D01*
X202837142Y-99466428D01*
X202991428Y-99466428D01*
X203068571Y-99427857D01*
X203107142Y-99389285D01*
X203145714Y-99312142D01*
X203145714Y-98656428D01*
X203878571Y-98926428D02*
X203878571Y-99466428D01*
X203685714Y-98617857D02*
X203492857Y-99196428D01*
X203994285Y-99196428D01*
%TO.C,U1*%
X193656428Y-93567142D02*
X194312142Y-93567142D01*
X194389285Y-93528571D01*
X194427857Y-93490000D01*
X194466428Y-93412857D01*
X194466428Y-93258571D01*
X194427857Y-93181428D01*
X194389285Y-93142857D01*
X194312142Y-93104285D01*
X193656428Y-93104285D01*
X194466428Y-92294285D02*
X194466428Y-92757142D01*
X194466428Y-92525714D02*
X193656428Y-92525714D01*
X193772142Y-92602857D01*
X193849285Y-92680000D01*
X193887857Y-92757142D01*
%TO.C,U3*%
X190682857Y-111906428D02*
X190682857Y-112562142D01*
X190721428Y-112639285D01*
X190760000Y-112677857D01*
X190837142Y-112716428D01*
X190991428Y-112716428D01*
X191068571Y-112677857D01*
X191107142Y-112639285D01*
X191145714Y-112562142D01*
X191145714Y-111906428D01*
X191454285Y-111906428D02*
X191955714Y-111906428D01*
X191685714Y-112215000D01*
X191801428Y-112215000D01*
X191878571Y-112253571D01*
X191917142Y-112292142D01*
X191955714Y-112369285D01*
X191955714Y-112562142D01*
X191917142Y-112639285D01*
X191878571Y-112677857D01*
X191801428Y-112716428D01*
X191570000Y-112716428D01*
X191492857Y-112677857D01*
X191454285Y-112639285D01*
%TO.C,U5*%
X231051419Y-104437295D02*
X230241895Y-104437295D01*
X230146657Y-104484914D01*
X230099038Y-104532533D01*
X230051419Y-104627771D01*
X230051419Y-104818247D01*
X230099038Y-104913485D01*
X230146657Y-104961104D01*
X230241895Y-105008723D01*
X231051419Y-105008723D01*
X231051419Y-105961104D02*
X231051419Y-105484914D01*
X230575228Y-105437295D01*
X230622847Y-105484914D01*
X230670466Y-105580152D01*
X230670466Y-105818247D01*
X230622847Y-105913485D01*
X230575228Y-105961104D01*
X230479990Y-106008723D01*
X230241895Y-106008723D01*
X230146657Y-105961104D01*
X230099038Y-105913485D01*
X230051419Y-105818247D01*
X230051419Y-105580152D01*
X230099038Y-105484914D01*
X230146657Y-105437295D01*
D11*
%TO.C,Y1*%
X180350000Y-101225000D02*
X180350000Y-103525000D01*
X180350000Y-103525000D02*
X183050000Y-103525000D01*
%TO.C,D1*%
X207876624Y-95112177D02*
X206260885Y-93496438D01*
X206837177Y-96151624D02*
X207876624Y-95112177D01*
X205221438Y-94535885D02*
X206837177Y-96151624D01*
%TO.C,D2*%
X204744777Y-92155330D02*
X203129038Y-90539591D01*
X203705330Y-93194777D02*
X204744777Y-92155330D01*
X202089591Y-91579038D02*
X203705330Y-93194777D01*
%TO.C,D3*%
X202494777Y-89905330D02*
X200879038Y-88289591D01*
X201455330Y-90944777D02*
X202494777Y-89905330D01*
X199839591Y-89329038D02*
X201455330Y-90944777D01*
%TO.C,R4*%
X204852500Y-100062742D02*
X204852500Y-100537258D01*
X205897500Y-100062742D02*
X205897500Y-100537258D01*
%TO.C,R11*%
X193277500Y-110612742D02*
X193277500Y-111087258D01*
X194322500Y-110612742D02*
X194322500Y-111087258D01*
%TO.C,R13*%
X188812742Y-113572500D02*
X189287258Y-113572500D01*
X188812742Y-112527500D02*
X189287258Y-112527500D01*
%TO.C,R12*%
X195277500Y-110612742D02*
X195277500Y-111087258D01*
X196322500Y-110612742D02*
X196322500Y-111087258D01*
%TO.C,R14*%
X177787742Y-104147500D02*
X178262258Y-104147500D01*
X177787742Y-103102500D02*
X178262258Y-103102500D01*
%TO.C,R19*%
X199598303Y-91137230D02*
X199262770Y-90801697D01*
X200337230Y-90398303D02*
X200001697Y-90062770D01*
%TO.C,R5*%
X186937742Y-89147500D02*
X187412258Y-89147500D01*
X186937742Y-88102500D02*
X187412258Y-88102500D01*
%TO.C,R6*%
X176937742Y-88322500D02*
X177412258Y-88322500D01*
X176937742Y-87277500D02*
X177412258Y-87277500D01*
%TO.C,R17*%
X204612770Y-95951697D02*
X204948303Y-96287230D01*
X205351697Y-95212770D02*
X205687230Y-95548303D01*
%TO.C,R3*%
X191287742Y-117697500D02*
X191762258Y-117697500D01*
X191287742Y-116652500D02*
X191762258Y-116652500D01*
%TO.C,R15*%
X183262258Y-98702500D02*
X182787742Y-98702500D01*
X183262258Y-99747500D02*
X182787742Y-99747500D01*
%TO.C,R7*%
X183847500Y-92537258D02*
X183847500Y-92062742D01*
X182802500Y-92537258D02*
X182802500Y-92062742D01*
%TO.C,FB2*%
X178952500Y-93862742D02*
X178952500Y-94337258D01*
X179997500Y-93862742D02*
X179997500Y-94337258D01*
%TO.C,FB4*%
X190637258Y-88102500D02*
X190162742Y-88102500D01*
X190637258Y-89147500D02*
X190162742Y-89147500D01*
%TO.C,R9*%
X194627500Y-106437742D02*
X194627500Y-106912258D01*
X195672500Y-106437742D02*
X195672500Y-106912258D01*
%TO.C,R8*%
X192977500Y-106437742D02*
X192977500Y-106912258D01*
X194022500Y-106437742D02*
X194022500Y-106912258D01*
%TO.C,R10*%
X185112742Y-114722500D02*
X185587258Y-114722500D01*
X185112742Y-113677500D02*
X185587258Y-113677500D01*
%TO.C,R2*%
X177787742Y-102222500D02*
X178262258Y-102222500D01*
X177787742Y-101177500D02*
X178262258Y-101177500D01*
%TO.C,R1*%
X182247500Y-92537258D02*
X182247500Y-92062742D01*
X181202500Y-92537258D02*
X181202500Y-92062742D01*
%TO.C,R18*%
X202562230Y-92598303D02*
X202226697Y-92262770D01*
X201823303Y-93337230D02*
X201487770Y-93001697D01*
%TO.C,C18*%
X193984420Y-89085000D02*
X194265580Y-89085000D01*
X193984420Y-88065000D02*
X194265580Y-88065000D01*
%TO.C,C4*%
X198340580Y-97365000D02*
X198059420Y-97365000D01*
X198340580Y-98385000D02*
X198059420Y-98385000D01*
%TO.C,C8*%
X180634420Y-88310000D02*
X180915580Y-88310000D01*
X180634420Y-87290000D02*
X180915580Y-87290000D01*
%TO.C,C20*%
X196284420Y-96710000D02*
X196565580Y-96710000D01*
X196284420Y-95690000D02*
X196565580Y-95690000D01*
%TO.C,C15*%
X185490580Y-115290000D02*
X185209420Y-115290000D01*
X185490580Y-116310000D02*
X185209420Y-116310000D01*
%TO.C,C14*%
X178009420Y-116735000D02*
X178290580Y-116735000D01*
X178009420Y-115715000D02*
X178290580Y-115715000D01*
%TO.C,C26*%
X181460000Y-108490580D02*
X181460000Y-108209420D01*
X180440000Y-108490580D02*
X180440000Y-108209420D01*
%TO.C,C3*%
X181790000Y-96734420D02*
X181790000Y-97015580D01*
X182810000Y-96734420D02*
X182810000Y-97015580D01*
%TO.C,C1*%
X177884420Y-105735000D02*
X178165580Y-105735000D01*
X177884420Y-104715000D02*
X178165580Y-104715000D01*
%TO.C,C9*%
X193984420Y-90710000D02*
X194265580Y-90710000D01*
X193984420Y-89690000D02*
X194265580Y-89690000D01*
%TO.C,C23*%
X182565580Y-111485000D02*
X182284420Y-111485000D01*
X182565580Y-110465000D02*
X182284420Y-110465000D01*
%TO.C,C13*%
X190259420Y-90710000D02*
X190540580Y-90710000D01*
X190259420Y-89690000D02*
X190540580Y-89690000D01*
%TO.C,C10*%
X177415000Y-93959420D02*
X177415000Y-94240580D01*
X178435000Y-93959420D02*
X178435000Y-94240580D01*
%TO.C,C24*%
X195660000Y-102840580D02*
X195660000Y-102559420D01*
X194640000Y-102840580D02*
X194640000Y-102559420D01*
%TO.C,C22*%
X194035000Y-102840580D02*
X194035000Y-102559420D01*
X193015000Y-102840580D02*
X193015000Y-102559420D01*
%TO.C,C21*%
X183035000Y-108490580D02*
X183035000Y-108209420D01*
X182015000Y-108490580D02*
X182015000Y-108209420D01*
%TO.C,C17*%
X204885000Y-110509420D02*
X204885000Y-110790580D01*
X203865000Y-110509420D02*
X203865000Y-110790580D01*
%TO.C,C7*%
X187315580Y-89690000D02*
X187034420Y-89690000D01*
X187315580Y-90710000D02*
X187034420Y-90710000D01*
%TO.C,C2*%
X177884420Y-100585000D02*
X178165580Y-100585000D01*
X177884420Y-99565000D02*
X178165580Y-99565000D01*
%TO.C,C12*%
X176490000Y-111709420D02*
X176490000Y-111990580D01*
X177510000Y-111709420D02*
X177510000Y-111990580D01*
%TO.C,C25*%
X182565580Y-112115000D02*
X182284420Y-112115000D01*
X182565580Y-113135000D02*
X182284420Y-113135000D01*
D12*
%TO.C,U4*%
X196646800Y-107897600D02*
G75*
G03*
X196646800Y-107897600I-100000J0D01*
G01*
D11*
X196117000Y-103632000D02*
X196117000Y-107232000D01*
X204187000Y-103632000D02*
X204187000Y-105832000D01*
X196117000Y-103632000D02*
X196117000Y-101432000D01*
X204187000Y-103632000D02*
X204187000Y-101432000D01*
D13*
%TO.C,U1*%
X185982000Y-100166000D02*
G75*
G03*
X185982000Y-100166000I-125000J0D01*
G01*
D12*
%TO.C,U3*%
X190038600Y-111377600D02*
X186338600Y-111377600D01*
X186338600Y-111377600D02*
X186338600Y-101677600D01*
X186338600Y-101677600D02*
X190038600Y-101677600D01*
X191863600Y-111327600D02*
X190388600Y-111327600D01*
X190038600Y-101677600D02*
X190038600Y-111377600D01*
%TD*%
M02*
