%TF.GenerationSoftware,KiCad,Pcbnew,6.0.5-a6ca702e91~116~ubuntu20.04.1*%
%TF.CreationDate,2022-07-25T12:39:35+01:00*%
%TF.ProjectId,sd-mux,73642d6d-7578-42e6-9b69-6361645f7063,rev?*%
%TF.SameCoordinates,Original*%
%TF.FileFunction,AssemblyDrawing,Top*%
%FSLAX46Y46*%
G04 Gerber Fmt 4.6, Leading zero omitted, Abs format (unit mm)*
G04 Created by KiCad (PCBNEW 6.0.5-a6ca702e91~116~ubuntu20.04.1) date 2022-07-25 12:39:35*
%MOMM*%
%LPD*%
G01*
G04 APERTURE LIST*
%ADD10C,0.150000*%
%ADD11C,0.040000*%
%ADD12C,0.075000*%
%ADD13C,0.254000*%
%ADD14C,0.100000*%
G04 APERTURE END LIST*
D10*
X218670000Y-86858228D02*
X218207142Y-86858228D01*
X218438571Y-86858228D02*
X218438571Y-86048228D01*
X218361428Y-86163942D01*
X218284285Y-86241085D01*
X218207142Y-86279657D01*
X219017142Y-86781085D02*
X219055714Y-86819657D01*
X219017142Y-86858228D01*
X218978571Y-86819657D01*
X219017142Y-86781085D01*
X219017142Y-86858228D01*
X220020000Y-86858228D02*
X220020000Y-86048228D01*
X220482857Y-86858228D01*
X220482857Y-86048228D01*
X221215714Y-86318228D02*
X221215714Y-86858228D01*
X220868571Y-86318228D02*
X220868571Y-86742514D01*
X220907142Y-86819657D01*
X220984285Y-86858228D01*
X221100000Y-86858228D01*
X221177142Y-86819657D01*
X221215714Y-86781085D01*
X221601428Y-86858228D02*
X221601428Y-86318228D01*
X221601428Y-86395371D02*
X221640000Y-86356800D01*
X221717142Y-86318228D01*
X221832857Y-86318228D01*
X221910000Y-86356800D01*
X221948571Y-86433942D01*
X221948571Y-86858228D01*
X221948571Y-86433942D02*
X221987142Y-86356800D01*
X222064285Y-86318228D01*
X222180000Y-86318228D01*
X222257142Y-86356800D01*
X222295714Y-86433942D01*
X222295714Y-86858228D01*
X222681428Y-86858228D02*
X222681428Y-86048228D01*
X222681428Y-86356800D02*
X222758571Y-86318228D01*
X222912857Y-86318228D01*
X222990000Y-86356800D01*
X223028571Y-86395371D01*
X223067142Y-86472514D01*
X223067142Y-86703942D01*
X223028571Y-86781085D01*
X222990000Y-86819657D01*
X222912857Y-86858228D01*
X222758571Y-86858228D01*
X222681428Y-86819657D01*
X223722857Y-86819657D02*
X223645714Y-86858228D01*
X223491428Y-86858228D01*
X223414285Y-86819657D01*
X223375714Y-86742514D01*
X223375714Y-86433942D01*
X223414285Y-86356800D01*
X223491428Y-86318228D01*
X223645714Y-86318228D01*
X223722857Y-86356800D01*
X223761428Y-86433942D01*
X223761428Y-86511085D01*
X223375714Y-86588228D01*
X224108571Y-86858228D02*
X224108571Y-86318228D01*
X224108571Y-86472514D02*
X224147142Y-86395371D01*
X224185714Y-86356800D01*
X224262857Y-86318228D01*
X224340000Y-86318228D01*
X225342857Y-86858228D02*
X225265714Y-86819657D01*
X225227142Y-86781085D01*
X225188571Y-86703942D01*
X225188571Y-86472514D01*
X225227142Y-86395371D01*
X225265714Y-86356800D01*
X225342857Y-86318228D01*
X225458571Y-86318228D01*
X225535714Y-86356800D01*
X225574285Y-86395371D01*
X225612857Y-86472514D01*
X225612857Y-86703942D01*
X225574285Y-86781085D01*
X225535714Y-86819657D01*
X225458571Y-86858228D01*
X225342857Y-86858228D01*
X225844285Y-86318228D02*
X226152857Y-86318228D01*
X225960000Y-86858228D02*
X225960000Y-86163942D01*
X225998571Y-86086800D01*
X226075714Y-86048228D01*
X226152857Y-86048228D01*
X227155714Y-86858228D02*
X227078571Y-86819657D01*
X227040000Y-86742514D01*
X227040000Y-86048228D01*
X227811428Y-86858228D02*
X227811428Y-86433942D01*
X227772857Y-86356800D01*
X227695714Y-86318228D01*
X227541428Y-86318228D01*
X227464285Y-86356800D01*
X227811428Y-86819657D02*
X227734285Y-86858228D01*
X227541428Y-86858228D01*
X227464285Y-86819657D01*
X227425714Y-86742514D01*
X227425714Y-86665371D01*
X227464285Y-86588228D01*
X227541428Y-86549657D01*
X227734285Y-86549657D01*
X227811428Y-86511085D01*
X228120000Y-86318228D02*
X228312857Y-86858228D01*
X228505714Y-86318228D02*
X228312857Y-86858228D01*
X228235714Y-87051085D01*
X228197142Y-87089657D01*
X228120000Y-87128228D01*
X229122857Y-86819657D02*
X229045714Y-86858228D01*
X228891428Y-86858228D01*
X228814285Y-86819657D01*
X228775714Y-86742514D01*
X228775714Y-86433942D01*
X228814285Y-86356800D01*
X228891428Y-86318228D01*
X229045714Y-86318228D01*
X229122857Y-86356800D01*
X229161428Y-86433942D01*
X229161428Y-86511085D01*
X228775714Y-86588228D01*
X229508571Y-86858228D02*
X229508571Y-86318228D01*
X229508571Y-86472514D02*
X229547142Y-86395371D01*
X229585714Y-86356800D01*
X229662857Y-86318228D01*
X229740000Y-86318228D01*
X229971428Y-86819657D02*
X230048571Y-86858228D01*
X230202857Y-86858228D01*
X230280000Y-86819657D01*
X230318571Y-86742514D01*
X230318571Y-86703942D01*
X230280000Y-86626800D01*
X230202857Y-86588228D01*
X230087142Y-86588228D01*
X230010000Y-86549657D01*
X229971428Y-86472514D01*
X229971428Y-86433942D01*
X230010000Y-86356800D01*
X230087142Y-86318228D01*
X230202857Y-86318228D01*
X230280000Y-86356800D01*
X230665714Y-86781085D02*
X230704285Y-86819657D01*
X230665714Y-86858228D01*
X230627142Y-86819657D01*
X230665714Y-86781085D01*
X230665714Y-86858228D01*
X230665714Y-86356800D02*
X230704285Y-86395371D01*
X230665714Y-86433942D01*
X230627142Y-86395371D01*
X230665714Y-86356800D01*
X230665714Y-86433942D01*
X232015714Y-86318228D02*
X232015714Y-86858228D01*
X231822857Y-86009657D02*
X231630000Y-86588228D01*
X232131428Y-86588228D01*
X220733571Y-87429471D02*
X220772142Y-87390900D01*
X220849285Y-87352328D01*
X221042142Y-87352328D01*
X221119285Y-87390900D01*
X221157857Y-87429471D01*
X221196428Y-87506614D01*
X221196428Y-87583757D01*
X221157857Y-87699471D01*
X220695000Y-88162328D01*
X221196428Y-88162328D01*
X221543571Y-88085185D02*
X221582142Y-88123757D01*
X221543571Y-88162328D01*
X221505000Y-88123757D01*
X221543571Y-88085185D01*
X221543571Y-88162328D01*
X222816428Y-87738042D02*
X222546428Y-87738042D01*
X222546428Y-88162328D02*
X222546428Y-87352328D01*
X222932142Y-87352328D01*
X223240714Y-88162328D02*
X223240714Y-87622328D01*
X223240714Y-87352328D02*
X223202142Y-87390900D01*
X223240714Y-87429471D01*
X223279285Y-87390900D01*
X223240714Y-87352328D01*
X223240714Y-87429471D01*
X223626428Y-87622328D02*
X223626428Y-88162328D01*
X223626428Y-87699471D02*
X223665000Y-87660900D01*
X223742142Y-87622328D01*
X223857857Y-87622328D01*
X223935000Y-87660900D01*
X223973571Y-87738042D01*
X223973571Y-88162328D01*
X224359285Y-88162328D02*
X224359285Y-87622328D01*
X224359285Y-87352328D02*
X224320714Y-87390900D01*
X224359285Y-87429471D01*
X224397857Y-87390900D01*
X224359285Y-87352328D01*
X224359285Y-87429471D01*
X224706428Y-88123757D02*
X224783571Y-88162328D01*
X224937857Y-88162328D01*
X225015000Y-88123757D01*
X225053571Y-88046614D01*
X225053571Y-88008042D01*
X225015000Y-87930900D01*
X224937857Y-87892328D01*
X224822142Y-87892328D01*
X224745000Y-87853757D01*
X224706428Y-87776614D01*
X224706428Y-87738042D01*
X224745000Y-87660900D01*
X224822142Y-87622328D01*
X224937857Y-87622328D01*
X225015000Y-87660900D01*
X225400714Y-88162328D02*
X225400714Y-87352328D01*
X225747857Y-88162328D02*
X225747857Y-87738042D01*
X225709285Y-87660900D01*
X225632142Y-87622328D01*
X225516428Y-87622328D01*
X225439285Y-87660900D01*
X225400714Y-87699471D01*
X226133571Y-88085185D02*
X226172142Y-88123757D01*
X226133571Y-88162328D01*
X226095000Y-88123757D01*
X226133571Y-88085185D01*
X226133571Y-88162328D01*
X226133571Y-87660900D02*
X226172142Y-87699471D01*
X226133571Y-87738042D01*
X226095000Y-87699471D01*
X226133571Y-87660900D01*
X226133571Y-87738042D01*
X227136428Y-87738042D02*
X227406428Y-87738042D01*
X227522142Y-88162328D02*
X227136428Y-88162328D01*
X227136428Y-87352328D01*
X227522142Y-87352328D01*
X227869285Y-88162328D02*
X227869285Y-87352328D01*
X228332142Y-88162328D01*
X228332142Y-87352328D01*
X228717857Y-88162328D02*
X228717857Y-87352328D01*
X229527857Y-87390900D02*
X229450714Y-87352328D01*
X229335000Y-87352328D01*
X229219285Y-87390900D01*
X229142142Y-87468042D01*
X229103571Y-87545185D01*
X229065000Y-87699471D01*
X229065000Y-87815185D01*
X229103571Y-87969471D01*
X229142142Y-88046614D01*
X229219285Y-88123757D01*
X229335000Y-88162328D01*
X229412142Y-88162328D01*
X229527857Y-88123757D01*
X229566428Y-88085185D01*
X229566428Y-87815185D01*
X229412142Y-87815185D01*
X214620000Y-88656428D02*
X215121428Y-88656428D01*
X214851428Y-88965000D01*
X214967142Y-88965000D01*
X215044285Y-89003571D01*
X215082857Y-89042142D01*
X215121428Y-89119285D01*
X215121428Y-89312142D01*
X215082857Y-89389285D01*
X215044285Y-89427857D01*
X214967142Y-89466428D01*
X214735714Y-89466428D01*
X214658571Y-89427857D01*
X214620000Y-89389285D01*
X215468571Y-89389285D02*
X215507142Y-89427857D01*
X215468571Y-89466428D01*
X215430000Y-89427857D01*
X215468571Y-89389285D01*
X215468571Y-89466428D01*
X216471428Y-89466428D02*
X216471428Y-88656428D01*
X216780000Y-88656428D01*
X216857142Y-88695000D01*
X216895714Y-88733571D01*
X216934285Y-88810714D01*
X216934285Y-88926428D01*
X216895714Y-89003571D01*
X216857142Y-89042142D01*
X216780000Y-89080714D01*
X216471428Y-89080714D01*
X217744285Y-89389285D02*
X217705714Y-89427857D01*
X217590000Y-89466428D01*
X217512857Y-89466428D01*
X217397142Y-89427857D01*
X217320000Y-89350714D01*
X217281428Y-89273571D01*
X217242857Y-89119285D01*
X217242857Y-89003571D01*
X217281428Y-88849285D01*
X217320000Y-88772142D01*
X217397142Y-88695000D01*
X217512857Y-88656428D01*
X217590000Y-88656428D01*
X217705714Y-88695000D01*
X217744285Y-88733571D01*
X218361428Y-89042142D02*
X218477142Y-89080714D01*
X218515714Y-89119285D01*
X218554285Y-89196428D01*
X218554285Y-89312142D01*
X218515714Y-89389285D01*
X218477142Y-89427857D01*
X218400000Y-89466428D01*
X218091428Y-89466428D01*
X218091428Y-88656428D01*
X218361428Y-88656428D01*
X218438571Y-88695000D01*
X218477142Y-88733571D01*
X218515714Y-88810714D01*
X218515714Y-88887857D01*
X218477142Y-88965000D01*
X218438571Y-89003571D01*
X218361428Y-89042142D01*
X218091428Y-89042142D01*
X219402857Y-88926428D02*
X219711428Y-88926428D01*
X219518571Y-88656428D02*
X219518571Y-89350714D01*
X219557142Y-89427857D01*
X219634285Y-89466428D01*
X219711428Y-89466428D01*
X219981428Y-89466428D02*
X219981428Y-88656428D01*
X220328571Y-89466428D02*
X220328571Y-89042142D01*
X220290000Y-88965000D01*
X220212857Y-88926428D01*
X220097142Y-88926428D01*
X220020000Y-88965000D01*
X219981428Y-89003571D01*
X220714285Y-89466428D02*
X220714285Y-88926428D01*
X220714285Y-88656428D02*
X220675714Y-88695000D01*
X220714285Y-88733571D01*
X220752857Y-88695000D01*
X220714285Y-88656428D01*
X220714285Y-88733571D01*
X221447142Y-89427857D02*
X221370000Y-89466428D01*
X221215714Y-89466428D01*
X221138571Y-89427857D01*
X221100000Y-89389285D01*
X221061428Y-89312142D01*
X221061428Y-89080714D01*
X221100000Y-89003571D01*
X221138571Y-88965000D01*
X221215714Y-88926428D01*
X221370000Y-88926428D01*
X221447142Y-88965000D01*
X221794285Y-89466428D02*
X221794285Y-88656428D01*
X221871428Y-89157857D02*
X222102857Y-89466428D01*
X222102857Y-88926428D02*
X221794285Y-89235000D01*
X222450000Y-88926428D02*
X222450000Y-89466428D01*
X222450000Y-89003571D02*
X222488571Y-88965000D01*
X222565714Y-88926428D01*
X222681428Y-88926428D01*
X222758571Y-88965000D01*
X222797142Y-89042142D01*
X222797142Y-89466428D01*
X223491428Y-89427857D02*
X223414285Y-89466428D01*
X223260000Y-89466428D01*
X223182857Y-89427857D01*
X223144285Y-89350714D01*
X223144285Y-89042142D01*
X223182857Y-88965000D01*
X223260000Y-88926428D01*
X223414285Y-88926428D01*
X223491428Y-88965000D01*
X223530000Y-89042142D01*
X223530000Y-89119285D01*
X223144285Y-89196428D01*
X223838571Y-89427857D02*
X223915714Y-89466428D01*
X224070000Y-89466428D01*
X224147142Y-89427857D01*
X224185714Y-89350714D01*
X224185714Y-89312142D01*
X224147142Y-89235000D01*
X224070000Y-89196428D01*
X223954285Y-89196428D01*
X223877142Y-89157857D01*
X223838571Y-89080714D01*
X223838571Y-89042142D01*
X223877142Y-88965000D01*
X223954285Y-88926428D01*
X224070000Y-88926428D01*
X224147142Y-88965000D01*
X224494285Y-89427857D02*
X224571428Y-89466428D01*
X224725714Y-89466428D01*
X224802857Y-89427857D01*
X224841428Y-89350714D01*
X224841428Y-89312142D01*
X224802857Y-89235000D01*
X224725714Y-89196428D01*
X224610000Y-89196428D01*
X224532857Y-89157857D01*
X224494285Y-89080714D01*
X224494285Y-89042142D01*
X224532857Y-88965000D01*
X224610000Y-88926428D01*
X224725714Y-88926428D01*
X224802857Y-88965000D01*
X225188571Y-89389285D02*
X225227142Y-89427857D01*
X225188571Y-89466428D01*
X225150000Y-89427857D01*
X225188571Y-89389285D01*
X225188571Y-89466428D01*
X225188571Y-88965000D02*
X225227142Y-89003571D01*
X225188571Y-89042142D01*
X225150000Y-89003571D01*
X225188571Y-88965000D01*
X225188571Y-89042142D01*
X226345714Y-88656428D02*
X226422857Y-88656428D01*
X226499999Y-88695000D01*
X226538571Y-88733571D01*
X226577142Y-88810714D01*
X226615714Y-88965000D01*
X226615714Y-89157857D01*
X226577142Y-89312142D01*
X226538571Y-89389285D01*
X226499999Y-89427857D01*
X226422857Y-89466428D01*
X226345714Y-89466428D01*
X226268571Y-89427857D01*
X226229999Y-89389285D01*
X226191428Y-89312142D01*
X226152857Y-89157857D01*
X226152857Y-88965000D01*
X226191428Y-88810714D01*
X226229999Y-88733571D01*
X226268571Y-88695000D01*
X226345714Y-88656428D01*
X226962857Y-89389285D02*
X227001428Y-89427857D01*
X226962857Y-89466428D01*
X226924285Y-89427857D01*
X226962857Y-89389285D01*
X226962857Y-89466428D01*
X227464285Y-89003571D02*
X227387142Y-88965000D01*
X227348571Y-88926428D01*
X227309999Y-88849285D01*
X227309999Y-88810714D01*
X227348571Y-88733571D01*
X227387142Y-88695000D01*
X227464285Y-88656428D01*
X227618571Y-88656428D01*
X227695714Y-88695000D01*
X227734285Y-88733571D01*
X227772857Y-88810714D01*
X227772857Y-88849285D01*
X227734285Y-88926428D01*
X227695714Y-88965000D01*
X227618571Y-89003571D01*
X227464285Y-89003571D01*
X227387142Y-89042142D01*
X227348571Y-89080714D01*
X227309999Y-89157857D01*
X227309999Y-89312142D01*
X227348571Y-89389285D01*
X227387142Y-89427857D01*
X227464285Y-89466428D01*
X227618571Y-89466428D01*
X227695714Y-89427857D01*
X227734285Y-89389285D01*
X227772857Y-89312142D01*
X227772857Y-89157857D01*
X227734285Y-89080714D01*
X227695714Y-89042142D01*
X227618571Y-89003571D01*
X228119999Y-89466428D02*
X228119999Y-88926428D01*
X228119999Y-89003571D02*
X228158571Y-88965000D01*
X228235714Y-88926428D01*
X228351428Y-88926428D01*
X228428571Y-88965000D01*
X228467142Y-89042142D01*
X228467142Y-89466428D01*
X228467142Y-89042142D02*
X228505714Y-88965000D01*
X228582857Y-88926428D01*
X228698571Y-88926428D01*
X228775714Y-88965000D01*
X228814285Y-89042142D01*
X228814285Y-89466428D01*
X229199999Y-89466428D02*
X229199999Y-88926428D01*
X229199999Y-89003571D02*
X229238571Y-88965000D01*
X229315714Y-88926428D01*
X229431428Y-88926428D01*
X229508571Y-88965000D01*
X229547142Y-89042142D01*
X229547142Y-89466428D01*
X229547142Y-89042142D02*
X229585714Y-88965000D01*
X229662857Y-88926428D01*
X229778571Y-88926428D01*
X229855714Y-88965000D01*
X229894285Y-89042142D01*
X229894285Y-89466428D01*
X230897142Y-89157857D02*
X231514285Y-89157857D01*
X231205714Y-89466428D02*
X231205714Y-88849285D01*
X231899999Y-89157857D02*
X232517142Y-89157857D01*
X233944285Y-89466428D02*
X233481428Y-89466428D01*
X233712857Y-89466428D02*
X233712857Y-88656428D01*
X233635714Y-88772142D01*
X233558571Y-88849285D01*
X233481428Y-88887857D01*
X234445714Y-88656428D02*
X234522857Y-88656428D01*
X234599999Y-88695000D01*
X234638571Y-88733571D01*
X234677142Y-88810714D01*
X234715714Y-88965000D01*
X234715714Y-89157857D01*
X234677142Y-89312142D01*
X234638571Y-89389285D01*
X234599999Y-89427857D01*
X234522857Y-89466428D01*
X234445714Y-89466428D01*
X234368571Y-89427857D01*
X234329999Y-89389285D01*
X234291428Y-89312142D01*
X234252857Y-89157857D01*
X234252857Y-88965000D01*
X234291428Y-88810714D01*
X234329999Y-88733571D01*
X234368571Y-88695000D01*
X234445714Y-88656428D01*
X235024285Y-89466428D02*
X235641428Y-88656428D01*
X235139999Y-88656428D02*
X235217142Y-88695000D01*
X235255714Y-88772142D01*
X235217142Y-88849285D01*
X235139999Y-88887857D01*
X235062857Y-88849285D01*
X235024285Y-88772142D01*
X235062857Y-88695000D01*
X235139999Y-88656428D01*
X235602857Y-89427857D02*
X235641428Y-89350714D01*
X235602857Y-89273571D01*
X235525714Y-89235000D01*
X235448571Y-89273571D01*
X235409999Y-89350714D01*
X235448571Y-89427857D01*
X235525714Y-89466428D01*
X235602857Y-89427857D01*
X211611428Y-90230528D02*
X211611428Y-90770528D01*
X211418571Y-89921957D02*
X211225714Y-90500528D01*
X211727142Y-90500528D01*
X212035714Y-90693385D02*
X212074285Y-90731957D01*
X212035714Y-90770528D01*
X211997142Y-90731957D01*
X212035714Y-90693385D01*
X212035714Y-90770528D01*
X213192857Y-89960528D02*
X213347142Y-89960528D01*
X213424285Y-89999100D01*
X213501428Y-90076242D01*
X213540000Y-90230528D01*
X213540000Y-90500528D01*
X213501428Y-90654814D01*
X213424285Y-90731957D01*
X213347142Y-90770528D01*
X213192857Y-90770528D01*
X213115714Y-90731957D01*
X213038571Y-90654814D01*
X213000000Y-90500528D01*
X213000000Y-90230528D01*
X213038571Y-90076242D01*
X213115714Y-89999100D01*
X213192857Y-89960528D01*
X214234285Y-90230528D02*
X214234285Y-90770528D01*
X213887142Y-90230528D02*
X213887142Y-90654814D01*
X213925714Y-90731957D01*
X214002857Y-90770528D01*
X214118571Y-90770528D01*
X214195714Y-90731957D01*
X214234285Y-90693385D01*
X214504285Y-90230528D02*
X214812857Y-90230528D01*
X214620000Y-89960528D02*
X214620000Y-90654814D01*
X214658571Y-90731957D01*
X214735714Y-90770528D01*
X214812857Y-90770528D01*
X215391428Y-90731957D02*
X215314285Y-90770528D01*
X215160000Y-90770528D01*
X215082857Y-90731957D01*
X215044285Y-90654814D01*
X215044285Y-90346242D01*
X215082857Y-90269100D01*
X215160000Y-90230528D01*
X215314285Y-90230528D01*
X215391428Y-90269100D01*
X215430000Y-90346242D01*
X215430000Y-90423385D01*
X215044285Y-90500528D01*
X215777142Y-90770528D02*
X215777142Y-90230528D01*
X215777142Y-90384814D02*
X215815714Y-90307671D01*
X215854285Y-90269100D01*
X215931428Y-90230528D01*
X216008571Y-90230528D01*
X217011428Y-90770528D02*
X216934285Y-90731957D01*
X216895714Y-90654814D01*
X216895714Y-89960528D01*
X217667142Y-90770528D02*
X217667142Y-90346242D01*
X217628571Y-90269100D01*
X217551428Y-90230528D01*
X217397142Y-90230528D01*
X217320000Y-90269100D01*
X217667142Y-90731957D02*
X217590000Y-90770528D01*
X217397142Y-90770528D01*
X217320000Y-90731957D01*
X217281428Y-90654814D01*
X217281428Y-90577671D01*
X217320000Y-90500528D01*
X217397142Y-90461957D01*
X217590000Y-90461957D01*
X217667142Y-90423385D01*
X217975714Y-90230528D02*
X218168571Y-90770528D01*
X218361428Y-90230528D02*
X218168571Y-90770528D01*
X218091428Y-90963385D01*
X218052857Y-91001957D01*
X217975714Y-91040528D01*
X218978571Y-90731957D02*
X218901428Y-90770528D01*
X218747142Y-90770528D01*
X218670000Y-90731957D01*
X218631428Y-90654814D01*
X218631428Y-90346242D01*
X218670000Y-90269100D01*
X218747142Y-90230528D01*
X218901428Y-90230528D01*
X218978571Y-90269100D01*
X219017142Y-90346242D01*
X219017142Y-90423385D01*
X218631428Y-90500528D01*
X219364285Y-90770528D02*
X219364285Y-90230528D01*
X219364285Y-90384814D02*
X219402857Y-90307671D01*
X219441428Y-90269100D01*
X219518571Y-90230528D01*
X219595714Y-90230528D01*
X220367142Y-90230528D02*
X220675714Y-90230528D01*
X220482857Y-90770528D02*
X220482857Y-90076242D01*
X220521428Y-89999100D01*
X220598571Y-89960528D01*
X220675714Y-89960528D01*
X220945714Y-90770528D02*
X220945714Y-90230528D01*
X220945714Y-89960528D02*
X220907142Y-89999100D01*
X220945714Y-90037671D01*
X220984285Y-89999100D01*
X220945714Y-89960528D01*
X220945714Y-90037671D01*
X221331428Y-90230528D02*
X221331428Y-90770528D01*
X221331428Y-90307671D02*
X221370000Y-90269100D01*
X221447142Y-90230528D01*
X221562857Y-90230528D01*
X221640000Y-90269100D01*
X221678571Y-90346242D01*
X221678571Y-90770528D01*
X222064285Y-90770528D02*
X222064285Y-90230528D01*
X222064285Y-89960528D02*
X222025714Y-89999100D01*
X222064285Y-90037671D01*
X222102857Y-89999100D01*
X222064285Y-89960528D01*
X222064285Y-90037671D01*
X222411428Y-90731957D02*
X222488571Y-90770528D01*
X222642857Y-90770528D01*
X222720000Y-90731957D01*
X222758571Y-90654814D01*
X222758571Y-90616242D01*
X222720000Y-90539100D01*
X222642857Y-90500528D01*
X222527142Y-90500528D01*
X222450000Y-90461957D01*
X222411428Y-90384814D01*
X222411428Y-90346242D01*
X222450000Y-90269100D01*
X222527142Y-90230528D01*
X222642857Y-90230528D01*
X222720000Y-90269100D01*
X223105714Y-90770528D02*
X223105714Y-89960528D01*
X223452857Y-90770528D02*
X223452857Y-90346242D01*
X223414285Y-90269100D01*
X223337142Y-90230528D01*
X223221428Y-90230528D01*
X223144285Y-90269100D01*
X223105714Y-90307671D01*
X224147142Y-90731957D02*
X224070000Y-90770528D01*
X223915714Y-90770528D01*
X223838571Y-90731957D01*
X223800000Y-90654814D01*
X223800000Y-90346242D01*
X223838571Y-90269100D01*
X223915714Y-90230528D01*
X224070000Y-90230528D01*
X224147142Y-90269100D01*
X224185714Y-90346242D01*
X224185714Y-90423385D01*
X223800000Y-90500528D01*
X224880000Y-90770528D02*
X224880000Y-89960528D01*
X224880000Y-90731957D02*
X224802857Y-90770528D01*
X224648571Y-90770528D01*
X224571428Y-90731957D01*
X224532857Y-90693385D01*
X224494285Y-90616242D01*
X224494285Y-90384814D01*
X224532857Y-90307671D01*
X224571428Y-90269100D01*
X224648571Y-90230528D01*
X224802857Y-90230528D01*
X224880000Y-90269100D01*
X226230000Y-90731957D02*
X226152857Y-90770528D01*
X225998571Y-90770528D01*
X225921428Y-90731957D01*
X225882857Y-90693385D01*
X225844285Y-90616242D01*
X225844285Y-90384814D01*
X225882857Y-90307671D01*
X225921428Y-90269100D01*
X225998571Y-90230528D01*
X226152857Y-90230528D01*
X226230000Y-90269100D01*
X226692857Y-90770528D02*
X226615714Y-90731957D01*
X226577142Y-90693385D01*
X226538571Y-90616242D01*
X226538571Y-90384814D01*
X226577142Y-90307671D01*
X226615714Y-90269100D01*
X226692857Y-90230528D01*
X226808571Y-90230528D01*
X226885714Y-90269100D01*
X226924285Y-90307671D01*
X226962857Y-90384814D01*
X226962857Y-90616242D01*
X226924285Y-90693385D01*
X226885714Y-90731957D01*
X226808571Y-90770528D01*
X226692857Y-90770528D01*
X227310000Y-90230528D02*
X227310000Y-91040528D01*
X227310000Y-90269100D02*
X227387142Y-90230528D01*
X227541428Y-90230528D01*
X227618571Y-90269100D01*
X227657142Y-90307671D01*
X227695714Y-90384814D01*
X227695714Y-90616242D01*
X227657142Y-90693385D01*
X227618571Y-90731957D01*
X227541428Y-90770528D01*
X227387142Y-90770528D01*
X227310000Y-90731957D01*
X228042857Y-90230528D02*
X228042857Y-91040528D01*
X228042857Y-90269100D02*
X228120000Y-90230528D01*
X228274285Y-90230528D01*
X228351428Y-90269100D01*
X228390000Y-90307671D01*
X228428571Y-90384814D01*
X228428571Y-90616242D01*
X228390000Y-90693385D01*
X228351428Y-90731957D01*
X228274285Y-90770528D01*
X228120000Y-90770528D01*
X228042857Y-90731957D01*
X229084285Y-90731957D02*
X229007142Y-90770528D01*
X228852857Y-90770528D01*
X228775714Y-90731957D01*
X228737142Y-90654814D01*
X228737142Y-90346242D01*
X228775714Y-90269100D01*
X228852857Y-90230528D01*
X229007142Y-90230528D01*
X229084285Y-90269100D01*
X229122857Y-90346242D01*
X229122857Y-90423385D01*
X228737142Y-90500528D01*
X229470000Y-90770528D02*
X229470000Y-90230528D01*
X229470000Y-90384814D02*
X229508571Y-90307671D01*
X229547142Y-90269100D01*
X229624285Y-90230528D01*
X229701428Y-90230528D01*
X230472857Y-90230528D02*
X230781428Y-90230528D01*
X230588571Y-89960528D02*
X230588571Y-90654814D01*
X230627142Y-90731957D01*
X230704285Y-90770528D01*
X230781428Y-90770528D01*
X231051428Y-90770528D02*
X231051428Y-89960528D01*
X231398571Y-90770528D02*
X231398571Y-90346242D01*
X231360000Y-90269100D01*
X231282857Y-90230528D01*
X231167142Y-90230528D01*
X231090000Y-90269100D01*
X231051428Y-90307671D01*
X231784285Y-90770528D02*
X231784285Y-90230528D01*
X231784285Y-89960528D02*
X231745714Y-89999100D01*
X231784285Y-90037671D01*
X231822857Y-89999100D01*
X231784285Y-89960528D01*
X231784285Y-90037671D01*
X232517142Y-90731957D02*
X232440000Y-90770528D01*
X232285714Y-90770528D01*
X232208571Y-90731957D01*
X232170000Y-90693385D01*
X232131428Y-90616242D01*
X232131428Y-90384814D01*
X232170000Y-90307671D01*
X232208571Y-90269100D01*
X232285714Y-90230528D01*
X232440000Y-90230528D01*
X232517142Y-90269100D01*
X232864285Y-90770528D02*
X232864285Y-89960528D01*
X232941428Y-90461957D02*
X233172857Y-90770528D01*
X233172857Y-90230528D02*
X232864285Y-90539100D01*
X233520000Y-90230528D02*
X233520000Y-90770528D01*
X233520000Y-90307671D02*
X233558571Y-90269100D01*
X233635714Y-90230528D01*
X233751428Y-90230528D01*
X233828571Y-90269100D01*
X233867142Y-90346242D01*
X233867142Y-90770528D01*
X234561428Y-90731957D02*
X234484285Y-90770528D01*
X234330000Y-90770528D01*
X234252857Y-90731957D01*
X234214285Y-90654814D01*
X234214285Y-90346242D01*
X234252857Y-90269100D01*
X234330000Y-90230528D01*
X234484285Y-90230528D01*
X234561428Y-90269100D01*
X234600000Y-90346242D01*
X234600000Y-90423385D01*
X234214285Y-90500528D01*
X234908571Y-90731957D02*
X234985714Y-90770528D01*
X235140000Y-90770528D01*
X235217142Y-90731957D01*
X235255714Y-90654814D01*
X235255714Y-90616242D01*
X235217142Y-90539100D01*
X235140000Y-90500528D01*
X235024285Y-90500528D01*
X234947142Y-90461957D01*
X234908571Y-90384814D01*
X234908571Y-90346242D01*
X234947142Y-90269100D01*
X235024285Y-90230528D01*
X235140000Y-90230528D01*
X235217142Y-90269100D01*
X235564285Y-90731957D02*
X235641428Y-90770528D01*
X235795714Y-90770528D01*
X235872857Y-90731957D01*
X235911428Y-90654814D01*
X235911428Y-90616242D01*
X235872857Y-90539100D01*
X235795714Y-90500528D01*
X235680000Y-90500528D01*
X235602857Y-90461957D01*
X235564285Y-90384814D01*
X235564285Y-90346242D01*
X235602857Y-90269100D01*
X235680000Y-90230528D01*
X235795714Y-90230528D01*
X235872857Y-90269100D01*
X236258571Y-90693385D02*
X236297142Y-90731957D01*
X236258571Y-90770528D01*
X236220000Y-90731957D01*
X236258571Y-90693385D01*
X236258571Y-90770528D01*
X236258571Y-90269100D02*
X236297142Y-90307671D01*
X236258571Y-90346242D01*
X236220000Y-90307671D01*
X236258571Y-90269100D01*
X236258571Y-90346242D01*
X237685714Y-90770528D02*
X237222857Y-90770528D01*
X237454285Y-90770528D02*
X237454285Y-89960528D01*
X237377142Y-90076242D01*
X237300000Y-90153385D01*
X237222857Y-90191957D01*
X238148571Y-90770528D02*
X238071428Y-90731957D01*
X238032857Y-90693385D01*
X237994285Y-90616242D01*
X237994285Y-90384814D01*
X238032857Y-90307671D01*
X238071428Y-90269100D01*
X238148571Y-90230528D01*
X238264285Y-90230528D01*
X238341428Y-90269100D01*
X238380000Y-90307671D01*
X238418571Y-90384814D01*
X238418571Y-90616242D01*
X238380000Y-90693385D01*
X238341428Y-90731957D01*
X238264285Y-90770528D01*
X238148571Y-90770528D01*
X238688571Y-90230528D02*
X239112857Y-90230528D01*
X238688571Y-90770528D01*
X239112857Y-90770528D01*
X211746428Y-91264628D02*
X211360714Y-91264628D01*
X211322142Y-91650342D01*
X211360714Y-91611771D01*
X211437857Y-91573200D01*
X211630714Y-91573200D01*
X211707857Y-91611771D01*
X211746428Y-91650342D01*
X211785000Y-91727485D01*
X211785000Y-91920342D01*
X211746428Y-91997485D01*
X211707857Y-92036057D01*
X211630714Y-92074628D01*
X211437857Y-92074628D01*
X211360714Y-92036057D01*
X211322142Y-91997485D01*
X212132142Y-91997485D02*
X212170714Y-92036057D01*
X212132142Y-92074628D01*
X212093571Y-92036057D01*
X212132142Y-91997485D01*
X212132142Y-92074628D01*
X213135000Y-92074628D02*
X213135000Y-91264628D01*
X213520714Y-91534628D02*
X213520714Y-92074628D01*
X213520714Y-91611771D02*
X213559285Y-91573200D01*
X213636428Y-91534628D01*
X213752142Y-91534628D01*
X213829285Y-91573200D01*
X213867857Y-91650342D01*
X213867857Y-92074628D01*
X214253571Y-91534628D02*
X214253571Y-92074628D01*
X214253571Y-91611771D02*
X214292142Y-91573200D01*
X214369285Y-91534628D01*
X214485000Y-91534628D01*
X214562142Y-91573200D01*
X214600714Y-91650342D01*
X214600714Y-92074628D01*
X215295000Y-92036057D02*
X215217857Y-92074628D01*
X215063571Y-92074628D01*
X214986428Y-92036057D01*
X214947857Y-91958914D01*
X214947857Y-91650342D01*
X214986428Y-91573200D01*
X215063571Y-91534628D01*
X215217857Y-91534628D01*
X215295000Y-91573200D01*
X215333571Y-91650342D01*
X215333571Y-91727485D01*
X214947857Y-91804628D01*
X215680714Y-92074628D02*
X215680714Y-91534628D01*
X215680714Y-91688914D02*
X215719285Y-91611771D01*
X215757857Y-91573200D01*
X215835000Y-91534628D01*
X215912142Y-91534628D01*
X216915000Y-92074628D02*
X216837857Y-92036057D01*
X216799285Y-91958914D01*
X216799285Y-91264628D01*
X217570714Y-92074628D02*
X217570714Y-91650342D01*
X217532142Y-91573200D01*
X217455000Y-91534628D01*
X217300714Y-91534628D01*
X217223571Y-91573200D01*
X217570714Y-92036057D02*
X217493571Y-92074628D01*
X217300714Y-92074628D01*
X217223571Y-92036057D01*
X217185000Y-91958914D01*
X217185000Y-91881771D01*
X217223571Y-91804628D01*
X217300714Y-91766057D01*
X217493571Y-91766057D01*
X217570714Y-91727485D01*
X217879285Y-91534628D02*
X218072142Y-92074628D01*
X218265000Y-91534628D02*
X218072142Y-92074628D01*
X217995000Y-92267485D01*
X217956428Y-92306057D01*
X217879285Y-92344628D01*
X218882142Y-92036057D02*
X218805000Y-92074628D01*
X218650714Y-92074628D01*
X218573571Y-92036057D01*
X218535000Y-91958914D01*
X218535000Y-91650342D01*
X218573571Y-91573200D01*
X218650714Y-91534628D01*
X218805000Y-91534628D01*
X218882142Y-91573200D01*
X218920714Y-91650342D01*
X218920714Y-91727485D01*
X218535000Y-91804628D01*
X219267857Y-92074628D02*
X219267857Y-91534628D01*
X219267857Y-91688914D02*
X219306428Y-91611771D01*
X219345000Y-91573200D01*
X219422142Y-91534628D01*
X219499285Y-91534628D01*
X220270714Y-91534628D02*
X220579285Y-91534628D01*
X220386428Y-92074628D02*
X220386428Y-91380342D01*
X220425000Y-91303200D01*
X220502142Y-91264628D01*
X220579285Y-91264628D01*
X220849285Y-92074628D02*
X220849285Y-91534628D01*
X220849285Y-91264628D02*
X220810714Y-91303200D01*
X220849285Y-91341771D01*
X220887857Y-91303200D01*
X220849285Y-91264628D01*
X220849285Y-91341771D01*
X221235000Y-91534628D02*
X221235000Y-92074628D01*
X221235000Y-91611771D02*
X221273571Y-91573200D01*
X221350714Y-91534628D01*
X221466428Y-91534628D01*
X221543571Y-91573200D01*
X221582142Y-91650342D01*
X221582142Y-92074628D01*
X221967857Y-92074628D02*
X221967857Y-91534628D01*
X221967857Y-91264628D02*
X221929285Y-91303200D01*
X221967857Y-91341771D01*
X222006428Y-91303200D01*
X221967857Y-91264628D01*
X221967857Y-91341771D01*
X222315000Y-92036057D02*
X222392142Y-92074628D01*
X222546428Y-92074628D01*
X222623571Y-92036057D01*
X222662142Y-91958914D01*
X222662142Y-91920342D01*
X222623571Y-91843200D01*
X222546428Y-91804628D01*
X222430714Y-91804628D01*
X222353571Y-91766057D01*
X222315000Y-91688914D01*
X222315000Y-91650342D01*
X222353571Y-91573200D01*
X222430714Y-91534628D01*
X222546428Y-91534628D01*
X222623571Y-91573200D01*
X223009285Y-92074628D02*
X223009285Y-91264628D01*
X223356428Y-92074628D02*
X223356428Y-91650342D01*
X223317857Y-91573200D01*
X223240714Y-91534628D01*
X223125000Y-91534628D01*
X223047857Y-91573200D01*
X223009285Y-91611771D01*
X224050714Y-92036057D02*
X223973571Y-92074628D01*
X223819285Y-92074628D01*
X223742142Y-92036057D01*
X223703571Y-91958914D01*
X223703571Y-91650342D01*
X223742142Y-91573200D01*
X223819285Y-91534628D01*
X223973571Y-91534628D01*
X224050714Y-91573200D01*
X224089285Y-91650342D01*
X224089285Y-91727485D01*
X223703571Y-91804628D01*
X224783571Y-92074628D02*
X224783571Y-91264628D01*
X224783571Y-92036057D02*
X224706428Y-92074628D01*
X224552142Y-92074628D01*
X224475000Y-92036057D01*
X224436428Y-91997485D01*
X224397857Y-91920342D01*
X224397857Y-91688914D01*
X224436428Y-91611771D01*
X224475000Y-91573200D01*
X224552142Y-91534628D01*
X224706428Y-91534628D01*
X224783571Y-91573200D01*
X226133571Y-92036057D02*
X226056428Y-92074628D01*
X225902142Y-92074628D01*
X225825000Y-92036057D01*
X225786428Y-91997485D01*
X225747857Y-91920342D01*
X225747857Y-91688914D01*
X225786428Y-91611771D01*
X225825000Y-91573200D01*
X225902142Y-91534628D01*
X226056428Y-91534628D01*
X226133571Y-91573200D01*
X226596428Y-92074628D02*
X226519285Y-92036057D01*
X226480714Y-91997485D01*
X226442142Y-91920342D01*
X226442142Y-91688914D01*
X226480714Y-91611771D01*
X226519285Y-91573200D01*
X226596428Y-91534628D01*
X226712142Y-91534628D01*
X226789285Y-91573200D01*
X226827857Y-91611771D01*
X226866428Y-91688914D01*
X226866428Y-91920342D01*
X226827857Y-91997485D01*
X226789285Y-92036057D01*
X226712142Y-92074628D01*
X226596428Y-92074628D01*
X227213571Y-91534628D02*
X227213571Y-92344628D01*
X227213571Y-91573200D02*
X227290714Y-91534628D01*
X227445000Y-91534628D01*
X227522142Y-91573200D01*
X227560714Y-91611771D01*
X227599285Y-91688914D01*
X227599285Y-91920342D01*
X227560714Y-91997485D01*
X227522142Y-92036057D01*
X227445000Y-92074628D01*
X227290714Y-92074628D01*
X227213571Y-92036057D01*
X227946428Y-91534628D02*
X227946428Y-92344628D01*
X227946428Y-91573200D02*
X228023571Y-91534628D01*
X228177857Y-91534628D01*
X228255000Y-91573200D01*
X228293571Y-91611771D01*
X228332142Y-91688914D01*
X228332142Y-91920342D01*
X228293571Y-91997485D01*
X228255000Y-92036057D01*
X228177857Y-92074628D01*
X228023571Y-92074628D01*
X227946428Y-92036057D01*
X228987857Y-92036057D02*
X228910714Y-92074628D01*
X228756428Y-92074628D01*
X228679285Y-92036057D01*
X228640714Y-91958914D01*
X228640714Y-91650342D01*
X228679285Y-91573200D01*
X228756428Y-91534628D01*
X228910714Y-91534628D01*
X228987857Y-91573200D01*
X229026428Y-91650342D01*
X229026428Y-91727485D01*
X228640714Y-91804628D01*
X229373571Y-92074628D02*
X229373571Y-91534628D01*
X229373571Y-91688914D02*
X229412142Y-91611771D01*
X229450714Y-91573200D01*
X229527857Y-91534628D01*
X229605000Y-91534628D01*
X230376428Y-91534628D02*
X230685000Y-91534628D01*
X230492142Y-91264628D02*
X230492142Y-91958914D01*
X230530714Y-92036057D01*
X230607857Y-92074628D01*
X230685000Y-92074628D01*
X230955000Y-92074628D02*
X230955000Y-91264628D01*
X231302142Y-92074628D02*
X231302142Y-91650342D01*
X231263571Y-91573200D01*
X231186428Y-91534628D01*
X231070714Y-91534628D01*
X230993571Y-91573200D01*
X230955000Y-91611771D01*
X231687857Y-92074628D02*
X231687857Y-91534628D01*
X231687857Y-91264628D02*
X231649285Y-91303200D01*
X231687857Y-91341771D01*
X231726428Y-91303200D01*
X231687857Y-91264628D01*
X231687857Y-91341771D01*
X232420714Y-92036057D02*
X232343571Y-92074628D01*
X232189285Y-92074628D01*
X232112142Y-92036057D01*
X232073571Y-91997485D01*
X232035000Y-91920342D01*
X232035000Y-91688914D01*
X232073571Y-91611771D01*
X232112142Y-91573200D01*
X232189285Y-91534628D01*
X232343571Y-91534628D01*
X232420714Y-91573200D01*
X232767857Y-92074628D02*
X232767857Y-91264628D01*
X232845000Y-91766057D02*
X233076428Y-92074628D01*
X233076428Y-91534628D02*
X232767857Y-91843200D01*
X233423571Y-91534628D02*
X233423571Y-92074628D01*
X233423571Y-91611771D02*
X233462142Y-91573200D01*
X233539285Y-91534628D01*
X233655000Y-91534628D01*
X233732142Y-91573200D01*
X233770714Y-91650342D01*
X233770714Y-92074628D01*
X234465000Y-92036057D02*
X234387857Y-92074628D01*
X234233571Y-92074628D01*
X234156428Y-92036057D01*
X234117857Y-91958914D01*
X234117857Y-91650342D01*
X234156428Y-91573200D01*
X234233571Y-91534628D01*
X234387857Y-91534628D01*
X234465000Y-91573200D01*
X234503571Y-91650342D01*
X234503571Y-91727485D01*
X234117857Y-91804628D01*
X234812142Y-92036057D02*
X234889285Y-92074628D01*
X235043571Y-92074628D01*
X235120714Y-92036057D01*
X235159285Y-91958914D01*
X235159285Y-91920342D01*
X235120714Y-91843200D01*
X235043571Y-91804628D01*
X234927857Y-91804628D01*
X234850714Y-91766057D01*
X234812142Y-91688914D01*
X234812142Y-91650342D01*
X234850714Y-91573200D01*
X234927857Y-91534628D01*
X235043571Y-91534628D01*
X235120714Y-91573200D01*
X235467857Y-92036057D02*
X235545000Y-92074628D01*
X235699285Y-92074628D01*
X235776428Y-92036057D01*
X235815000Y-91958914D01*
X235815000Y-91920342D01*
X235776428Y-91843200D01*
X235699285Y-91804628D01*
X235583571Y-91804628D01*
X235506428Y-91766057D01*
X235467857Y-91688914D01*
X235467857Y-91650342D01*
X235506428Y-91573200D01*
X235583571Y-91534628D01*
X235699285Y-91534628D01*
X235776428Y-91573200D01*
X236162142Y-91997485D02*
X236200714Y-92036057D01*
X236162142Y-92074628D01*
X236123571Y-92036057D01*
X236162142Y-91997485D01*
X236162142Y-92074628D01*
X236162142Y-91573200D02*
X236200714Y-91611771D01*
X236162142Y-91650342D01*
X236123571Y-91611771D01*
X236162142Y-91573200D01*
X236162142Y-91650342D01*
X237589285Y-92074628D02*
X237126428Y-92074628D01*
X237357857Y-92074628D02*
X237357857Y-91264628D01*
X237280714Y-91380342D01*
X237203571Y-91457485D01*
X237126428Y-91496057D01*
X238052142Y-92074628D02*
X237975000Y-92036057D01*
X237936428Y-91997485D01*
X237897857Y-91920342D01*
X237897857Y-91688914D01*
X237936428Y-91611771D01*
X237975000Y-91573200D01*
X238052142Y-91534628D01*
X238167857Y-91534628D01*
X238245000Y-91573200D01*
X238283571Y-91611771D01*
X238322142Y-91688914D01*
X238322142Y-91920342D01*
X238283571Y-91997485D01*
X238245000Y-92036057D01*
X238167857Y-92074628D01*
X238052142Y-92074628D01*
X238592142Y-91534628D02*
X239016428Y-91534628D01*
X238592142Y-92074628D01*
X239016428Y-92074628D01*
%TO.C,D1*%
X196498642Y-88495980D02*
X196022452Y-88495980D01*
X196022452Y-87495980D01*
X196831976Y-87972171D02*
X197165309Y-87972171D01*
X197308166Y-88495980D02*
X196831976Y-88495980D01*
X196831976Y-87495980D01*
X197308166Y-87495980D01*
X197736738Y-88495980D02*
X197736738Y-87495980D01*
X197974833Y-87495980D01*
X198117690Y-87543600D01*
X198212928Y-87638838D01*
X198260547Y-87734076D01*
X198308166Y-87924552D01*
X198308166Y-88067409D01*
X198260547Y-88257885D01*
X198212928Y-88353123D01*
X198117690Y-88448361D01*
X197974833Y-88495980D01*
X197736738Y-88495980D01*
D11*
X196956976Y-89886695D02*
X196956976Y-89636695D01*
X197016500Y-89636695D01*
X197052214Y-89648600D01*
X197076023Y-89672409D01*
X197087928Y-89696219D01*
X197099833Y-89743838D01*
X197099833Y-89779552D01*
X197087928Y-89827171D01*
X197076023Y-89850980D01*
X197052214Y-89874790D01*
X197016500Y-89886695D01*
X196956976Y-89886695D01*
X197337928Y-89886695D02*
X197195071Y-89886695D01*
X197266500Y-89886695D02*
X197266500Y-89636695D01*
X197242690Y-89672409D01*
X197218880Y-89696219D01*
X197195071Y-89708123D01*
D10*
%TO.C,Y1*%
X179538095Y-99547619D02*
X179585714Y-99500000D01*
X179680952Y-99452380D01*
X179919047Y-99452380D01*
X180014285Y-99500000D01*
X180061904Y-99547619D01*
X180109523Y-99642857D01*
X180109523Y-99738095D01*
X180061904Y-99880952D01*
X179490476Y-100452380D01*
X180109523Y-100452380D01*
X180966666Y-99785714D02*
X180966666Y-100452380D01*
X180728571Y-99404761D02*
X180490476Y-100119047D01*
X181109523Y-100119047D01*
X181490476Y-100452380D02*
X181490476Y-99452380D01*
X181823809Y-100166666D01*
X182157142Y-99452380D01*
X182157142Y-100452380D01*
X182633333Y-100452380D02*
X182633333Y-99452380D01*
X182633333Y-99928571D02*
X183204761Y-99928571D01*
X183204761Y-100452380D02*
X183204761Y-99452380D01*
X183585714Y-99785714D02*
X184109523Y-99785714D01*
X183585714Y-100452380D01*
X184109523Y-100452380D01*
D12*
X181561904Y-101788095D02*
X181561904Y-102026190D01*
X181395238Y-101526190D02*
X181561904Y-101788095D01*
X181728571Y-101526190D01*
X182157142Y-102026190D02*
X181871428Y-102026190D01*
X182014285Y-102026190D02*
X182014285Y-101526190D01*
X181966666Y-101597619D01*
X181919047Y-101645238D01*
X181871428Y-101669047D01*
D10*
%TO.C,U4*%
X204454380Y-109203428D02*
X204454380Y-108632000D01*
X205454380Y-108917714D02*
X204454380Y-108917714D01*
X205406761Y-108346285D02*
X205454380Y-108203428D01*
X205454380Y-107965333D01*
X205406761Y-107870095D01*
X205359142Y-107822476D01*
X205263904Y-107774857D01*
X205168666Y-107774857D01*
X205073428Y-107822476D01*
X205025809Y-107870095D01*
X204978190Y-107965333D01*
X204930571Y-108155809D01*
X204882952Y-108251047D01*
X204835333Y-108298666D01*
X204740095Y-108346285D01*
X204644857Y-108346285D01*
X204549619Y-108298666D01*
X204502000Y-108251047D01*
X204454380Y-108155809D01*
X204454380Y-107917714D01*
X204502000Y-107774857D01*
X204454380Y-107441523D02*
X204454380Y-106822476D01*
X204835333Y-107155809D01*
X204835333Y-107012952D01*
X204882952Y-106917714D01*
X204930571Y-106870095D01*
X205025809Y-106822476D01*
X205263904Y-106822476D01*
X205359142Y-106870095D01*
X205406761Y-106917714D01*
X205454380Y-107012952D01*
X205454380Y-107298666D01*
X205406761Y-107393904D01*
X205359142Y-107441523D01*
X205168666Y-106441523D02*
X205168666Y-105965333D01*
X205454380Y-106536761D02*
X204454380Y-106203428D01*
X205454380Y-105870095D01*
X204549619Y-105584380D02*
X204502000Y-105536761D01*
X204454380Y-105441523D01*
X204454380Y-105203428D01*
X204502000Y-105108190D01*
X204549619Y-105060571D01*
X204644857Y-105012952D01*
X204740095Y-105012952D01*
X204882952Y-105060571D01*
X205454380Y-105632000D01*
X205454380Y-105012952D01*
X204454380Y-104679619D02*
X204454380Y-104012952D01*
X205454380Y-104441523D01*
X204454380Y-103155809D02*
X204454380Y-103632000D01*
X204930571Y-103679619D01*
X204882952Y-103632000D01*
X204835333Y-103536761D01*
X204835333Y-103298666D01*
X204882952Y-103203428D01*
X204930571Y-103155809D01*
X205025809Y-103108190D01*
X205263904Y-103108190D01*
X205359142Y-103155809D01*
X205406761Y-103203428D01*
X205454380Y-103298666D01*
X205454380Y-103536761D01*
X205406761Y-103632000D01*
X205359142Y-103679619D01*
X205454380Y-102155809D02*
X205454380Y-102727238D01*
X205454380Y-102441523D02*
X204454380Y-102441523D01*
X204597238Y-102536761D01*
X204692476Y-102632000D01*
X204740095Y-102727238D01*
X204882952Y-101584380D02*
X204835333Y-101679619D01*
X204787714Y-101727238D01*
X204692476Y-101774857D01*
X204644857Y-101774857D01*
X204549619Y-101727238D01*
X204502000Y-101679619D01*
X204454380Y-101584380D01*
X204454380Y-101393904D01*
X204502000Y-101298666D01*
X204549619Y-101251047D01*
X204644857Y-101203428D01*
X204692476Y-101203428D01*
X204787714Y-101251047D01*
X204835333Y-101298666D01*
X204882952Y-101393904D01*
X204882952Y-101584380D01*
X204930571Y-101679619D01*
X204978190Y-101727238D01*
X205073428Y-101774857D01*
X205263904Y-101774857D01*
X205359142Y-101727238D01*
X205406761Y-101679619D01*
X205454380Y-101584380D01*
X205454380Y-101393904D01*
X205406761Y-101298666D01*
X205359142Y-101251047D01*
X205263904Y-101203428D01*
X205073428Y-101203428D01*
X204978190Y-101251047D01*
X204930571Y-101298666D01*
X204882952Y-101393904D01*
X204930571Y-100774857D02*
X204930571Y-100441523D01*
X205454380Y-100298666D02*
X205454380Y-100774857D01*
X204454380Y-100774857D01*
X204454380Y-100298666D01*
X205454380Y-99870095D02*
X204454380Y-99870095D01*
X204454380Y-99489142D01*
X204502000Y-99393904D01*
X204549619Y-99346285D01*
X204644857Y-99298666D01*
X204787714Y-99298666D01*
X204882952Y-99346285D01*
X204930571Y-99393904D01*
X204978190Y-99489142D01*
X204978190Y-99870095D01*
X204454380Y-98965333D02*
X205454380Y-98727238D01*
X204740095Y-98536761D01*
X205454380Y-98346285D01*
X204454380Y-98108190D01*
X199604380Y-104393904D02*
X200413904Y-104393904D01*
X200509142Y-104346285D01*
X200556761Y-104298666D01*
X200604380Y-104203428D01*
X200604380Y-104012952D01*
X200556761Y-103917714D01*
X200509142Y-103870095D01*
X200413904Y-103822476D01*
X199604380Y-103822476D01*
X199937714Y-102917714D02*
X200604380Y-102917714D01*
X199556761Y-103155809D02*
X200271047Y-103393904D01*
X200271047Y-102774857D01*
%TO.C,R4*%
X198249761Y-100752380D02*
X197678333Y-100752380D01*
X197964047Y-100752380D02*
X197964047Y-99752380D01*
X197868809Y-99895238D01*
X197773571Y-99990476D01*
X197678333Y-100038095D01*
X198868809Y-99752380D02*
X198964047Y-99752380D01*
X199059285Y-99800000D01*
X199106904Y-99847619D01*
X199154523Y-99942857D01*
X199202142Y-100133333D01*
X199202142Y-100371428D01*
X199154523Y-100561904D01*
X199106904Y-100657142D01*
X199059285Y-100704761D01*
X198964047Y-100752380D01*
X198868809Y-100752380D01*
X198773571Y-100704761D01*
X198725952Y-100657142D01*
X198678333Y-100561904D01*
X198630714Y-100371428D01*
X198630714Y-100133333D01*
X198678333Y-99942857D01*
X198725952Y-99847619D01*
X198773571Y-99800000D01*
X198868809Y-99752380D01*
X199630714Y-100752380D02*
X199630714Y-99752380D01*
X199725952Y-100371428D02*
X200011666Y-100752380D01*
X200011666Y-100085714D02*
X199630714Y-100466666D01*
D11*
X198803333Y-98683095D02*
X198720000Y-98564047D01*
X198660476Y-98683095D02*
X198660476Y-98433095D01*
X198755714Y-98433095D01*
X198779523Y-98445000D01*
X198791428Y-98456904D01*
X198803333Y-98480714D01*
X198803333Y-98516428D01*
X198791428Y-98540238D01*
X198779523Y-98552142D01*
X198755714Y-98564047D01*
X198660476Y-98564047D01*
X199017619Y-98516428D02*
X199017619Y-98683095D01*
X198958095Y-98421190D02*
X198898571Y-98599761D01*
X199053333Y-98599761D01*
D10*
%TO.C,R11*%
X194144180Y-106232638D02*
X194144180Y-106804066D01*
X194144180Y-106518352D02*
X193144180Y-106518352D01*
X193287038Y-106613590D01*
X193382276Y-106708828D01*
X193429895Y-106804066D01*
X193144180Y-105613590D02*
X193144180Y-105518352D01*
X193191800Y-105423114D01*
X193239419Y-105375495D01*
X193334657Y-105327876D01*
X193525133Y-105280257D01*
X193763228Y-105280257D01*
X193953704Y-105327876D01*
X194048942Y-105375495D01*
X194096561Y-105423114D01*
X194144180Y-105518352D01*
X194144180Y-105613590D01*
X194096561Y-105708828D01*
X194048942Y-105756447D01*
X193953704Y-105804066D01*
X193763228Y-105851685D01*
X193525133Y-105851685D01*
X193334657Y-105804066D01*
X193239419Y-105756447D01*
X193191800Y-105708828D01*
X193144180Y-105613590D01*
X194144180Y-104851685D02*
X193144180Y-104851685D01*
X193763228Y-104756447D02*
X194144180Y-104470733D01*
X193477514Y-104470733D02*
X193858466Y-104851685D01*
D11*
X195534895Y-105798114D02*
X195415847Y-105881447D01*
X195534895Y-105940971D02*
X195284895Y-105940971D01*
X195284895Y-105845733D01*
X195296800Y-105821923D01*
X195308704Y-105810019D01*
X195332514Y-105798114D01*
X195368228Y-105798114D01*
X195392038Y-105810019D01*
X195403942Y-105821923D01*
X195415847Y-105845733D01*
X195415847Y-105940971D01*
X195534895Y-105560019D02*
X195534895Y-105702876D01*
X195534895Y-105631447D02*
X195284895Y-105631447D01*
X195320609Y-105655257D01*
X195344419Y-105679066D01*
X195356323Y-105702876D01*
X195534895Y-105321923D02*
X195534895Y-105464780D01*
X195534895Y-105393352D02*
X195284895Y-105393352D01*
X195320609Y-105417161D01*
X195344419Y-105440971D01*
X195356323Y-105464780D01*
D10*
%TO.C,C18*%
X190807142Y-92152380D02*
X190902380Y-92152380D01*
X190997619Y-92200000D01*
X191045238Y-92247619D01*
X191092857Y-92342857D01*
X191140476Y-92533333D01*
X191140476Y-92771428D01*
X191092857Y-92961904D01*
X191045238Y-93057142D01*
X190997619Y-93104761D01*
X190902380Y-93152380D01*
X190807142Y-93152380D01*
X190711904Y-93104761D01*
X190664285Y-93057142D01*
X190616666Y-92961904D01*
X190569047Y-92771428D01*
X190569047Y-92533333D01*
X190616666Y-92342857D01*
X190664285Y-92247619D01*
X190711904Y-92200000D01*
X190807142Y-92152380D01*
X191569047Y-93057142D02*
X191616666Y-93104761D01*
X191569047Y-93152380D01*
X191521428Y-93104761D01*
X191569047Y-93057142D01*
X191569047Y-93152380D01*
X192569047Y-93152380D02*
X191997619Y-93152380D01*
X192283333Y-93152380D02*
X192283333Y-92152380D01*
X192188095Y-92295238D01*
X192092857Y-92390476D01*
X191997619Y-92438095D01*
X193426190Y-92485714D02*
X193426190Y-93152380D01*
X192997619Y-92485714D02*
X192997619Y-93009523D01*
X193045238Y-93104761D01*
X193140476Y-93152380D01*
X193283333Y-93152380D01*
X193378571Y-93104761D01*
X193426190Y-93057142D01*
X194235714Y-92628571D02*
X193902380Y-92628571D01*
X193902380Y-93152380D02*
X193902380Y-92152380D01*
X194378571Y-92152380D01*
D11*
X192289285Y-91059285D02*
X192277380Y-91071190D01*
X192241666Y-91083095D01*
X192217857Y-91083095D01*
X192182142Y-91071190D01*
X192158333Y-91047380D01*
X192146428Y-91023571D01*
X192134523Y-90975952D01*
X192134523Y-90940238D01*
X192146428Y-90892619D01*
X192158333Y-90868809D01*
X192182142Y-90845000D01*
X192217857Y-90833095D01*
X192241666Y-90833095D01*
X192277380Y-90845000D01*
X192289285Y-90856904D01*
X192527380Y-91083095D02*
X192384523Y-91083095D01*
X192455952Y-91083095D02*
X192455952Y-90833095D01*
X192432142Y-90868809D01*
X192408333Y-90892619D01*
X192384523Y-90904523D01*
X192670238Y-90940238D02*
X192646428Y-90928333D01*
X192634523Y-90916428D01*
X192622619Y-90892619D01*
X192622619Y-90880714D01*
X192634523Y-90856904D01*
X192646428Y-90845000D01*
X192670238Y-90833095D01*
X192717857Y-90833095D01*
X192741666Y-90845000D01*
X192753571Y-90856904D01*
X192765476Y-90880714D01*
X192765476Y-90892619D01*
X192753571Y-90916428D01*
X192741666Y-90928333D01*
X192717857Y-90940238D01*
X192670238Y-90940238D01*
X192646428Y-90952142D01*
X192634523Y-90964047D01*
X192622619Y-90987857D01*
X192622619Y-91035476D01*
X192634523Y-91059285D01*
X192646428Y-91071190D01*
X192670238Y-91083095D01*
X192717857Y-91083095D01*
X192741666Y-91071190D01*
X192753571Y-91059285D01*
X192765476Y-91035476D01*
X192765476Y-90987857D01*
X192753571Y-90964047D01*
X192741666Y-90952142D01*
X192717857Y-90940238D01*
D10*
%TO.C,R13*%
X188577142Y-112902380D02*
X188100952Y-112902380D01*
X188053333Y-113378571D01*
X188100952Y-113330952D01*
X188196190Y-113283333D01*
X188434285Y-113283333D01*
X188529523Y-113330952D01*
X188577142Y-113378571D01*
X188624761Y-113473809D01*
X188624761Y-113711904D01*
X188577142Y-113807142D01*
X188529523Y-113854761D01*
X188434285Y-113902380D01*
X188196190Y-113902380D01*
X188100952Y-113854761D01*
X188053333Y-113807142D01*
X189577142Y-113902380D02*
X189005714Y-113902380D01*
X189291428Y-113902380D02*
X189291428Y-112902380D01*
X189196190Y-113045238D01*
X189100952Y-113140476D01*
X189005714Y-113188095D01*
X190005714Y-113902380D02*
X190005714Y-112902380D01*
X190100952Y-113521428D02*
X190386666Y-113902380D01*
X190386666Y-113235714D02*
X190005714Y-113616666D01*
D11*
X188889285Y-111683095D02*
X188805952Y-111564047D01*
X188746428Y-111683095D02*
X188746428Y-111433095D01*
X188841666Y-111433095D01*
X188865476Y-111445000D01*
X188877380Y-111456904D01*
X188889285Y-111480714D01*
X188889285Y-111516428D01*
X188877380Y-111540238D01*
X188865476Y-111552142D01*
X188841666Y-111564047D01*
X188746428Y-111564047D01*
X189127380Y-111683095D02*
X188984523Y-111683095D01*
X189055952Y-111683095D02*
X189055952Y-111433095D01*
X189032142Y-111468809D01*
X189008333Y-111492619D01*
X188984523Y-111504523D01*
X189210714Y-111433095D02*
X189365476Y-111433095D01*
X189282142Y-111528333D01*
X189317857Y-111528333D01*
X189341666Y-111540238D01*
X189353571Y-111552142D01*
X189365476Y-111575952D01*
X189365476Y-111635476D01*
X189353571Y-111659285D01*
X189341666Y-111671190D01*
X189317857Y-111683095D01*
X189246428Y-111683095D01*
X189222619Y-111671190D01*
X189210714Y-111659285D01*
D10*
%TO.C,R12*%
X194931580Y-106232638D02*
X194931580Y-106804066D01*
X194931580Y-106518352D02*
X193931580Y-106518352D01*
X194074438Y-106613590D01*
X194169676Y-106708828D01*
X194217295Y-106804066D01*
X193931580Y-105613590D02*
X193931580Y-105518352D01*
X193979200Y-105423114D01*
X194026819Y-105375495D01*
X194122057Y-105327876D01*
X194312533Y-105280257D01*
X194550628Y-105280257D01*
X194741104Y-105327876D01*
X194836342Y-105375495D01*
X194883961Y-105423114D01*
X194931580Y-105518352D01*
X194931580Y-105613590D01*
X194883961Y-105708828D01*
X194836342Y-105756447D01*
X194741104Y-105804066D01*
X194550628Y-105851685D01*
X194312533Y-105851685D01*
X194122057Y-105804066D01*
X194026819Y-105756447D01*
X193979200Y-105708828D01*
X193931580Y-105613590D01*
X194931580Y-104851685D02*
X193931580Y-104851685D01*
X194550628Y-104756447D02*
X194931580Y-104470733D01*
X194264914Y-104470733D02*
X194645866Y-104851685D01*
D11*
X196322295Y-105798114D02*
X196203247Y-105881447D01*
X196322295Y-105940971D02*
X196072295Y-105940971D01*
X196072295Y-105845733D01*
X196084200Y-105821923D01*
X196096104Y-105810019D01*
X196119914Y-105798114D01*
X196155628Y-105798114D01*
X196179438Y-105810019D01*
X196191342Y-105821923D01*
X196203247Y-105845733D01*
X196203247Y-105940971D01*
X196322295Y-105560019D02*
X196322295Y-105702876D01*
X196322295Y-105631447D02*
X196072295Y-105631447D01*
X196108009Y-105655257D01*
X196131819Y-105679066D01*
X196143723Y-105702876D01*
X196096104Y-105464780D02*
X196084200Y-105452876D01*
X196072295Y-105429066D01*
X196072295Y-105369542D01*
X196084200Y-105345733D01*
X196096104Y-105333828D01*
X196119914Y-105321923D01*
X196143723Y-105321923D01*
X196179438Y-105333828D01*
X196322295Y-105476685D01*
X196322295Y-105321923D01*
D10*
%TO.C,C4*%
X196709761Y-97114980D02*
X196138333Y-97114980D01*
X196424047Y-97114980D02*
X196424047Y-96114980D01*
X196328809Y-96257838D01*
X196233571Y-96353076D01*
X196138333Y-96400695D01*
X197566904Y-96448314D02*
X197566904Y-97114980D01*
X197138333Y-96448314D02*
X197138333Y-96972123D01*
X197185952Y-97067361D01*
X197281190Y-97114980D01*
X197424047Y-97114980D01*
X197519285Y-97067361D01*
X197566904Y-97019742D01*
X198376428Y-96591171D02*
X198043095Y-96591171D01*
X198043095Y-97114980D02*
X198043095Y-96114980D01*
X198519285Y-96114980D01*
D11*
X197263333Y-98481885D02*
X197251428Y-98493790D01*
X197215714Y-98505695D01*
X197191904Y-98505695D01*
X197156190Y-98493790D01*
X197132380Y-98469980D01*
X197120476Y-98446171D01*
X197108571Y-98398552D01*
X197108571Y-98362838D01*
X197120476Y-98315219D01*
X197132380Y-98291409D01*
X197156190Y-98267600D01*
X197191904Y-98255695D01*
X197215714Y-98255695D01*
X197251428Y-98267600D01*
X197263333Y-98279504D01*
X197477619Y-98339028D02*
X197477619Y-98505695D01*
X197418095Y-98243790D02*
X197358571Y-98422361D01*
X197513333Y-98422361D01*
D10*
%TO.C,C8*%
X184716942Y-89122980D02*
X184812180Y-89122980D01*
X184907419Y-89170600D01*
X184955038Y-89218219D01*
X185002657Y-89313457D01*
X185050276Y-89503933D01*
X185050276Y-89742028D01*
X185002657Y-89932504D01*
X184955038Y-90027742D01*
X184907419Y-90075361D01*
X184812180Y-90122980D01*
X184716942Y-90122980D01*
X184621704Y-90075361D01*
X184574085Y-90027742D01*
X184526466Y-89932504D01*
X184478847Y-89742028D01*
X184478847Y-89503933D01*
X184526466Y-89313457D01*
X184574085Y-89218219D01*
X184621704Y-89170600D01*
X184716942Y-89122980D01*
X185478847Y-90027742D02*
X185526466Y-90075361D01*
X185478847Y-90122980D01*
X185431228Y-90075361D01*
X185478847Y-90027742D01*
X185478847Y-90122980D01*
X186478847Y-90122980D02*
X185907419Y-90122980D01*
X186193133Y-90122980D02*
X186193133Y-89122980D01*
X186097895Y-89265838D01*
X186002657Y-89361076D01*
X185907419Y-89408695D01*
X187335990Y-89456314D02*
X187335990Y-90122980D01*
X186907419Y-89456314D02*
X186907419Y-89980123D01*
X186955038Y-90075361D01*
X187050276Y-90122980D01*
X187193133Y-90122980D01*
X187288371Y-90075361D01*
X187335990Y-90027742D01*
X188145514Y-89599171D02*
X187812180Y-89599171D01*
X187812180Y-90122980D02*
X187812180Y-89122980D01*
X188288371Y-89122980D01*
D11*
X186318133Y-88029885D02*
X186306228Y-88041790D01*
X186270514Y-88053695D01*
X186246704Y-88053695D01*
X186210990Y-88041790D01*
X186187180Y-88017980D01*
X186175276Y-87994171D01*
X186163371Y-87946552D01*
X186163371Y-87910838D01*
X186175276Y-87863219D01*
X186187180Y-87839409D01*
X186210990Y-87815600D01*
X186246704Y-87803695D01*
X186270514Y-87803695D01*
X186306228Y-87815600D01*
X186318133Y-87827504D01*
X186460990Y-87910838D02*
X186437180Y-87898933D01*
X186425276Y-87887028D01*
X186413371Y-87863219D01*
X186413371Y-87851314D01*
X186425276Y-87827504D01*
X186437180Y-87815600D01*
X186460990Y-87803695D01*
X186508609Y-87803695D01*
X186532419Y-87815600D01*
X186544323Y-87827504D01*
X186556228Y-87851314D01*
X186556228Y-87863219D01*
X186544323Y-87887028D01*
X186532419Y-87898933D01*
X186508609Y-87910838D01*
X186460990Y-87910838D01*
X186437180Y-87922742D01*
X186425276Y-87934647D01*
X186413371Y-87958457D01*
X186413371Y-88006076D01*
X186425276Y-88029885D01*
X186437180Y-88041790D01*
X186460990Y-88053695D01*
X186508609Y-88053695D01*
X186532419Y-88041790D01*
X186544323Y-88029885D01*
X186556228Y-88006076D01*
X186556228Y-87958457D01*
X186544323Y-87934647D01*
X186532419Y-87922742D01*
X186508609Y-87910838D01*
D10*
%TO.C,D2*%
X200673042Y-88502380D02*
X200196852Y-88502380D01*
X200196852Y-87502380D01*
X201006376Y-87978571D02*
X201339709Y-87978571D01*
X201482566Y-88502380D02*
X201006376Y-88502380D01*
X201006376Y-87502380D01*
X201482566Y-87502380D01*
X201911138Y-88502380D02*
X201911138Y-87502380D01*
X202149233Y-87502380D01*
X202292090Y-87550000D01*
X202387328Y-87645238D01*
X202434947Y-87740476D01*
X202482566Y-87930952D01*
X202482566Y-88073809D01*
X202434947Y-88264285D01*
X202387328Y-88359523D01*
X202292090Y-88454761D01*
X202149233Y-88502380D01*
X201911138Y-88502380D01*
D11*
X201131376Y-89893095D02*
X201131376Y-89643095D01*
X201190900Y-89643095D01*
X201226614Y-89655000D01*
X201250423Y-89678809D01*
X201262328Y-89702619D01*
X201274233Y-89750238D01*
X201274233Y-89785952D01*
X201262328Y-89833571D01*
X201250423Y-89857380D01*
X201226614Y-89881190D01*
X201190900Y-89893095D01*
X201131376Y-89893095D01*
X201369471Y-89666904D02*
X201381376Y-89655000D01*
X201405185Y-89643095D01*
X201464709Y-89643095D01*
X201488519Y-89655000D01*
X201500423Y-89666904D01*
X201512328Y-89690714D01*
X201512328Y-89714523D01*
X201500423Y-89750238D01*
X201357566Y-89893095D01*
X201512328Y-89893095D01*
D10*
%TO.C,R14*%
X177691904Y-98357619D02*
X177739523Y-98310000D01*
X177834761Y-98262380D01*
X178072857Y-98262380D01*
X178168095Y-98310000D01*
X178215714Y-98357619D01*
X178263333Y-98452857D01*
X178263333Y-98548095D01*
X178215714Y-98690952D01*
X177644285Y-99262380D01*
X178263333Y-99262380D01*
X178644285Y-98357619D02*
X178691904Y-98310000D01*
X178787142Y-98262380D01*
X179025238Y-98262380D01*
X179120476Y-98310000D01*
X179168095Y-98357619D01*
X179215714Y-98452857D01*
X179215714Y-98548095D01*
X179168095Y-98690952D01*
X178596666Y-99262380D01*
X179215714Y-99262380D01*
X179834761Y-98262380D02*
X179930000Y-98262380D01*
X180025238Y-98310000D01*
X180072857Y-98357619D01*
X180120476Y-98452857D01*
X180168095Y-98643333D01*
X180168095Y-98881428D01*
X180120476Y-99071904D01*
X180072857Y-99167142D01*
X180025238Y-99214761D01*
X179930000Y-99262380D01*
X179834761Y-99262380D01*
X179739523Y-99214761D01*
X179691904Y-99167142D01*
X179644285Y-99071904D01*
X179596666Y-98881428D01*
X179596666Y-98643333D01*
X179644285Y-98452857D01*
X179691904Y-98357619D01*
X179739523Y-98310000D01*
X179834761Y-98262380D01*
D11*
X178559285Y-100973095D02*
X178475952Y-100854047D01*
X178416428Y-100973095D02*
X178416428Y-100723095D01*
X178511666Y-100723095D01*
X178535476Y-100735000D01*
X178547380Y-100746904D01*
X178559285Y-100770714D01*
X178559285Y-100806428D01*
X178547380Y-100830238D01*
X178535476Y-100842142D01*
X178511666Y-100854047D01*
X178416428Y-100854047D01*
X178797380Y-100973095D02*
X178654523Y-100973095D01*
X178725952Y-100973095D02*
X178725952Y-100723095D01*
X178702142Y-100758809D01*
X178678333Y-100782619D01*
X178654523Y-100794523D01*
X179011666Y-100806428D02*
X179011666Y-100973095D01*
X178952142Y-100711190D02*
X178892619Y-100889761D01*
X179047380Y-100889761D01*
D10*
%TO.C,C25*%
X175807142Y-116652380D02*
X175902380Y-116652380D01*
X175997619Y-116700000D01*
X176045238Y-116747619D01*
X176092857Y-116842857D01*
X176140476Y-117033333D01*
X176140476Y-117271428D01*
X176092857Y-117461904D01*
X176045238Y-117557142D01*
X175997619Y-117604761D01*
X175902380Y-117652380D01*
X175807142Y-117652380D01*
X175711904Y-117604761D01*
X175664285Y-117557142D01*
X175616666Y-117461904D01*
X175569047Y-117271428D01*
X175569047Y-117033333D01*
X175616666Y-116842857D01*
X175664285Y-116747619D01*
X175711904Y-116700000D01*
X175807142Y-116652380D01*
X176569047Y-117557142D02*
X176616666Y-117604761D01*
X176569047Y-117652380D01*
X176521428Y-117604761D01*
X176569047Y-117557142D01*
X176569047Y-117652380D01*
X177569047Y-117652380D02*
X176997619Y-117652380D01*
X177283333Y-117652380D02*
X177283333Y-116652380D01*
X177188095Y-116795238D01*
X177092857Y-116890476D01*
X176997619Y-116938095D01*
X178426190Y-116985714D02*
X178426190Y-117652380D01*
X177997619Y-116985714D02*
X177997619Y-117509523D01*
X178045238Y-117604761D01*
X178140476Y-117652380D01*
X178283333Y-117652380D01*
X178378571Y-117604761D01*
X178426190Y-117557142D01*
X179235714Y-117128571D02*
X178902380Y-117128571D01*
X178902380Y-117652380D02*
X178902380Y-116652380D01*
X179378571Y-116652380D01*
D11*
X177289285Y-115559285D02*
X177277380Y-115571190D01*
X177241666Y-115583095D01*
X177217857Y-115583095D01*
X177182142Y-115571190D01*
X177158333Y-115547380D01*
X177146428Y-115523571D01*
X177134523Y-115475952D01*
X177134523Y-115440238D01*
X177146428Y-115392619D01*
X177158333Y-115368809D01*
X177182142Y-115345000D01*
X177217857Y-115333095D01*
X177241666Y-115333095D01*
X177277380Y-115345000D01*
X177289285Y-115356904D01*
X177384523Y-115356904D02*
X177396428Y-115345000D01*
X177420238Y-115333095D01*
X177479761Y-115333095D01*
X177503571Y-115345000D01*
X177515476Y-115356904D01*
X177527380Y-115380714D01*
X177527380Y-115404523D01*
X177515476Y-115440238D01*
X177372619Y-115583095D01*
X177527380Y-115583095D01*
X177753571Y-115333095D02*
X177634523Y-115333095D01*
X177622619Y-115452142D01*
X177634523Y-115440238D01*
X177658333Y-115428333D01*
X177717857Y-115428333D01*
X177741666Y-115440238D01*
X177753571Y-115452142D01*
X177765476Y-115475952D01*
X177765476Y-115535476D01*
X177753571Y-115559285D01*
X177741666Y-115571190D01*
X177717857Y-115583095D01*
X177658333Y-115583095D01*
X177634523Y-115571190D01*
X177622619Y-115559285D01*
D10*
%TO.C,R19*%
X197994285Y-88308780D02*
X198613333Y-88308780D01*
X198280000Y-88689733D01*
X198422857Y-88689733D01*
X198518095Y-88737352D01*
X198565714Y-88784971D01*
X198613333Y-88880209D01*
X198613333Y-89118304D01*
X198565714Y-89213542D01*
X198518095Y-89261161D01*
X198422857Y-89308780D01*
X198137142Y-89308780D01*
X198041904Y-89261161D01*
X197994285Y-89213542D01*
X198946666Y-88308780D02*
X199565714Y-88308780D01*
X199232380Y-88689733D01*
X199375238Y-88689733D01*
X199470476Y-88737352D01*
X199518095Y-88784971D01*
X199565714Y-88880209D01*
X199565714Y-89118304D01*
X199518095Y-89213542D01*
X199470476Y-89261161D01*
X199375238Y-89308780D01*
X199089523Y-89308780D01*
X198994285Y-89261161D01*
X198946666Y-89213542D01*
X200184761Y-88308780D02*
X200280000Y-88308780D01*
X200375238Y-88356400D01*
X200422857Y-88404019D01*
X200470476Y-88499257D01*
X200518095Y-88689733D01*
X200518095Y-88927828D01*
X200470476Y-89118304D01*
X200422857Y-89213542D01*
X200375238Y-89261161D01*
X200280000Y-89308780D01*
X200184761Y-89308780D01*
X200089523Y-89261161D01*
X200041904Y-89213542D01*
X199994285Y-89118304D01*
X199946666Y-88927828D01*
X199946666Y-88689733D01*
X199994285Y-88499257D01*
X200041904Y-88404019D01*
X200089523Y-88356400D01*
X200184761Y-88308780D01*
D11*
X199119285Y-90699495D02*
X199035952Y-90580447D01*
X198976428Y-90699495D02*
X198976428Y-90449495D01*
X199071666Y-90449495D01*
X199095476Y-90461400D01*
X199107380Y-90473304D01*
X199119285Y-90497114D01*
X199119285Y-90532828D01*
X199107380Y-90556638D01*
X199095476Y-90568542D01*
X199071666Y-90580447D01*
X198976428Y-90580447D01*
X199357380Y-90699495D02*
X199214523Y-90699495D01*
X199285952Y-90699495D02*
X199285952Y-90449495D01*
X199262142Y-90485209D01*
X199238333Y-90509019D01*
X199214523Y-90520923D01*
X199476428Y-90699495D02*
X199524047Y-90699495D01*
X199547857Y-90687590D01*
X199559761Y-90675685D01*
X199583571Y-90639971D01*
X199595476Y-90592352D01*
X199595476Y-90497114D01*
X199583571Y-90473304D01*
X199571666Y-90461400D01*
X199547857Y-90449495D01*
X199500238Y-90449495D01*
X199476428Y-90461400D01*
X199464523Y-90473304D01*
X199452619Y-90497114D01*
X199452619Y-90556638D01*
X199464523Y-90580447D01*
X199476428Y-90592352D01*
X199500238Y-90604257D01*
X199547857Y-90604257D01*
X199571666Y-90592352D01*
X199583571Y-90580447D01*
X199595476Y-90556638D01*
D10*
%TO.C,C20*%
X193895238Y-97735714D02*
X193895238Y-98402380D01*
X193657142Y-97354761D02*
X193419047Y-98069047D01*
X194038095Y-98069047D01*
X194419047Y-98307142D02*
X194466666Y-98354761D01*
X194419047Y-98402380D01*
X194371428Y-98354761D01*
X194419047Y-98307142D01*
X194419047Y-98402380D01*
X194800000Y-97402380D02*
X195466666Y-97402380D01*
X195038095Y-98402380D01*
X196276190Y-97735714D02*
X196276190Y-98402380D01*
X195847619Y-97735714D02*
X195847619Y-98259523D01*
X195895238Y-98354761D01*
X195990476Y-98402380D01*
X196133333Y-98402380D01*
X196228571Y-98354761D01*
X196276190Y-98307142D01*
X197085714Y-97878571D02*
X196752380Y-97878571D01*
X196752380Y-98402380D02*
X196752380Y-97402380D01*
X197228571Y-97402380D01*
D11*
X195139285Y-96309285D02*
X195127380Y-96321190D01*
X195091666Y-96333095D01*
X195067857Y-96333095D01*
X195032142Y-96321190D01*
X195008333Y-96297380D01*
X194996428Y-96273571D01*
X194984523Y-96225952D01*
X194984523Y-96190238D01*
X194996428Y-96142619D01*
X195008333Y-96118809D01*
X195032142Y-96095000D01*
X195067857Y-96083095D01*
X195091666Y-96083095D01*
X195127380Y-96095000D01*
X195139285Y-96106904D01*
X195234523Y-96106904D02*
X195246428Y-96095000D01*
X195270238Y-96083095D01*
X195329761Y-96083095D01*
X195353571Y-96095000D01*
X195365476Y-96106904D01*
X195377380Y-96130714D01*
X195377380Y-96154523D01*
X195365476Y-96190238D01*
X195222619Y-96333095D01*
X195377380Y-96333095D01*
X195532142Y-96083095D02*
X195555952Y-96083095D01*
X195579761Y-96095000D01*
X195591666Y-96106904D01*
X195603571Y-96130714D01*
X195615476Y-96178333D01*
X195615476Y-96237857D01*
X195603571Y-96285476D01*
X195591666Y-96309285D01*
X195579761Y-96321190D01*
X195555952Y-96333095D01*
X195532142Y-96333095D01*
X195508333Y-96321190D01*
X195496428Y-96309285D01*
X195484523Y-96285476D01*
X195472619Y-96237857D01*
X195472619Y-96178333D01*
X195484523Y-96130714D01*
X195496428Y-96106904D01*
X195508333Y-96095000D01*
X195532142Y-96083095D01*
D10*
%TO.C,R5*%
X185302380Y-91519638D02*
X185302380Y-92091066D01*
X185302380Y-91805352D02*
X184302380Y-91805352D01*
X184445238Y-91900590D01*
X184540476Y-91995828D01*
X184588095Y-92091066D01*
X184302380Y-90900590D02*
X184302380Y-90805352D01*
X184350000Y-90710114D01*
X184397619Y-90662495D01*
X184492857Y-90614876D01*
X184683333Y-90567257D01*
X184921428Y-90567257D01*
X185111904Y-90614876D01*
X185207142Y-90662495D01*
X185254761Y-90710114D01*
X185302380Y-90805352D01*
X185302380Y-90900590D01*
X185254761Y-90995828D01*
X185207142Y-91043447D01*
X185111904Y-91091066D01*
X184921428Y-91138685D01*
X184683333Y-91138685D01*
X184492857Y-91091066D01*
X184397619Y-91043447D01*
X184350000Y-90995828D01*
X184302380Y-90900590D01*
X185302380Y-90138685D02*
X184302380Y-90138685D01*
X184921428Y-90043447D02*
X185302380Y-89757733D01*
X184635714Y-89757733D02*
X185016666Y-90138685D01*
D11*
X186513095Y-90966066D02*
X186394047Y-91049400D01*
X186513095Y-91108923D02*
X186263095Y-91108923D01*
X186263095Y-91013685D01*
X186275000Y-90989876D01*
X186286904Y-90977971D01*
X186310714Y-90966066D01*
X186346428Y-90966066D01*
X186370238Y-90977971D01*
X186382142Y-90989876D01*
X186394047Y-91013685D01*
X186394047Y-91108923D01*
X186263095Y-90739876D02*
X186263095Y-90858923D01*
X186382142Y-90870828D01*
X186370238Y-90858923D01*
X186358333Y-90835114D01*
X186358333Y-90775590D01*
X186370238Y-90751780D01*
X186382142Y-90739876D01*
X186405952Y-90727971D01*
X186465476Y-90727971D01*
X186489285Y-90739876D01*
X186501190Y-90751780D01*
X186513095Y-90775590D01*
X186513095Y-90835114D01*
X186501190Y-90858923D01*
X186489285Y-90870828D01*
D10*
%TO.C,R16*%
X193452380Y-99995238D02*
X193452380Y-100566666D01*
X193452380Y-100280952D02*
X192452380Y-100280952D01*
X192595238Y-100376190D01*
X192690476Y-100471428D01*
X192738095Y-100566666D01*
X192452380Y-99376190D02*
X192452380Y-99280952D01*
X192500000Y-99185714D01*
X192547619Y-99138095D01*
X192642857Y-99090476D01*
X192833333Y-99042857D01*
X193071428Y-99042857D01*
X193261904Y-99090476D01*
X193357142Y-99138095D01*
X193404761Y-99185714D01*
X193452380Y-99280952D01*
X193452380Y-99376190D01*
X193404761Y-99471428D01*
X193357142Y-99519047D01*
X193261904Y-99566666D01*
X193071428Y-99614285D01*
X192833333Y-99614285D01*
X192642857Y-99566666D01*
X192547619Y-99519047D01*
X192500000Y-99471428D01*
X192452380Y-99376190D01*
X193452380Y-98614285D02*
X192452380Y-98614285D01*
X193071428Y-98519047D02*
X193452380Y-98233333D01*
X192785714Y-98233333D02*
X193166666Y-98614285D01*
D11*
X194843095Y-99560714D02*
X194724047Y-99644047D01*
X194843095Y-99703571D02*
X194593095Y-99703571D01*
X194593095Y-99608333D01*
X194605000Y-99584523D01*
X194616904Y-99572619D01*
X194640714Y-99560714D01*
X194676428Y-99560714D01*
X194700238Y-99572619D01*
X194712142Y-99584523D01*
X194724047Y-99608333D01*
X194724047Y-99703571D01*
X194843095Y-99322619D02*
X194843095Y-99465476D01*
X194843095Y-99394047D02*
X194593095Y-99394047D01*
X194628809Y-99417857D01*
X194652619Y-99441666D01*
X194664523Y-99465476D01*
X194593095Y-99108333D02*
X194593095Y-99155952D01*
X194605000Y-99179761D01*
X194616904Y-99191666D01*
X194652619Y-99215476D01*
X194700238Y-99227380D01*
X194795476Y-99227380D01*
X194819285Y-99215476D01*
X194831190Y-99203571D01*
X194843095Y-99179761D01*
X194843095Y-99132142D01*
X194831190Y-99108333D01*
X194819285Y-99096428D01*
X194795476Y-99084523D01*
X194735952Y-99084523D01*
X194712142Y-99096428D01*
X194700238Y-99108333D01*
X194688333Y-99132142D01*
X194688333Y-99179761D01*
X194700238Y-99203571D01*
X194712142Y-99215476D01*
X194735952Y-99227380D01*
D10*
%TO.C,C5*%
X190553142Y-100516380D02*
X190648380Y-100516380D01*
X190743619Y-100564000D01*
X190791238Y-100611619D01*
X190838857Y-100706857D01*
X190886476Y-100897333D01*
X190886476Y-101135428D01*
X190838857Y-101325904D01*
X190791238Y-101421142D01*
X190743619Y-101468761D01*
X190648380Y-101516380D01*
X190553142Y-101516380D01*
X190457904Y-101468761D01*
X190410285Y-101421142D01*
X190362666Y-101325904D01*
X190315047Y-101135428D01*
X190315047Y-100897333D01*
X190362666Y-100706857D01*
X190410285Y-100611619D01*
X190457904Y-100564000D01*
X190553142Y-100516380D01*
X191315047Y-101421142D02*
X191362666Y-101468761D01*
X191315047Y-101516380D01*
X191267428Y-101468761D01*
X191315047Y-101421142D01*
X191315047Y-101516380D01*
X192315047Y-101516380D02*
X191743619Y-101516380D01*
X192029333Y-101516380D02*
X192029333Y-100516380D01*
X191934095Y-100659238D01*
X191838857Y-100754476D01*
X191743619Y-100802095D01*
X193172190Y-100849714D02*
X193172190Y-101516380D01*
X192743619Y-100849714D02*
X192743619Y-101373523D01*
X192791238Y-101468761D01*
X192886476Y-101516380D01*
X193029333Y-101516380D01*
X193124571Y-101468761D01*
X193172190Y-101421142D01*
X193981714Y-100992571D02*
X193648380Y-100992571D01*
X193648380Y-101516380D02*
X193648380Y-100516380D01*
X194124571Y-100516380D01*
D11*
X192408333Y-100259285D02*
X192396428Y-100271190D01*
X192360714Y-100283095D01*
X192336904Y-100283095D01*
X192301190Y-100271190D01*
X192277380Y-100247380D01*
X192265476Y-100223571D01*
X192253571Y-100175952D01*
X192253571Y-100140238D01*
X192265476Y-100092619D01*
X192277380Y-100068809D01*
X192301190Y-100045000D01*
X192336904Y-100033095D01*
X192360714Y-100033095D01*
X192396428Y-100045000D01*
X192408333Y-100056904D01*
X192634523Y-100033095D02*
X192515476Y-100033095D01*
X192503571Y-100152142D01*
X192515476Y-100140238D01*
X192539285Y-100128333D01*
X192598809Y-100128333D01*
X192622619Y-100140238D01*
X192634523Y-100152142D01*
X192646428Y-100175952D01*
X192646428Y-100235476D01*
X192634523Y-100259285D01*
X192622619Y-100271190D01*
X192598809Y-100283095D01*
X192539285Y-100283095D01*
X192515476Y-100271190D01*
X192503571Y-100259285D01*
D10*
%TO.C,C15*%
X183568238Y-111930814D02*
X183568238Y-112597480D01*
X183330142Y-111549861D02*
X183092047Y-112264147D01*
X183711095Y-112264147D01*
X184092047Y-112502242D02*
X184139666Y-112549861D01*
X184092047Y-112597480D01*
X184044428Y-112549861D01*
X184092047Y-112502242D01*
X184092047Y-112597480D01*
X184473000Y-111597480D02*
X185139666Y-111597480D01*
X184711095Y-112597480D01*
X185949190Y-111930814D02*
X185949190Y-112597480D01*
X185520619Y-111930814D02*
X185520619Y-112454623D01*
X185568238Y-112549861D01*
X185663476Y-112597480D01*
X185806333Y-112597480D01*
X185901571Y-112549861D01*
X185949190Y-112502242D01*
X186758714Y-112073671D02*
X186425380Y-112073671D01*
X186425380Y-112597480D02*
X186425380Y-111597480D01*
X186901571Y-111597480D01*
D11*
X184812285Y-113964385D02*
X184800380Y-113976290D01*
X184764666Y-113988195D01*
X184740857Y-113988195D01*
X184705142Y-113976290D01*
X184681333Y-113952480D01*
X184669428Y-113928671D01*
X184657523Y-113881052D01*
X184657523Y-113845338D01*
X184669428Y-113797719D01*
X184681333Y-113773909D01*
X184705142Y-113750100D01*
X184740857Y-113738195D01*
X184764666Y-113738195D01*
X184800380Y-113750100D01*
X184812285Y-113762004D01*
X185050380Y-113988195D02*
X184907523Y-113988195D01*
X184978952Y-113988195D02*
X184978952Y-113738195D01*
X184955142Y-113773909D01*
X184931333Y-113797719D01*
X184907523Y-113809623D01*
X185276571Y-113738195D02*
X185157523Y-113738195D01*
X185145619Y-113857242D01*
X185157523Y-113845338D01*
X185181333Y-113833433D01*
X185240857Y-113833433D01*
X185264666Y-113845338D01*
X185276571Y-113857242D01*
X185288476Y-113881052D01*
X185288476Y-113940576D01*
X185276571Y-113964385D01*
X185264666Y-113976290D01*
X185240857Y-113988195D01*
X185181333Y-113988195D01*
X185157523Y-113976290D01*
X185145619Y-113964385D01*
D10*
%TO.C,R6*%
X185058885Y-89910380D02*
X185677933Y-89910380D01*
X185344600Y-90291333D01*
X185487457Y-90291333D01*
X185582695Y-90338952D01*
X185630314Y-90386571D01*
X185677933Y-90481809D01*
X185677933Y-90719904D01*
X185630314Y-90815142D01*
X185582695Y-90862761D01*
X185487457Y-90910380D01*
X185201742Y-90910380D01*
X185106504Y-90862761D01*
X185058885Y-90815142D01*
X186011266Y-89910380D02*
X186630314Y-89910380D01*
X186296980Y-90291333D01*
X186439838Y-90291333D01*
X186535076Y-90338952D01*
X186582695Y-90386571D01*
X186630314Y-90481809D01*
X186630314Y-90719904D01*
X186582695Y-90815142D01*
X186535076Y-90862761D01*
X186439838Y-90910380D01*
X186154123Y-90910380D01*
X186058885Y-90862761D01*
X186011266Y-90815142D01*
X187249361Y-89910380D02*
X187344600Y-89910380D01*
X187439838Y-89958000D01*
X187487457Y-90005619D01*
X187535076Y-90100857D01*
X187582695Y-90291333D01*
X187582695Y-90529428D01*
X187535076Y-90719904D01*
X187487457Y-90815142D01*
X187439838Y-90862761D01*
X187344600Y-90910380D01*
X187249361Y-90910380D01*
X187154123Y-90862761D01*
X187106504Y-90815142D01*
X187058885Y-90719904D01*
X187011266Y-90529428D01*
X187011266Y-90291333D01*
X187058885Y-90100857D01*
X187106504Y-90005619D01*
X187154123Y-89958000D01*
X187249361Y-89910380D01*
D11*
X186302933Y-88841095D02*
X186219600Y-88722047D01*
X186160076Y-88841095D02*
X186160076Y-88591095D01*
X186255314Y-88591095D01*
X186279123Y-88603000D01*
X186291028Y-88614904D01*
X186302933Y-88638714D01*
X186302933Y-88674428D01*
X186291028Y-88698238D01*
X186279123Y-88710142D01*
X186255314Y-88722047D01*
X186160076Y-88722047D01*
X186517219Y-88591095D02*
X186469600Y-88591095D01*
X186445790Y-88603000D01*
X186433885Y-88614904D01*
X186410076Y-88650619D01*
X186398171Y-88698238D01*
X186398171Y-88793476D01*
X186410076Y-88817285D01*
X186421980Y-88829190D01*
X186445790Y-88841095D01*
X186493409Y-88841095D01*
X186517219Y-88829190D01*
X186529123Y-88817285D01*
X186541028Y-88793476D01*
X186541028Y-88733952D01*
X186529123Y-88710142D01*
X186517219Y-88698238D01*
X186493409Y-88686333D01*
X186445790Y-88686333D01*
X186421980Y-88698238D01*
X186410076Y-88710142D01*
X186398171Y-88733952D01*
D10*
%TO.C,C14*%
X182928571Y-91602380D02*
X182357142Y-91602380D01*
X182642857Y-91602380D02*
X182642857Y-90602380D01*
X182547619Y-90745238D01*
X182452380Y-90840476D01*
X182357142Y-90888095D01*
X183547619Y-90602380D02*
X183642857Y-90602380D01*
X183738095Y-90650000D01*
X183785714Y-90697619D01*
X183833333Y-90792857D01*
X183880952Y-90983333D01*
X183880952Y-91221428D01*
X183833333Y-91411904D01*
X183785714Y-91507142D01*
X183738095Y-91554761D01*
X183642857Y-91602380D01*
X183547619Y-91602380D01*
X183452380Y-91554761D01*
X183404761Y-91507142D01*
X183357142Y-91411904D01*
X183309523Y-91221428D01*
X183309523Y-90983333D01*
X183357142Y-90792857D01*
X183404761Y-90697619D01*
X183452380Y-90650000D01*
X183547619Y-90602380D01*
X184738095Y-90935714D02*
X184738095Y-91602380D01*
X184309523Y-90935714D02*
X184309523Y-91459523D01*
X184357142Y-91554761D01*
X184452380Y-91602380D01*
X184595238Y-91602380D01*
X184690476Y-91554761D01*
X184738095Y-91507142D01*
X185547619Y-91078571D02*
X185214285Y-91078571D01*
X185214285Y-91602380D02*
X185214285Y-90602380D01*
X185690476Y-90602380D01*
D11*
X183839285Y-89509285D02*
X183827380Y-89521190D01*
X183791666Y-89533095D01*
X183767857Y-89533095D01*
X183732142Y-89521190D01*
X183708333Y-89497380D01*
X183696428Y-89473571D01*
X183684523Y-89425952D01*
X183684523Y-89390238D01*
X183696428Y-89342619D01*
X183708333Y-89318809D01*
X183732142Y-89295000D01*
X183767857Y-89283095D01*
X183791666Y-89283095D01*
X183827380Y-89295000D01*
X183839285Y-89306904D01*
X184077380Y-89533095D02*
X183934523Y-89533095D01*
X184005952Y-89533095D02*
X184005952Y-89283095D01*
X183982142Y-89318809D01*
X183958333Y-89342619D01*
X183934523Y-89354523D01*
X184291666Y-89366428D02*
X184291666Y-89533095D01*
X184232142Y-89271190D02*
X184172619Y-89449761D01*
X184327380Y-89449761D01*
D10*
%TO.C,R17*%
X195861485Y-88308780D02*
X196480533Y-88308780D01*
X196147200Y-88689733D01*
X196290057Y-88689733D01*
X196385295Y-88737352D01*
X196432914Y-88784971D01*
X196480533Y-88880209D01*
X196480533Y-89118304D01*
X196432914Y-89213542D01*
X196385295Y-89261161D01*
X196290057Y-89308780D01*
X196004342Y-89308780D01*
X195909104Y-89261161D01*
X195861485Y-89213542D01*
X196813866Y-88308780D02*
X197432914Y-88308780D01*
X197099580Y-88689733D01*
X197242438Y-88689733D01*
X197337676Y-88737352D01*
X197385295Y-88784971D01*
X197432914Y-88880209D01*
X197432914Y-89118304D01*
X197385295Y-89213542D01*
X197337676Y-89261161D01*
X197242438Y-89308780D01*
X196956723Y-89308780D01*
X196861485Y-89261161D01*
X196813866Y-89213542D01*
X198051961Y-88308780D02*
X198147200Y-88308780D01*
X198242438Y-88356400D01*
X198290057Y-88404019D01*
X198337676Y-88499257D01*
X198385295Y-88689733D01*
X198385295Y-88927828D01*
X198337676Y-89118304D01*
X198290057Y-89213542D01*
X198242438Y-89261161D01*
X198147200Y-89308780D01*
X198051961Y-89308780D01*
X197956723Y-89261161D01*
X197909104Y-89213542D01*
X197861485Y-89118304D01*
X197813866Y-88927828D01*
X197813866Y-88689733D01*
X197861485Y-88499257D01*
X197909104Y-88404019D01*
X197956723Y-88356400D01*
X198051961Y-88308780D01*
D11*
X196986485Y-90699495D02*
X196903152Y-90580447D01*
X196843628Y-90699495D02*
X196843628Y-90449495D01*
X196938866Y-90449495D01*
X196962676Y-90461400D01*
X196974580Y-90473304D01*
X196986485Y-90497114D01*
X196986485Y-90532828D01*
X196974580Y-90556638D01*
X196962676Y-90568542D01*
X196938866Y-90580447D01*
X196843628Y-90580447D01*
X197224580Y-90699495D02*
X197081723Y-90699495D01*
X197153152Y-90699495D02*
X197153152Y-90449495D01*
X197129342Y-90485209D01*
X197105533Y-90509019D01*
X197081723Y-90520923D01*
X197307914Y-90449495D02*
X197474580Y-90449495D01*
X197367438Y-90699495D01*
D10*
%TO.C,R3*%
X196709761Y-100002380D02*
X196138333Y-100002380D01*
X196424047Y-100002380D02*
X196424047Y-99002380D01*
X196328809Y-99145238D01*
X196233571Y-99240476D01*
X196138333Y-99288095D01*
X197328809Y-99002380D02*
X197424047Y-99002380D01*
X197519285Y-99050000D01*
X197566904Y-99097619D01*
X197614523Y-99192857D01*
X197662142Y-99383333D01*
X197662142Y-99621428D01*
X197614523Y-99811904D01*
X197566904Y-99907142D01*
X197519285Y-99954761D01*
X197424047Y-100002380D01*
X197328809Y-100002380D01*
X197233571Y-99954761D01*
X197185952Y-99907142D01*
X197138333Y-99811904D01*
X197090714Y-99621428D01*
X197090714Y-99383333D01*
X197138333Y-99192857D01*
X197185952Y-99097619D01*
X197233571Y-99050000D01*
X197328809Y-99002380D01*
X198090714Y-100002380D02*
X198090714Y-99002380D01*
X198185952Y-99621428D02*
X198471666Y-100002380D01*
X198471666Y-99335714D02*
X198090714Y-99716666D01*
D11*
X197263333Y-97933095D02*
X197180000Y-97814047D01*
X197120476Y-97933095D02*
X197120476Y-97683095D01*
X197215714Y-97683095D01*
X197239523Y-97695000D01*
X197251428Y-97706904D01*
X197263333Y-97730714D01*
X197263333Y-97766428D01*
X197251428Y-97790238D01*
X197239523Y-97802142D01*
X197215714Y-97814047D01*
X197120476Y-97814047D01*
X197346666Y-97683095D02*
X197501428Y-97683095D01*
X197418095Y-97778333D01*
X197453809Y-97778333D01*
X197477619Y-97790238D01*
X197489523Y-97802142D01*
X197501428Y-97825952D01*
X197501428Y-97885476D01*
X197489523Y-97909285D01*
X197477619Y-97921190D01*
X197453809Y-97933095D01*
X197382380Y-97933095D01*
X197358571Y-97921190D01*
X197346666Y-97909285D01*
D10*
%TO.C,C26*%
X184002380Y-111087857D02*
X184002380Y-110992619D01*
X184050000Y-110897380D01*
X184097619Y-110849761D01*
X184192857Y-110802142D01*
X184383333Y-110754523D01*
X184621428Y-110754523D01*
X184811904Y-110802142D01*
X184907142Y-110849761D01*
X184954761Y-110897380D01*
X185002380Y-110992619D01*
X185002380Y-111087857D01*
X184954761Y-111183095D01*
X184907142Y-111230714D01*
X184811904Y-111278333D01*
X184621428Y-111325952D01*
X184383333Y-111325952D01*
X184192857Y-111278333D01*
X184097619Y-111230714D01*
X184050000Y-111183095D01*
X184002380Y-111087857D01*
X184907142Y-110325952D02*
X184954761Y-110278333D01*
X185002380Y-110325952D01*
X184954761Y-110373571D01*
X184907142Y-110325952D01*
X185002380Y-110325952D01*
X185002380Y-109325952D02*
X185002380Y-109897380D01*
X185002380Y-109611666D02*
X184002380Y-109611666D01*
X184145238Y-109706904D01*
X184240476Y-109802142D01*
X184288095Y-109897380D01*
X184335714Y-108468809D02*
X185002380Y-108468809D01*
X184335714Y-108897380D02*
X184859523Y-108897380D01*
X184954761Y-108849761D01*
X185002380Y-108754523D01*
X185002380Y-108611666D01*
X184954761Y-108516428D01*
X184907142Y-108468809D01*
X184478571Y-107659285D02*
X184478571Y-107992619D01*
X185002380Y-107992619D02*
X184002380Y-107992619D01*
X184002380Y-107516428D01*
D11*
X182909285Y-109605714D02*
X182921190Y-109617619D01*
X182933095Y-109653333D01*
X182933095Y-109677142D01*
X182921190Y-109712857D01*
X182897380Y-109736666D01*
X182873571Y-109748571D01*
X182825952Y-109760476D01*
X182790238Y-109760476D01*
X182742619Y-109748571D01*
X182718809Y-109736666D01*
X182695000Y-109712857D01*
X182683095Y-109677142D01*
X182683095Y-109653333D01*
X182695000Y-109617619D01*
X182706904Y-109605714D01*
X182706904Y-109510476D02*
X182695000Y-109498571D01*
X182683095Y-109474761D01*
X182683095Y-109415238D01*
X182695000Y-109391428D01*
X182706904Y-109379523D01*
X182730714Y-109367619D01*
X182754523Y-109367619D01*
X182790238Y-109379523D01*
X182933095Y-109522380D01*
X182933095Y-109367619D01*
X182683095Y-109153333D02*
X182683095Y-109200952D01*
X182695000Y-109224761D01*
X182706904Y-109236666D01*
X182742619Y-109260476D01*
X182790238Y-109272380D01*
X182885476Y-109272380D01*
X182909285Y-109260476D01*
X182921190Y-109248571D01*
X182933095Y-109224761D01*
X182933095Y-109177142D01*
X182921190Y-109153333D01*
X182909285Y-109141428D01*
X182885476Y-109129523D01*
X182825952Y-109129523D01*
X182802142Y-109141428D01*
X182790238Y-109153333D01*
X182778333Y-109177142D01*
X182778333Y-109224761D01*
X182790238Y-109248571D01*
X182802142Y-109260476D01*
X182825952Y-109272380D01*
D10*
%TO.C,R15*%
X183425380Y-99807638D02*
X183425380Y-100379066D01*
X183425380Y-100093352D02*
X182425380Y-100093352D01*
X182568238Y-100188590D01*
X182663476Y-100283828D01*
X182711095Y-100379066D01*
X182520619Y-99426685D02*
X182473000Y-99379066D01*
X182425380Y-99283828D01*
X182425380Y-99045733D01*
X182473000Y-98950495D01*
X182520619Y-98902876D01*
X182615857Y-98855257D01*
X182711095Y-98855257D01*
X182853952Y-98902876D01*
X183425380Y-99474304D01*
X183425380Y-98855257D01*
X183425380Y-98426685D02*
X182425380Y-98426685D01*
X183044428Y-98331447D02*
X183425380Y-98045733D01*
X182758714Y-98045733D02*
X183139666Y-98426685D01*
D11*
X184816095Y-99373114D02*
X184697047Y-99456447D01*
X184816095Y-99515971D02*
X184566095Y-99515971D01*
X184566095Y-99420733D01*
X184578000Y-99396923D01*
X184589904Y-99385019D01*
X184613714Y-99373114D01*
X184649428Y-99373114D01*
X184673238Y-99385019D01*
X184685142Y-99396923D01*
X184697047Y-99420733D01*
X184697047Y-99515971D01*
X184816095Y-99135019D02*
X184816095Y-99277876D01*
X184816095Y-99206447D02*
X184566095Y-99206447D01*
X184601809Y-99230257D01*
X184625619Y-99254066D01*
X184637523Y-99277876D01*
X184566095Y-98908828D02*
X184566095Y-99027876D01*
X184685142Y-99039780D01*
X184673238Y-99027876D01*
X184661333Y-99004066D01*
X184661333Y-98944542D01*
X184673238Y-98920733D01*
X184685142Y-98908828D01*
X184708952Y-98896923D01*
X184768476Y-98896923D01*
X184792285Y-98908828D01*
X184804190Y-98920733D01*
X184816095Y-98944542D01*
X184816095Y-99004066D01*
X184804190Y-99027876D01*
X184792285Y-99039780D01*
D13*
%TO.C,U1*%
X188661523Y-97233619D02*
X189689619Y-97233619D01*
X189810571Y-97173142D01*
X189871047Y-97112666D01*
X189931523Y-96991714D01*
X189931523Y-96749809D01*
X189871047Y-96628857D01*
X189810571Y-96568380D01*
X189689619Y-96507904D01*
X188661523Y-96507904D01*
X189931523Y-95237904D02*
X189931523Y-95963619D01*
X189931523Y-95600761D02*
X188661523Y-95600761D01*
X188842952Y-95721714D01*
X188963904Y-95842666D01*
X189024380Y-95963619D01*
D10*
%TO.C,R7*%
X182936771Y-91121780D02*
X182365342Y-91121780D01*
X182651057Y-91121780D02*
X182651057Y-90121780D01*
X182555819Y-90264638D01*
X182460580Y-90359876D01*
X182365342Y-90407495D01*
X183555819Y-90121780D02*
X183651057Y-90121780D01*
X183746295Y-90169400D01*
X183793914Y-90217019D01*
X183841533Y-90312257D01*
X183889152Y-90502733D01*
X183889152Y-90740828D01*
X183841533Y-90931304D01*
X183793914Y-91026542D01*
X183746295Y-91074161D01*
X183651057Y-91121780D01*
X183555819Y-91121780D01*
X183460580Y-91074161D01*
X183412961Y-91026542D01*
X183365342Y-90931304D01*
X183317723Y-90740828D01*
X183317723Y-90502733D01*
X183365342Y-90312257D01*
X183412961Y-90217019D01*
X183460580Y-90169400D01*
X183555819Y-90121780D01*
X184508200Y-90121780D02*
X184603438Y-90121780D01*
X184698676Y-90169400D01*
X184746295Y-90217019D01*
X184793914Y-90312257D01*
X184841533Y-90502733D01*
X184841533Y-90740828D01*
X184793914Y-90931304D01*
X184746295Y-91026542D01*
X184698676Y-91074161D01*
X184603438Y-91121780D01*
X184508200Y-91121780D01*
X184412961Y-91074161D01*
X184365342Y-91026542D01*
X184317723Y-90931304D01*
X184270104Y-90740828D01*
X184270104Y-90502733D01*
X184317723Y-90312257D01*
X184365342Y-90217019D01*
X184412961Y-90169400D01*
X184508200Y-90121780D01*
X185270104Y-91121780D02*
X185270104Y-90121780D01*
X185365342Y-90740828D02*
X185651057Y-91121780D01*
X185651057Y-90455114D02*
X185270104Y-90836066D01*
D11*
X183966533Y-92512495D02*
X183883200Y-92393447D01*
X183823676Y-92512495D02*
X183823676Y-92262495D01*
X183918914Y-92262495D01*
X183942723Y-92274400D01*
X183954628Y-92286304D01*
X183966533Y-92310114D01*
X183966533Y-92345828D01*
X183954628Y-92369638D01*
X183942723Y-92381542D01*
X183918914Y-92393447D01*
X183823676Y-92393447D01*
X184049866Y-92262495D02*
X184216533Y-92262495D01*
X184109390Y-92512495D01*
D10*
%TO.C,FB2*%
X178147619Y-98504761D02*
X178100000Y-98457142D01*
X178052380Y-98361904D01*
X178052380Y-98123809D01*
X178100000Y-98028571D01*
X178147619Y-97980952D01*
X178242857Y-97933333D01*
X178338095Y-97933333D01*
X178480952Y-97980952D01*
X179052380Y-98552380D01*
X179052380Y-97933333D01*
X178766666Y-97552380D02*
X178766666Y-97076190D01*
X179052380Y-97647619D02*
X178052380Y-97314285D01*
X179052380Y-96980952D01*
X178004761Y-95933333D02*
X179290476Y-96790476D01*
X178052380Y-95409523D02*
X178052380Y-95314285D01*
X178100000Y-95219047D01*
X178147619Y-95171428D01*
X178242857Y-95123809D01*
X178433333Y-95076190D01*
X178671428Y-95076190D01*
X178861904Y-95123809D01*
X178957142Y-95171428D01*
X179004761Y-95219047D01*
X179052380Y-95314285D01*
X179052380Y-95409523D01*
X179004761Y-95504761D01*
X178957142Y-95552380D01*
X178861904Y-95600000D01*
X178671428Y-95647619D01*
X178433333Y-95647619D01*
X178242857Y-95600000D01*
X178147619Y-95552380D01*
X178100000Y-95504761D01*
X178052380Y-95409523D01*
X178957142Y-94647619D02*
X179004761Y-94600000D01*
X179052380Y-94647619D01*
X179004761Y-94695238D01*
X178957142Y-94647619D01*
X179052380Y-94647619D01*
X178052380Y-93980952D02*
X178052380Y-93885714D01*
X178100000Y-93790476D01*
X178147619Y-93742857D01*
X178242857Y-93695238D01*
X178433333Y-93647619D01*
X178671428Y-93647619D01*
X178861904Y-93695238D01*
X178957142Y-93742857D01*
X179004761Y-93790476D01*
X179052380Y-93885714D01*
X179052380Y-93980952D01*
X179004761Y-94076190D01*
X178957142Y-94123809D01*
X178861904Y-94171428D01*
X178671428Y-94219047D01*
X178433333Y-94219047D01*
X178242857Y-94171428D01*
X178147619Y-94123809D01*
X178100000Y-94076190D01*
X178052380Y-93980952D01*
X178052380Y-92742857D02*
X178052380Y-93219047D01*
X178528571Y-93266666D01*
X178480952Y-93219047D01*
X178433333Y-93123809D01*
X178433333Y-92885714D01*
X178480952Y-92790476D01*
X178528571Y-92742857D01*
X178623809Y-92695238D01*
X178861904Y-92695238D01*
X178957142Y-92742857D01*
X179004761Y-92790476D01*
X179052380Y-92885714D01*
X179052380Y-93123809D01*
X179004761Y-93219047D01*
X178957142Y-93266666D01*
X179052380Y-92266666D02*
X178052380Y-92266666D01*
X178052380Y-92028571D01*
X178100000Y-91885714D01*
X178195238Y-91790476D01*
X178290476Y-91742857D01*
X178480952Y-91695238D01*
X178623809Y-91695238D01*
X178814285Y-91742857D01*
X178909523Y-91790476D01*
X179004761Y-91885714D01*
X179052380Y-92028571D01*
X179052380Y-92266666D01*
X178957142Y-90695238D02*
X179004761Y-90742857D01*
X179052380Y-90885714D01*
X179052380Y-90980952D01*
X179004761Y-91123809D01*
X178909523Y-91219047D01*
X178814285Y-91266666D01*
X178623809Y-91314285D01*
X178480952Y-91314285D01*
X178290476Y-91266666D01*
X178195238Y-91219047D01*
X178100000Y-91123809D01*
X178052380Y-90980952D01*
X178052380Y-90885714D01*
X178100000Y-90742857D01*
X178147619Y-90695238D01*
X179052380Y-89695238D02*
X178576190Y-90028571D01*
X179052380Y-90266666D02*
X178052380Y-90266666D01*
X178052380Y-89885714D01*
X178100000Y-89790476D01*
X178147619Y-89742857D01*
X178242857Y-89695238D01*
X178385714Y-89695238D01*
X178480952Y-89742857D01*
X178528571Y-89790476D01*
X178576190Y-89885714D01*
X178576190Y-90266666D01*
D11*
X180312142Y-94308333D02*
X180312142Y-94391666D01*
X180443095Y-94391666D02*
X180193095Y-94391666D01*
X180193095Y-94272619D01*
X180312142Y-94094047D02*
X180324047Y-94058333D01*
X180335952Y-94046428D01*
X180359761Y-94034523D01*
X180395476Y-94034523D01*
X180419285Y-94046428D01*
X180431190Y-94058333D01*
X180443095Y-94082142D01*
X180443095Y-94177380D01*
X180193095Y-94177380D01*
X180193095Y-94094047D01*
X180205000Y-94070238D01*
X180216904Y-94058333D01*
X180240714Y-94046428D01*
X180264523Y-94046428D01*
X180288333Y-94058333D01*
X180300238Y-94070238D01*
X180312142Y-94094047D01*
X180312142Y-94177380D01*
X180216904Y-93939285D02*
X180205000Y-93927380D01*
X180193095Y-93903571D01*
X180193095Y-93844047D01*
X180205000Y-93820238D01*
X180216904Y-93808333D01*
X180240714Y-93796428D01*
X180264523Y-93796428D01*
X180300238Y-93808333D01*
X180443095Y-93951190D01*
X180443095Y-93796428D01*
D10*
%TO.C,C3*%
X183783361Y-99571780D02*
X183211933Y-99571780D01*
X183497647Y-99571780D02*
X183497647Y-98571780D01*
X183402409Y-98714638D01*
X183307171Y-98809876D01*
X183211933Y-98857495D01*
X184640504Y-98905114D02*
X184640504Y-99571780D01*
X184211933Y-98905114D02*
X184211933Y-99428923D01*
X184259552Y-99524161D01*
X184354790Y-99571780D01*
X184497647Y-99571780D01*
X184592885Y-99524161D01*
X184640504Y-99476542D01*
X185450028Y-99047971D02*
X185116695Y-99047971D01*
X185116695Y-99571780D02*
X185116695Y-98571780D01*
X185592885Y-98571780D01*
D11*
X184336933Y-97478685D02*
X184325028Y-97490590D01*
X184289314Y-97502495D01*
X184265504Y-97502495D01*
X184229790Y-97490590D01*
X184205980Y-97466780D01*
X184194076Y-97442971D01*
X184182171Y-97395352D01*
X184182171Y-97359638D01*
X184194076Y-97312019D01*
X184205980Y-97288209D01*
X184229790Y-97264400D01*
X184265504Y-97252495D01*
X184289314Y-97252495D01*
X184325028Y-97264400D01*
X184336933Y-97276304D01*
X184420266Y-97252495D02*
X184575028Y-97252495D01*
X184491695Y-97347733D01*
X184527409Y-97347733D01*
X184551219Y-97359638D01*
X184563123Y-97371542D01*
X184575028Y-97395352D01*
X184575028Y-97454876D01*
X184563123Y-97478685D01*
X184551219Y-97490590D01*
X184527409Y-97502495D01*
X184455980Y-97502495D01*
X184432171Y-97490590D01*
X184420266Y-97478685D01*
D10*
%TO.C,C1*%
X177802380Y-102121428D02*
X177802380Y-102692857D01*
X177802380Y-102407142D02*
X176802380Y-102407142D01*
X176945238Y-102502380D01*
X177040476Y-102597619D01*
X177088095Y-102692857D01*
X177230952Y-101550000D02*
X177183333Y-101645238D01*
X177135714Y-101692857D01*
X177040476Y-101740476D01*
X176992857Y-101740476D01*
X176897619Y-101692857D01*
X176850000Y-101645238D01*
X176802380Y-101550000D01*
X176802380Y-101359523D01*
X176850000Y-101264285D01*
X176897619Y-101216666D01*
X176992857Y-101169047D01*
X177040476Y-101169047D01*
X177135714Y-101216666D01*
X177183333Y-101264285D01*
X177230952Y-101359523D01*
X177230952Y-101550000D01*
X177278571Y-101645238D01*
X177326190Y-101692857D01*
X177421428Y-101740476D01*
X177611904Y-101740476D01*
X177707142Y-101692857D01*
X177754761Y-101645238D01*
X177802380Y-101550000D01*
X177802380Y-101359523D01*
X177754761Y-101264285D01*
X177707142Y-101216666D01*
X177611904Y-101169047D01*
X177421428Y-101169047D01*
X177326190Y-101216666D01*
X177278571Y-101264285D01*
X177230952Y-101359523D01*
X177135714Y-100740476D02*
X178135714Y-100740476D01*
X177183333Y-100740476D02*
X177135714Y-100645238D01*
X177135714Y-100454761D01*
X177183333Y-100359523D01*
X177230952Y-100311904D01*
X177326190Y-100264285D01*
X177611904Y-100264285D01*
X177707142Y-100311904D01*
X177754761Y-100359523D01*
X177802380Y-100454761D01*
X177802380Y-100645238D01*
X177754761Y-100740476D01*
X177278571Y-99502380D02*
X177278571Y-99835714D01*
X177802380Y-99835714D02*
X176802380Y-99835714D01*
X176802380Y-99359523D01*
D11*
X179169285Y-101091666D02*
X179181190Y-101103571D01*
X179193095Y-101139285D01*
X179193095Y-101163095D01*
X179181190Y-101198809D01*
X179157380Y-101222619D01*
X179133571Y-101234523D01*
X179085952Y-101246428D01*
X179050238Y-101246428D01*
X179002619Y-101234523D01*
X178978809Y-101222619D01*
X178955000Y-101198809D01*
X178943095Y-101163095D01*
X178943095Y-101139285D01*
X178955000Y-101103571D01*
X178966904Y-101091666D01*
X179193095Y-100853571D02*
X179193095Y-100996428D01*
X179193095Y-100925000D02*
X178943095Y-100925000D01*
X178978809Y-100948809D01*
X179002619Y-100972619D01*
X179014523Y-100996428D01*
D10*
%TO.C,FB4*%
X183545238Y-88947619D02*
X183592857Y-88900000D01*
X183688095Y-88852380D01*
X183926190Y-88852380D01*
X184021428Y-88900000D01*
X184069047Y-88947619D01*
X184116666Y-89042857D01*
X184116666Y-89138095D01*
X184069047Y-89280952D01*
X183497619Y-89852380D01*
X184116666Y-89852380D01*
X184497619Y-89566666D02*
X184973809Y-89566666D01*
X184402380Y-89852380D02*
X184735714Y-88852380D01*
X185069047Y-89852380D01*
X186116666Y-88804761D02*
X185259523Y-90090476D01*
X186640476Y-88852380D02*
X186735714Y-88852380D01*
X186830952Y-88900000D01*
X186878571Y-88947619D01*
X186926190Y-89042857D01*
X186973809Y-89233333D01*
X186973809Y-89471428D01*
X186926190Y-89661904D01*
X186878571Y-89757142D01*
X186830952Y-89804761D01*
X186735714Y-89852380D01*
X186640476Y-89852380D01*
X186545238Y-89804761D01*
X186497619Y-89757142D01*
X186450000Y-89661904D01*
X186402380Y-89471428D01*
X186402380Y-89233333D01*
X186450000Y-89042857D01*
X186497619Y-88947619D01*
X186545238Y-88900000D01*
X186640476Y-88852380D01*
X187402380Y-89757142D02*
X187450000Y-89804761D01*
X187402380Y-89852380D01*
X187354761Y-89804761D01*
X187402380Y-89757142D01*
X187402380Y-89852380D01*
X188069047Y-88852380D02*
X188164285Y-88852380D01*
X188259523Y-88900000D01*
X188307142Y-88947619D01*
X188354761Y-89042857D01*
X188402380Y-89233333D01*
X188402380Y-89471428D01*
X188354761Y-89661904D01*
X188307142Y-89757142D01*
X188259523Y-89804761D01*
X188164285Y-89852380D01*
X188069047Y-89852380D01*
X187973809Y-89804761D01*
X187926190Y-89757142D01*
X187878571Y-89661904D01*
X187830952Y-89471428D01*
X187830952Y-89233333D01*
X187878571Y-89042857D01*
X187926190Y-88947619D01*
X187973809Y-88900000D01*
X188069047Y-88852380D01*
X189307142Y-88852380D02*
X188830952Y-88852380D01*
X188783333Y-89328571D01*
X188830952Y-89280952D01*
X188926190Y-89233333D01*
X189164285Y-89233333D01*
X189259523Y-89280952D01*
X189307142Y-89328571D01*
X189354761Y-89423809D01*
X189354761Y-89661904D01*
X189307142Y-89757142D01*
X189259523Y-89804761D01*
X189164285Y-89852380D01*
X188926190Y-89852380D01*
X188830952Y-89804761D01*
X188783333Y-89757142D01*
X189783333Y-89852380D02*
X189783333Y-88852380D01*
X190021428Y-88852380D01*
X190164285Y-88900000D01*
X190259523Y-88995238D01*
X190307142Y-89090476D01*
X190354761Y-89280952D01*
X190354761Y-89423809D01*
X190307142Y-89614285D01*
X190259523Y-89709523D01*
X190164285Y-89804761D01*
X190021428Y-89852380D01*
X189783333Y-89852380D01*
X191354761Y-89757142D02*
X191307142Y-89804761D01*
X191164285Y-89852380D01*
X191069047Y-89852380D01*
X190926190Y-89804761D01*
X190830952Y-89709523D01*
X190783333Y-89614285D01*
X190735714Y-89423809D01*
X190735714Y-89280952D01*
X190783333Y-89090476D01*
X190830952Y-88995238D01*
X190926190Y-88900000D01*
X191069047Y-88852380D01*
X191164285Y-88852380D01*
X191307142Y-88900000D01*
X191354761Y-88947619D01*
X192354761Y-89852380D02*
X192021428Y-89376190D01*
X191783333Y-89852380D02*
X191783333Y-88852380D01*
X192164285Y-88852380D01*
X192259523Y-88900000D01*
X192307142Y-88947619D01*
X192354761Y-89042857D01*
X192354761Y-89185714D01*
X192307142Y-89280952D01*
X192259523Y-89328571D01*
X192164285Y-89376190D01*
X191783333Y-89376190D01*
D11*
X187741666Y-91112142D02*
X187658333Y-91112142D01*
X187658333Y-91243095D02*
X187658333Y-90993095D01*
X187777380Y-90993095D01*
X187955952Y-91112142D02*
X187991666Y-91124047D01*
X188003571Y-91135952D01*
X188015476Y-91159761D01*
X188015476Y-91195476D01*
X188003571Y-91219285D01*
X187991666Y-91231190D01*
X187967857Y-91243095D01*
X187872619Y-91243095D01*
X187872619Y-90993095D01*
X187955952Y-90993095D01*
X187979761Y-91005000D01*
X187991666Y-91016904D01*
X188003571Y-91040714D01*
X188003571Y-91064523D01*
X187991666Y-91088333D01*
X187979761Y-91100238D01*
X187955952Y-91112142D01*
X187872619Y-91112142D01*
X188229761Y-91076428D02*
X188229761Y-91243095D01*
X188170238Y-90981190D02*
X188110714Y-91159761D01*
X188265476Y-91159761D01*
D10*
%TO.C,C9*%
X190807142Y-91302380D02*
X190902380Y-91302380D01*
X190997619Y-91350000D01*
X191045238Y-91397619D01*
X191092857Y-91492857D01*
X191140476Y-91683333D01*
X191140476Y-91921428D01*
X191092857Y-92111904D01*
X191045238Y-92207142D01*
X190997619Y-92254761D01*
X190902380Y-92302380D01*
X190807142Y-92302380D01*
X190711904Y-92254761D01*
X190664285Y-92207142D01*
X190616666Y-92111904D01*
X190569047Y-91921428D01*
X190569047Y-91683333D01*
X190616666Y-91492857D01*
X190664285Y-91397619D01*
X190711904Y-91350000D01*
X190807142Y-91302380D01*
X191569047Y-92207142D02*
X191616666Y-92254761D01*
X191569047Y-92302380D01*
X191521428Y-92254761D01*
X191569047Y-92207142D01*
X191569047Y-92302380D01*
X192569047Y-92302380D02*
X191997619Y-92302380D01*
X192283333Y-92302380D02*
X192283333Y-91302380D01*
X192188095Y-91445238D01*
X192092857Y-91540476D01*
X191997619Y-91588095D01*
X193426190Y-91635714D02*
X193426190Y-92302380D01*
X192997619Y-91635714D02*
X192997619Y-92159523D01*
X193045238Y-92254761D01*
X193140476Y-92302380D01*
X193283333Y-92302380D01*
X193378571Y-92254761D01*
X193426190Y-92207142D01*
X194235714Y-91778571D02*
X193902380Y-91778571D01*
X193902380Y-92302380D02*
X193902380Y-91302380D01*
X194378571Y-91302380D01*
D11*
X192408333Y-90209285D02*
X192396428Y-90221190D01*
X192360714Y-90233095D01*
X192336904Y-90233095D01*
X192301190Y-90221190D01*
X192277380Y-90197380D01*
X192265476Y-90173571D01*
X192253571Y-90125952D01*
X192253571Y-90090238D01*
X192265476Y-90042619D01*
X192277380Y-90018809D01*
X192301190Y-89995000D01*
X192336904Y-89983095D01*
X192360714Y-89983095D01*
X192396428Y-89995000D01*
X192408333Y-90006904D01*
X192527380Y-90233095D02*
X192575000Y-90233095D01*
X192598809Y-90221190D01*
X192610714Y-90209285D01*
X192634523Y-90173571D01*
X192646428Y-90125952D01*
X192646428Y-90030714D01*
X192634523Y-90006904D01*
X192622619Y-89995000D01*
X192598809Y-89983095D01*
X192551190Y-89983095D01*
X192527380Y-89995000D01*
X192515476Y-90006904D01*
X192503571Y-90030714D01*
X192503571Y-90090238D01*
X192515476Y-90114047D01*
X192527380Y-90125952D01*
X192551190Y-90137857D01*
X192598809Y-90137857D01*
X192622619Y-90125952D01*
X192634523Y-90114047D01*
X192646428Y-90090238D01*
D10*
%TO.C,C23*%
X182285714Y-112904761D02*
X182952380Y-112904761D01*
X181904761Y-113142857D02*
X182619047Y-113380952D01*
X182619047Y-112761904D01*
X182857142Y-112380952D02*
X182904761Y-112333333D01*
X182952380Y-112380952D01*
X182904761Y-112428571D01*
X182857142Y-112380952D01*
X182952380Y-112380952D01*
X181952380Y-112000000D02*
X181952380Y-111333333D01*
X182952380Y-111761904D01*
X182285714Y-110523809D02*
X182952380Y-110523809D01*
X182285714Y-110952380D02*
X182809523Y-110952380D01*
X182904761Y-110904761D01*
X182952380Y-110809523D01*
X182952380Y-110666666D01*
X182904761Y-110571428D01*
X182857142Y-110523809D01*
X182428571Y-109714285D02*
X182428571Y-110047619D01*
X182952380Y-110047619D02*
X181952380Y-110047619D01*
X181952380Y-109571428D01*
D11*
X184319285Y-111660714D02*
X184331190Y-111672619D01*
X184343095Y-111708333D01*
X184343095Y-111732142D01*
X184331190Y-111767857D01*
X184307380Y-111791666D01*
X184283571Y-111803571D01*
X184235952Y-111815476D01*
X184200238Y-111815476D01*
X184152619Y-111803571D01*
X184128809Y-111791666D01*
X184105000Y-111767857D01*
X184093095Y-111732142D01*
X184093095Y-111708333D01*
X184105000Y-111672619D01*
X184116904Y-111660714D01*
X184116904Y-111565476D02*
X184105000Y-111553571D01*
X184093095Y-111529761D01*
X184093095Y-111470238D01*
X184105000Y-111446428D01*
X184116904Y-111434523D01*
X184140714Y-111422619D01*
X184164523Y-111422619D01*
X184200238Y-111434523D01*
X184343095Y-111577380D01*
X184343095Y-111422619D01*
X184093095Y-111339285D02*
X184093095Y-111184523D01*
X184188333Y-111267857D01*
X184188333Y-111232142D01*
X184200238Y-111208333D01*
X184212142Y-111196428D01*
X184235952Y-111184523D01*
X184295476Y-111184523D01*
X184319285Y-111196428D01*
X184331190Y-111208333D01*
X184343095Y-111232142D01*
X184343095Y-111303571D01*
X184331190Y-111327380D01*
X184319285Y-111339285D01*
D10*
%TO.C,C13*%
X186307142Y-91752380D02*
X186402380Y-91752380D01*
X186497619Y-91800000D01*
X186545238Y-91847619D01*
X186592857Y-91942857D01*
X186640476Y-92133333D01*
X186640476Y-92371428D01*
X186592857Y-92561904D01*
X186545238Y-92657142D01*
X186497619Y-92704761D01*
X186402380Y-92752380D01*
X186307142Y-92752380D01*
X186211904Y-92704761D01*
X186164285Y-92657142D01*
X186116666Y-92561904D01*
X186069047Y-92371428D01*
X186069047Y-92133333D01*
X186116666Y-91942857D01*
X186164285Y-91847619D01*
X186211904Y-91800000D01*
X186307142Y-91752380D01*
X187069047Y-92657142D02*
X187116666Y-92704761D01*
X187069047Y-92752380D01*
X187021428Y-92704761D01*
X187069047Y-92657142D01*
X187069047Y-92752380D01*
X188069047Y-92752380D02*
X187497619Y-92752380D01*
X187783333Y-92752380D02*
X187783333Y-91752380D01*
X187688095Y-91895238D01*
X187592857Y-91990476D01*
X187497619Y-92038095D01*
X188926190Y-92085714D02*
X188926190Y-92752380D01*
X188497619Y-92085714D02*
X188497619Y-92609523D01*
X188545238Y-92704761D01*
X188640476Y-92752380D01*
X188783333Y-92752380D01*
X188878571Y-92704761D01*
X188926190Y-92657142D01*
X189735714Y-92228571D02*
X189402380Y-92228571D01*
X189402380Y-92752380D02*
X189402380Y-91752380D01*
X189878571Y-91752380D01*
D11*
X187789285Y-90659285D02*
X187777380Y-90671190D01*
X187741666Y-90683095D01*
X187717857Y-90683095D01*
X187682142Y-90671190D01*
X187658333Y-90647380D01*
X187646428Y-90623571D01*
X187634523Y-90575952D01*
X187634523Y-90540238D01*
X187646428Y-90492619D01*
X187658333Y-90468809D01*
X187682142Y-90445000D01*
X187717857Y-90433095D01*
X187741666Y-90433095D01*
X187777380Y-90445000D01*
X187789285Y-90456904D01*
X188027380Y-90683095D02*
X187884523Y-90683095D01*
X187955952Y-90683095D02*
X187955952Y-90433095D01*
X187932142Y-90468809D01*
X187908333Y-90492619D01*
X187884523Y-90504523D01*
X188110714Y-90433095D02*
X188265476Y-90433095D01*
X188182142Y-90528333D01*
X188217857Y-90528333D01*
X188241666Y-90540238D01*
X188253571Y-90552142D01*
X188265476Y-90575952D01*
X188265476Y-90635476D01*
X188253571Y-90659285D01*
X188241666Y-90671190D01*
X188217857Y-90683095D01*
X188146428Y-90683095D01*
X188122619Y-90671190D01*
X188110714Y-90659285D01*
D10*
%TO.C,C10*%
X178102380Y-94700238D02*
X178102380Y-95271666D01*
X178102380Y-94985952D02*
X177102380Y-94985952D01*
X177245238Y-95081190D01*
X177340476Y-95176428D01*
X177388095Y-95271666D01*
X177435714Y-93843095D02*
X178102380Y-93843095D01*
X177435714Y-94271666D02*
X177959523Y-94271666D01*
X178054761Y-94224047D01*
X178102380Y-94128809D01*
X178102380Y-93985952D01*
X178054761Y-93890714D01*
X178007142Y-93843095D01*
X177578571Y-93033571D02*
X177578571Y-93366904D01*
X178102380Y-93366904D02*
X177102380Y-93366904D01*
X177102380Y-92890714D01*
D11*
X179469285Y-94265714D02*
X179481190Y-94277619D01*
X179493095Y-94313333D01*
X179493095Y-94337142D01*
X179481190Y-94372857D01*
X179457380Y-94396666D01*
X179433571Y-94408571D01*
X179385952Y-94420476D01*
X179350238Y-94420476D01*
X179302619Y-94408571D01*
X179278809Y-94396666D01*
X179255000Y-94372857D01*
X179243095Y-94337142D01*
X179243095Y-94313333D01*
X179255000Y-94277619D01*
X179266904Y-94265714D01*
X179493095Y-94027619D02*
X179493095Y-94170476D01*
X179493095Y-94099047D02*
X179243095Y-94099047D01*
X179278809Y-94122857D01*
X179302619Y-94146666D01*
X179314523Y-94170476D01*
X179243095Y-93872857D02*
X179243095Y-93849047D01*
X179255000Y-93825238D01*
X179266904Y-93813333D01*
X179290714Y-93801428D01*
X179338333Y-93789523D01*
X179397857Y-93789523D01*
X179445476Y-93801428D01*
X179469285Y-93813333D01*
X179481190Y-93825238D01*
X179493095Y-93849047D01*
X179493095Y-93872857D01*
X179481190Y-93896666D01*
X179469285Y-93908571D01*
X179445476Y-93920476D01*
X179397857Y-93932380D01*
X179338333Y-93932380D01*
X179290714Y-93920476D01*
X179266904Y-93908571D01*
X179255000Y-93896666D01*
X179243095Y-93872857D01*
D10*
%TO.C,R9*%
X193341980Y-106232638D02*
X193341980Y-106804066D01*
X193341980Y-106518352D02*
X192341980Y-106518352D01*
X192484838Y-106613590D01*
X192580076Y-106708828D01*
X192627695Y-106804066D01*
X192341980Y-105613590D02*
X192341980Y-105518352D01*
X192389600Y-105423114D01*
X192437219Y-105375495D01*
X192532457Y-105327876D01*
X192722933Y-105280257D01*
X192961028Y-105280257D01*
X193151504Y-105327876D01*
X193246742Y-105375495D01*
X193294361Y-105423114D01*
X193341980Y-105518352D01*
X193341980Y-105613590D01*
X193294361Y-105708828D01*
X193246742Y-105756447D01*
X193151504Y-105804066D01*
X192961028Y-105851685D01*
X192722933Y-105851685D01*
X192532457Y-105804066D01*
X192437219Y-105756447D01*
X192389600Y-105708828D01*
X192341980Y-105613590D01*
X193341980Y-104851685D02*
X192341980Y-104851685D01*
X192961028Y-104756447D02*
X193341980Y-104470733D01*
X192675314Y-104470733D02*
X193056266Y-104851685D01*
D11*
X194732695Y-105679066D02*
X194613647Y-105762400D01*
X194732695Y-105821923D02*
X194482695Y-105821923D01*
X194482695Y-105726685D01*
X194494600Y-105702876D01*
X194506504Y-105690971D01*
X194530314Y-105679066D01*
X194566028Y-105679066D01*
X194589838Y-105690971D01*
X194601742Y-105702876D01*
X194613647Y-105726685D01*
X194613647Y-105821923D01*
X194732695Y-105560019D02*
X194732695Y-105512400D01*
X194720790Y-105488590D01*
X194708885Y-105476685D01*
X194673171Y-105452876D01*
X194625552Y-105440971D01*
X194530314Y-105440971D01*
X194506504Y-105452876D01*
X194494600Y-105464780D01*
X194482695Y-105488590D01*
X194482695Y-105536209D01*
X194494600Y-105560019D01*
X194506504Y-105571923D01*
X194530314Y-105583828D01*
X194589838Y-105583828D01*
X194613647Y-105571923D01*
X194625552Y-105560019D01*
X194637457Y-105536209D01*
X194637457Y-105488590D01*
X194625552Y-105464780D01*
X194613647Y-105452876D01*
X194589838Y-105440971D01*
D10*
%TO.C,C24*%
X194760514Y-105474761D02*
X195427180Y-105474761D01*
X194379561Y-105712857D02*
X195093847Y-105950952D01*
X195093847Y-105331904D01*
X195331942Y-104950952D02*
X195379561Y-104903333D01*
X195427180Y-104950952D01*
X195379561Y-104998571D01*
X195331942Y-104950952D01*
X195427180Y-104950952D01*
X194427180Y-104570000D02*
X194427180Y-103903333D01*
X195427180Y-104331904D01*
X194760514Y-103093809D02*
X195427180Y-103093809D01*
X194760514Y-103522380D02*
X195284323Y-103522380D01*
X195379561Y-103474761D01*
X195427180Y-103379523D01*
X195427180Y-103236666D01*
X195379561Y-103141428D01*
X195331942Y-103093809D01*
X194903371Y-102284285D02*
X194903371Y-102617619D01*
X195427180Y-102617619D02*
X194427180Y-102617619D01*
X194427180Y-102141428D01*
D11*
X193334085Y-104230714D02*
X193345990Y-104242619D01*
X193357895Y-104278333D01*
X193357895Y-104302142D01*
X193345990Y-104337857D01*
X193322180Y-104361666D01*
X193298371Y-104373571D01*
X193250752Y-104385476D01*
X193215038Y-104385476D01*
X193167419Y-104373571D01*
X193143609Y-104361666D01*
X193119800Y-104337857D01*
X193107895Y-104302142D01*
X193107895Y-104278333D01*
X193119800Y-104242619D01*
X193131704Y-104230714D01*
X193131704Y-104135476D02*
X193119800Y-104123571D01*
X193107895Y-104099761D01*
X193107895Y-104040238D01*
X193119800Y-104016428D01*
X193131704Y-104004523D01*
X193155514Y-103992619D01*
X193179323Y-103992619D01*
X193215038Y-104004523D01*
X193357895Y-104147380D01*
X193357895Y-103992619D01*
X193191228Y-103778333D02*
X193357895Y-103778333D01*
X193095990Y-103837857D02*
X193274561Y-103897380D01*
X193274561Y-103742619D01*
D10*
%TO.C,FB3*%
X185663438Y-99361019D02*
X185711057Y-99313400D01*
X185806295Y-99265780D01*
X186044390Y-99265780D01*
X186139628Y-99313400D01*
X186187247Y-99361019D01*
X186234866Y-99456257D01*
X186234866Y-99551495D01*
X186187247Y-99694352D01*
X185615819Y-100265780D01*
X186234866Y-100265780D01*
X186615819Y-99980066D02*
X187092009Y-99980066D01*
X186520580Y-100265780D02*
X186853914Y-99265780D01*
X187187247Y-100265780D01*
X188234866Y-99218161D02*
X187377723Y-100503876D01*
X188758676Y-99265780D02*
X188853914Y-99265780D01*
X188949152Y-99313400D01*
X188996771Y-99361019D01*
X189044390Y-99456257D01*
X189092009Y-99646733D01*
X189092009Y-99884828D01*
X189044390Y-100075304D01*
X188996771Y-100170542D01*
X188949152Y-100218161D01*
X188853914Y-100265780D01*
X188758676Y-100265780D01*
X188663438Y-100218161D01*
X188615819Y-100170542D01*
X188568200Y-100075304D01*
X188520580Y-99884828D01*
X188520580Y-99646733D01*
X188568200Y-99456257D01*
X188615819Y-99361019D01*
X188663438Y-99313400D01*
X188758676Y-99265780D01*
X189520580Y-100170542D02*
X189568200Y-100218161D01*
X189520580Y-100265780D01*
X189472961Y-100218161D01*
X189520580Y-100170542D01*
X189520580Y-100265780D01*
X190187247Y-99265780D02*
X190282485Y-99265780D01*
X190377723Y-99313400D01*
X190425342Y-99361019D01*
X190472961Y-99456257D01*
X190520580Y-99646733D01*
X190520580Y-99884828D01*
X190472961Y-100075304D01*
X190425342Y-100170542D01*
X190377723Y-100218161D01*
X190282485Y-100265780D01*
X190187247Y-100265780D01*
X190092009Y-100218161D01*
X190044390Y-100170542D01*
X189996771Y-100075304D01*
X189949152Y-99884828D01*
X189949152Y-99646733D01*
X189996771Y-99456257D01*
X190044390Y-99361019D01*
X190092009Y-99313400D01*
X190187247Y-99265780D01*
X191425342Y-99265780D02*
X190949152Y-99265780D01*
X190901533Y-99741971D01*
X190949152Y-99694352D01*
X191044390Y-99646733D01*
X191282485Y-99646733D01*
X191377723Y-99694352D01*
X191425342Y-99741971D01*
X191472961Y-99837209D01*
X191472961Y-100075304D01*
X191425342Y-100170542D01*
X191377723Y-100218161D01*
X191282485Y-100265780D01*
X191044390Y-100265780D01*
X190949152Y-100218161D01*
X190901533Y-100170542D01*
X191901533Y-100265780D02*
X191901533Y-99265780D01*
X192139628Y-99265780D01*
X192282485Y-99313400D01*
X192377723Y-99408638D01*
X192425342Y-99503876D01*
X192472961Y-99694352D01*
X192472961Y-99837209D01*
X192425342Y-100027685D01*
X192377723Y-100122923D01*
X192282485Y-100218161D01*
X192139628Y-100265780D01*
X191901533Y-100265780D01*
X193472961Y-100170542D02*
X193425342Y-100218161D01*
X193282485Y-100265780D01*
X193187247Y-100265780D01*
X193044390Y-100218161D01*
X192949152Y-100122923D01*
X192901533Y-100027685D01*
X192853914Y-99837209D01*
X192853914Y-99694352D01*
X192901533Y-99503876D01*
X192949152Y-99408638D01*
X193044390Y-99313400D01*
X193187247Y-99265780D01*
X193282485Y-99265780D01*
X193425342Y-99313400D01*
X193472961Y-99361019D01*
X194472961Y-100265780D02*
X194139628Y-99789590D01*
X193901533Y-100265780D02*
X193901533Y-99265780D01*
X194282485Y-99265780D01*
X194377723Y-99313400D01*
X194425342Y-99361019D01*
X194472961Y-99456257D01*
X194472961Y-99599114D01*
X194425342Y-99694352D01*
X194377723Y-99741971D01*
X194282485Y-99789590D01*
X193901533Y-99789590D01*
D11*
X189859866Y-101525542D02*
X189776533Y-101525542D01*
X189776533Y-101656495D02*
X189776533Y-101406495D01*
X189895580Y-101406495D01*
X190074152Y-101525542D02*
X190109866Y-101537447D01*
X190121771Y-101549352D01*
X190133676Y-101573161D01*
X190133676Y-101608876D01*
X190121771Y-101632685D01*
X190109866Y-101644590D01*
X190086057Y-101656495D01*
X189990819Y-101656495D01*
X189990819Y-101406495D01*
X190074152Y-101406495D01*
X190097961Y-101418400D01*
X190109866Y-101430304D01*
X190121771Y-101454114D01*
X190121771Y-101477923D01*
X190109866Y-101501733D01*
X190097961Y-101513638D01*
X190074152Y-101525542D01*
X189990819Y-101525542D01*
X190217009Y-101406495D02*
X190371771Y-101406495D01*
X190288438Y-101501733D01*
X190324152Y-101501733D01*
X190347961Y-101513638D01*
X190359866Y-101525542D01*
X190371771Y-101549352D01*
X190371771Y-101608876D01*
X190359866Y-101632685D01*
X190347961Y-101644590D01*
X190324152Y-101656495D01*
X190252723Y-101656495D01*
X190228914Y-101644590D01*
X190217009Y-101632685D01*
D10*
%TO.C,C22*%
X195202380Y-105712857D02*
X195202380Y-105617619D01*
X195250000Y-105522380D01*
X195297619Y-105474761D01*
X195392857Y-105427142D01*
X195583333Y-105379523D01*
X195821428Y-105379523D01*
X196011904Y-105427142D01*
X196107142Y-105474761D01*
X196154761Y-105522380D01*
X196202380Y-105617619D01*
X196202380Y-105712857D01*
X196154761Y-105808095D01*
X196107142Y-105855714D01*
X196011904Y-105903333D01*
X195821428Y-105950952D01*
X195583333Y-105950952D01*
X195392857Y-105903333D01*
X195297619Y-105855714D01*
X195250000Y-105808095D01*
X195202380Y-105712857D01*
X196107142Y-104950952D02*
X196154761Y-104903333D01*
X196202380Y-104950952D01*
X196154761Y-104998571D01*
X196107142Y-104950952D01*
X196202380Y-104950952D01*
X196202380Y-103950952D02*
X196202380Y-104522380D01*
X196202380Y-104236666D02*
X195202380Y-104236666D01*
X195345238Y-104331904D01*
X195440476Y-104427142D01*
X195488095Y-104522380D01*
X195535714Y-103093809D02*
X196202380Y-103093809D01*
X195535714Y-103522380D02*
X196059523Y-103522380D01*
X196154761Y-103474761D01*
X196202380Y-103379523D01*
X196202380Y-103236666D01*
X196154761Y-103141428D01*
X196107142Y-103093809D01*
X195678571Y-102284285D02*
X195678571Y-102617619D01*
X196202380Y-102617619D02*
X195202380Y-102617619D01*
X195202380Y-102141428D01*
D11*
X194109285Y-104230714D02*
X194121190Y-104242619D01*
X194133095Y-104278333D01*
X194133095Y-104302142D01*
X194121190Y-104337857D01*
X194097380Y-104361666D01*
X194073571Y-104373571D01*
X194025952Y-104385476D01*
X193990238Y-104385476D01*
X193942619Y-104373571D01*
X193918809Y-104361666D01*
X193895000Y-104337857D01*
X193883095Y-104302142D01*
X193883095Y-104278333D01*
X193895000Y-104242619D01*
X193906904Y-104230714D01*
X193906904Y-104135476D02*
X193895000Y-104123571D01*
X193883095Y-104099761D01*
X193883095Y-104040238D01*
X193895000Y-104016428D01*
X193906904Y-104004523D01*
X193930714Y-103992619D01*
X193954523Y-103992619D01*
X193990238Y-104004523D01*
X194133095Y-104147380D01*
X194133095Y-103992619D01*
X193906904Y-103897380D02*
X193895000Y-103885476D01*
X193883095Y-103861666D01*
X193883095Y-103802142D01*
X193895000Y-103778333D01*
X193906904Y-103766428D01*
X193930714Y-103754523D01*
X193954523Y-103754523D01*
X193990238Y-103766428D01*
X194133095Y-103909285D01*
X194133095Y-103754523D01*
D10*
%TO.C,C21*%
X183548314Y-110849761D02*
X184214980Y-110849761D01*
X183167361Y-111087857D02*
X183881647Y-111325952D01*
X183881647Y-110706904D01*
X184119742Y-110325952D02*
X184167361Y-110278333D01*
X184214980Y-110325952D01*
X184167361Y-110373571D01*
X184119742Y-110325952D01*
X184214980Y-110325952D01*
X183214980Y-109945000D02*
X183214980Y-109278333D01*
X184214980Y-109706904D01*
X183548314Y-108468809D02*
X184214980Y-108468809D01*
X183548314Y-108897380D02*
X184072123Y-108897380D01*
X184167361Y-108849761D01*
X184214980Y-108754523D01*
X184214980Y-108611666D01*
X184167361Y-108516428D01*
X184119742Y-108468809D01*
X183691171Y-107659285D02*
X183691171Y-107992619D01*
X184214980Y-107992619D02*
X183214980Y-107992619D01*
X183214980Y-107516428D01*
D11*
X182121885Y-109605714D02*
X182133790Y-109617619D01*
X182145695Y-109653333D01*
X182145695Y-109677142D01*
X182133790Y-109712857D01*
X182109980Y-109736666D01*
X182086171Y-109748571D01*
X182038552Y-109760476D01*
X182002838Y-109760476D01*
X181955219Y-109748571D01*
X181931409Y-109736666D01*
X181907600Y-109712857D01*
X181895695Y-109677142D01*
X181895695Y-109653333D01*
X181907600Y-109617619D01*
X181919504Y-109605714D01*
X181919504Y-109510476D02*
X181907600Y-109498571D01*
X181895695Y-109474761D01*
X181895695Y-109415238D01*
X181907600Y-109391428D01*
X181919504Y-109379523D01*
X181943314Y-109367619D01*
X181967123Y-109367619D01*
X182002838Y-109379523D01*
X182145695Y-109522380D01*
X182145695Y-109367619D01*
X182145695Y-109129523D02*
X182145695Y-109272380D01*
X182145695Y-109200952D02*
X181895695Y-109200952D01*
X181931409Y-109224761D01*
X181955219Y-109248571D01*
X181967123Y-109272380D01*
D10*
%TO.C,C17*%
X177852380Y-102166428D02*
X177852380Y-102737857D01*
X177852380Y-102452142D02*
X176852380Y-102452142D01*
X176995238Y-102547380D01*
X177090476Y-102642619D01*
X177138095Y-102737857D01*
X177280952Y-101595000D02*
X177233333Y-101690238D01*
X177185714Y-101737857D01*
X177090476Y-101785476D01*
X177042857Y-101785476D01*
X176947619Y-101737857D01*
X176900000Y-101690238D01*
X176852380Y-101595000D01*
X176852380Y-101404523D01*
X176900000Y-101309285D01*
X176947619Y-101261666D01*
X177042857Y-101214047D01*
X177090476Y-101214047D01*
X177185714Y-101261666D01*
X177233333Y-101309285D01*
X177280952Y-101404523D01*
X177280952Y-101595000D01*
X177328571Y-101690238D01*
X177376190Y-101737857D01*
X177471428Y-101785476D01*
X177661904Y-101785476D01*
X177757142Y-101737857D01*
X177804761Y-101690238D01*
X177852380Y-101595000D01*
X177852380Y-101404523D01*
X177804761Y-101309285D01*
X177757142Y-101261666D01*
X177661904Y-101214047D01*
X177471428Y-101214047D01*
X177376190Y-101261666D01*
X177328571Y-101309285D01*
X177280952Y-101404523D01*
X177185714Y-100785476D02*
X178185714Y-100785476D01*
X177233333Y-100785476D02*
X177185714Y-100690238D01*
X177185714Y-100499761D01*
X177233333Y-100404523D01*
X177280952Y-100356904D01*
X177376190Y-100309285D01*
X177661904Y-100309285D01*
X177757142Y-100356904D01*
X177804761Y-100404523D01*
X177852380Y-100499761D01*
X177852380Y-100690238D01*
X177804761Y-100785476D01*
X177328571Y-99547380D02*
X177328571Y-99880714D01*
X177852380Y-99880714D02*
X176852380Y-99880714D01*
X176852380Y-99404523D01*
D11*
X175759285Y-101255714D02*
X175771190Y-101267619D01*
X175783095Y-101303333D01*
X175783095Y-101327142D01*
X175771190Y-101362857D01*
X175747380Y-101386666D01*
X175723571Y-101398571D01*
X175675952Y-101410476D01*
X175640238Y-101410476D01*
X175592619Y-101398571D01*
X175568809Y-101386666D01*
X175545000Y-101362857D01*
X175533095Y-101327142D01*
X175533095Y-101303333D01*
X175545000Y-101267619D01*
X175556904Y-101255714D01*
X175783095Y-101017619D02*
X175783095Y-101160476D01*
X175783095Y-101089047D02*
X175533095Y-101089047D01*
X175568809Y-101112857D01*
X175592619Y-101136666D01*
X175604523Y-101160476D01*
X175533095Y-100934285D02*
X175533095Y-100767619D01*
X175783095Y-100874761D01*
D13*
%TO.C,U3*%
X187220980Y-105832123D02*
X187220980Y-106860219D01*
X187281457Y-106981171D01*
X187341933Y-107041647D01*
X187462885Y-107102123D01*
X187704790Y-107102123D01*
X187825742Y-107041647D01*
X187886219Y-106981171D01*
X187946695Y-106860219D01*
X187946695Y-105832123D01*
X188430504Y-105832123D02*
X189216695Y-105832123D01*
X188793361Y-106315933D01*
X188974790Y-106315933D01*
X189095742Y-106376409D01*
X189156219Y-106436885D01*
X189216695Y-106557838D01*
X189216695Y-106860219D01*
X189156219Y-106981171D01*
X189095742Y-107041647D01*
X188974790Y-107102123D01*
X188611933Y-107102123D01*
X188490980Y-107041647D01*
X188430504Y-106981171D01*
D10*
%TO.C,R8*%
X192644580Y-106232638D02*
X192644580Y-106804066D01*
X192644580Y-106518352D02*
X191644580Y-106518352D01*
X191787438Y-106613590D01*
X191882676Y-106708828D01*
X191930295Y-106804066D01*
X191644580Y-105613590D02*
X191644580Y-105518352D01*
X191692200Y-105423114D01*
X191739819Y-105375495D01*
X191835057Y-105327876D01*
X192025533Y-105280257D01*
X192263628Y-105280257D01*
X192454104Y-105327876D01*
X192549342Y-105375495D01*
X192596961Y-105423114D01*
X192644580Y-105518352D01*
X192644580Y-105613590D01*
X192596961Y-105708828D01*
X192549342Y-105756447D01*
X192454104Y-105804066D01*
X192263628Y-105851685D01*
X192025533Y-105851685D01*
X191835057Y-105804066D01*
X191739819Y-105756447D01*
X191692200Y-105708828D01*
X191644580Y-105613590D01*
X192644580Y-104851685D02*
X191644580Y-104851685D01*
X192263628Y-104756447D02*
X192644580Y-104470733D01*
X191977914Y-104470733D02*
X192358866Y-104851685D01*
D11*
X193945295Y-105679066D02*
X193826247Y-105762400D01*
X193945295Y-105821923D02*
X193695295Y-105821923D01*
X193695295Y-105726685D01*
X193707200Y-105702876D01*
X193719104Y-105690971D01*
X193742914Y-105679066D01*
X193778628Y-105679066D01*
X193802438Y-105690971D01*
X193814342Y-105702876D01*
X193826247Y-105726685D01*
X193826247Y-105821923D01*
X193802438Y-105536209D02*
X193790533Y-105560019D01*
X193778628Y-105571923D01*
X193754819Y-105583828D01*
X193742914Y-105583828D01*
X193719104Y-105571923D01*
X193707200Y-105560019D01*
X193695295Y-105536209D01*
X193695295Y-105488590D01*
X193707200Y-105464780D01*
X193719104Y-105452876D01*
X193742914Y-105440971D01*
X193754819Y-105440971D01*
X193778628Y-105452876D01*
X193790533Y-105464780D01*
X193802438Y-105488590D01*
X193802438Y-105536209D01*
X193814342Y-105560019D01*
X193826247Y-105571923D01*
X193850057Y-105583828D01*
X193897676Y-105583828D01*
X193921485Y-105571923D01*
X193933390Y-105560019D01*
X193945295Y-105536209D01*
X193945295Y-105488590D01*
X193933390Y-105464780D01*
X193921485Y-105452876D01*
X193897676Y-105440971D01*
X193850057Y-105440971D01*
X193826247Y-105452876D01*
X193814342Y-105464780D01*
X193802438Y-105488590D01*
D10*
%TO.C,R10*%
X184044428Y-113192614D02*
X184044428Y-113859280D01*
X183806333Y-112811661D02*
X183568238Y-113525947D01*
X184187285Y-113525947D01*
X184568238Y-113764042D02*
X184615857Y-113811661D01*
X184568238Y-113859280D01*
X184520619Y-113811661D01*
X184568238Y-113764042D01*
X184568238Y-113859280D01*
X184949190Y-112859280D02*
X185615857Y-112859280D01*
X185187285Y-113859280D01*
X185996809Y-113859280D02*
X185996809Y-112859280D01*
X186092047Y-113478328D02*
X186377761Y-113859280D01*
X186377761Y-113192614D02*
X185996809Y-113573566D01*
D11*
X184812285Y-111789995D02*
X184728952Y-111670947D01*
X184669428Y-111789995D02*
X184669428Y-111539995D01*
X184764666Y-111539995D01*
X184788476Y-111551900D01*
X184800380Y-111563804D01*
X184812285Y-111587614D01*
X184812285Y-111623328D01*
X184800380Y-111647138D01*
X184788476Y-111659042D01*
X184764666Y-111670947D01*
X184669428Y-111670947D01*
X185050380Y-111789995D02*
X184907523Y-111789995D01*
X184978952Y-111789995D02*
X184978952Y-111539995D01*
X184955142Y-111575709D01*
X184931333Y-111599519D01*
X184907523Y-111611423D01*
X185205142Y-111539995D02*
X185228952Y-111539995D01*
X185252761Y-111551900D01*
X185264666Y-111563804D01*
X185276571Y-111587614D01*
X185288476Y-111635233D01*
X185288476Y-111694757D01*
X185276571Y-111742376D01*
X185264666Y-111766185D01*
X185252761Y-111778090D01*
X185228952Y-111789995D01*
X185205142Y-111789995D01*
X185181333Y-111778090D01*
X185169428Y-111766185D01*
X185157523Y-111742376D01*
X185145619Y-111694757D01*
X185145619Y-111635233D01*
X185157523Y-111587614D01*
X185169428Y-111563804D01*
X185181333Y-111551900D01*
X185205142Y-111539995D01*
D10*
%TO.C,R2*%
X181402380Y-100485714D02*
X181402380Y-101057142D01*
X181402380Y-100771428D02*
X180402380Y-100771428D01*
X180545238Y-100866666D01*
X180640476Y-100961904D01*
X180688095Y-101057142D01*
X181402380Y-100057142D02*
X180402380Y-100057142D01*
X181116666Y-99723809D01*
X180402380Y-99390476D01*
X181402380Y-99390476D01*
D11*
X179333095Y-100241666D02*
X179214047Y-100325000D01*
X179333095Y-100384523D02*
X179083095Y-100384523D01*
X179083095Y-100289285D01*
X179095000Y-100265476D01*
X179106904Y-100253571D01*
X179130714Y-100241666D01*
X179166428Y-100241666D01*
X179190238Y-100253571D01*
X179202142Y-100265476D01*
X179214047Y-100289285D01*
X179214047Y-100384523D01*
X179106904Y-100146428D02*
X179095000Y-100134523D01*
X179083095Y-100110714D01*
X179083095Y-100051190D01*
X179095000Y-100027380D01*
X179106904Y-100015476D01*
X179130714Y-100003571D01*
X179154523Y-100003571D01*
X179190238Y-100015476D01*
X179333095Y-100158333D01*
X179333095Y-100003571D01*
D10*
%TO.C,C7*%
X188215180Y-91519638D02*
X188215180Y-92091066D01*
X188215180Y-91805352D02*
X187215180Y-91805352D01*
X187358038Y-91900590D01*
X187453276Y-91995828D01*
X187500895Y-92091066D01*
X187548514Y-90662495D02*
X188215180Y-90662495D01*
X187548514Y-91091066D02*
X188072323Y-91091066D01*
X188167561Y-91043447D01*
X188215180Y-90948209D01*
X188215180Y-90805352D01*
X188167561Y-90710114D01*
X188119942Y-90662495D01*
X187691371Y-89852971D02*
X187691371Y-90186304D01*
X188215180Y-90186304D02*
X187215180Y-90186304D01*
X187215180Y-89710114D01*
D11*
X186122085Y-90966066D02*
X186133990Y-90977971D01*
X186145895Y-91013685D01*
X186145895Y-91037495D01*
X186133990Y-91073209D01*
X186110180Y-91097019D01*
X186086371Y-91108923D01*
X186038752Y-91120828D01*
X186003038Y-91120828D01*
X185955419Y-91108923D01*
X185931609Y-91097019D01*
X185907800Y-91073209D01*
X185895895Y-91037495D01*
X185895895Y-91013685D01*
X185907800Y-90977971D01*
X185919704Y-90966066D01*
X185895895Y-90882733D02*
X185895895Y-90716066D01*
X186145895Y-90823209D01*
D10*
%TO.C,R1*%
X182936771Y-90334380D02*
X182365342Y-90334380D01*
X182651057Y-90334380D02*
X182651057Y-89334380D01*
X182555819Y-89477238D01*
X182460580Y-89572476D01*
X182365342Y-89620095D01*
X183555819Y-89334380D02*
X183651057Y-89334380D01*
X183746295Y-89382000D01*
X183793914Y-89429619D01*
X183841533Y-89524857D01*
X183889152Y-89715333D01*
X183889152Y-89953428D01*
X183841533Y-90143904D01*
X183793914Y-90239142D01*
X183746295Y-90286761D01*
X183651057Y-90334380D01*
X183555819Y-90334380D01*
X183460580Y-90286761D01*
X183412961Y-90239142D01*
X183365342Y-90143904D01*
X183317723Y-89953428D01*
X183317723Y-89715333D01*
X183365342Y-89524857D01*
X183412961Y-89429619D01*
X183460580Y-89382000D01*
X183555819Y-89334380D01*
X184508200Y-89334380D02*
X184603438Y-89334380D01*
X184698676Y-89382000D01*
X184746295Y-89429619D01*
X184793914Y-89524857D01*
X184841533Y-89715333D01*
X184841533Y-89953428D01*
X184793914Y-90143904D01*
X184746295Y-90239142D01*
X184698676Y-90286761D01*
X184603438Y-90334380D01*
X184508200Y-90334380D01*
X184412961Y-90286761D01*
X184365342Y-90239142D01*
X184317723Y-90143904D01*
X184270104Y-89953428D01*
X184270104Y-89715333D01*
X184317723Y-89524857D01*
X184365342Y-89429619D01*
X184412961Y-89382000D01*
X184508200Y-89334380D01*
X185270104Y-90334380D02*
X185270104Y-89334380D01*
X185365342Y-89953428D02*
X185651057Y-90334380D01*
X185651057Y-89667714D02*
X185270104Y-90048666D01*
D11*
X183966533Y-91725095D02*
X183883200Y-91606047D01*
X183823676Y-91725095D02*
X183823676Y-91475095D01*
X183918914Y-91475095D01*
X183942723Y-91487000D01*
X183954628Y-91498904D01*
X183966533Y-91522714D01*
X183966533Y-91558428D01*
X183954628Y-91582238D01*
X183942723Y-91594142D01*
X183918914Y-91606047D01*
X183823676Y-91606047D01*
X184204628Y-91725095D02*
X184061771Y-91725095D01*
X184133200Y-91725095D02*
X184133200Y-91475095D01*
X184109390Y-91510809D01*
X184085580Y-91534619D01*
X184061771Y-91546523D01*
D10*
%TO.C,R18*%
X199714285Y-89215180D02*
X200333333Y-89215180D01*
X200000000Y-89596133D01*
X200142857Y-89596133D01*
X200238095Y-89643752D01*
X200285714Y-89691371D01*
X200333333Y-89786609D01*
X200333333Y-90024704D01*
X200285714Y-90119942D01*
X200238095Y-90167561D01*
X200142857Y-90215180D01*
X199857142Y-90215180D01*
X199761904Y-90167561D01*
X199714285Y-90119942D01*
X200666666Y-89215180D02*
X201285714Y-89215180D01*
X200952380Y-89596133D01*
X201095238Y-89596133D01*
X201190476Y-89643752D01*
X201238095Y-89691371D01*
X201285714Y-89786609D01*
X201285714Y-90024704D01*
X201238095Y-90119942D01*
X201190476Y-90167561D01*
X201095238Y-90215180D01*
X200809523Y-90215180D01*
X200714285Y-90167561D01*
X200666666Y-90119942D01*
X201904761Y-89215180D02*
X202000000Y-89215180D01*
X202095238Y-89262800D01*
X202142857Y-89310419D01*
X202190476Y-89405657D01*
X202238095Y-89596133D01*
X202238095Y-89834228D01*
X202190476Y-90024704D01*
X202142857Y-90119942D01*
X202095238Y-90167561D01*
X202000000Y-90215180D01*
X201904761Y-90215180D01*
X201809523Y-90167561D01*
X201761904Y-90119942D01*
X201714285Y-90024704D01*
X201666666Y-89834228D01*
X201666666Y-89596133D01*
X201714285Y-89405657D01*
X201761904Y-89310419D01*
X201809523Y-89262800D01*
X201904761Y-89215180D01*
D11*
X201139285Y-90705895D02*
X201055952Y-90586847D01*
X200996428Y-90705895D02*
X200996428Y-90455895D01*
X201091666Y-90455895D01*
X201115476Y-90467800D01*
X201127380Y-90479704D01*
X201139285Y-90503514D01*
X201139285Y-90539228D01*
X201127380Y-90563038D01*
X201115476Y-90574942D01*
X201091666Y-90586847D01*
X200996428Y-90586847D01*
X201377380Y-90705895D02*
X201234523Y-90705895D01*
X201305952Y-90705895D02*
X201305952Y-90455895D01*
X201282142Y-90491609D01*
X201258333Y-90515419D01*
X201234523Y-90527323D01*
X201520238Y-90563038D02*
X201496428Y-90551133D01*
X201484523Y-90539228D01*
X201472619Y-90515419D01*
X201472619Y-90503514D01*
X201484523Y-90479704D01*
X201496428Y-90467800D01*
X201520238Y-90455895D01*
X201567857Y-90455895D01*
X201591666Y-90467800D01*
X201603571Y-90479704D01*
X201615476Y-90503514D01*
X201615476Y-90515419D01*
X201603571Y-90539228D01*
X201591666Y-90551133D01*
X201567857Y-90563038D01*
X201520238Y-90563038D01*
X201496428Y-90574942D01*
X201484523Y-90586847D01*
X201472619Y-90610657D01*
X201472619Y-90658276D01*
X201484523Y-90682085D01*
X201496428Y-90693990D01*
X201520238Y-90705895D01*
X201567857Y-90705895D01*
X201591666Y-90693990D01*
X201603571Y-90682085D01*
X201615476Y-90658276D01*
X201615476Y-90610657D01*
X201603571Y-90586847D01*
X201591666Y-90574942D01*
X201567857Y-90563038D01*
D10*
%TO.C,C2*%
X178508571Y-100802380D02*
X177937142Y-100802380D01*
X178222857Y-100802380D02*
X178222857Y-99802380D01*
X178127619Y-99945238D01*
X178032380Y-100040476D01*
X177937142Y-100088095D01*
X179080000Y-100230952D02*
X178984761Y-100183333D01*
X178937142Y-100135714D01*
X178889523Y-100040476D01*
X178889523Y-99992857D01*
X178937142Y-99897619D01*
X178984761Y-99850000D01*
X179080000Y-99802380D01*
X179270476Y-99802380D01*
X179365714Y-99850000D01*
X179413333Y-99897619D01*
X179460952Y-99992857D01*
X179460952Y-100040476D01*
X179413333Y-100135714D01*
X179365714Y-100183333D01*
X179270476Y-100230952D01*
X179080000Y-100230952D01*
X178984761Y-100278571D01*
X178937142Y-100326190D01*
X178889523Y-100421428D01*
X178889523Y-100611904D01*
X178937142Y-100707142D01*
X178984761Y-100754761D01*
X179080000Y-100802380D01*
X179270476Y-100802380D01*
X179365714Y-100754761D01*
X179413333Y-100707142D01*
X179460952Y-100611904D01*
X179460952Y-100421428D01*
X179413333Y-100326190D01*
X179365714Y-100278571D01*
X179270476Y-100230952D01*
X179889523Y-100135714D02*
X179889523Y-101135714D01*
X179889523Y-100183333D02*
X179984761Y-100135714D01*
X180175238Y-100135714D01*
X180270476Y-100183333D01*
X180318095Y-100230952D01*
X180365714Y-100326190D01*
X180365714Y-100611904D01*
X180318095Y-100707142D01*
X180270476Y-100754761D01*
X180175238Y-100802380D01*
X179984761Y-100802380D01*
X179889523Y-100754761D01*
X181127619Y-100278571D02*
X180794285Y-100278571D01*
X180794285Y-100802380D02*
X180794285Y-99802380D01*
X181270476Y-99802380D01*
D11*
X179538333Y-102169285D02*
X179526428Y-102181190D01*
X179490714Y-102193095D01*
X179466904Y-102193095D01*
X179431190Y-102181190D01*
X179407380Y-102157380D01*
X179395476Y-102133571D01*
X179383571Y-102085952D01*
X179383571Y-102050238D01*
X179395476Y-102002619D01*
X179407380Y-101978809D01*
X179431190Y-101955000D01*
X179466904Y-101943095D01*
X179490714Y-101943095D01*
X179526428Y-101955000D01*
X179538333Y-101966904D01*
X179633571Y-101966904D02*
X179645476Y-101955000D01*
X179669285Y-101943095D01*
X179728809Y-101943095D01*
X179752619Y-101955000D01*
X179764523Y-101966904D01*
X179776428Y-101990714D01*
X179776428Y-102014523D01*
X179764523Y-102050238D01*
X179621666Y-102193095D01*
X179776428Y-102193095D01*
D10*
%TO.C,C12*%
X186812371Y-90122980D02*
X186240942Y-90122980D01*
X186526657Y-90122980D02*
X186526657Y-89122980D01*
X186431419Y-89265838D01*
X186336180Y-89361076D01*
X186240942Y-89408695D01*
X187431419Y-89122980D02*
X187526657Y-89122980D01*
X187621895Y-89170600D01*
X187669514Y-89218219D01*
X187717133Y-89313457D01*
X187764752Y-89503933D01*
X187764752Y-89742028D01*
X187717133Y-89932504D01*
X187669514Y-90027742D01*
X187621895Y-90075361D01*
X187526657Y-90122980D01*
X187431419Y-90122980D01*
X187336180Y-90075361D01*
X187288561Y-90027742D01*
X187240942Y-89932504D01*
X187193323Y-89742028D01*
X187193323Y-89503933D01*
X187240942Y-89313457D01*
X187288561Y-89218219D01*
X187336180Y-89170600D01*
X187431419Y-89122980D01*
X188621895Y-89456314D02*
X188621895Y-90122980D01*
X188193323Y-89456314D02*
X188193323Y-89980123D01*
X188240942Y-90075361D01*
X188336180Y-90122980D01*
X188479038Y-90122980D01*
X188574276Y-90075361D01*
X188621895Y-90027742D01*
X189431419Y-89599171D02*
X189098085Y-89599171D01*
X189098085Y-90122980D02*
X189098085Y-89122980D01*
X189574276Y-89122980D01*
D11*
X187723085Y-88029885D02*
X187711180Y-88041790D01*
X187675466Y-88053695D01*
X187651657Y-88053695D01*
X187615942Y-88041790D01*
X187592133Y-88017980D01*
X187580228Y-87994171D01*
X187568323Y-87946552D01*
X187568323Y-87910838D01*
X187580228Y-87863219D01*
X187592133Y-87839409D01*
X187615942Y-87815600D01*
X187651657Y-87803695D01*
X187675466Y-87803695D01*
X187711180Y-87815600D01*
X187723085Y-87827504D01*
X187961180Y-88053695D02*
X187818323Y-88053695D01*
X187889752Y-88053695D02*
X187889752Y-87803695D01*
X187865942Y-87839409D01*
X187842133Y-87863219D01*
X187818323Y-87875123D01*
X188056419Y-87827504D02*
X188068323Y-87815600D01*
X188092133Y-87803695D01*
X188151657Y-87803695D01*
X188175466Y-87815600D01*
X188187371Y-87827504D01*
X188199276Y-87851314D01*
X188199276Y-87875123D01*
X188187371Y-87910838D01*
X188044514Y-88053695D01*
X188199276Y-88053695D01*
D10*
%TO.C,D3*%
X198637142Y-88495980D02*
X198160952Y-88495980D01*
X198160952Y-87495980D01*
X198970476Y-87972171D02*
X199303809Y-87972171D01*
X199446666Y-88495980D02*
X198970476Y-88495980D01*
X198970476Y-87495980D01*
X199446666Y-87495980D01*
X199875238Y-88495980D02*
X199875238Y-87495980D01*
X200113333Y-87495980D01*
X200256190Y-87543600D01*
X200351428Y-87638838D01*
X200399047Y-87734076D01*
X200446666Y-87924552D01*
X200446666Y-88067409D01*
X200399047Y-88257885D01*
X200351428Y-88353123D01*
X200256190Y-88448361D01*
X200113333Y-88495980D01*
X199875238Y-88495980D01*
D11*
X199095476Y-89886695D02*
X199095476Y-89636695D01*
X199155000Y-89636695D01*
X199190714Y-89648600D01*
X199214523Y-89672409D01*
X199226428Y-89696219D01*
X199238333Y-89743838D01*
X199238333Y-89779552D01*
X199226428Y-89827171D01*
X199214523Y-89850980D01*
X199190714Y-89874790D01*
X199155000Y-89886695D01*
X199095476Y-89886695D01*
X199321666Y-89636695D02*
X199476428Y-89636695D01*
X199393095Y-89731933D01*
X199428809Y-89731933D01*
X199452619Y-89743838D01*
X199464523Y-89755742D01*
X199476428Y-89779552D01*
X199476428Y-89839076D01*
X199464523Y-89862885D01*
X199452619Y-89874790D01*
X199428809Y-89886695D01*
X199357380Y-89886695D01*
X199333571Y-89874790D01*
X199321666Y-89862885D01*
D10*
%TO.C,U5*%
X231648438Y-99603961D02*
X231600819Y-99746819D01*
X231600819Y-99984914D01*
X231648438Y-100080152D01*
X231696057Y-100127771D01*
X231791295Y-100175390D01*
X231886533Y-100175390D01*
X231981771Y-100127771D01*
X232029390Y-100080152D01*
X232077009Y-99984914D01*
X232124628Y-99794438D01*
X232172247Y-99699200D01*
X232219866Y-99651580D01*
X232315104Y-99603961D01*
X232410342Y-99603961D01*
X232505580Y-99651580D01*
X232553200Y-99699200D01*
X232600819Y-99794438D01*
X232600819Y-100032533D01*
X232553200Y-100175390D01*
X231600819Y-100603961D02*
X232600819Y-100603961D01*
X232600819Y-100842057D01*
X232553200Y-100984914D01*
X232457961Y-101080152D01*
X232362723Y-101127771D01*
X232172247Y-101175390D01*
X232029390Y-101175390D01*
X231838914Y-101127771D01*
X231743676Y-101080152D01*
X231648438Y-100984914D01*
X231600819Y-100842057D01*
X231600819Y-100603961D01*
X231505580Y-101365866D02*
X231505580Y-102127771D01*
X231696057Y-102937295D02*
X231648438Y-102889676D01*
X231600819Y-102746819D01*
X231600819Y-102651580D01*
X231648438Y-102508723D01*
X231743676Y-102413485D01*
X231838914Y-102365866D01*
X232029390Y-102318247D01*
X232172247Y-102318247D01*
X232362723Y-102365866D01*
X232457961Y-102413485D01*
X232553200Y-102508723D01*
X232600819Y-102651580D01*
X232600819Y-102746819D01*
X232553200Y-102889676D01*
X232505580Y-102937295D01*
X232600819Y-103556342D02*
X232600819Y-103746819D01*
X232553200Y-103842057D01*
X232457961Y-103937295D01*
X232267485Y-103984914D01*
X231934152Y-103984914D01*
X231743676Y-103937295D01*
X231648438Y-103842057D01*
X231600819Y-103746819D01*
X231600819Y-103556342D01*
X231648438Y-103461104D01*
X231743676Y-103365866D01*
X231934152Y-103318247D01*
X232267485Y-103318247D01*
X232457961Y-103365866D01*
X232553200Y-103461104D01*
X232600819Y-103556342D01*
X231600819Y-104413485D02*
X232600819Y-104413485D01*
X231600819Y-104984914D01*
X232600819Y-104984914D01*
X231600819Y-105461104D02*
X232600819Y-105461104D01*
X231600819Y-106032533D01*
X232600819Y-106032533D01*
X232124628Y-106508723D02*
X232124628Y-106842057D01*
X231600819Y-106984914D02*
X231600819Y-106508723D01*
X232600819Y-106508723D01*
X232600819Y-106984914D01*
X231696057Y-107984914D02*
X231648438Y-107937295D01*
X231600819Y-107794438D01*
X231600819Y-107699200D01*
X231648438Y-107556342D01*
X231743676Y-107461104D01*
X231838914Y-107413485D01*
X232029390Y-107365866D01*
X232172247Y-107365866D01*
X232362723Y-107413485D01*
X232457961Y-107461104D01*
X232553200Y-107556342D01*
X232600819Y-107699200D01*
X232600819Y-107794438D01*
X232553200Y-107937295D01*
X232505580Y-107984914D01*
X232600819Y-108270628D02*
X232600819Y-108842057D01*
X231600819Y-108556342D02*
X232600819Y-108556342D01*
X232600819Y-109365866D02*
X232600819Y-109556342D01*
X232553200Y-109651580D01*
X232457961Y-109746819D01*
X232267485Y-109794438D01*
X231934152Y-109794438D01*
X231743676Y-109746819D01*
X231648438Y-109651580D01*
X231600819Y-109556342D01*
X231600819Y-109365866D01*
X231648438Y-109270628D01*
X231743676Y-109175390D01*
X231934152Y-109127771D01*
X232267485Y-109127771D01*
X232457961Y-109175390D01*
X232553200Y-109270628D01*
X232600819Y-109365866D01*
X231600819Y-110794438D02*
X232077009Y-110461104D01*
X231600819Y-110223009D02*
X232600819Y-110223009D01*
X232600819Y-110603961D01*
X232553200Y-110699200D01*
X232505580Y-110746819D01*
X232410342Y-110794438D01*
X232267485Y-110794438D01*
X232172247Y-110746819D01*
X232124628Y-110699200D01*
X232077009Y-110603961D01*
X232077009Y-110223009D01*
X233845419Y-104665895D02*
X233035895Y-104665895D01*
X232940657Y-104713514D01*
X232893038Y-104761133D01*
X232845419Y-104856371D01*
X232845419Y-105046847D01*
X232893038Y-105142085D01*
X232940657Y-105189704D01*
X233035895Y-105237323D01*
X233845419Y-105237323D01*
X233845419Y-106189704D02*
X233845419Y-105713514D01*
X233369228Y-105665895D01*
X233416847Y-105713514D01*
X233464466Y-105808752D01*
X233464466Y-106046847D01*
X233416847Y-106142085D01*
X233369228Y-106189704D01*
X233273990Y-106237323D01*
X233035895Y-106237323D01*
X232940657Y-106189704D01*
X232893038Y-106142085D01*
X232845419Y-106046847D01*
X232845419Y-105808752D01*
X232893038Y-105713514D01*
X232940657Y-105665895D01*
D14*
%TO.C,D1*%
X196841500Y-88943600D02*
X197441500Y-88943600D01*
X197441500Y-88943600D02*
X197441500Y-89243600D01*
X197441500Y-89243600D02*
X196841500Y-89243600D01*
X197241500Y-88943600D02*
X197241500Y-89243600D01*
X197341500Y-88943600D02*
X197341500Y-89243600D01*
X196841500Y-89243600D02*
X196841500Y-88943600D01*
%TO.C,Y1*%
X182800000Y-101700000D02*
X182300000Y-101200000D01*
X180800000Y-102400000D02*
X182800000Y-102400000D01*
X182800000Y-101200000D02*
X180800000Y-101200000D01*
X182800000Y-102400000D02*
X182800000Y-101200000D01*
X180800000Y-101200000D02*
X180800000Y-102400000D01*
%TO.C,U4*%
X204052000Y-101432000D02*
X204052000Y-105832000D01*
X204052000Y-105832000D02*
X197252000Y-105832000D01*
X196252000Y-101432000D02*
X204052000Y-101432000D01*
X197252000Y-105832000D02*
X196252000Y-104832000D01*
X196252000Y-104832000D02*
X196252000Y-101432000D01*
%TO.C,R4*%
X198545000Y-99400000D02*
X198545000Y-99100000D01*
X198545000Y-99100000D02*
X199145000Y-99100000D01*
X199145000Y-99100000D02*
X199145000Y-99400000D01*
X199145000Y-99400000D02*
X198545000Y-99400000D01*
%TO.C,R11*%
X194591800Y-105337400D02*
X194891800Y-105337400D01*
X194591800Y-105937400D02*
X194591800Y-105337400D01*
X194891800Y-105937400D02*
X194591800Y-105937400D01*
X194891800Y-105337400D02*
X194891800Y-105937400D01*
%TO.C,C18*%
X192150000Y-91500000D02*
X192750000Y-91500000D01*
X192750000Y-91800000D02*
X192150000Y-91800000D01*
X192150000Y-91800000D02*
X192150000Y-91500000D01*
X192750000Y-91500000D02*
X192750000Y-91800000D01*
%TO.C,R13*%
X189350000Y-112100000D02*
X189350000Y-112400000D01*
X188750000Y-112100000D02*
X189350000Y-112100000D01*
X188750000Y-112400000D02*
X188750000Y-112100000D01*
X189350000Y-112400000D02*
X188750000Y-112400000D01*
%TO.C,R12*%
X195379200Y-105337400D02*
X195679200Y-105337400D01*
X195679200Y-105937400D02*
X195379200Y-105937400D01*
X195379200Y-105937400D02*
X195379200Y-105337400D01*
X195679200Y-105337400D02*
X195679200Y-105937400D01*
%TO.C,C4*%
X197605000Y-97562600D02*
X197605000Y-97862600D01*
X197005000Y-97862600D02*
X197005000Y-97562600D01*
X197605000Y-97862600D02*
X197005000Y-97862600D01*
X197005000Y-97562600D02*
X197605000Y-97562600D01*
%TO.C,C8*%
X186059800Y-88770600D02*
X186059800Y-88470600D01*
X186659800Y-88470600D02*
X186659800Y-88770600D01*
X186659800Y-88770600D02*
X186059800Y-88770600D01*
X186059800Y-88470600D02*
X186659800Y-88470600D01*
%TO.C,D2*%
X201615900Y-88950000D02*
X201615900Y-89250000D01*
X201615900Y-89250000D02*
X201015900Y-89250000D01*
X201015900Y-89250000D02*
X201015900Y-88950000D01*
X201415900Y-88950000D02*
X201415900Y-89250000D01*
X201515900Y-88950000D02*
X201515900Y-89250000D01*
X201015900Y-88950000D02*
X201615900Y-88950000D01*
%TO.C,R14*%
X179020000Y-99710000D02*
X179020000Y-100010000D01*
X178420000Y-100010000D02*
X178420000Y-99710000D01*
X178420000Y-99710000D02*
X179020000Y-99710000D01*
X179020000Y-100010000D02*
X178420000Y-100010000D01*
%TO.C,C25*%
X177150000Y-116300000D02*
X177150000Y-116000000D01*
X177150000Y-116000000D02*
X177750000Y-116000000D01*
X177750000Y-116300000D02*
X177150000Y-116300000D01*
X177750000Y-116000000D02*
X177750000Y-116300000D01*
%TO.C,R19*%
X198980000Y-89756400D02*
X199580000Y-89756400D01*
X199580000Y-89756400D02*
X199580000Y-90056400D01*
X198980000Y-90056400D02*
X198980000Y-89756400D01*
X199580000Y-90056400D02*
X198980000Y-90056400D01*
%TO.C,C20*%
X195600000Y-96750000D02*
X195600000Y-97050000D01*
X195000000Y-96750000D02*
X195600000Y-96750000D01*
X195000000Y-97050000D02*
X195000000Y-96750000D01*
X195600000Y-97050000D02*
X195000000Y-97050000D01*
%TO.C,R5*%
X185750000Y-90624400D02*
X186050000Y-90624400D01*
X186050000Y-90624400D02*
X186050000Y-91224400D01*
X185750000Y-91224400D02*
X185750000Y-90624400D01*
X186050000Y-91224400D02*
X185750000Y-91224400D01*
%TO.C,R16*%
X194200000Y-99700000D02*
X193900000Y-99700000D01*
X194200000Y-99100000D02*
X194200000Y-99700000D01*
X193900000Y-99100000D02*
X194200000Y-99100000D01*
X193900000Y-99700000D02*
X193900000Y-99100000D01*
%TO.C,C5*%
X192750000Y-100700000D02*
X192750000Y-101000000D01*
X192150000Y-100700000D02*
X192750000Y-100700000D01*
X192150000Y-101000000D02*
X192150000Y-100700000D01*
X192750000Y-101000000D02*
X192150000Y-101000000D01*
%TO.C,C15*%
X185273000Y-113045100D02*
X185273000Y-113345100D01*
X184673000Y-113345100D02*
X184673000Y-113045100D01*
X184673000Y-113045100D02*
X185273000Y-113045100D01*
X185273000Y-113345100D02*
X184673000Y-113345100D01*
%TO.C,R6*%
X186644600Y-89258000D02*
X186644600Y-89558000D01*
X186644600Y-89558000D02*
X186044600Y-89558000D01*
X186044600Y-89558000D02*
X186044600Y-89258000D01*
X186044600Y-89258000D02*
X186644600Y-89258000D01*
%TO.C,C14*%
X183700000Y-89950000D02*
X184300000Y-89950000D01*
X184300000Y-90250000D02*
X183700000Y-90250000D01*
X184300000Y-89950000D02*
X184300000Y-90250000D01*
X183700000Y-90250000D02*
X183700000Y-89950000D01*
%TO.C,R17*%
X197447200Y-89756400D02*
X197447200Y-90056400D01*
X196847200Y-89756400D02*
X197447200Y-89756400D01*
X196847200Y-90056400D02*
X196847200Y-89756400D01*
X197447200Y-90056400D02*
X196847200Y-90056400D01*
%TO.C,R3*%
X197605000Y-98650000D02*
X197005000Y-98650000D01*
X197605000Y-98350000D02*
X197605000Y-98650000D01*
X197005000Y-98350000D02*
X197605000Y-98350000D01*
X197005000Y-98650000D02*
X197005000Y-98350000D01*
%TO.C,C26*%
X183350000Y-109145000D02*
X183650000Y-109145000D01*
X183650000Y-109745000D02*
X183350000Y-109745000D01*
X183650000Y-109145000D02*
X183650000Y-109745000D01*
X183350000Y-109745000D02*
X183350000Y-109145000D01*
%TO.C,R15*%
X184173000Y-98912400D02*
X184173000Y-99512400D01*
X184173000Y-99512400D02*
X183873000Y-99512400D01*
X183873000Y-98912400D02*
X184173000Y-98912400D01*
X183873000Y-99512400D02*
X183873000Y-98912400D01*
%TO.C,U1*%
X185857000Y-92766000D02*
X192857000Y-92766000D01*
X192857000Y-99766000D02*
X185857000Y-99766000D01*
X192857000Y-92766000D02*
X192857000Y-99766000D01*
X185857000Y-99766000D02*
X185857000Y-92766000D01*
X186357000Y-99766000D02*
X185857000Y-99266000D01*
%TO.C,R7*%
X184308200Y-91869400D02*
X183708200Y-91869400D01*
X183708200Y-91869400D02*
X183708200Y-91569400D01*
X184308200Y-91569400D02*
X184308200Y-91869400D01*
X183708200Y-91569400D02*
X184308200Y-91569400D01*
%TO.C,FB2*%
X179800000Y-93800000D02*
X179800000Y-94400000D01*
X179500000Y-93800000D02*
X179800000Y-93800000D01*
X179500000Y-94400000D02*
X179500000Y-93800000D01*
X179800000Y-94400000D02*
X179500000Y-94400000D01*
%TO.C,C3*%
X184678600Y-97919400D02*
X184678600Y-98219400D01*
X184678600Y-98219400D02*
X184078600Y-98219400D01*
X184078600Y-98219400D02*
X184078600Y-97919400D01*
X184078600Y-97919400D02*
X184678600Y-97919400D01*
%TO.C,C1*%
X178550000Y-101350000D02*
X178250000Y-101350000D01*
X178550000Y-100750000D02*
X178550000Y-101350000D01*
X178250000Y-101350000D02*
X178250000Y-100750000D01*
X178250000Y-100750000D02*
X178550000Y-100750000D01*
%TO.C,FB4*%
X187650000Y-90600000D02*
X187650000Y-90300000D01*
X188250000Y-90600000D02*
X187650000Y-90600000D01*
X187650000Y-90300000D02*
X188250000Y-90300000D01*
X188250000Y-90300000D02*
X188250000Y-90600000D01*
%TO.C,C9*%
X192750000Y-90950000D02*
X192150000Y-90950000D01*
X192150000Y-90650000D02*
X192750000Y-90650000D01*
X192150000Y-90950000D02*
X192150000Y-90650000D01*
X192750000Y-90650000D02*
X192750000Y-90950000D01*
%TO.C,C23*%
X183700000Y-111200000D02*
X183700000Y-111800000D01*
X183400000Y-111800000D02*
X183400000Y-111200000D01*
X183400000Y-111200000D02*
X183700000Y-111200000D01*
X183700000Y-111800000D02*
X183400000Y-111800000D01*
%TO.C,C13*%
X188250000Y-91100000D02*
X188250000Y-91400000D01*
X187650000Y-91100000D02*
X188250000Y-91100000D01*
X188250000Y-91400000D02*
X187650000Y-91400000D01*
X187650000Y-91400000D02*
X187650000Y-91100000D01*
%TO.C,C10*%
X178550000Y-93805000D02*
X178850000Y-93805000D01*
X178550000Y-94405000D02*
X178550000Y-93805000D01*
X178850000Y-94405000D02*
X178550000Y-94405000D01*
X178850000Y-93805000D02*
X178850000Y-94405000D01*
%TO.C,R9*%
X194089600Y-105937400D02*
X193789600Y-105937400D01*
X194089600Y-105337400D02*
X194089600Y-105937400D01*
X193789600Y-105337400D02*
X194089600Y-105337400D01*
X193789600Y-105937400D02*
X193789600Y-105337400D01*
%TO.C,C24*%
X193774800Y-103770000D02*
X194074800Y-103770000D01*
X194074800Y-104370000D02*
X193774800Y-104370000D01*
X194074800Y-103770000D02*
X194074800Y-104370000D01*
X193774800Y-104370000D02*
X193774800Y-103770000D01*
%TO.C,FB3*%
X189768200Y-101013400D02*
X189768200Y-100713400D01*
X190368200Y-101013400D02*
X189768200Y-101013400D01*
X189768200Y-100713400D02*
X190368200Y-100713400D01*
X190368200Y-100713400D02*
X190368200Y-101013400D01*
%TO.C,C22*%
X194550000Y-104370000D02*
X194550000Y-103770000D01*
X194850000Y-103770000D02*
X194850000Y-104370000D01*
X194550000Y-103770000D02*
X194850000Y-103770000D01*
X194850000Y-104370000D02*
X194550000Y-104370000D01*
%TO.C,C21*%
X182562600Y-109145000D02*
X182862600Y-109145000D01*
X182862600Y-109145000D02*
X182862600Y-109745000D01*
X182862600Y-109745000D02*
X182562600Y-109745000D01*
X182562600Y-109745000D02*
X182562600Y-109145000D01*
%TO.C,C17*%
X176500000Y-100795000D02*
X176500000Y-101395000D01*
X176200000Y-100795000D02*
X176500000Y-100795000D01*
X176200000Y-101395000D02*
X176200000Y-100795000D01*
X176500000Y-101395000D02*
X176200000Y-101395000D01*
%TO.C,U3*%
X190388600Y-110727600D02*
X189738600Y-111377600D01*
X190388600Y-111377600D02*
X185988600Y-111377600D01*
X190388600Y-101677600D02*
X190388600Y-111377600D01*
X185988600Y-101677600D02*
X190388600Y-101677600D01*
X185988600Y-111377600D02*
X185988600Y-101677600D01*
%TO.C,R8*%
X193002200Y-105937400D02*
X193002200Y-105337400D01*
X193302200Y-105937400D02*
X193002200Y-105937400D01*
X193002200Y-105337400D02*
X193302200Y-105337400D01*
X193302200Y-105337400D02*
X193302200Y-105937400D01*
%TO.C,R10*%
X185273000Y-112506900D02*
X184673000Y-112506900D01*
X185273000Y-112206900D02*
X185273000Y-112506900D01*
X184673000Y-112206900D02*
X185273000Y-112206900D01*
X184673000Y-112506900D02*
X184673000Y-112206900D01*
%TO.C,R2*%
X180050000Y-99900000D02*
X180050000Y-100500000D01*
X179750000Y-100500000D02*
X179750000Y-99900000D01*
X180050000Y-100500000D02*
X179750000Y-100500000D01*
X179750000Y-99900000D02*
X180050000Y-99900000D01*
%TO.C,C7*%
X186862800Y-91224400D02*
X186562800Y-91224400D01*
X186862800Y-90624400D02*
X186862800Y-91224400D01*
X186562800Y-90624400D02*
X186862800Y-90624400D01*
X186562800Y-91224400D02*
X186562800Y-90624400D01*
%TO.C,R1*%
X183708200Y-90782000D02*
X184308200Y-90782000D01*
X184308200Y-90782000D02*
X184308200Y-91082000D01*
X183708200Y-91082000D02*
X183708200Y-90782000D01*
X184308200Y-91082000D02*
X183708200Y-91082000D01*
%TO.C,R18*%
X201000000Y-90062800D02*
X201000000Y-89762800D01*
X201600000Y-90062800D02*
X201000000Y-90062800D01*
X201000000Y-89762800D02*
X201600000Y-89762800D01*
X201600000Y-89762800D02*
X201600000Y-90062800D01*
%TO.C,C2*%
X179280000Y-101550000D02*
X179280000Y-101250000D01*
X179880000Y-101250000D02*
X179880000Y-101550000D01*
X179880000Y-101550000D02*
X179280000Y-101550000D01*
X179280000Y-101250000D02*
X179880000Y-101250000D01*
%TO.C,C12*%
X188183800Y-88470600D02*
X188183800Y-88770600D01*
X187583800Y-88470600D02*
X188183800Y-88470600D01*
X188183800Y-88770600D02*
X187583800Y-88770600D01*
X187583800Y-88770600D02*
X187583800Y-88470600D01*
%TO.C,D3*%
X199580000Y-88943600D02*
X199580000Y-89243600D01*
X199380000Y-88943600D02*
X199380000Y-89243600D01*
X198980000Y-88943600D02*
X199580000Y-88943600D01*
X198980000Y-89243600D02*
X198980000Y-88943600D01*
X199580000Y-89243600D02*
X198980000Y-89243600D01*
X199480000Y-88943600D02*
X199480000Y-89243600D01*
%TD*%
M02*
