%TF.GenerationSoftware,KiCad,Pcbnew,6.0.5-a6ca702e91~116~ubuntu20.04.1*%
%TF.CreationDate,2022-07-25T12:39:35+01:00*%
%TF.ProjectId,sd-mux,73642d6d-7578-42e6-9b69-6361645f7063,rev?*%
%TF.SameCoordinates,Original*%
%TF.FileFunction,Legend,Top*%
%TF.FilePolarity,Positive*%
%FSLAX46Y46*%
G04 Gerber Fmt 4.6, Leading zero omitted, Abs format (unit mm)*
G04 Created by KiCad (PCBNEW 6.0.5-a6ca702e91~116~ubuntu20.04.1) date 2022-07-25 12:39:35*
%MOMM*%
%LPD*%
G01*
G04 APERTURE LIST*
%ADD10C,0.150000*%
%ADD11C,0.100000*%
%ADD12C,0.200000*%
%ADD13C,0.120000*%
%ADD14C,0.250000*%
G04 APERTURE END LIST*
D10*
X188900000Y-122250000D02*
X179400000Y-122250000D01*
X179400000Y-122250000D02*
X179400000Y-120600000D01*
X179400000Y-120600000D02*
X188900000Y-120600000D01*
X188900000Y-120600000D02*
X188900000Y-122250000D01*
G36*
X188900000Y-122250000D02*
G01*
X179400000Y-122250000D01*
X179400000Y-120600000D01*
X188900000Y-120600000D01*
X188900000Y-122250000D01*
G37*
X179225714Y-118614378D02*
X179225714Y-118190092D01*
X179187142Y-118112950D01*
X179110000Y-118074378D01*
X178955714Y-118074378D01*
X178878571Y-118112950D01*
X179225714Y-118575807D02*
X179148571Y-118614378D01*
X178955714Y-118614378D01*
X178878571Y-118575807D01*
X178840000Y-118498664D01*
X178840000Y-118421521D01*
X178878571Y-118344378D01*
X178955714Y-118305807D01*
X179148571Y-118305807D01*
X179225714Y-118267235D01*
X179958571Y-118074378D02*
X179958571Y-118614378D01*
X179611428Y-118074378D02*
X179611428Y-118498664D01*
X179650000Y-118575807D01*
X179727142Y-118614378D01*
X179842857Y-118614378D01*
X179920000Y-118575807D01*
X179958571Y-118537235D01*
X180228571Y-118074378D02*
X180537142Y-118074378D01*
X180344285Y-117804378D02*
X180344285Y-118498664D01*
X180382857Y-118575807D01*
X180460000Y-118614378D01*
X180537142Y-118614378D01*
X180922857Y-118614378D02*
X180845714Y-118575807D01*
X180807142Y-118537235D01*
X180768571Y-118460092D01*
X180768571Y-118228664D01*
X180807142Y-118151521D01*
X180845714Y-118112950D01*
X180922857Y-118074378D01*
X181038571Y-118074378D01*
X181115714Y-118112950D01*
X181154285Y-118151521D01*
X181192857Y-118228664D01*
X181192857Y-118460092D01*
X181154285Y-118537235D01*
X181115714Y-118575807D01*
X181038571Y-118614378D01*
X180922857Y-118614378D01*
X181540000Y-118614378D02*
X181540000Y-117804378D01*
X181617142Y-118305807D02*
X181848571Y-118614378D01*
X181848571Y-118074378D02*
X181540000Y-118382950D01*
X182195714Y-118614378D02*
X182195714Y-118074378D01*
X182195714Y-117804378D02*
X182157142Y-117842950D01*
X182195714Y-117881521D01*
X182234285Y-117842950D01*
X182195714Y-117804378D01*
X182195714Y-117881521D01*
X182465714Y-118074378D02*
X182774285Y-118074378D01*
X182581428Y-117804378D02*
X182581428Y-118498664D01*
X182620000Y-118575807D01*
X182697142Y-118614378D01*
X182774285Y-118614378D01*
X183044285Y-118305807D02*
X183661428Y-118305807D01*
X184008571Y-118575807D02*
X184085714Y-118614378D01*
X184240000Y-118614378D01*
X184317142Y-118575807D01*
X184355714Y-118498664D01*
X184355714Y-118460092D01*
X184317142Y-118382950D01*
X184240000Y-118344378D01*
X184124285Y-118344378D01*
X184047142Y-118305807D01*
X184008571Y-118228664D01*
X184008571Y-118190092D01*
X184047142Y-118112950D01*
X184124285Y-118074378D01*
X184240000Y-118074378D01*
X184317142Y-118112950D01*
X185050000Y-118614378D02*
X185050000Y-117804378D01*
X185050000Y-118575807D02*
X184972857Y-118614378D01*
X184818571Y-118614378D01*
X184741428Y-118575807D01*
X184702857Y-118537235D01*
X184664285Y-118460092D01*
X184664285Y-118228664D01*
X184702857Y-118151521D01*
X184741428Y-118112950D01*
X184818571Y-118074378D01*
X184972857Y-118074378D01*
X185050000Y-118112950D01*
X185435714Y-118305807D02*
X186052857Y-118305807D01*
X186438571Y-118614378D02*
X186438571Y-118074378D01*
X186438571Y-118151521D02*
X186477142Y-118112950D01*
X186554285Y-118074378D01*
X186670000Y-118074378D01*
X186747142Y-118112950D01*
X186785714Y-118190092D01*
X186785714Y-118614378D01*
X186785714Y-118190092D02*
X186824285Y-118112950D01*
X186901428Y-118074378D01*
X187017142Y-118074378D01*
X187094285Y-118112950D01*
X187132857Y-118190092D01*
X187132857Y-118614378D01*
X187865714Y-118074378D02*
X187865714Y-118614378D01*
X187518571Y-118074378D02*
X187518571Y-118498664D01*
X187557142Y-118575807D01*
X187634285Y-118614378D01*
X187750000Y-118614378D01*
X187827142Y-118575807D01*
X187865714Y-118537235D01*
X188174285Y-118614378D02*
X188598571Y-118074378D01*
X188174285Y-118074378D02*
X188598571Y-118614378D01*
X177586428Y-119378478D02*
X177779285Y-119918478D01*
X177972142Y-119378478D01*
X178589285Y-119879907D02*
X178512142Y-119918478D01*
X178357857Y-119918478D01*
X178280714Y-119879907D01*
X178242142Y-119802764D01*
X178242142Y-119494192D01*
X178280714Y-119417050D01*
X178357857Y-119378478D01*
X178512142Y-119378478D01*
X178589285Y-119417050D01*
X178627857Y-119494192D01*
X178627857Y-119571335D01*
X178242142Y-119648478D01*
X178975000Y-119918478D02*
X178975000Y-119378478D01*
X178975000Y-119532764D02*
X179013571Y-119455621D01*
X179052142Y-119417050D01*
X179129285Y-119378478D01*
X179206428Y-119378478D01*
X179437857Y-119879907D02*
X179515000Y-119918478D01*
X179669285Y-119918478D01*
X179746428Y-119879907D01*
X179785000Y-119802764D01*
X179785000Y-119764192D01*
X179746428Y-119687050D01*
X179669285Y-119648478D01*
X179553571Y-119648478D01*
X179476428Y-119609907D01*
X179437857Y-119532764D01*
X179437857Y-119494192D01*
X179476428Y-119417050D01*
X179553571Y-119378478D01*
X179669285Y-119378478D01*
X179746428Y-119417050D01*
X180132142Y-119918478D02*
X180132142Y-119378478D01*
X180132142Y-119108478D02*
X180093571Y-119147050D01*
X180132142Y-119185621D01*
X180170714Y-119147050D01*
X180132142Y-119108478D01*
X180132142Y-119185621D01*
X180633571Y-119918478D02*
X180556428Y-119879907D01*
X180517857Y-119841335D01*
X180479285Y-119764192D01*
X180479285Y-119532764D01*
X180517857Y-119455621D01*
X180556428Y-119417050D01*
X180633571Y-119378478D01*
X180749285Y-119378478D01*
X180826428Y-119417050D01*
X180865000Y-119455621D01*
X180903571Y-119532764D01*
X180903571Y-119764192D01*
X180865000Y-119841335D01*
X180826428Y-119879907D01*
X180749285Y-119918478D01*
X180633571Y-119918478D01*
X181250714Y-119378478D02*
X181250714Y-119918478D01*
X181250714Y-119455621D02*
X181289285Y-119417050D01*
X181366428Y-119378478D01*
X181482142Y-119378478D01*
X181559285Y-119417050D01*
X181597857Y-119494192D01*
X181597857Y-119918478D01*
X181983571Y-119841335D02*
X182022142Y-119879907D01*
X181983571Y-119918478D01*
X181945000Y-119879907D01*
X181983571Y-119841335D01*
X181983571Y-119918478D01*
X181983571Y-119417050D02*
X182022142Y-119455621D01*
X181983571Y-119494192D01*
X181945000Y-119455621D01*
X181983571Y-119417050D01*
X181983571Y-119494192D01*
X183410714Y-119918478D02*
X182947857Y-119918478D01*
X183179285Y-119918478D02*
X183179285Y-119108478D01*
X183102142Y-119224192D01*
X183025000Y-119301335D01*
X182947857Y-119339907D01*
X183757857Y-119841335D02*
X183796428Y-119879907D01*
X183757857Y-119918478D01*
X183719285Y-119879907D01*
X183757857Y-119841335D01*
X183757857Y-119918478D01*
X184297857Y-119108478D02*
X184375000Y-119108478D01*
X184452142Y-119147050D01*
X184490714Y-119185621D01*
X184529285Y-119262764D01*
X184567857Y-119417050D01*
X184567857Y-119609907D01*
X184529285Y-119764192D01*
X184490714Y-119841335D01*
X184452142Y-119879907D01*
X184375000Y-119918478D01*
X184297857Y-119918478D01*
X184220714Y-119879907D01*
X184182142Y-119841335D01*
X184143571Y-119764192D01*
X184105000Y-119609907D01*
X184105000Y-119417050D01*
X184143571Y-119262764D01*
X184182142Y-119185621D01*
X184220714Y-119147050D01*
X184297857Y-119108478D01*
X185763571Y-120227050D02*
X185725000Y-120188478D01*
X185647857Y-120072764D01*
X185609285Y-119995621D01*
X185570714Y-119879907D01*
X185532142Y-119687050D01*
X185532142Y-119532764D01*
X185570714Y-119339907D01*
X185609285Y-119224192D01*
X185647857Y-119147050D01*
X185725000Y-119031335D01*
X185763571Y-118992764D01*
X186419285Y-119918478D02*
X186419285Y-119108478D01*
X186419285Y-119879907D02*
X186342142Y-119918478D01*
X186187857Y-119918478D01*
X186110714Y-119879907D01*
X186072142Y-119841335D01*
X186033571Y-119764192D01*
X186033571Y-119532764D01*
X186072142Y-119455621D01*
X186110714Y-119417050D01*
X186187857Y-119378478D01*
X186342142Y-119378478D01*
X186419285Y-119417050D01*
X186805000Y-119918478D02*
X186805000Y-119378478D01*
X186805000Y-119532764D02*
X186843571Y-119455621D01*
X186882142Y-119417050D01*
X186959285Y-119378478D01*
X187036428Y-119378478D01*
X187653571Y-119918478D02*
X187653571Y-119494192D01*
X187615000Y-119417050D01*
X187537857Y-119378478D01*
X187383571Y-119378478D01*
X187306428Y-119417050D01*
X187653571Y-119879907D02*
X187576428Y-119918478D01*
X187383571Y-119918478D01*
X187306428Y-119879907D01*
X187267857Y-119802764D01*
X187267857Y-119725621D01*
X187306428Y-119648478D01*
X187383571Y-119609907D01*
X187576428Y-119609907D01*
X187653571Y-119571335D01*
X187923571Y-119378478D02*
X188232142Y-119378478D01*
X188039285Y-119918478D02*
X188039285Y-119224192D01*
X188077857Y-119147050D01*
X188155000Y-119108478D01*
X188232142Y-119108478D01*
X188386428Y-119378478D02*
X188695000Y-119378478D01*
X188502142Y-119108478D02*
X188502142Y-119802764D01*
X188540714Y-119879907D01*
X188617857Y-119918478D01*
X188695000Y-119918478D01*
X188887857Y-120227050D02*
X188926428Y-120188478D01*
X189003571Y-120072764D01*
X189042142Y-119995621D01*
X189080714Y-119879907D01*
X189119285Y-119687050D01*
X189119285Y-119532764D01*
X189080714Y-119339907D01*
X189042142Y-119224192D01*
X189003571Y-119147050D01*
X188926428Y-119031335D01*
X188887857Y-118992764D01*
%TO.C,D1*%
X196552142Y-88566428D02*
X196552142Y-87756428D01*
X196745000Y-87756428D01*
X196860714Y-87795000D01*
X196937857Y-87872142D01*
X196976428Y-87949285D01*
X197015000Y-88103571D01*
X197015000Y-88219285D01*
X196976428Y-88373571D01*
X196937857Y-88450714D01*
X196860714Y-88527857D01*
X196745000Y-88566428D01*
X196552142Y-88566428D01*
X197786428Y-88566428D02*
X197323571Y-88566428D01*
X197555000Y-88566428D02*
X197555000Y-87756428D01*
X197477857Y-87872142D01*
X197400714Y-87949285D01*
X197323571Y-87987857D01*
%TO.C,Y1*%
X181464285Y-103280714D02*
X181464285Y-103666428D01*
X181194285Y-102856428D02*
X181464285Y-103280714D01*
X181734285Y-102856428D01*
X182428571Y-103666428D02*
X181965714Y-103666428D01*
X182197142Y-103666428D02*
X182197142Y-102856428D01*
X182120000Y-102972142D01*
X182042857Y-103049285D01*
X181965714Y-103087857D01*
%TO.C,U4*%
X202682857Y-98656428D02*
X202682857Y-99312142D01*
X202721428Y-99389285D01*
X202760000Y-99427857D01*
X202837142Y-99466428D01*
X202991428Y-99466428D01*
X203068571Y-99427857D01*
X203107142Y-99389285D01*
X203145714Y-99312142D01*
X203145714Y-98656428D01*
X203878571Y-98926428D02*
X203878571Y-99466428D01*
X203685714Y-98617857D02*
X203492857Y-99196428D01*
X203994285Y-99196428D01*
%TO.C,R4*%
X198815000Y-98716428D02*
X198545000Y-98330714D01*
X198352142Y-98716428D02*
X198352142Y-97906428D01*
X198660714Y-97906428D01*
X198737857Y-97945000D01*
X198776428Y-97983571D01*
X198815000Y-98060714D01*
X198815000Y-98176428D01*
X198776428Y-98253571D01*
X198737857Y-98292142D01*
X198660714Y-98330714D01*
X198352142Y-98330714D01*
X199509285Y-98176428D02*
X199509285Y-98716428D01*
X199316428Y-97867857D02*
X199123571Y-98446428D01*
X199625000Y-98446428D01*
%TO.C,R11*%
X194916428Y-107965714D02*
X194530714Y-108235714D01*
X194916428Y-108428571D02*
X194106428Y-108428571D01*
X194106428Y-108120000D01*
X194145000Y-108042857D01*
X194183571Y-108004285D01*
X194260714Y-107965714D01*
X194376428Y-107965714D01*
X194453571Y-108004285D01*
X194492142Y-108042857D01*
X194530714Y-108120000D01*
X194530714Y-108428571D01*
X194916428Y-107194285D02*
X194916428Y-107657142D01*
X194916428Y-107425714D02*
X194106428Y-107425714D01*
X194222142Y-107502857D01*
X194299285Y-107580000D01*
X194337857Y-107657142D01*
X194916428Y-106422857D02*
X194916428Y-106885714D01*
X194916428Y-106654285D02*
X194106428Y-106654285D01*
X194222142Y-106731428D01*
X194299285Y-106808571D01*
X194337857Y-106885714D01*
%TO.C,C18*%
X193779285Y-91939285D02*
X193740714Y-91977857D01*
X193625000Y-92016428D01*
X193547857Y-92016428D01*
X193432142Y-91977857D01*
X193355000Y-91900714D01*
X193316428Y-91823571D01*
X193277857Y-91669285D01*
X193277857Y-91553571D01*
X193316428Y-91399285D01*
X193355000Y-91322142D01*
X193432142Y-91245000D01*
X193547857Y-91206428D01*
X193625000Y-91206428D01*
X193740714Y-91245000D01*
X193779285Y-91283571D01*
X194550714Y-92016428D02*
X194087857Y-92016428D01*
X194319285Y-92016428D02*
X194319285Y-91206428D01*
X194242142Y-91322142D01*
X194165000Y-91399285D01*
X194087857Y-91437857D01*
X195013571Y-91553571D02*
X194936428Y-91515000D01*
X194897857Y-91476428D01*
X194859285Y-91399285D01*
X194859285Y-91360714D01*
X194897857Y-91283571D01*
X194936428Y-91245000D01*
X195013571Y-91206428D01*
X195167857Y-91206428D01*
X195245000Y-91245000D01*
X195283571Y-91283571D01*
X195322142Y-91360714D01*
X195322142Y-91399285D01*
X195283571Y-91476428D01*
X195245000Y-91515000D01*
X195167857Y-91553571D01*
X195013571Y-91553571D01*
X194936428Y-91592142D01*
X194897857Y-91630714D01*
X194859285Y-91707857D01*
X194859285Y-91862142D01*
X194897857Y-91939285D01*
X194936428Y-91977857D01*
X195013571Y-92016428D01*
X195167857Y-92016428D01*
X195245000Y-91977857D01*
X195283571Y-91939285D01*
X195322142Y-91862142D01*
X195322142Y-91707857D01*
X195283571Y-91630714D01*
X195245000Y-91592142D01*
X195167857Y-91553571D01*
%TO.C,R13*%
X188579285Y-113566428D02*
X188309285Y-113180714D01*
X188116428Y-113566428D02*
X188116428Y-112756428D01*
X188425000Y-112756428D01*
X188502142Y-112795000D01*
X188540714Y-112833571D01*
X188579285Y-112910714D01*
X188579285Y-113026428D01*
X188540714Y-113103571D01*
X188502142Y-113142142D01*
X188425000Y-113180714D01*
X188116428Y-113180714D01*
X189350714Y-113566428D02*
X188887857Y-113566428D01*
X189119285Y-113566428D02*
X189119285Y-112756428D01*
X189042142Y-112872142D01*
X188965000Y-112949285D01*
X188887857Y-112987857D01*
X189620714Y-112756428D02*
X190122142Y-112756428D01*
X189852142Y-113065000D01*
X189967857Y-113065000D01*
X190045000Y-113103571D01*
X190083571Y-113142142D01*
X190122142Y-113219285D01*
X190122142Y-113412142D01*
X190083571Y-113489285D01*
X190045000Y-113527857D01*
X189967857Y-113566428D01*
X189736428Y-113566428D01*
X189659285Y-113527857D01*
X189620714Y-113489285D01*
%TO.C,R12*%
X195866428Y-108015714D02*
X195480714Y-108285714D01*
X195866428Y-108478571D02*
X195056428Y-108478571D01*
X195056428Y-108170000D01*
X195095000Y-108092857D01*
X195133571Y-108054285D01*
X195210714Y-108015714D01*
X195326428Y-108015714D01*
X195403571Y-108054285D01*
X195442142Y-108092857D01*
X195480714Y-108170000D01*
X195480714Y-108478571D01*
X195866428Y-107244285D02*
X195866428Y-107707142D01*
X195866428Y-107475714D02*
X195056428Y-107475714D01*
X195172142Y-107552857D01*
X195249285Y-107630000D01*
X195287857Y-107707142D01*
X195133571Y-106935714D02*
X195095000Y-106897142D01*
X195056428Y-106820000D01*
X195056428Y-106627142D01*
X195095000Y-106550000D01*
X195133571Y-106511428D01*
X195210714Y-106472857D01*
X195287857Y-106472857D01*
X195403571Y-106511428D01*
X195866428Y-106974285D01*
X195866428Y-106472857D01*
%TO.C,C4*%
X197132800Y-97073885D02*
X197094228Y-97112457D01*
X196978514Y-97151028D01*
X196901371Y-97151028D01*
X196785657Y-97112457D01*
X196708514Y-97035314D01*
X196669942Y-96958171D01*
X196631371Y-96803885D01*
X196631371Y-96688171D01*
X196669942Y-96533885D01*
X196708514Y-96456742D01*
X196785657Y-96379600D01*
X196901371Y-96341028D01*
X196978514Y-96341028D01*
X197094228Y-96379600D01*
X197132800Y-96418171D01*
X197827085Y-96611028D02*
X197827085Y-97151028D01*
X197634228Y-96302457D02*
X197441371Y-96881028D01*
X197942800Y-96881028D01*
%TO.C,C8*%
X186289285Y-87635000D02*
X186327857Y-87673571D01*
X186366428Y-87789285D01*
X186366428Y-87866428D01*
X186327857Y-87982142D01*
X186250714Y-88059285D01*
X186173571Y-88097857D01*
X186019285Y-88136428D01*
X185903571Y-88136428D01*
X185749285Y-88097857D01*
X185672142Y-88059285D01*
X185595000Y-87982142D01*
X185556428Y-87866428D01*
X185556428Y-87789285D01*
X185595000Y-87673571D01*
X185633571Y-87635000D01*
X185903571Y-87172142D02*
X185865000Y-87249285D01*
X185826428Y-87287857D01*
X185749285Y-87326428D01*
X185710714Y-87326428D01*
X185633571Y-87287857D01*
X185595000Y-87249285D01*
X185556428Y-87172142D01*
X185556428Y-87017857D01*
X185595000Y-86940714D01*
X185633571Y-86902142D01*
X185710714Y-86863571D01*
X185749285Y-86863571D01*
X185826428Y-86902142D01*
X185865000Y-86940714D01*
X185903571Y-87017857D01*
X185903571Y-87172142D01*
X185942142Y-87249285D01*
X185980714Y-87287857D01*
X186057857Y-87326428D01*
X186212142Y-87326428D01*
X186289285Y-87287857D01*
X186327857Y-87249285D01*
X186366428Y-87172142D01*
X186366428Y-87017857D01*
X186327857Y-86940714D01*
X186289285Y-86902142D01*
X186212142Y-86863571D01*
X186057857Y-86863571D01*
X185980714Y-86902142D01*
X185942142Y-86940714D01*
X185903571Y-87017857D01*
%TO.C,D2*%
X200702142Y-88566428D02*
X200702142Y-87756428D01*
X200895000Y-87756428D01*
X201010714Y-87795000D01*
X201087857Y-87872142D01*
X201126428Y-87949285D01*
X201165000Y-88103571D01*
X201165000Y-88219285D01*
X201126428Y-88373571D01*
X201087857Y-88450714D01*
X201010714Y-88527857D01*
X200895000Y-88566428D01*
X200702142Y-88566428D01*
X201473571Y-87833571D02*
X201512142Y-87795000D01*
X201589285Y-87756428D01*
X201782142Y-87756428D01*
X201859285Y-87795000D01*
X201897857Y-87833571D01*
X201936428Y-87910714D01*
X201936428Y-87987857D01*
X201897857Y-88103571D01*
X201435000Y-88566428D01*
X201936428Y-88566428D01*
%TO.C,R14*%
X176329285Y-100066428D02*
X176059285Y-99680714D01*
X175866428Y-100066428D02*
X175866428Y-99256428D01*
X176175000Y-99256428D01*
X176252142Y-99295000D01*
X176290714Y-99333571D01*
X176329285Y-99410714D01*
X176329285Y-99526428D01*
X176290714Y-99603571D01*
X176252142Y-99642142D01*
X176175000Y-99680714D01*
X175866428Y-99680714D01*
X177100714Y-100066428D02*
X176637857Y-100066428D01*
X176869285Y-100066428D02*
X176869285Y-99256428D01*
X176792142Y-99372142D01*
X176715000Y-99449285D01*
X176637857Y-99487857D01*
X177795000Y-99526428D02*
X177795000Y-100066428D01*
X177602142Y-99217857D02*
X177409285Y-99796428D01*
X177910714Y-99796428D01*
%TO.C,C25*%
X178916485Y-116443285D02*
X178877914Y-116481857D01*
X178762200Y-116520428D01*
X178685057Y-116520428D01*
X178569342Y-116481857D01*
X178492200Y-116404714D01*
X178453628Y-116327571D01*
X178415057Y-116173285D01*
X178415057Y-116057571D01*
X178453628Y-115903285D01*
X178492200Y-115826142D01*
X178569342Y-115749000D01*
X178685057Y-115710428D01*
X178762200Y-115710428D01*
X178877914Y-115749000D01*
X178916485Y-115787571D01*
X179225057Y-115787571D02*
X179263628Y-115749000D01*
X179340771Y-115710428D01*
X179533628Y-115710428D01*
X179610771Y-115749000D01*
X179649342Y-115787571D01*
X179687914Y-115864714D01*
X179687914Y-115941857D01*
X179649342Y-116057571D01*
X179186485Y-116520428D01*
X179687914Y-116520428D01*
X180420771Y-115710428D02*
X180035057Y-115710428D01*
X179996485Y-116096142D01*
X180035057Y-116057571D01*
X180112200Y-116019000D01*
X180305057Y-116019000D01*
X180382200Y-116057571D01*
X180420771Y-116096142D01*
X180459342Y-116173285D01*
X180459342Y-116366142D01*
X180420771Y-116443285D01*
X180382200Y-116481857D01*
X180305057Y-116520428D01*
X180112200Y-116520428D01*
X180035057Y-116481857D01*
X179996485Y-116443285D01*
%TO.C,R19*%
X200166428Y-91920714D02*
X199780714Y-92190714D01*
X200166428Y-92383571D02*
X199356428Y-92383571D01*
X199356428Y-92075000D01*
X199395000Y-91997857D01*
X199433571Y-91959285D01*
X199510714Y-91920714D01*
X199626428Y-91920714D01*
X199703571Y-91959285D01*
X199742142Y-91997857D01*
X199780714Y-92075000D01*
X199780714Y-92383571D01*
X200166428Y-91149285D02*
X200166428Y-91612142D01*
X200166428Y-91380714D02*
X199356428Y-91380714D01*
X199472142Y-91457857D01*
X199549285Y-91535000D01*
X199587857Y-91612142D01*
X200166428Y-90763571D02*
X200166428Y-90609285D01*
X200127857Y-90532142D01*
X200089285Y-90493571D01*
X199973571Y-90416428D01*
X199819285Y-90377857D01*
X199510714Y-90377857D01*
X199433571Y-90416428D01*
X199395000Y-90455000D01*
X199356428Y-90532142D01*
X199356428Y-90686428D01*
X199395000Y-90763571D01*
X199433571Y-90802142D01*
X199510714Y-90840714D01*
X199703571Y-90840714D01*
X199780714Y-90802142D01*
X199819285Y-90763571D01*
X199857857Y-90686428D01*
X199857857Y-90532142D01*
X199819285Y-90455000D01*
X199780714Y-90416428D01*
X199703571Y-90377857D01*
%TO.C,C20*%
X194705485Y-98232685D02*
X194666914Y-98271257D01*
X194551200Y-98309828D01*
X194474057Y-98309828D01*
X194358342Y-98271257D01*
X194281200Y-98194114D01*
X194242628Y-98116971D01*
X194204057Y-97962685D01*
X194204057Y-97846971D01*
X194242628Y-97692685D01*
X194281200Y-97615542D01*
X194358342Y-97538400D01*
X194474057Y-97499828D01*
X194551200Y-97499828D01*
X194666914Y-97538400D01*
X194705485Y-97576971D01*
X195014057Y-97576971D02*
X195052628Y-97538400D01*
X195129771Y-97499828D01*
X195322628Y-97499828D01*
X195399771Y-97538400D01*
X195438342Y-97576971D01*
X195476914Y-97654114D01*
X195476914Y-97731257D01*
X195438342Y-97846971D01*
X194975485Y-98309828D01*
X195476914Y-98309828D01*
X195978342Y-97499828D02*
X196055485Y-97499828D01*
X196132628Y-97538400D01*
X196171200Y-97576971D01*
X196209771Y-97654114D01*
X196248342Y-97808400D01*
X196248342Y-98001257D01*
X196209771Y-98155542D01*
X196171200Y-98232685D01*
X196132628Y-98271257D01*
X196055485Y-98309828D01*
X195978342Y-98309828D01*
X195901200Y-98271257D01*
X195862628Y-98232685D01*
X195824057Y-98155542D01*
X195785485Y-98001257D01*
X195785485Y-97808400D01*
X195824057Y-97654114D01*
X195862628Y-97576971D01*
X195901200Y-97538400D01*
X195978342Y-97499828D01*
%TO.C,R5*%
X185566428Y-91785000D02*
X185180714Y-92055000D01*
X185566428Y-92247857D02*
X184756428Y-92247857D01*
X184756428Y-91939285D01*
X184795000Y-91862142D01*
X184833571Y-91823571D01*
X184910714Y-91785000D01*
X185026428Y-91785000D01*
X185103571Y-91823571D01*
X185142142Y-91862142D01*
X185180714Y-91939285D01*
X185180714Y-92247857D01*
X184756428Y-91052142D02*
X184756428Y-91437857D01*
X185142142Y-91476428D01*
X185103571Y-91437857D01*
X185065000Y-91360714D01*
X185065000Y-91167857D01*
X185103571Y-91090714D01*
X185142142Y-91052142D01*
X185219285Y-91013571D01*
X185412142Y-91013571D01*
X185489285Y-91052142D01*
X185527857Y-91090714D01*
X185566428Y-91167857D01*
X185566428Y-91360714D01*
X185527857Y-91437857D01*
X185489285Y-91476428D01*
%TO.C,R16*%
X195316428Y-100220714D02*
X194930714Y-100490714D01*
X195316428Y-100683571D02*
X194506428Y-100683571D01*
X194506428Y-100375000D01*
X194545000Y-100297857D01*
X194583571Y-100259285D01*
X194660714Y-100220714D01*
X194776428Y-100220714D01*
X194853571Y-100259285D01*
X194892142Y-100297857D01*
X194930714Y-100375000D01*
X194930714Y-100683571D01*
X195316428Y-99449285D02*
X195316428Y-99912142D01*
X195316428Y-99680714D02*
X194506428Y-99680714D01*
X194622142Y-99757857D01*
X194699285Y-99835000D01*
X194737857Y-99912142D01*
X194506428Y-98755000D02*
X194506428Y-98909285D01*
X194545000Y-98986428D01*
X194583571Y-99025000D01*
X194699285Y-99102142D01*
X194853571Y-99140714D01*
X195162142Y-99140714D01*
X195239285Y-99102142D01*
X195277857Y-99063571D01*
X195316428Y-98986428D01*
X195316428Y-98832142D01*
X195277857Y-98755000D01*
X195239285Y-98716428D01*
X195162142Y-98677857D01*
X194969285Y-98677857D01*
X194892142Y-98716428D01*
X194853571Y-98755000D01*
X194815000Y-98832142D01*
X194815000Y-98986428D01*
X194853571Y-99063571D01*
X194892142Y-99102142D01*
X194969285Y-99140714D01*
%TO.C,C5*%
X192765000Y-102089285D02*
X192726428Y-102127857D01*
X192610714Y-102166428D01*
X192533571Y-102166428D01*
X192417857Y-102127857D01*
X192340714Y-102050714D01*
X192302142Y-101973571D01*
X192263571Y-101819285D01*
X192263571Y-101703571D01*
X192302142Y-101549285D01*
X192340714Y-101472142D01*
X192417857Y-101395000D01*
X192533571Y-101356428D01*
X192610714Y-101356428D01*
X192726428Y-101395000D01*
X192765000Y-101433571D01*
X193497857Y-101356428D02*
X193112142Y-101356428D01*
X193073571Y-101742142D01*
X193112142Y-101703571D01*
X193189285Y-101665000D01*
X193382142Y-101665000D01*
X193459285Y-101703571D01*
X193497857Y-101742142D01*
X193536428Y-101819285D01*
X193536428Y-102012142D01*
X193497857Y-102089285D01*
X193459285Y-102127857D01*
X193382142Y-102166428D01*
X193189285Y-102166428D01*
X193112142Y-102127857D01*
X193073571Y-102089285D01*
%TO.C,C15*%
X184329285Y-114489285D02*
X184290714Y-114527857D01*
X184175000Y-114566428D01*
X184097857Y-114566428D01*
X183982142Y-114527857D01*
X183905000Y-114450714D01*
X183866428Y-114373571D01*
X183827857Y-114219285D01*
X183827857Y-114103571D01*
X183866428Y-113949285D01*
X183905000Y-113872142D01*
X183982142Y-113795000D01*
X184097857Y-113756428D01*
X184175000Y-113756428D01*
X184290714Y-113795000D01*
X184329285Y-113833571D01*
X185100714Y-114566428D02*
X184637857Y-114566428D01*
X184869285Y-114566428D02*
X184869285Y-113756428D01*
X184792142Y-113872142D01*
X184715000Y-113949285D01*
X184637857Y-113987857D01*
X185833571Y-113756428D02*
X185447857Y-113756428D01*
X185409285Y-114142142D01*
X185447857Y-114103571D01*
X185525000Y-114065000D01*
X185717857Y-114065000D01*
X185795000Y-114103571D01*
X185833571Y-114142142D01*
X185872142Y-114219285D01*
X185872142Y-114412142D01*
X185833571Y-114489285D01*
X185795000Y-114527857D01*
X185717857Y-114566428D01*
X185525000Y-114566428D01*
X185447857Y-114527857D01*
X185409285Y-114489285D01*
%TO.C,R6*%
X185566428Y-89735000D02*
X185180714Y-90005000D01*
X185566428Y-90197857D02*
X184756428Y-90197857D01*
X184756428Y-89889285D01*
X184795000Y-89812142D01*
X184833571Y-89773571D01*
X184910714Y-89735000D01*
X185026428Y-89735000D01*
X185103571Y-89773571D01*
X185142142Y-89812142D01*
X185180714Y-89889285D01*
X185180714Y-90197857D01*
X184756428Y-89040714D02*
X184756428Y-89195000D01*
X184795000Y-89272142D01*
X184833571Y-89310714D01*
X184949285Y-89387857D01*
X185103571Y-89426428D01*
X185412142Y-89426428D01*
X185489285Y-89387857D01*
X185527857Y-89349285D01*
X185566428Y-89272142D01*
X185566428Y-89117857D01*
X185527857Y-89040714D01*
X185489285Y-89002142D01*
X185412142Y-88963571D01*
X185219285Y-88963571D01*
X185142142Y-89002142D01*
X185103571Y-89040714D01*
X185065000Y-89117857D01*
X185065000Y-89272142D01*
X185103571Y-89349285D01*
X185142142Y-89387857D01*
X185219285Y-89426428D01*
%TO.C,C14*%
X182981685Y-89519485D02*
X182943114Y-89558057D01*
X182827400Y-89596628D01*
X182750257Y-89596628D01*
X182634542Y-89558057D01*
X182557400Y-89480914D01*
X182518828Y-89403771D01*
X182480257Y-89249485D01*
X182480257Y-89133771D01*
X182518828Y-88979485D01*
X182557400Y-88902342D01*
X182634542Y-88825200D01*
X182750257Y-88786628D01*
X182827400Y-88786628D01*
X182943114Y-88825200D01*
X182981685Y-88863771D01*
X183753114Y-89596628D02*
X183290257Y-89596628D01*
X183521685Y-89596628D02*
X183521685Y-88786628D01*
X183444542Y-88902342D01*
X183367400Y-88979485D01*
X183290257Y-89018057D01*
X184447400Y-89056628D02*
X184447400Y-89596628D01*
X184254542Y-88748057D02*
X184061685Y-89326628D01*
X184563114Y-89326628D01*
%TO.C,R17*%
X194779285Y-90516428D02*
X194509285Y-90130714D01*
X194316428Y-90516428D02*
X194316428Y-89706428D01*
X194625000Y-89706428D01*
X194702142Y-89745000D01*
X194740714Y-89783571D01*
X194779285Y-89860714D01*
X194779285Y-89976428D01*
X194740714Y-90053571D01*
X194702142Y-90092142D01*
X194625000Y-90130714D01*
X194316428Y-90130714D01*
X195550714Y-90516428D02*
X195087857Y-90516428D01*
X195319285Y-90516428D02*
X195319285Y-89706428D01*
X195242142Y-89822142D01*
X195165000Y-89899285D01*
X195087857Y-89937857D01*
X195820714Y-89706428D02*
X196360714Y-89706428D01*
X196013571Y-90516428D01*
%TO.C,R3*%
X199166428Y-97085000D02*
X198780714Y-97355000D01*
X199166428Y-97547857D02*
X198356428Y-97547857D01*
X198356428Y-97239285D01*
X198395000Y-97162142D01*
X198433571Y-97123571D01*
X198510714Y-97085000D01*
X198626428Y-97085000D01*
X198703571Y-97123571D01*
X198742142Y-97162142D01*
X198780714Y-97239285D01*
X198780714Y-97547857D01*
X198356428Y-96815000D02*
X198356428Y-96313571D01*
X198665000Y-96583571D01*
X198665000Y-96467857D01*
X198703571Y-96390714D01*
X198742142Y-96352142D01*
X198819285Y-96313571D01*
X199012142Y-96313571D01*
X199089285Y-96352142D01*
X199127857Y-96390714D01*
X199166428Y-96467857D01*
X199166428Y-96699285D01*
X199127857Y-96776428D01*
X199089285Y-96815000D01*
%TO.C,C26*%
X183839285Y-107320714D02*
X183877857Y-107359285D01*
X183916428Y-107475000D01*
X183916428Y-107552142D01*
X183877857Y-107667857D01*
X183800714Y-107745000D01*
X183723571Y-107783571D01*
X183569285Y-107822142D01*
X183453571Y-107822142D01*
X183299285Y-107783571D01*
X183222142Y-107745000D01*
X183145000Y-107667857D01*
X183106428Y-107552142D01*
X183106428Y-107475000D01*
X183145000Y-107359285D01*
X183183571Y-107320714D01*
X183183571Y-107012142D02*
X183145000Y-106973571D01*
X183106428Y-106896428D01*
X183106428Y-106703571D01*
X183145000Y-106626428D01*
X183183571Y-106587857D01*
X183260714Y-106549285D01*
X183337857Y-106549285D01*
X183453571Y-106587857D01*
X183916428Y-107050714D01*
X183916428Y-106549285D01*
X183106428Y-105855000D02*
X183106428Y-106009285D01*
X183145000Y-106086428D01*
X183183571Y-106125000D01*
X183299285Y-106202142D01*
X183453571Y-106240714D01*
X183762142Y-106240714D01*
X183839285Y-106202142D01*
X183877857Y-106163571D01*
X183916428Y-106086428D01*
X183916428Y-105932142D01*
X183877857Y-105855000D01*
X183839285Y-105816428D01*
X183762142Y-105777857D01*
X183569285Y-105777857D01*
X183492142Y-105816428D01*
X183453571Y-105855000D01*
X183415000Y-105932142D01*
X183415000Y-106086428D01*
X183453571Y-106163571D01*
X183492142Y-106202142D01*
X183569285Y-106240714D01*
%TO.C,R15*%
X182079285Y-99366428D02*
X181809285Y-98980714D01*
X181616428Y-99366428D02*
X181616428Y-98556428D01*
X181925000Y-98556428D01*
X182002142Y-98595000D01*
X182040714Y-98633571D01*
X182079285Y-98710714D01*
X182079285Y-98826428D01*
X182040714Y-98903571D01*
X182002142Y-98942142D01*
X181925000Y-98980714D01*
X181616428Y-98980714D01*
X182850714Y-99366428D02*
X182387857Y-99366428D01*
X182619285Y-99366428D02*
X182619285Y-98556428D01*
X182542142Y-98672142D01*
X182465000Y-98749285D01*
X182387857Y-98787857D01*
X183583571Y-98556428D02*
X183197857Y-98556428D01*
X183159285Y-98942142D01*
X183197857Y-98903571D01*
X183275000Y-98865000D01*
X183467857Y-98865000D01*
X183545000Y-98903571D01*
X183583571Y-98942142D01*
X183622142Y-99019285D01*
X183622142Y-99212142D01*
X183583571Y-99289285D01*
X183545000Y-99327857D01*
X183467857Y-99366428D01*
X183275000Y-99366428D01*
X183197857Y-99327857D01*
X183159285Y-99289285D01*
%TO.C,U1*%
X193656428Y-93567142D02*
X194312142Y-93567142D01*
X194389285Y-93528571D01*
X194427857Y-93490000D01*
X194466428Y-93412857D01*
X194466428Y-93258571D01*
X194427857Y-93181428D01*
X194389285Y-93142857D01*
X194312142Y-93104285D01*
X193656428Y-93104285D01*
X194466428Y-92294285D02*
X194466428Y-92757142D01*
X194466428Y-92525714D02*
X193656428Y-92525714D01*
X193772142Y-92602857D01*
X193849285Y-92680000D01*
X193887857Y-92757142D01*
%TO.C,R7*%
X183415000Y-93016428D02*
X183145000Y-92630714D01*
X182952142Y-93016428D02*
X182952142Y-92206428D01*
X183260714Y-92206428D01*
X183337857Y-92245000D01*
X183376428Y-92283571D01*
X183415000Y-92360714D01*
X183415000Y-92476428D01*
X183376428Y-92553571D01*
X183337857Y-92592142D01*
X183260714Y-92630714D01*
X182952142Y-92630714D01*
X183685000Y-92206428D02*
X184225000Y-92206428D01*
X183877857Y-93016428D01*
%TO.C,FB2*%
X180542142Y-94525000D02*
X180542142Y-94795000D01*
X180966428Y-94795000D02*
X180156428Y-94795000D01*
X180156428Y-94409285D01*
X180542142Y-93830714D02*
X180580714Y-93715000D01*
X180619285Y-93676428D01*
X180696428Y-93637857D01*
X180812142Y-93637857D01*
X180889285Y-93676428D01*
X180927857Y-93715000D01*
X180966428Y-93792142D01*
X180966428Y-94100714D01*
X180156428Y-94100714D01*
X180156428Y-93830714D01*
X180195000Y-93753571D01*
X180233571Y-93715000D01*
X180310714Y-93676428D01*
X180387857Y-93676428D01*
X180465000Y-93715000D01*
X180503571Y-93753571D01*
X180542142Y-93830714D01*
X180542142Y-94100714D01*
X180233571Y-93329285D02*
X180195000Y-93290714D01*
X180156428Y-93213571D01*
X180156428Y-93020714D01*
X180195000Y-92943571D01*
X180233571Y-92905000D01*
X180310714Y-92866428D01*
X180387857Y-92866428D01*
X180503571Y-92905000D01*
X180966428Y-93367857D01*
X180966428Y-92866428D01*
%TO.C,C3*%
X184215000Y-97439285D02*
X184176428Y-97477857D01*
X184060714Y-97516428D01*
X183983571Y-97516428D01*
X183867857Y-97477857D01*
X183790714Y-97400714D01*
X183752142Y-97323571D01*
X183713571Y-97169285D01*
X183713571Y-97053571D01*
X183752142Y-96899285D01*
X183790714Y-96822142D01*
X183867857Y-96745000D01*
X183983571Y-96706428D01*
X184060714Y-96706428D01*
X184176428Y-96745000D01*
X184215000Y-96783571D01*
X184485000Y-96706428D02*
X184986428Y-96706428D01*
X184716428Y-97015000D01*
X184832142Y-97015000D01*
X184909285Y-97053571D01*
X184947857Y-97092142D01*
X184986428Y-97169285D01*
X184986428Y-97362142D01*
X184947857Y-97439285D01*
X184909285Y-97477857D01*
X184832142Y-97516428D01*
X184600714Y-97516428D01*
X184523571Y-97477857D01*
X184485000Y-97439285D01*
%TO.C,C1*%
X177365000Y-101989285D02*
X177326428Y-102027857D01*
X177210714Y-102066428D01*
X177133571Y-102066428D01*
X177017857Y-102027857D01*
X176940714Y-101950714D01*
X176902142Y-101873571D01*
X176863571Y-101719285D01*
X176863571Y-101603571D01*
X176902142Y-101449285D01*
X176940714Y-101372142D01*
X177017857Y-101295000D01*
X177133571Y-101256428D01*
X177210714Y-101256428D01*
X177326428Y-101295000D01*
X177365000Y-101333571D01*
X178136428Y-102066428D02*
X177673571Y-102066428D01*
X177905000Y-102066428D02*
X177905000Y-101256428D01*
X177827857Y-101372142D01*
X177750714Y-101449285D01*
X177673571Y-101487857D01*
%TO.C,FB4*%
X189075000Y-90092142D02*
X188805000Y-90092142D01*
X188805000Y-90516428D02*
X188805000Y-89706428D01*
X189190714Y-89706428D01*
X189769285Y-90092142D02*
X189885000Y-90130714D01*
X189923571Y-90169285D01*
X189962142Y-90246428D01*
X189962142Y-90362142D01*
X189923571Y-90439285D01*
X189885000Y-90477857D01*
X189807857Y-90516428D01*
X189499285Y-90516428D01*
X189499285Y-89706428D01*
X189769285Y-89706428D01*
X189846428Y-89745000D01*
X189885000Y-89783571D01*
X189923571Y-89860714D01*
X189923571Y-89937857D01*
X189885000Y-90015000D01*
X189846428Y-90053571D01*
X189769285Y-90092142D01*
X189499285Y-90092142D01*
X190656428Y-89976428D02*
X190656428Y-90516428D01*
X190463571Y-89667857D02*
X190270714Y-90246428D01*
X190772142Y-90246428D01*
%TO.C,C9*%
X192315000Y-90239285D02*
X192276428Y-90277857D01*
X192160714Y-90316428D01*
X192083571Y-90316428D01*
X191967857Y-90277857D01*
X191890714Y-90200714D01*
X191852142Y-90123571D01*
X191813571Y-89969285D01*
X191813571Y-89853571D01*
X191852142Y-89699285D01*
X191890714Y-89622142D01*
X191967857Y-89545000D01*
X192083571Y-89506428D01*
X192160714Y-89506428D01*
X192276428Y-89545000D01*
X192315000Y-89583571D01*
X192700714Y-90316428D02*
X192855000Y-90316428D01*
X192932142Y-90277857D01*
X192970714Y-90239285D01*
X193047857Y-90123571D01*
X193086428Y-89969285D01*
X193086428Y-89660714D01*
X193047857Y-89583571D01*
X193009285Y-89545000D01*
X192932142Y-89506428D01*
X192777857Y-89506428D01*
X192700714Y-89545000D01*
X192662142Y-89583571D01*
X192623571Y-89660714D01*
X192623571Y-89853571D01*
X192662142Y-89930714D01*
X192700714Y-89969285D01*
X192777857Y-90007857D01*
X192932142Y-90007857D01*
X193009285Y-89969285D01*
X193047857Y-89930714D01*
X193086428Y-89853571D01*
%TO.C,C23*%
X182989285Y-113020714D02*
X183027857Y-113059285D01*
X183066428Y-113175000D01*
X183066428Y-113252142D01*
X183027857Y-113367857D01*
X182950714Y-113445000D01*
X182873571Y-113483571D01*
X182719285Y-113522142D01*
X182603571Y-113522142D01*
X182449285Y-113483571D01*
X182372142Y-113445000D01*
X182295000Y-113367857D01*
X182256428Y-113252142D01*
X182256428Y-113175000D01*
X182295000Y-113059285D01*
X182333571Y-113020714D01*
X182333571Y-112712142D02*
X182295000Y-112673571D01*
X182256428Y-112596428D01*
X182256428Y-112403571D01*
X182295000Y-112326428D01*
X182333571Y-112287857D01*
X182410714Y-112249285D01*
X182487857Y-112249285D01*
X182603571Y-112287857D01*
X183066428Y-112750714D01*
X183066428Y-112249285D01*
X182256428Y-111979285D02*
X182256428Y-111477857D01*
X182565000Y-111747857D01*
X182565000Y-111632142D01*
X182603571Y-111555000D01*
X182642142Y-111516428D01*
X182719285Y-111477857D01*
X182912142Y-111477857D01*
X182989285Y-111516428D01*
X183027857Y-111555000D01*
X183066428Y-111632142D01*
X183066428Y-111863571D01*
X183027857Y-111940714D01*
X182989285Y-111979285D01*
%TO.C,C13*%
X189229285Y-91439285D02*
X189190714Y-91477857D01*
X189075000Y-91516428D01*
X188997857Y-91516428D01*
X188882142Y-91477857D01*
X188805000Y-91400714D01*
X188766428Y-91323571D01*
X188727857Y-91169285D01*
X188727857Y-91053571D01*
X188766428Y-90899285D01*
X188805000Y-90822142D01*
X188882142Y-90745000D01*
X188997857Y-90706428D01*
X189075000Y-90706428D01*
X189190714Y-90745000D01*
X189229285Y-90783571D01*
X190000714Y-91516428D02*
X189537857Y-91516428D01*
X189769285Y-91516428D02*
X189769285Y-90706428D01*
X189692142Y-90822142D01*
X189615000Y-90899285D01*
X189537857Y-90937857D01*
X190270714Y-90706428D02*
X190772142Y-90706428D01*
X190502142Y-91015000D01*
X190617857Y-91015000D01*
X190695000Y-91053571D01*
X190733571Y-91092142D01*
X190772142Y-91169285D01*
X190772142Y-91362142D01*
X190733571Y-91439285D01*
X190695000Y-91477857D01*
X190617857Y-91516428D01*
X190386428Y-91516428D01*
X190309285Y-91477857D01*
X190270714Y-91439285D01*
%TO.C,C10*%
X178039285Y-94320714D02*
X178077857Y-94359285D01*
X178116428Y-94475000D01*
X178116428Y-94552142D01*
X178077857Y-94667857D01*
X178000714Y-94745000D01*
X177923571Y-94783571D01*
X177769285Y-94822142D01*
X177653571Y-94822142D01*
X177499285Y-94783571D01*
X177422142Y-94745000D01*
X177345000Y-94667857D01*
X177306428Y-94552142D01*
X177306428Y-94475000D01*
X177345000Y-94359285D01*
X177383571Y-94320714D01*
X178116428Y-93549285D02*
X178116428Y-94012142D01*
X178116428Y-93780714D02*
X177306428Y-93780714D01*
X177422142Y-93857857D01*
X177499285Y-93935000D01*
X177537857Y-94012142D01*
X177306428Y-93047857D02*
X177306428Y-92970714D01*
X177345000Y-92893571D01*
X177383571Y-92855000D01*
X177460714Y-92816428D01*
X177615000Y-92777857D01*
X177807857Y-92777857D01*
X177962142Y-92816428D01*
X178039285Y-92855000D01*
X178077857Y-92893571D01*
X178116428Y-92970714D01*
X178116428Y-93047857D01*
X178077857Y-93125000D01*
X178039285Y-93163571D01*
X177962142Y-93202142D01*
X177807857Y-93240714D01*
X177615000Y-93240714D01*
X177460714Y-93202142D01*
X177383571Y-93163571D01*
X177345000Y-93125000D01*
X177306428Y-93047857D01*
%TO.C,R9*%
X194016428Y-107330000D02*
X193630714Y-107600000D01*
X194016428Y-107792857D02*
X193206428Y-107792857D01*
X193206428Y-107484285D01*
X193245000Y-107407142D01*
X193283571Y-107368571D01*
X193360714Y-107330000D01*
X193476428Y-107330000D01*
X193553571Y-107368571D01*
X193592142Y-107407142D01*
X193630714Y-107484285D01*
X193630714Y-107792857D01*
X194016428Y-106944285D02*
X194016428Y-106790000D01*
X193977857Y-106712857D01*
X193939285Y-106674285D01*
X193823571Y-106597142D01*
X193669285Y-106558571D01*
X193360714Y-106558571D01*
X193283571Y-106597142D01*
X193245000Y-106635714D01*
X193206428Y-106712857D01*
X193206428Y-106867142D01*
X193245000Y-106944285D01*
X193283571Y-106982857D01*
X193360714Y-107021428D01*
X193553571Y-107021428D01*
X193630714Y-106982857D01*
X193669285Y-106944285D01*
X193707857Y-106867142D01*
X193707857Y-106712857D01*
X193669285Y-106635714D01*
X193630714Y-106597142D01*
X193553571Y-106558571D01*
%TO.C,C24*%
X193289285Y-104220714D02*
X193327857Y-104259285D01*
X193366428Y-104375000D01*
X193366428Y-104452142D01*
X193327857Y-104567857D01*
X193250714Y-104645000D01*
X193173571Y-104683571D01*
X193019285Y-104722142D01*
X192903571Y-104722142D01*
X192749285Y-104683571D01*
X192672142Y-104645000D01*
X192595000Y-104567857D01*
X192556428Y-104452142D01*
X192556428Y-104375000D01*
X192595000Y-104259285D01*
X192633571Y-104220714D01*
X192633571Y-103912142D02*
X192595000Y-103873571D01*
X192556428Y-103796428D01*
X192556428Y-103603571D01*
X192595000Y-103526428D01*
X192633571Y-103487857D01*
X192710714Y-103449285D01*
X192787857Y-103449285D01*
X192903571Y-103487857D01*
X193366428Y-103950714D01*
X193366428Y-103449285D01*
X192826428Y-102755000D02*
X193366428Y-102755000D01*
X192517857Y-102947857D02*
X193096428Y-103140714D01*
X193096428Y-102639285D01*
%TO.C,FB3*%
X187475000Y-100892142D02*
X187205000Y-100892142D01*
X187205000Y-101316428D02*
X187205000Y-100506428D01*
X187590714Y-100506428D01*
X188169285Y-100892142D02*
X188285000Y-100930714D01*
X188323571Y-100969285D01*
X188362142Y-101046428D01*
X188362142Y-101162142D01*
X188323571Y-101239285D01*
X188285000Y-101277857D01*
X188207857Y-101316428D01*
X187899285Y-101316428D01*
X187899285Y-100506428D01*
X188169285Y-100506428D01*
X188246428Y-100545000D01*
X188285000Y-100583571D01*
X188323571Y-100660714D01*
X188323571Y-100737857D01*
X188285000Y-100815000D01*
X188246428Y-100853571D01*
X188169285Y-100892142D01*
X187899285Y-100892142D01*
X188632142Y-100506428D02*
X189133571Y-100506428D01*
X188863571Y-100815000D01*
X188979285Y-100815000D01*
X189056428Y-100853571D01*
X189095000Y-100892142D01*
X189133571Y-100969285D01*
X189133571Y-101162142D01*
X189095000Y-101239285D01*
X189056428Y-101277857D01*
X188979285Y-101316428D01*
X188747857Y-101316428D01*
X188670714Y-101277857D01*
X188632142Y-101239285D01*
%TO.C,C22*%
X195839285Y-104370714D02*
X195877857Y-104409285D01*
X195916428Y-104525000D01*
X195916428Y-104602142D01*
X195877857Y-104717857D01*
X195800714Y-104795000D01*
X195723571Y-104833571D01*
X195569285Y-104872142D01*
X195453571Y-104872142D01*
X195299285Y-104833571D01*
X195222142Y-104795000D01*
X195145000Y-104717857D01*
X195106428Y-104602142D01*
X195106428Y-104525000D01*
X195145000Y-104409285D01*
X195183571Y-104370714D01*
X195183571Y-104062142D02*
X195145000Y-104023571D01*
X195106428Y-103946428D01*
X195106428Y-103753571D01*
X195145000Y-103676428D01*
X195183571Y-103637857D01*
X195260714Y-103599285D01*
X195337857Y-103599285D01*
X195453571Y-103637857D01*
X195916428Y-104100714D01*
X195916428Y-103599285D01*
X195183571Y-103290714D02*
X195145000Y-103252142D01*
X195106428Y-103175000D01*
X195106428Y-102982142D01*
X195145000Y-102905000D01*
X195183571Y-102866428D01*
X195260714Y-102827857D01*
X195337857Y-102827857D01*
X195453571Y-102866428D01*
X195916428Y-103329285D01*
X195916428Y-102827857D01*
%TO.C,C21*%
X182139285Y-109770714D02*
X182177857Y-109809285D01*
X182216428Y-109925000D01*
X182216428Y-110002142D01*
X182177857Y-110117857D01*
X182100714Y-110195000D01*
X182023571Y-110233571D01*
X181869285Y-110272142D01*
X181753571Y-110272142D01*
X181599285Y-110233571D01*
X181522142Y-110195000D01*
X181445000Y-110117857D01*
X181406428Y-110002142D01*
X181406428Y-109925000D01*
X181445000Y-109809285D01*
X181483571Y-109770714D01*
X181483571Y-109462142D02*
X181445000Y-109423571D01*
X181406428Y-109346428D01*
X181406428Y-109153571D01*
X181445000Y-109076428D01*
X181483571Y-109037857D01*
X181560714Y-108999285D01*
X181637857Y-108999285D01*
X181753571Y-109037857D01*
X182216428Y-109500714D01*
X182216428Y-108999285D01*
X182216428Y-108227857D02*
X182216428Y-108690714D01*
X182216428Y-108459285D02*
X181406428Y-108459285D01*
X181522142Y-108536428D01*
X181599285Y-108613571D01*
X181637857Y-108690714D01*
%TO.C,C17*%
X175739285Y-101615714D02*
X175777857Y-101654285D01*
X175816428Y-101770000D01*
X175816428Y-101847142D01*
X175777857Y-101962857D01*
X175700714Y-102040000D01*
X175623571Y-102078571D01*
X175469285Y-102117142D01*
X175353571Y-102117142D01*
X175199285Y-102078571D01*
X175122142Y-102040000D01*
X175045000Y-101962857D01*
X175006428Y-101847142D01*
X175006428Y-101770000D01*
X175045000Y-101654285D01*
X175083571Y-101615714D01*
X175816428Y-100844285D02*
X175816428Y-101307142D01*
X175816428Y-101075714D02*
X175006428Y-101075714D01*
X175122142Y-101152857D01*
X175199285Y-101230000D01*
X175237857Y-101307142D01*
X175006428Y-100574285D02*
X175006428Y-100034285D01*
X175816428Y-100381428D01*
%TO.C,U3*%
X190682857Y-111906428D02*
X190682857Y-112562142D01*
X190721428Y-112639285D01*
X190760000Y-112677857D01*
X190837142Y-112716428D01*
X190991428Y-112716428D01*
X191068571Y-112677857D01*
X191107142Y-112639285D01*
X191145714Y-112562142D01*
X191145714Y-111906428D01*
X191454285Y-111906428D02*
X191955714Y-111906428D01*
X191685714Y-112215000D01*
X191801428Y-112215000D01*
X191878571Y-112253571D01*
X191917142Y-112292142D01*
X191955714Y-112369285D01*
X191955714Y-112562142D01*
X191917142Y-112639285D01*
X191878571Y-112677857D01*
X191801428Y-112716428D01*
X191570000Y-112716428D01*
X191492857Y-112677857D01*
X191454285Y-112639285D01*
%TO.C,R8*%
X193066428Y-107330000D02*
X192680714Y-107600000D01*
X193066428Y-107792857D02*
X192256428Y-107792857D01*
X192256428Y-107484285D01*
X192295000Y-107407142D01*
X192333571Y-107368571D01*
X192410714Y-107330000D01*
X192526428Y-107330000D01*
X192603571Y-107368571D01*
X192642142Y-107407142D01*
X192680714Y-107484285D01*
X192680714Y-107792857D01*
X192603571Y-106867142D02*
X192565000Y-106944285D01*
X192526428Y-106982857D01*
X192449285Y-107021428D01*
X192410714Y-107021428D01*
X192333571Y-106982857D01*
X192295000Y-106944285D01*
X192256428Y-106867142D01*
X192256428Y-106712857D01*
X192295000Y-106635714D01*
X192333571Y-106597142D01*
X192410714Y-106558571D01*
X192449285Y-106558571D01*
X192526428Y-106597142D01*
X192565000Y-106635714D01*
X192603571Y-106712857D01*
X192603571Y-106867142D01*
X192642142Y-106944285D01*
X192680714Y-106982857D01*
X192757857Y-107021428D01*
X192912142Y-107021428D01*
X192989285Y-106982857D01*
X193027857Y-106944285D01*
X193066428Y-106867142D01*
X193066428Y-106712857D01*
X193027857Y-106635714D01*
X192989285Y-106597142D01*
X192912142Y-106558571D01*
X192757857Y-106558571D01*
X192680714Y-106597142D01*
X192642142Y-106635714D01*
X192603571Y-106712857D01*
%TO.C,R10*%
X186329285Y-112716428D02*
X186059285Y-112330714D01*
X185866428Y-112716428D02*
X185866428Y-111906428D01*
X186175000Y-111906428D01*
X186252142Y-111945000D01*
X186290714Y-111983571D01*
X186329285Y-112060714D01*
X186329285Y-112176428D01*
X186290714Y-112253571D01*
X186252142Y-112292142D01*
X186175000Y-112330714D01*
X185866428Y-112330714D01*
X187100714Y-112716428D02*
X186637857Y-112716428D01*
X186869285Y-112716428D02*
X186869285Y-111906428D01*
X186792142Y-112022142D01*
X186715000Y-112099285D01*
X186637857Y-112137857D01*
X187602142Y-111906428D02*
X187679285Y-111906428D01*
X187756428Y-111945000D01*
X187795000Y-111983571D01*
X187833571Y-112060714D01*
X187872142Y-112215000D01*
X187872142Y-112407857D01*
X187833571Y-112562142D01*
X187795000Y-112639285D01*
X187756428Y-112677857D01*
X187679285Y-112716428D01*
X187602142Y-112716428D01*
X187525000Y-112677857D01*
X187486428Y-112639285D01*
X187447857Y-112562142D01*
X187409285Y-112407857D01*
X187409285Y-112215000D01*
X187447857Y-112060714D01*
X187486428Y-111983571D01*
X187525000Y-111945000D01*
X187602142Y-111906428D01*
%TO.C,R2*%
X180965000Y-100616428D02*
X180695000Y-100230714D01*
X180502142Y-100616428D02*
X180502142Y-99806428D01*
X180810714Y-99806428D01*
X180887857Y-99845000D01*
X180926428Y-99883571D01*
X180965000Y-99960714D01*
X180965000Y-100076428D01*
X180926428Y-100153571D01*
X180887857Y-100192142D01*
X180810714Y-100230714D01*
X180502142Y-100230714D01*
X181273571Y-99883571D02*
X181312142Y-99845000D01*
X181389285Y-99806428D01*
X181582142Y-99806428D01*
X181659285Y-99845000D01*
X181697857Y-99883571D01*
X181736428Y-99960714D01*
X181736428Y-100037857D01*
X181697857Y-100153571D01*
X181235000Y-100616428D01*
X181736428Y-100616428D01*
%TO.C,C7*%
X186515000Y-92189285D02*
X186476428Y-92227857D01*
X186360714Y-92266428D01*
X186283571Y-92266428D01*
X186167857Y-92227857D01*
X186090714Y-92150714D01*
X186052142Y-92073571D01*
X186013571Y-91919285D01*
X186013571Y-91803571D01*
X186052142Y-91649285D01*
X186090714Y-91572142D01*
X186167857Y-91495000D01*
X186283571Y-91456428D01*
X186360714Y-91456428D01*
X186476428Y-91495000D01*
X186515000Y-91533571D01*
X186785000Y-91456428D02*
X187325000Y-91456428D01*
X186977857Y-92266428D01*
%TO.C,R1*%
X183166428Y-91535000D02*
X182780714Y-91805000D01*
X183166428Y-91997857D02*
X182356428Y-91997857D01*
X182356428Y-91689285D01*
X182395000Y-91612142D01*
X182433571Y-91573571D01*
X182510714Y-91535000D01*
X182626428Y-91535000D01*
X182703571Y-91573571D01*
X182742142Y-91612142D01*
X182780714Y-91689285D01*
X182780714Y-91997857D01*
X183166428Y-90763571D02*
X183166428Y-91226428D01*
X183166428Y-90995000D02*
X182356428Y-90995000D01*
X182472142Y-91072142D01*
X182549285Y-91149285D01*
X182587857Y-91226428D01*
%TO.C,R18*%
X202216428Y-91970714D02*
X201830714Y-92240714D01*
X202216428Y-92433571D02*
X201406428Y-92433571D01*
X201406428Y-92125000D01*
X201445000Y-92047857D01*
X201483571Y-92009285D01*
X201560714Y-91970714D01*
X201676428Y-91970714D01*
X201753571Y-92009285D01*
X201792142Y-92047857D01*
X201830714Y-92125000D01*
X201830714Y-92433571D01*
X202216428Y-91199285D02*
X202216428Y-91662142D01*
X202216428Y-91430714D02*
X201406428Y-91430714D01*
X201522142Y-91507857D01*
X201599285Y-91585000D01*
X201637857Y-91662142D01*
X201753571Y-90736428D02*
X201715000Y-90813571D01*
X201676428Y-90852142D01*
X201599285Y-90890714D01*
X201560714Y-90890714D01*
X201483571Y-90852142D01*
X201445000Y-90813571D01*
X201406428Y-90736428D01*
X201406428Y-90582142D01*
X201445000Y-90505000D01*
X201483571Y-90466428D01*
X201560714Y-90427857D01*
X201599285Y-90427857D01*
X201676428Y-90466428D01*
X201715000Y-90505000D01*
X201753571Y-90582142D01*
X201753571Y-90736428D01*
X201792142Y-90813571D01*
X201830714Y-90852142D01*
X201907857Y-90890714D01*
X202062142Y-90890714D01*
X202139285Y-90852142D01*
X202177857Y-90813571D01*
X202216428Y-90736428D01*
X202216428Y-90582142D01*
X202177857Y-90505000D01*
X202139285Y-90466428D01*
X202062142Y-90427857D01*
X201907857Y-90427857D01*
X201830714Y-90466428D01*
X201792142Y-90505000D01*
X201753571Y-90582142D01*
%TO.C,C2*%
X179445000Y-102689285D02*
X179406428Y-102727857D01*
X179290714Y-102766428D01*
X179213571Y-102766428D01*
X179097857Y-102727857D01*
X179020714Y-102650714D01*
X178982142Y-102573571D01*
X178943571Y-102419285D01*
X178943571Y-102303571D01*
X178982142Y-102149285D01*
X179020714Y-102072142D01*
X179097857Y-101995000D01*
X179213571Y-101956428D01*
X179290714Y-101956428D01*
X179406428Y-101995000D01*
X179445000Y-102033571D01*
X179753571Y-102033571D02*
X179792142Y-101995000D01*
X179869285Y-101956428D01*
X180062142Y-101956428D01*
X180139285Y-101995000D01*
X180177857Y-102033571D01*
X180216428Y-102110714D01*
X180216428Y-102187857D01*
X180177857Y-102303571D01*
X179715000Y-102766428D01*
X180216428Y-102766428D01*
%TO.C,C12*%
X187179285Y-87989285D02*
X187140714Y-88027857D01*
X187025000Y-88066428D01*
X186947857Y-88066428D01*
X186832142Y-88027857D01*
X186755000Y-87950714D01*
X186716428Y-87873571D01*
X186677857Y-87719285D01*
X186677857Y-87603571D01*
X186716428Y-87449285D01*
X186755000Y-87372142D01*
X186832142Y-87295000D01*
X186947857Y-87256428D01*
X187025000Y-87256428D01*
X187140714Y-87295000D01*
X187179285Y-87333571D01*
X187950714Y-88066428D02*
X187487857Y-88066428D01*
X187719285Y-88066428D02*
X187719285Y-87256428D01*
X187642142Y-87372142D01*
X187565000Y-87449285D01*
X187487857Y-87487857D01*
X188259285Y-87333571D02*
X188297857Y-87295000D01*
X188375000Y-87256428D01*
X188567857Y-87256428D01*
X188645000Y-87295000D01*
X188683571Y-87333571D01*
X188722142Y-87410714D01*
X188722142Y-87487857D01*
X188683571Y-87603571D01*
X188220714Y-88066428D01*
X188722142Y-88066428D01*
%TO.C,D3*%
X198652142Y-88566428D02*
X198652142Y-87756428D01*
X198845000Y-87756428D01*
X198960714Y-87795000D01*
X199037857Y-87872142D01*
X199076428Y-87949285D01*
X199115000Y-88103571D01*
X199115000Y-88219285D01*
X199076428Y-88373571D01*
X199037857Y-88450714D01*
X198960714Y-88527857D01*
X198845000Y-88566428D01*
X198652142Y-88566428D01*
X199385000Y-87756428D02*
X199886428Y-87756428D01*
X199616428Y-88065000D01*
X199732142Y-88065000D01*
X199809285Y-88103571D01*
X199847857Y-88142142D01*
X199886428Y-88219285D01*
X199886428Y-88412142D01*
X199847857Y-88489285D01*
X199809285Y-88527857D01*
X199732142Y-88566428D01*
X199500714Y-88566428D01*
X199423571Y-88527857D01*
X199385000Y-88489285D01*
%TO.C,U5*%
X231051419Y-104437295D02*
X230241895Y-104437295D01*
X230146657Y-104484914D01*
X230099038Y-104532533D01*
X230051419Y-104627771D01*
X230051419Y-104818247D01*
X230099038Y-104913485D01*
X230146657Y-104961104D01*
X230241895Y-105008723D01*
X231051419Y-105008723D01*
X231051419Y-105961104D02*
X231051419Y-105484914D01*
X230575228Y-105437295D01*
X230622847Y-105484914D01*
X230670466Y-105580152D01*
X230670466Y-105818247D01*
X230622847Y-105913485D01*
X230575228Y-105961104D01*
X230479990Y-106008723D01*
X230241895Y-106008723D01*
X230146657Y-105961104D01*
X230099038Y-105913485D01*
X230051419Y-105818247D01*
X230051419Y-105580152D01*
X230099038Y-105484914D01*
X230146657Y-105437295D01*
D11*
%TO.C,D1*%
X198051500Y-89093600D02*
G75*
G03*
X198051500Y-89093600I-50000J0D01*
G01*
D12*
%TO.C,Y1*%
X183525600Y-101800000D02*
G75*
G03*
X183525600Y-101800000I-100000J0D01*
G01*
D13*
X183000000Y-102600000D02*
X183000000Y-101000000D01*
X180600000Y-102600000D02*
X183000000Y-102600000D01*
X183000000Y-101000000D02*
X180600000Y-101000000D01*
D12*
%TO.C,U4*%
X196646800Y-107897600D02*
G75*
G03*
X196646800Y-107897600I-100000J0D01*
G01*
D13*
X196117000Y-103632000D02*
X196117000Y-107232000D01*
X204187000Y-103632000D02*
X204187000Y-105832000D01*
X196117000Y-103632000D02*
X196117000Y-101432000D01*
X204187000Y-103632000D02*
X204187000Y-101432000D01*
D11*
%TO.C,D2*%
X202225900Y-89100000D02*
G75*
G03*
X202225900Y-89100000I-50000J0D01*
G01*
D14*
%TO.C,U1*%
X185982000Y-100166000D02*
G75*
G03*
X185982000Y-100166000I-125000J0D01*
G01*
D12*
%TO.C,U3*%
X190038600Y-111377600D02*
X186338600Y-111377600D01*
X186338600Y-111377600D02*
X186338600Y-101677600D01*
X186338600Y-101677600D02*
X190038600Y-101677600D01*
X191863600Y-111327600D02*
X190388600Y-111327600D01*
X190038600Y-101677600D02*
X190038600Y-111377600D01*
D11*
%TO.C,D3*%
X200190000Y-89093600D02*
G75*
G03*
X200190000Y-89093600I-50000J0D01*
G01*
%TD*%
M02*
