%TF.GenerationSoftware,KiCad,Pcbnew,6.0.5-a6ca702e91~116~ubuntu20.04.1*%
%TF.CreationDate,2022-07-25T12:39:34+01:00*%
%TF.ProjectId,sd-mux,73642d6d-7578-42e6-9b69-6361645f7063,rev?*%
%TF.SameCoordinates,Original*%
%TF.FileFunction,Copper,L3,Inr*%
%TF.FilePolarity,Positive*%
%FSLAX46Y46*%
G04 Gerber Fmt 4.6, Leading zero omitted, Abs format (unit mm)*
G04 Created by KiCad (PCBNEW 6.0.5-a6ca702e91~116~ubuntu20.04.1) date 2022-07-25 12:39:34*
%MOMM*%
%LPD*%
G01*
G04 APERTURE LIST*
%TA.AperFunction,ComponentPad*%
%ADD10C,2.000000*%
%TD*%
%TA.AperFunction,ComponentPad*%
%ADD11C,1.800000*%
%TD*%
%TA.AperFunction,ViaPad*%
%ADD12C,0.600000*%
%TD*%
G04 APERTURE END LIST*
D10*
%TO.N,Net-(C8-Pad1)*%
%TO.C,J1*%
X180005000Y-90030000D03*
D11*
X176205000Y-89880000D03*
X176205000Y-97630000D03*
D10*
X180005000Y-97480000D03*
%TD*%
D12*
%TO.N,/VD33*%
X201200000Y-108000000D03*
%TO.N,Net-(FB2-Pad2)*%
X182000000Y-95050000D03*
%TO.N,/XTAL1*%
X178400000Y-98950000D03*
%TO.N,GND*%
X208400000Y-107000000D03*
%TO.N,Net-(C1-Pad1)*%
X180545500Y-99607909D03*
X182849781Y-99468777D03*
%TO.N,/SD_nCD*%
X196016100Y-99250000D03*
%TO.N,GND*%
X183550000Y-113200000D03*
X182700000Y-108250000D03*
X183700000Y-100400000D03*
X178700000Y-95300000D03*
X184103409Y-94196591D03*
X193950000Y-102800000D03*
X179400000Y-110800000D03*
X177650000Y-100750000D03*
X183700000Y-88250000D03*
X194100000Y-101680500D03*
X187550000Y-106950000D03*
X199150000Y-108250000D03*
X202150000Y-119400000D03*
X194150000Y-111850000D03*
X187438817Y-89746981D03*
X186450000Y-110300000D03*
X189050000Y-88600000D03*
X201000000Y-90900000D03*
X191800000Y-98700000D03*
X198800000Y-119900000D03*
X193400000Y-88700000D03*
X197600000Y-99200000D03*
X190850000Y-119650000D03*
%TO.N,/VD33*%
X195300000Y-89100000D03*
X185100000Y-90600000D03*
X191100000Y-100850000D03*
X196600000Y-120000000D03*
X178450000Y-110750000D03*
X177250000Y-102500000D03*
X188200000Y-89300000D03*
X191100000Y-113350000D03*
%TO.N,Net-(C8-Pad1)*%
X185242200Y-88620600D03*
%TO.N,/VBUS*%
X176250000Y-116150000D03*
X188209700Y-109250000D03*
X182650000Y-111100000D03*
%TO.N,/XTAL1*%
X182700000Y-97500000D03*
%TO.N,/SD_MUX_SEL*%
X196570600Y-102235000D03*
X198551800Y-105304100D03*
X198900000Y-90700000D03*
%TO.N,/SD_D1_DUT*%
X222478600Y-109118400D03*
X196545200Y-104597200D03*
%TO.N,/SD_D0_DUT*%
X202311000Y-104749600D03*
X205079600Y-104749600D03*
%TO.N,/SD_D0*%
X198500000Y-107850000D03*
%TO.N,/SD_D1*%
X200900000Y-117650000D03*
X200150000Y-111550000D03*
X200900000Y-119850000D03*
%TO.N,/SD_D2*%
X199250000Y-113600000D03*
%TO.N,/SD_D3*%
X199250000Y-114600000D03*
%TO.N,/SD_CLK*%
X197700000Y-119900000D03*
%TO.N,/SD_CMD*%
X199100000Y-116650000D03*
X203750000Y-107850000D03*
X201872500Y-113400000D03*
%TO.N,/SD_D2_HUB*%
X202438000Y-95758000D03*
X188400000Y-93736498D03*
X197456278Y-90776278D03*
X202438000Y-98145600D03*
%TO.N,/SD_CMD_HUB*%
X201777600Y-99161600D03*
X198096209Y-93546591D03*
%TO.N,/SD_D3_HUB*%
X201142600Y-95808800D03*
X196350000Y-91000000D03*
X189300000Y-91650000D03*
X201142600Y-98196400D03*
%TO.N,/SD_CLK_HUB*%
X200482200Y-99237800D03*
X199593200Y-95046800D03*
%TO.N,/SD_CLK_DUT*%
X222377000Y-105867200D03*
X199821800Y-103225600D03*
%TO.N,/SD_D3_DUT*%
X222326200Y-102565200D03*
X198551800Y-103149400D03*
%TO.N,/SD_CMD_DUT*%
X201218800Y-103657400D03*
X222351600Y-103657400D03*
%TO.N,/SD_D2_DUT*%
X222351600Y-101447600D03*
X197256400Y-103047800D03*
%TO.N,Net-(C13-Pad1)*%
X191886502Y-97785348D03*
X192750000Y-99750000D03*
X187623458Y-93714897D03*
%TO.N,Net-(C11-Pad1)*%
X186850705Y-98846845D03*
X186827498Y-95570500D03*
%TO.N,/USBUP_D_N*%
X183261000Y-94996000D03*
%TO.N,/USBUP_D_P*%
X184073800Y-94970600D03*
%TO.N,/USBDN_D_P2*%
X183565800Y-108280200D03*
X185064400Y-100863400D03*
%TD*%
%TA.AperFunction,Conductor*%
%TO.N,/VD33*%
G36*
X202413717Y-86721002D02*
G01*
X202436808Y-86740073D01*
X209401949Y-94048565D01*
X209434466Y-94111677D01*
X209436734Y-94136355D01*
X209362436Y-104979615D01*
X209293574Y-115029497D01*
X209289189Y-115669400D01*
X209268721Y-115737382D01*
X209263943Y-115744203D01*
X207186655Y-118510158D01*
X207174999Y-118523587D01*
X202736491Y-122962095D01*
X202674179Y-122996121D01*
X202647396Y-122999000D01*
X179852604Y-122999000D01*
X179784483Y-122978998D01*
X179763509Y-122962095D01*
X176446100Y-119644686D01*
X190415105Y-119644686D01*
X190416269Y-119653587D01*
X190416269Y-119653591D01*
X190427153Y-119736817D01*
X190431095Y-119766960D01*
X190480759Y-119879832D01*
X190540329Y-119950699D01*
X190553998Y-119966960D01*
X190560107Y-119974228D01*
X190662759Y-120042559D01*
X190780463Y-120079332D01*
X190789433Y-120079496D01*
X190789437Y-120079497D01*
X190845133Y-120080517D01*
X190903758Y-120081592D01*
X190963244Y-120065374D01*
X191014067Y-120051518D01*
X191014068Y-120051518D01*
X191022730Y-120049156D01*
X191030382Y-120044458D01*
X191120165Y-119989332D01*
X191120168Y-119989329D01*
X191127817Y-119984633D01*
X191137236Y-119974228D01*
X191204543Y-119899868D01*
X191204544Y-119899866D01*
X191209233Y-119894686D01*
X197265105Y-119894686D01*
X197266269Y-119903587D01*
X197266269Y-119903591D01*
X197277482Y-119989332D01*
X197281095Y-120016960D01*
X197330759Y-120129832D01*
X197410107Y-120224228D01*
X197432797Y-120239332D01*
X197496284Y-120281592D01*
X197512759Y-120292559D01*
X197630463Y-120329332D01*
X197639433Y-120329496D01*
X197639437Y-120329497D01*
X197695133Y-120330517D01*
X197753758Y-120331592D01*
X197813244Y-120315374D01*
X197864067Y-120301518D01*
X197864068Y-120301518D01*
X197872730Y-120299156D01*
X197880382Y-120294458D01*
X197970165Y-120239332D01*
X197970168Y-120239329D01*
X197977817Y-120234633D01*
X197987236Y-120224228D01*
X198054543Y-120149868D01*
X198054544Y-120149866D01*
X198060571Y-120143208D01*
X198088713Y-120085124D01*
X198110424Y-120040311D01*
X198110424Y-120040310D01*
X198114338Y-120032232D01*
X198121391Y-119990311D01*
X198125682Y-119964805D01*
X198156709Y-119900947D01*
X198156747Y-119900924D01*
X198340351Y-119900924D01*
X198347104Y-119905495D01*
X198374872Y-119969371D01*
X198381095Y-120016960D01*
X198430759Y-120129832D01*
X198510107Y-120224228D01*
X198532797Y-120239332D01*
X198596284Y-120281592D01*
X198612759Y-120292559D01*
X198730463Y-120329332D01*
X198739433Y-120329496D01*
X198739437Y-120329497D01*
X198795133Y-120330517D01*
X198853758Y-120331592D01*
X198913244Y-120315374D01*
X198964067Y-120301518D01*
X198964068Y-120301518D01*
X198972730Y-120299156D01*
X198980382Y-120294458D01*
X199070165Y-120239332D01*
X199070168Y-120239329D01*
X199077817Y-120234633D01*
X199087236Y-120224228D01*
X199154543Y-120149868D01*
X199154544Y-120149866D01*
X199160571Y-120143208D01*
X199188713Y-120085124D01*
X199210424Y-120040311D01*
X199210424Y-120040310D01*
X199214338Y-120032232D01*
X199234797Y-119910626D01*
X199234927Y-119900000D01*
X199233955Y-119893208D01*
X199227006Y-119844686D01*
X200465105Y-119844686D01*
X200466269Y-119853587D01*
X200466269Y-119853591D01*
X200473057Y-119905495D01*
X200481095Y-119966960D01*
X200530759Y-120079832D01*
X200610107Y-120174228D01*
X200617585Y-120179205D01*
X200617584Y-120179205D01*
X200692698Y-120229205D01*
X200712759Y-120242559D01*
X200830463Y-120279332D01*
X200839433Y-120279496D01*
X200839437Y-120279497D01*
X200895133Y-120280517D01*
X200953758Y-120281592D01*
X201013244Y-120265374D01*
X201064067Y-120251518D01*
X201064068Y-120251518D01*
X201072730Y-120249156D01*
X201080382Y-120244458D01*
X201170165Y-120189332D01*
X201170168Y-120189329D01*
X201177817Y-120184633D01*
X201187236Y-120174228D01*
X201254543Y-120099868D01*
X201254544Y-120099866D01*
X201260571Y-120093208D01*
X201267344Y-120079230D01*
X201310424Y-119990311D01*
X201310424Y-119990310D01*
X201314338Y-119982232D01*
X201334797Y-119860626D01*
X201334927Y-119850000D01*
X201332896Y-119835814D01*
X201318718Y-119736817D01*
X201318717Y-119736815D01*
X201317445Y-119727930D01*
X201289025Y-119665423D01*
X201270122Y-119623848D01*
X201270120Y-119623845D01*
X201266405Y-119615674D01*
X201185910Y-119522255D01*
X201082431Y-119455183D01*
X201073829Y-119452611D01*
X201073826Y-119452609D01*
X200972889Y-119422423D01*
X200972890Y-119422423D01*
X200964286Y-119419850D01*
X200955310Y-119419795D01*
X200955309Y-119419795D01*
X200904336Y-119419484D01*
X200840974Y-119419097D01*
X200722406Y-119452984D01*
X200618115Y-119518786D01*
X200612173Y-119525514D01*
X200612172Y-119525515D01*
X200606240Y-119532232D01*
X200536485Y-119611215D01*
X200484077Y-119722840D01*
X200482697Y-119731705D01*
X200482696Y-119731707D01*
X200467144Y-119831592D01*
X200465105Y-119844686D01*
X199227006Y-119844686D01*
X199218718Y-119786817D01*
X199218717Y-119786815D01*
X199217445Y-119777930D01*
X199166405Y-119665674D01*
X199085910Y-119572255D01*
X198982431Y-119505183D01*
X198973829Y-119502611D01*
X198973826Y-119502609D01*
X198872889Y-119472423D01*
X198872890Y-119472423D01*
X198864286Y-119469850D01*
X198855310Y-119469795D01*
X198855309Y-119469795D01*
X198804336Y-119469484D01*
X198740974Y-119469097D01*
X198622406Y-119502984D01*
X198518115Y-119568786D01*
X198436485Y-119661215D01*
X198384077Y-119772840D01*
X198382697Y-119781705D01*
X198382696Y-119781707D01*
X198380711Y-119794458D01*
X198374755Y-119832713D01*
X198374518Y-119834234D01*
X198344274Y-119898467D01*
X198340351Y-119900924D01*
X198156747Y-119900924D01*
X198158922Y-119899598D01*
X198153838Y-119896247D01*
X198125291Y-119832713D01*
X198118718Y-119786817D01*
X198118717Y-119786815D01*
X198117445Y-119777930D01*
X198066405Y-119665674D01*
X197985910Y-119572255D01*
X197882431Y-119505183D01*
X197873829Y-119502611D01*
X197873826Y-119502609D01*
X197772889Y-119472423D01*
X197772890Y-119472423D01*
X197764286Y-119469850D01*
X197755310Y-119469795D01*
X197755309Y-119469795D01*
X197704336Y-119469484D01*
X197640974Y-119469097D01*
X197522406Y-119502984D01*
X197418115Y-119568786D01*
X197336485Y-119661215D01*
X197284077Y-119772840D01*
X197282697Y-119781705D01*
X197282696Y-119781707D01*
X197266594Y-119885124D01*
X197265105Y-119894686D01*
X191209233Y-119894686D01*
X191210571Y-119893208D01*
X191228713Y-119855764D01*
X191260424Y-119790311D01*
X191260424Y-119790310D01*
X191264338Y-119782232D01*
X191284797Y-119660626D01*
X191284927Y-119650000D01*
X191283955Y-119643208D01*
X191268718Y-119536817D01*
X191268717Y-119536815D01*
X191267445Y-119527930D01*
X191241817Y-119471564D01*
X191220122Y-119423848D01*
X191220120Y-119423845D01*
X191216405Y-119415674D01*
X191198321Y-119394686D01*
X201715105Y-119394686D01*
X201716269Y-119403587D01*
X201716269Y-119403591D01*
X201723016Y-119455183D01*
X201731095Y-119516960D01*
X201780759Y-119629832D01*
X201860107Y-119724228D01*
X201962759Y-119792559D01*
X202080463Y-119829332D01*
X202089433Y-119829496D01*
X202089437Y-119829497D01*
X202145133Y-119830517D01*
X202203758Y-119831592D01*
X202263244Y-119815374D01*
X202314067Y-119801518D01*
X202314068Y-119801518D01*
X202322730Y-119799156D01*
X202330382Y-119794458D01*
X202420165Y-119739332D01*
X202420168Y-119739329D01*
X202427817Y-119734633D01*
X202433885Y-119727930D01*
X202504543Y-119649868D01*
X202504544Y-119649866D01*
X202510571Y-119643208D01*
X202522135Y-119619341D01*
X202560424Y-119540311D01*
X202560424Y-119540310D01*
X202564338Y-119532232D01*
X202584797Y-119410626D01*
X202584927Y-119400000D01*
X202582896Y-119385814D01*
X202568718Y-119286817D01*
X202568717Y-119286815D01*
X202567445Y-119277930D01*
X202541817Y-119221564D01*
X202520122Y-119173848D01*
X202520120Y-119173845D01*
X202516405Y-119165674D01*
X202435910Y-119072255D01*
X202332431Y-119005183D01*
X202323829Y-119002611D01*
X202323826Y-119002609D01*
X202222889Y-118972423D01*
X202222890Y-118972423D01*
X202214286Y-118969850D01*
X202205310Y-118969795D01*
X202205309Y-118969795D01*
X202154336Y-118969484D01*
X202090974Y-118969097D01*
X201972406Y-119002984D01*
X201868115Y-119068786D01*
X201786485Y-119161215D01*
X201734077Y-119272840D01*
X201732697Y-119281705D01*
X201732696Y-119281707D01*
X201726383Y-119322255D01*
X201715105Y-119394686D01*
X191198321Y-119394686D01*
X191135910Y-119322255D01*
X191032431Y-119255183D01*
X191023829Y-119252611D01*
X191023826Y-119252609D01*
X190922889Y-119222423D01*
X190922890Y-119222423D01*
X190914286Y-119219850D01*
X190905310Y-119219795D01*
X190905309Y-119219795D01*
X190854336Y-119219484D01*
X190790974Y-119219097D01*
X190672406Y-119252984D01*
X190568115Y-119318786D01*
X190486485Y-119411215D01*
X190434077Y-119522840D01*
X190432697Y-119531705D01*
X190432696Y-119531707D01*
X190416594Y-119635124D01*
X190415105Y-119644686D01*
X176446100Y-119644686D01*
X174446100Y-117644686D01*
X200465105Y-117644686D01*
X200466269Y-117653587D01*
X200466269Y-117653591D01*
X200479919Y-117757971D01*
X200481095Y-117766960D01*
X200530759Y-117879832D01*
X200610107Y-117974228D01*
X200712759Y-118042559D01*
X200830463Y-118079332D01*
X200839433Y-118079496D01*
X200839437Y-118079497D01*
X200895133Y-118080517D01*
X200953758Y-118081592D01*
X201013244Y-118065374D01*
X201064067Y-118051518D01*
X201064068Y-118051518D01*
X201072730Y-118049156D01*
X201080382Y-118044458D01*
X201170165Y-117989332D01*
X201170168Y-117989329D01*
X201177817Y-117984633D01*
X201187236Y-117974228D01*
X201254543Y-117899868D01*
X201254544Y-117899866D01*
X201260571Y-117893208D01*
X201314338Y-117782232D01*
X201334797Y-117660626D01*
X201334927Y-117650000D01*
X201332993Y-117636491D01*
X201318718Y-117536817D01*
X201318717Y-117536815D01*
X201317445Y-117527930D01*
X201266405Y-117415674D01*
X201185910Y-117322255D01*
X201082431Y-117255183D01*
X201073829Y-117252611D01*
X201073826Y-117252609D01*
X200972889Y-117222423D01*
X200972890Y-117222423D01*
X200964286Y-117219850D01*
X200955310Y-117219795D01*
X200955309Y-117219795D01*
X200904336Y-117219484D01*
X200840974Y-117219097D01*
X200722406Y-117252984D01*
X200618115Y-117318786D01*
X200536485Y-117411215D01*
X200484077Y-117522840D01*
X200482697Y-117531705D01*
X200482696Y-117531707D01*
X200471944Y-117600765D01*
X200465105Y-117644686D01*
X174446100Y-117644686D01*
X174437905Y-117636491D01*
X174403879Y-117574179D01*
X174401000Y-117547396D01*
X174401000Y-116644686D01*
X198665105Y-116644686D01*
X198666269Y-116653587D01*
X198666269Y-116653591D01*
X198679919Y-116757971D01*
X198681095Y-116766960D01*
X198730759Y-116879832D01*
X198810107Y-116974228D01*
X198912759Y-117042559D01*
X199030463Y-117079332D01*
X199039433Y-117079496D01*
X199039437Y-117079497D01*
X199095133Y-117080517D01*
X199153758Y-117081592D01*
X199213244Y-117065374D01*
X199264067Y-117051518D01*
X199264068Y-117051518D01*
X199272730Y-117049156D01*
X199280382Y-117044458D01*
X199370165Y-116989332D01*
X199370168Y-116989329D01*
X199377817Y-116984633D01*
X199387236Y-116974228D01*
X199454543Y-116899868D01*
X199454544Y-116899866D01*
X199460571Y-116893208D01*
X199514338Y-116782232D01*
X199534797Y-116660626D01*
X199534927Y-116650000D01*
X199532896Y-116635814D01*
X199518718Y-116536817D01*
X199518717Y-116536815D01*
X199517445Y-116527930D01*
X199466405Y-116415674D01*
X199385910Y-116322255D01*
X199282431Y-116255183D01*
X199273829Y-116252611D01*
X199273826Y-116252609D01*
X199172889Y-116222423D01*
X199172890Y-116222423D01*
X199164286Y-116219850D01*
X199155310Y-116219795D01*
X199155309Y-116219795D01*
X199104336Y-116219484D01*
X199040974Y-116219097D01*
X198922406Y-116252984D01*
X198818115Y-116318786D01*
X198736485Y-116411215D01*
X198684077Y-116522840D01*
X198682697Y-116531705D01*
X198682696Y-116531707D01*
X198674955Y-116581427D01*
X198665105Y-116644686D01*
X174401000Y-116644686D01*
X174401000Y-116144686D01*
X175815105Y-116144686D01*
X175816269Y-116153587D01*
X175816269Y-116153591D01*
X175822449Y-116200847D01*
X175831095Y-116266960D01*
X175880759Y-116379832D01*
X175960107Y-116474228D01*
X176062759Y-116542559D01*
X176180463Y-116579332D01*
X176189433Y-116579496D01*
X176189437Y-116579497D01*
X176245133Y-116580517D01*
X176303758Y-116581592D01*
X176363244Y-116565374D01*
X176414067Y-116551518D01*
X176414068Y-116551518D01*
X176422730Y-116549156D01*
X176430382Y-116544458D01*
X176520165Y-116489332D01*
X176520168Y-116489329D01*
X176527817Y-116484633D01*
X176537236Y-116474228D01*
X176604543Y-116399868D01*
X176604544Y-116399866D01*
X176610571Y-116393208D01*
X176664338Y-116282232D01*
X176684797Y-116160626D01*
X176684927Y-116150000D01*
X176682896Y-116135814D01*
X176668718Y-116036817D01*
X176668717Y-116036815D01*
X176667445Y-116027930D01*
X176616405Y-115915674D01*
X176535910Y-115822255D01*
X176432431Y-115755183D01*
X176423829Y-115752611D01*
X176423826Y-115752609D01*
X176322889Y-115722423D01*
X176322890Y-115722423D01*
X176314286Y-115719850D01*
X176305310Y-115719795D01*
X176305309Y-115719795D01*
X176254336Y-115719484D01*
X176190974Y-115719097D01*
X176072406Y-115752984D01*
X175968115Y-115818786D01*
X175886485Y-115911215D01*
X175834077Y-116022840D01*
X175832697Y-116031705D01*
X175832696Y-116031707D01*
X175831901Y-116036817D01*
X175815105Y-116144686D01*
X174401000Y-116144686D01*
X174401000Y-114594686D01*
X198815105Y-114594686D01*
X198816269Y-114603587D01*
X198816269Y-114603591D01*
X198829919Y-114707971D01*
X198831095Y-114716960D01*
X198880759Y-114829832D01*
X198960107Y-114924228D01*
X199062759Y-114992559D01*
X199180463Y-115029332D01*
X199189433Y-115029496D01*
X199189437Y-115029497D01*
X199245133Y-115030517D01*
X199303758Y-115031592D01*
X199363244Y-115015374D01*
X199414067Y-115001518D01*
X199414068Y-115001518D01*
X199422730Y-114999156D01*
X199430382Y-114994458D01*
X199520165Y-114939332D01*
X199520168Y-114939329D01*
X199527817Y-114934633D01*
X199537236Y-114924228D01*
X199604543Y-114849868D01*
X199604544Y-114849866D01*
X199610571Y-114843208D01*
X199664338Y-114732232D01*
X199684797Y-114610626D01*
X199684927Y-114600000D01*
X199682896Y-114585814D01*
X199668718Y-114486817D01*
X199668717Y-114486815D01*
X199667445Y-114477930D01*
X199616405Y-114365674D01*
X199535910Y-114272255D01*
X199432431Y-114205183D01*
X199434454Y-114202062D01*
X199394251Y-114166942D01*
X199374522Y-114098742D01*
X199394797Y-114030702D01*
X199434590Y-113991874D01*
X199527817Y-113934633D01*
X199537236Y-113924228D01*
X199604543Y-113849868D01*
X199604544Y-113849866D01*
X199610571Y-113843208D01*
X199617344Y-113829230D01*
X199660424Y-113740311D01*
X199660424Y-113740310D01*
X199664338Y-113732232D01*
X199684797Y-113610626D01*
X199684927Y-113600000D01*
X199684134Y-113594458D01*
X199668718Y-113486817D01*
X199668717Y-113486815D01*
X199667445Y-113477930D01*
X199645576Y-113429832D01*
X199629596Y-113394686D01*
X201437605Y-113394686D01*
X201438769Y-113403587D01*
X201438769Y-113403591D01*
X201447825Y-113472840D01*
X201453595Y-113516960D01*
X201503259Y-113629832D01*
X201509036Y-113636704D01*
X201576498Y-113716960D01*
X201582607Y-113724228D01*
X201685259Y-113792559D01*
X201802963Y-113829332D01*
X201811933Y-113829496D01*
X201811937Y-113829497D01*
X201867633Y-113830517D01*
X201926258Y-113831592D01*
X201985744Y-113815374D01*
X202036567Y-113801518D01*
X202036568Y-113801518D01*
X202045230Y-113799156D01*
X202052882Y-113794458D01*
X202142665Y-113739332D01*
X202142668Y-113739329D01*
X202150317Y-113734633D01*
X202159736Y-113724228D01*
X202227043Y-113649868D01*
X202227044Y-113649866D01*
X202233071Y-113643208D01*
X202239844Y-113629230D01*
X202282924Y-113540311D01*
X202282924Y-113540310D01*
X202286838Y-113532232D01*
X202307297Y-113410626D01*
X202307427Y-113400000D01*
X202305396Y-113385814D01*
X202291218Y-113286817D01*
X202291217Y-113286815D01*
X202289945Y-113277930D01*
X202259090Y-113210069D01*
X202242622Y-113173848D01*
X202242620Y-113173845D01*
X202238905Y-113165674D01*
X202158410Y-113072255D01*
X202054931Y-113005183D01*
X202046329Y-113002611D01*
X202046326Y-113002609D01*
X201945389Y-112972423D01*
X201945390Y-112972423D01*
X201936786Y-112969850D01*
X201927810Y-112969795D01*
X201927809Y-112969795D01*
X201876836Y-112969484D01*
X201813474Y-112969097D01*
X201694906Y-113002984D01*
X201590615Y-113068786D01*
X201584673Y-113075514D01*
X201584672Y-113075515D01*
X201574691Y-113086817D01*
X201508985Y-113161215D01*
X201456577Y-113272840D01*
X201455197Y-113281705D01*
X201455196Y-113281707D01*
X201440850Y-113373848D01*
X201437605Y-113394686D01*
X199629596Y-113394686D01*
X199620122Y-113373848D01*
X199620120Y-113373845D01*
X199616405Y-113365674D01*
X199535910Y-113272255D01*
X199432431Y-113205183D01*
X199423829Y-113202611D01*
X199423826Y-113202609D01*
X199322889Y-113172423D01*
X199322890Y-113172423D01*
X199314286Y-113169850D01*
X199305310Y-113169795D01*
X199305309Y-113169795D01*
X199254336Y-113169484D01*
X199190974Y-113169097D01*
X199072406Y-113202984D01*
X198968115Y-113268786D01*
X198962173Y-113275514D01*
X198962172Y-113275515D01*
X198952191Y-113286817D01*
X198886485Y-113361215D01*
X198834077Y-113472840D01*
X198832697Y-113481705D01*
X198832696Y-113481707D01*
X198823724Y-113539332D01*
X198815105Y-113594686D01*
X198816269Y-113603587D01*
X198816269Y-113603591D01*
X198821450Y-113643208D01*
X198831095Y-113716960D01*
X198880759Y-113829832D01*
X198960107Y-113924228D01*
X199061725Y-113991871D01*
X199062759Y-113992559D01*
X199061680Y-113994180D01*
X199106095Y-114033976D01*
X199124964Y-114102419D01*
X199103833Y-114170198D01*
X199066216Y-114206889D01*
X198994194Y-114252332D01*
X198968115Y-114268786D01*
X198886485Y-114361215D01*
X198834077Y-114472840D01*
X198832697Y-114481705D01*
X198832696Y-114481707D01*
X198831901Y-114486817D01*
X198815105Y-114594686D01*
X174401000Y-114594686D01*
X174401000Y-113194686D01*
X183115105Y-113194686D01*
X183116269Y-113203587D01*
X183116269Y-113203591D01*
X183125249Y-113272255D01*
X183131095Y-113316960D01*
X183180759Y-113429832D01*
X183228660Y-113486817D01*
X183253998Y-113516960D01*
X183260107Y-113524228D01*
X183362759Y-113592559D01*
X183480463Y-113629332D01*
X183489433Y-113629496D01*
X183489437Y-113629497D01*
X183545133Y-113630517D01*
X183603758Y-113631592D01*
X183706463Y-113603591D01*
X183714067Y-113601518D01*
X183714068Y-113601518D01*
X183722730Y-113599156D01*
X183730382Y-113594458D01*
X183820165Y-113539332D01*
X183820168Y-113539329D01*
X183827817Y-113534633D01*
X183837236Y-113524228D01*
X183904543Y-113449868D01*
X183904544Y-113449866D01*
X183910571Y-113443208D01*
X183928713Y-113405764D01*
X183960424Y-113340311D01*
X183960424Y-113340310D01*
X183964338Y-113332232D01*
X183984797Y-113210626D01*
X183984927Y-113200000D01*
X183982896Y-113185814D01*
X183968718Y-113086817D01*
X183968717Y-113086815D01*
X183967445Y-113077930D01*
X183936590Y-113010069D01*
X183920122Y-112973848D01*
X183920120Y-112973845D01*
X183916405Y-112965674D01*
X183835910Y-112872255D01*
X183732431Y-112805183D01*
X183723829Y-112802611D01*
X183723826Y-112802609D01*
X183622889Y-112772423D01*
X183622890Y-112772423D01*
X183614286Y-112769850D01*
X183605310Y-112769795D01*
X183605309Y-112769795D01*
X183554336Y-112769484D01*
X183490974Y-112769097D01*
X183372406Y-112802984D01*
X183268115Y-112868786D01*
X183186485Y-112961215D01*
X183134077Y-113072840D01*
X183132697Y-113081705D01*
X183132696Y-113081707D01*
X183118350Y-113173848D01*
X183115105Y-113194686D01*
X174401000Y-113194686D01*
X174401000Y-111844686D01*
X193715105Y-111844686D01*
X193716269Y-111853587D01*
X193716269Y-111853591D01*
X193718069Y-111867352D01*
X193731095Y-111966960D01*
X193780759Y-112079832D01*
X193860107Y-112174228D01*
X193962759Y-112242559D01*
X194080463Y-112279332D01*
X194089433Y-112279496D01*
X194089437Y-112279497D01*
X194145133Y-112280517D01*
X194203758Y-112281592D01*
X194263244Y-112265374D01*
X194314067Y-112251518D01*
X194314068Y-112251518D01*
X194322730Y-112249156D01*
X194330382Y-112244458D01*
X194420165Y-112189332D01*
X194420168Y-112189329D01*
X194427817Y-112184633D01*
X194437236Y-112174228D01*
X194504543Y-112099868D01*
X194504544Y-112099866D01*
X194510571Y-112093208D01*
X194564338Y-111982232D01*
X194584797Y-111860626D01*
X194584927Y-111850000D01*
X194582896Y-111835814D01*
X194568718Y-111736817D01*
X194568717Y-111736815D01*
X194567445Y-111727930D01*
X194543459Y-111675175D01*
X194520122Y-111623848D01*
X194520120Y-111623845D01*
X194516405Y-111615674D01*
X194455238Y-111544686D01*
X199715105Y-111544686D01*
X199716269Y-111553587D01*
X199716269Y-111553591D01*
X199723805Y-111611215D01*
X199731095Y-111666960D01*
X199780759Y-111779832D01*
X199860107Y-111874228D01*
X199962759Y-111942559D01*
X199971329Y-111945236D01*
X199971328Y-111945236D01*
X200061412Y-111973380D01*
X200080463Y-111979332D01*
X200089433Y-111979496D01*
X200089437Y-111979497D01*
X200145133Y-111980517D01*
X200203758Y-111981592D01*
X200290075Y-111958059D01*
X200314067Y-111951518D01*
X200314068Y-111951518D01*
X200322730Y-111949156D01*
X200330382Y-111944458D01*
X200420165Y-111889332D01*
X200420168Y-111889329D01*
X200427817Y-111884633D01*
X200437236Y-111874228D01*
X200504543Y-111799868D01*
X200504544Y-111799866D01*
X200510571Y-111793208D01*
X200548600Y-111714717D01*
X200560424Y-111690311D01*
X200560424Y-111690310D01*
X200564338Y-111682232D01*
X200584797Y-111560626D01*
X200584927Y-111550000D01*
X200582896Y-111535814D01*
X200568718Y-111436817D01*
X200568717Y-111436815D01*
X200567445Y-111427930D01*
X200525967Y-111336704D01*
X200520122Y-111323848D01*
X200520120Y-111323845D01*
X200516405Y-111315674D01*
X200435910Y-111222255D01*
X200332431Y-111155183D01*
X200323829Y-111152611D01*
X200323826Y-111152609D01*
X200222889Y-111122423D01*
X200222890Y-111122423D01*
X200214286Y-111119850D01*
X200205310Y-111119795D01*
X200205309Y-111119795D01*
X200154336Y-111119484D01*
X200090974Y-111119097D01*
X199972406Y-111152984D01*
X199868115Y-111218786D01*
X199786485Y-111311215D01*
X199734077Y-111422840D01*
X199732697Y-111431705D01*
X199732696Y-111431707D01*
X199717144Y-111531592D01*
X199715105Y-111544686D01*
X194455238Y-111544686D01*
X194435910Y-111522255D01*
X194332431Y-111455183D01*
X194323829Y-111452611D01*
X194323826Y-111452609D01*
X194241457Y-111427976D01*
X194214286Y-111419850D01*
X194205310Y-111419795D01*
X194205309Y-111419795D01*
X194154336Y-111419484D01*
X194090974Y-111419097D01*
X193972406Y-111452984D01*
X193868115Y-111518786D01*
X193786485Y-111611215D01*
X193734077Y-111722840D01*
X193732697Y-111731705D01*
X193732696Y-111731707D01*
X193731901Y-111736817D01*
X193715105Y-111844686D01*
X174401000Y-111844686D01*
X174401000Y-110794686D01*
X178965105Y-110794686D01*
X178966269Y-110803587D01*
X178966269Y-110803591D01*
X178973805Y-110861215D01*
X178981095Y-110916960D01*
X179030759Y-111029832D01*
X179110107Y-111124228D01*
X179212759Y-111192559D01*
X179221329Y-111195236D01*
X179221328Y-111195236D01*
X179311412Y-111223380D01*
X179330463Y-111229332D01*
X179339433Y-111229496D01*
X179339437Y-111229497D01*
X179395133Y-111230517D01*
X179453758Y-111231592D01*
X179540075Y-111208059D01*
X179564067Y-111201518D01*
X179564068Y-111201518D01*
X179572730Y-111199156D01*
X179580382Y-111194458D01*
X179670165Y-111139332D01*
X179670168Y-111139329D01*
X179677817Y-111134633D01*
X179687236Y-111124228D01*
X179713976Y-111094686D01*
X182215105Y-111094686D01*
X182216269Y-111103587D01*
X182216269Y-111103591D01*
X182223016Y-111155183D01*
X182231095Y-111216960D01*
X182280759Y-111329832D01*
X182360107Y-111424228D01*
X182462759Y-111492559D01*
X182471329Y-111495236D01*
X182471328Y-111495236D01*
X182557811Y-111522255D01*
X182580463Y-111529332D01*
X182589433Y-111529496D01*
X182589437Y-111529497D01*
X182645133Y-111530517D01*
X182703758Y-111531592D01*
X182768298Y-111513996D01*
X182814067Y-111501518D01*
X182814068Y-111501518D01*
X182822730Y-111499156D01*
X182830382Y-111494458D01*
X182920165Y-111439332D01*
X182920168Y-111439329D01*
X182927817Y-111434633D01*
X182933885Y-111427930D01*
X183004543Y-111349868D01*
X183004544Y-111349866D01*
X183010571Y-111343208D01*
X183022135Y-111319341D01*
X183060424Y-111240311D01*
X183060424Y-111240310D01*
X183064338Y-111232232D01*
X183084797Y-111110626D01*
X183084927Y-111100000D01*
X183082896Y-111085814D01*
X183068718Y-110986817D01*
X183068717Y-110986815D01*
X183067445Y-110977930D01*
X183043459Y-110925175D01*
X183020122Y-110873848D01*
X183020120Y-110873845D01*
X183016405Y-110865674D01*
X182935910Y-110772255D01*
X182832431Y-110705183D01*
X182823829Y-110702611D01*
X182823826Y-110702609D01*
X182744154Y-110678782D01*
X182714286Y-110669850D01*
X182705310Y-110669795D01*
X182705309Y-110669795D01*
X182654336Y-110669484D01*
X182590974Y-110669097D01*
X182472406Y-110702984D01*
X182368115Y-110768786D01*
X182286485Y-110861215D01*
X182234077Y-110972840D01*
X182232697Y-110981705D01*
X182232696Y-110981707D01*
X182231901Y-110986817D01*
X182215105Y-111094686D01*
X179713976Y-111094686D01*
X179754543Y-111049868D01*
X179754544Y-111049866D01*
X179760571Y-111043208D01*
X179798600Y-110964717D01*
X179810424Y-110940311D01*
X179810424Y-110940310D01*
X179814338Y-110932232D01*
X179834797Y-110810626D01*
X179834927Y-110800000D01*
X179832896Y-110785814D01*
X179818718Y-110686817D01*
X179818717Y-110686815D01*
X179817445Y-110677930D01*
X179766405Y-110565674D01*
X179685910Y-110472255D01*
X179582431Y-110405183D01*
X179573829Y-110402611D01*
X179573826Y-110402609D01*
X179472889Y-110372423D01*
X179472890Y-110372423D01*
X179464286Y-110369850D01*
X179455310Y-110369795D01*
X179455309Y-110369795D01*
X179404336Y-110369484D01*
X179340974Y-110369097D01*
X179222406Y-110402984D01*
X179118115Y-110468786D01*
X179036485Y-110561215D01*
X178984077Y-110672840D01*
X178982697Y-110681705D01*
X178982696Y-110681707D01*
X178967539Y-110779055D01*
X178965105Y-110794686D01*
X174401000Y-110794686D01*
X174401000Y-110294686D01*
X186015105Y-110294686D01*
X186016269Y-110303587D01*
X186016269Y-110303591D01*
X186024836Y-110369097D01*
X186031095Y-110416960D01*
X186080759Y-110529832D01*
X186160107Y-110624228D01*
X186262759Y-110692559D01*
X186380463Y-110729332D01*
X186389433Y-110729496D01*
X186389437Y-110729497D01*
X186445133Y-110730517D01*
X186503758Y-110731592D01*
X186600624Y-110705183D01*
X186614067Y-110701518D01*
X186614068Y-110701518D01*
X186622730Y-110699156D01*
X186630382Y-110694458D01*
X186720165Y-110639332D01*
X186720168Y-110639329D01*
X186727817Y-110634633D01*
X186737236Y-110624228D01*
X186804543Y-110549868D01*
X186804544Y-110549866D01*
X186810571Y-110543208D01*
X186864338Y-110432232D01*
X186884797Y-110310626D01*
X186884927Y-110300000D01*
X186882896Y-110285814D01*
X186868718Y-110186817D01*
X186868717Y-110186815D01*
X186867445Y-110177930D01*
X186816405Y-110065674D01*
X186735910Y-109972255D01*
X186632431Y-109905183D01*
X186623829Y-109902611D01*
X186623826Y-109902609D01*
X186522889Y-109872423D01*
X186522890Y-109872423D01*
X186514286Y-109869850D01*
X186505310Y-109869795D01*
X186505309Y-109869795D01*
X186454336Y-109869484D01*
X186390974Y-109869097D01*
X186272406Y-109902984D01*
X186168115Y-109968786D01*
X186086485Y-110061215D01*
X186034077Y-110172840D01*
X186032697Y-110181705D01*
X186032696Y-110181707D01*
X186030004Y-110199000D01*
X186015105Y-110294686D01*
X174401000Y-110294686D01*
X174401000Y-109244686D01*
X187774805Y-109244686D01*
X187775969Y-109253587D01*
X187775969Y-109253591D01*
X187789619Y-109357971D01*
X187790795Y-109366960D01*
X187840459Y-109479832D01*
X187919807Y-109574228D01*
X188022459Y-109642559D01*
X188140163Y-109679332D01*
X188149133Y-109679496D01*
X188149137Y-109679497D01*
X188204833Y-109680517D01*
X188263458Y-109681592D01*
X188322944Y-109665374D01*
X188373767Y-109651518D01*
X188373768Y-109651518D01*
X188382430Y-109649156D01*
X188390082Y-109644458D01*
X188479865Y-109589332D01*
X188479868Y-109589329D01*
X188487517Y-109584633D01*
X188496936Y-109574228D01*
X188564243Y-109499868D01*
X188564244Y-109499866D01*
X188570271Y-109493208D01*
X188624038Y-109382232D01*
X188644497Y-109260626D01*
X188644627Y-109250000D01*
X188642596Y-109235814D01*
X188628418Y-109136817D01*
X188628417Y-109136815D01*
X188627145Y-109127930D01*
X188576105Y-109015674D01*
X188495610Y-108922255D01*
X188392131Y-108855183D01*
X188383529Y-108852611D01*
X188383526Y-108852609D01*
X188282589Y-108822423D01*
X188282590Y-108822423D01*
X188273986Y-108819850D01*
X188265010Y-108819795D01*
X188265009Y-108819795D01*
X188214036Y-108819484D01*
X188150674Y-108819097D01*
X188032106Y-108852984D01*
X187927815Y-108918786D01*
X187846185Y-109011215D01*
X187793777Y-109122840D01*
X187792397Y-109131705D01*
X187792396Y-109131707D01*
X187791601Y-109136817D01*
X187774805Y-109244686D01*
X174401000Y-109244686D01*
X174401000Y-108244686D01*
X182265105Y-108244686D01*
X182266269Y-108253587D01*
X182266269Y-108253591D01*
X182271766Y-108295623D01*
X182281095Y-108366960D01*
X182330759Y-108479832D01*
X182410107Y-108574228D01*
X182512759Y-108642559D01*
X182521329Y-108645236D01*
X182521328Y-108645236D01*
X182617993Y-108675436D01*
X182630463Y-108679332D01*
X182639433Y-108679496D01*
X182639437Y-108679497D01*
X182695133Y-108680517D01*
X182753758Y-108681592D01*
X182813244Y-108665374D01*
X182864067Y-108651518D01*
X182864068Y-108651518D01*
X182872730Y-108649156D01*
X182880382Y-108644458D01*
X182970165Y-108589332D01*
X182970168Y-108589329D01*
X182977817Y-108584633D01*
X183026821Y-108530494D01*
X183087364Y-108493414D01*
X183158344Y-108494952D01*
X183216686Y-108533976D01*
X183263218Y-108589332D01*
X183275907Y-108604428D01*
X183378559Y-108672759D01*
X183496263Y-108709532D01*
X183505233Y-108709696D01*
X183505237Y-108709697D01*
X183560933Y-108710717D01*
X183619558Y-108711792D01*
X183679044Y-108695574D01*
X183729867Y-108681718D01*
X183729868Y-108681718D01*
X183738530Y-108679356D01*
X183746182Y-108674658D01*
X183835965Y-108619532D01*
X183835968Y-108619529D01*
X183843617Y-108614833D01*
X183853036Y-108604428D01*
X183920343Y-108530068D01*
X183920344Y-108530066D01*
X183926371Y-108523408D01*
X183944920Y-108485124D01*
X183976224Y-108420511D01*
X183976224Y-108420510D01*
X183980138Y-108412432D01*
X184000597Y-108290826D01*
X184000727Y-108280200D01*
X184000027Y-108275308D01*
X183984518Y-108167017D01*
X183984517Y-108167015D01*
X183983245Y-108158130D01*
X183953727Y-108093208D01*
X183935922Y-108054048D01*
X183935920Y-108054045D01*
X183932205Y-108045874D01*
X183851710Y-107952455D01*
X183748231Y-107885383D01*
X183739629Y-107882811D01*
X183739626Y-107882809D01*
X183649192Y-107855764D01*
X183630086Y-107850050D01*
X183621110Y-107849995D01*
X183621109Y-107849995D01*
X183570136Y-107849684D01*
X183506774Y-107849297D01*
X183388206Y-107883184D01*
X183283915Y-107948986D01*
X183240347Y-107998318D01*
X183180261Y-108036137D01*
X183109268Y-108035467D01*
X183050452Y-107997159D01*
X182991770Y-107929055D01*
X182991767Y-107929052D01*
X182985910Y-107922255D01*
X182882431Y-107855183D01*
X182873829Y-107852611D01*
X182873826Y-107852609D01*
X182847333Y-107844686D01*
X198065105Y-107844686D01*
X198066269Y-107853587D01*
X198066269Y-107853591D01*
X198079198Y-107952455D01*
X198081095Y-107966960D01*
X198130759Y-108079832D01*
X198178660Y-108136817D01*
X198204046Y-108167017D01*
X198210107Y-108174228D01*
X198312759Y-108242559D01*
X198430463Y-108279332D01*
X198439433Y-108279496D01*
X198439437Y-108279497D01*
X198495133Y-108280517D01*
X198553758Y-108281592D01*
X198576807Y-108275308D01*
X198647787Y-108276687D01*
X198706757Y-108316223D01*
X198730333Y-108361134D01*
X198731095Y-108366960D01*
X198780759Y-108479832D01*
X198860107Y-108574228D01*
X198962759Y-108642559D01*
X198971329Y-108645236D01*
X198971328Y-108645236D01*
X199067993Y-108675436D01*
X199080463Y-108679332D01*
X199089433Y-108679496D01*
X199089437Y-108679497D01*
X199145133Y-108680517D01*
X199203758Y-108681592D01*
X199263244Y-108665374D01*
X199314067Y-108651518D01*
X199314068Y-108651518D01*
X199322730Y-108649156D01*
X199330382Y-108644458D01*
X199420165Y-108589332D01*
X199420168Y-108589329D01*
X199427817Y-108584633D01*
X199437236Y-108574228D01*
X199504543Y-108499868D01*
X199504544Y-108499866D01*
X199510571Y-108493208D01*
X199549707Y-108412432D01*
X199560424Y-108390311D01*
X199560424Y-108390310D01*
X199564338Y-108382232D01*
X199584797Y-108260626D01*
X199584927Y-108250000D01*
X199584134Y-108244458D01*
X199568718Y-108136817D01*
X199568717Y-108136815D01*
X199567445Y-108127930D01*
X199545576Y-108079832D01*
X199520122Y-108023848D01*
X199520120Y-108023845D01*
X199516405Y-108015674D01*
X199435910Y-107922255D01*
X199332431Y-107855183D01*
X199323829Y-107852611D01*
X199323826Y-107852609D01*
X199297333Y-107844686D01*
X203315105Y-107844686D01*
X203316269Y-107853587D01*
X203316269Y-107853591D01*
X203329198Y-107952455D01*
X203331095Y-107966960D01*
X203380759Y-108079832D01*
X203428660Y-108136817D01*
X203454046Y-108167017D01*
X203460107Y-108174228D01*
X203562759Y-108242559D01*
X203680463Y-108279332D01*
X203689433Y-108279496D01*
X203689437Y-108279497D01*
X203745133Y-108280517D01*
X203803758Y-108281592D01*
X203906463Y-108253591D01*
X203914067Y-108251518D01*
X203914068Y-108251518D01*
X203922730Y-108249156D01*
X203930382Y-108244458D01*
X204020165Y-108189332D01*
X204020168Y-108189329D01*
X204027817Y-108184633D01*
X204037236Y-108174228D01*
X204104543Y-108099868D01*
X204104544Y-108099866D01*
X204110571Y-108093208D01*
X204135665Y-108041415D01*
X204160424Y-107990311D01*
X204160424Y-107990310D01*
X204164338Y-107982232D01*
X204184797Y-107860626D01*
X204184927Y-107850000D01*
X204182896Y-107835814D01*
X204168718Y-107736817D01*
X204168717Y-107736815D01*
X204167445Y-107727930D01*
X204116405Y-107615674D01*
X204035910Y-107522255D01*
X203932431Y-107455183D01*
X203923829Y-107452611D01*
X203923826Y-107452609D01*
X203822889Y-107422423D01*
X203822890Y-107422423D01*
X203814286Y-107419850D01*
X203805310Y-107419795D01*
X203805309Y-107419795D01*
X203754336Y-107419484D01*
X203690974Y-107419097D01*
X203572406Y-107452984D01*
X203468115Y-107518786D01*
X203386485Y-107611215D01*
X203334077Y-107722840D01*
X203332697Y-107731705D01*
X203332696Y-107731707D01*
X203318362Y-107823771D01*
X203315105Y-107844686D01*
X199297333Y-107844686D01*
X199244154Y-107828782D01*
X199214286Y-107819850D01*
X199205310Y-107819795D01*
X199205309Y-107819795D01*
X199154336Y-107819484D01*
X199090974Y-107819097D01*
X199074620Y-107823771D01*
X199003625Y-107823259D01*
X198944177Y-107784445D01*
X198919059Y-107737984D01*
X198918718Y-107736817D01*
X198917445Y-107727930D01*
X198866405Y-107615674D01*
X198785910Y-107522255D01*
X198682431Y-107455183D01*
X198673829Y-107452611D01*
X198673826Y-107452609D01*
X198572889Y-107422423D01*
X198572890Y-107422423D01*
X198564286Y-107419850D01*
X198555310Y-107419795D01*
X198555309Y-107419795D01*
X198504336Y-107419484D01*
X198440974Y-107419097D01*
X198322406Y-107452984D01*
X198218115Y-107518786D01*
X198136485Y-107611215D01*
X198084077Y-107722840D01*
X198082697Y-107731705D01*
X198082696Y-107731707D01*
X198068362Y-107823771D01*
X198065105Y-107844686D01*
X182847333Y-107844686D01*
X182794154Y-107828782D01*
X182764286Y-107819850D01*
X182755310Y-107819795D01*
X182755309Y-107819795D01*
X182704336Y-107819484D01*
X182640974Y-107819097D01*
X182522406Y-107852984D01*
X182418115Y-107918786D01*
X182336485Y-108011215D01*
X182284077Y-108122840D01*
X182282697Y-108131705D01*
X182282696Y-108131707D01*
X182268815Y-108220860D01*
X182265105Y-108244686D01*
X174401000Y-108244686D01*
X174401000Y-106944686D01*
X187115105Y-106944686D01*
X187116269Y-106953587D01*
X187116269Y-106953591D01*
X187123092Y-107005764D01*
X187131095Y-107066960D01*
X187180759Y-107179832D01*
X187260107Y-107274228D01*
X187267585Y-107279205D01*
X187267584Y-107279205D01*
X187342698Y-107329205D01*
X187362759Y-107342559D01*
X187480463Y-107379332D01*
X187489433Y-107379496D01*
X187489437Y-107379497D01*
X187545133Y-107380517D01*
X187603758Y-107381592D01*
X187663244Y-107365374D01*
X187714067Y-107351518D01*
X187714068Y-107351518D01*
X187722730Y-107349156D01*
X187730382Y-107344458D01*
X187820165Y-107289332D01*
X187820168Y-107289329D01*
X187827817Y-107284633D01*
X187837236Y-107274228D01*
X187904543Y-107199868D01*
X187904544Y-107199866D01*
X187910571Y-107193208D01*
X187940114Y-107132232D01*
X187960424Y-107090311D01*
X187960424Y-107090310D01*
X187964338Y-107082232D01*
X187979067Y-106994686D01*
X207965105Y-106994686D01*
X207966269Y-107003587D01*
X207966269Y-107003591D01*
X207977610Y-107090311D01*
X207981095Y-107116960D01*
X208030759Y-107229832D01*
X208110107Y-107324228D01*
X208132797Y-107339332D01*
X208196284Y-107381592D01*
X208212759Y-107392559D01*
X208221329Y-107395236D01*
X208221328Y-107395236D01*
X208299937Y-107419795D01*
X208330463Y-107429332D01*
X208339433Y-107429496D01*
X208339437Y-107429497D01*
X208395133Y-107430517D01*
X208453758Y-107431592D01*
X208513244Y-107415374D01*
X208564067Y-107401518D01*
X208564068Y-107401518D01*
X208572730Y-107399156D01*
X208580382Y-107394458D01*
X208670165Y-107339332D01*
X208670168Y-107339329D01*
X208677817Y-107334633D01*
X208687236Y-107324228D01*
X208754543Y-107249868D01*
X208754544Y-107249866D01*
X208760571Y-107243208D01*
X208788713Y-107185124D01*
X208810424Y-107140311D01*
X208810424Y-107140310D01*
X208814338Y-107132232D01*
X208834797Y-107010626D01*
X208834927Y-107000000D01*
X208832896Y-106985814D01*
X208818718Y-106886817D01*
X208818717Y-106886815D01*
X208817445Y-106877930D01*
X208766405Y-106765674D01*
X208685910Y-106672255D01*
X208582431Y-106605183D01*
X208573829Y-106602611D01*
X208573826Y-106602609D01*
X208472889Y-106572423D01*
X208472890Y-106572423D01*
X208464286Y-106569850D01*
X208455310Y-106569795D01*
X208455309Y-106569795D01*
X208404336Y-106569484D01*
X208340974Y-106569097D01*
X208222406Y-106602984D01*
X208118115Y-106668786D01*
X208036485Y-106761215D01*
X207984077Y-106872840D01*
X207982697Y-106881705D01*
X207982696Y-106881707D01*
X207971504Y-106953591D01*
X207965105Y-106994686D01*
X187979067Y-106994686D01*
X187984797Y-106960626D01*
X187984927Y-106950000D01*
X187982896Y-106935814D01*
X187968718Y-106836817D01*
X187968717Y-106836815D01*
X187967445Y-106827930D01*
X187939139Y-106765674D01*
X187920122Y-106723848D01*
X187920120Y-106723845D01*
X187916405Y-106715674D01*
X187835910Y-106622255D01*
X187732431Y-106555183D01*
X187723829Y-106552611D01*
X187723826Y-106552609D01*
X187622889Y-106522423D01*
X187622890Y-106522423D01*
X187614286Y-106519850D01*
X187605310Y-106519795D01*
X187605309Y-106519795D01*
X187554336Y-106519484D01*
X187490974Y-106519097D01*
X187372406Y-106552984D01*
X187268115Y-106618786D01*
X187186485Y-106711215D01*
X187134077Y-106822840D01*
X187132697Y-106831705D01*
X187132696Y-106831707D01*
X187126292Y-106872840D01*
X187115105Y-106944686D01*
X174401000Y-106944686D01*
X174401000Y-105298786D01*
X198116905Y-105298786D01*
X198118069Y-105307687D01*
X198118069Y-105307691D01*
X198131719Y-105412071D01*
X198132895Y-105421060D01*
X198182559Y-105533932D01*
X198261907Y-105628328D01*
X198364559Y-105696659D01*
X198482263Y-105733432D01*
X198491233Y-105733596D01*
X198491237Y-105733597D01*
X198546933Y-105734617D01*
X198605558Y-105735692D01*
X198665044Y-105719474D01*
X198715867Y-105705618D01*
X198715868Y-105705618D01*
X198724530Y-105703256D01*
X198732182Y-105698558D01*
X198821965Y-105643432D01*
X198821968Y-105643429D01*
X198829617Y-105638733D01*
X198839036Y-105628328D01*
X198906343Y-105553968D01*
X198906344Y-105553966D01*
X198912371Y-105547308D01*
X198966138Y-105436332D01*
X198986597Y-105314726D01*
X198986727Y-105304100D01*
X198984696Y-105289914D01*
X198970518Y-105190917D01*
X198970517Y-105190915D01*
X198969245Y-105182030D01*
X198926916Y-105088932D01*
X198921922Y-105077948D01*
X198921920Y-105077945D01*
X198918205Y-105069774D01*
X198837710Y-104976355D01*
X198734231Y-104909283D01*
X198725629Y-104906711D01*
X198725626Y-104906709D01*
X198645954Y-104882882D01*
X198616086Y-104873950D01*
X198607110Y-104873895D01*
X198607109Y-104873895D01*
X198556136Y-104873584D01*
X198492774Y-104873197D01*
X198374206Y-104907084D01*
X198269915Y-104972886D01*
X198263973Y-104979614D01*
X198263972Y-104979615D01*
X198249187Y-104996356D01*
X198188285Y-105065315D01*
X198135877Y-105176940D01*
X198134497Y-105185805D01*
X198134496Y-105185807D01*
X198133701Y-105190917D01*
X198116905Y-105298786D01*
X174401000Y-105298786D01*
X174401000Y-104591886D01*
X196110305Y-104591886D01*
X196111469Y-104600787D01*
X196111469Y-104600791D01*
X196114966Y-104627530D01*
X196126295Y-104714160D01*
X196175959Y-104827032D01*
X196255307Y-104921428D01*
X196357959Y-104989759D01*
X196475663Y-105026532D01*
X196484633Y-105026696D01*
X196484637Y-105026697D01*
X196540333Y-105027717D01*
X196598958Y-105028792D01*
X196658444Y-105012574D01*
X196709267Y-104998718D01*
X196709268Y-104998718D01*
X196717930Y-104996356D01*
X196725582Y-104991658D01*
X196815365Y-104936532D01*
X196815368Y-104936529D01*
X196823017Y-104931833D01*
X196832436Y-104921428D01*
X196899743Y-104847068D01*
X196899744Y-104847066D01*
X196905771Y-104840408D01*
X196942295Y-104765023D01*
X196952342Y-104744286D01*
X201876105Y-104744286D01*
X201877269Y-104753187D01*
X201877269Y-104753191D01*
X201888675Y-104840408D01*
X201892095Y-104866560D01*
X201941759Y-104979432D01*
X202021107Y-105073828D01*
X202123759Y-105142159D01*
X202132329Y-105144836D01*
X202132328Y-105144836D01*
X202209087Y-105168817D01*
X202241463Y-105178932D01*
X202250433Y-105179096D01*
X202250437Y-105179097D01*
X202306133Y-105180117D01*
X202364758Y-105181192D01*
X202424244Y-105164974D01*
X202475067Y-105151118D01*
X202475068Y-105151118D01*
X202483730Y-105148756D01*
X202491382Y-105144058D01*
X202581165Y-105088932D01*
X202581168Y-105088929D01*
X202588817Y-105084233D01*
X202598236Y-105073828D01*
X202665543Y-104999468D01*
X202665544Y-104999466D01*
X202671571Y-104992808D01*
X202679543Y-104976355D01*
X202721424Y-104889911D01*
X202721424Y-104889910D01*
X202725338Y-104881832D01*
X202745797Y-104760226D01*
X202745927Y-104749600D01*
X202745166Y-104744286D01*
X204644705Y-104744286D01*
X204645869Y-104753187D01*
X204645869Y-104753191D01*
X204657275Y-104840408D01*
X204660695Y-104866560D01*
X204710359Y-104979432D01*
X204789707Y-105073828D01*
X204892359Y-105142159D01*
X204900929Y-105144836D01*
X204900928Y-105144836D01*
X204977687Y-105168817D01*
X205010063Y-105178932D01*
X205019033Y-105179096D01*
X205019037Y-105179097D01*
X205074733Y-105180117D01*
X205133358Y-105181192D01*
X205192844Y-105164974D01*
X205243667Y-105151118D01*
X205243668Y-105151118D01*
X205252330Y-105148756D01*
X205259982Y-105144058D01*
X205349765Y-105088932D01*
X205349768Y-105088929D01*
X205357417Y-105084233D01*
X205366836Y-105073828D01*
X205434143Y-104999468D01*
X205434144Y-104999466D01*
X205440171Y-104992808D01*
X205448143Y-104976355D01*
X205490024Y-104889911D01*
X205490024Y-104889910D01*
X205493938Y-104881832D01*
X205514397Y-104760226D01*
X205514527Y-104749600D01*
X205512496Y-104735414D01*
X205498318Y-104636417D01*
X205498317Y-104636415D01*
X205497045Y-104627530D01*
X205446005Y-104515274D01*
X205365510Y-104421855D01*
X205262031Y-104354783D01*
X205253429Y-104352211D01*
X205253426Y-104352209D01*
X205152489Y-104322023D01*
X205152490Y-104322023D01*
X205143886Y-104319450D01*
X205134910Y-104319395D01*
X205134909Y-104319395D01*
X205083936Y-104319084D01*
X205020574Y-104318697D01*
X204902006Y-104352584D01*
X204797715Y-104418386D01*
X204716085Y-104510815D01*
X204663677Y-104622440D01*
X204662297Y-104631305D01*
X204662296Y-104631307D01*
X204647018Y-104729432D01*
X204644705Y-104744286D01*
X202745166Y-104744286D01*
X202743896Y-104735414D01*
X202729718Y-104636417D01*
X202729717Y-104636415D01*
X202728445Y-104627530D01*
X202677405Y-104515274D01*
X202596910Y-104421855D01*
X202493431Y-104354783D01*
X202484829Y-104352211D01*
X202484826Y-104352209D01*
X202383889Y-104322023D01*
X202383890Y-104322023D01*
X202375286Y-104319450D01*
X202366310Y-104319395D01*
X202366309Y-104319395D01*
X202315336Y-104319084D01*
X202251974Y-104318697D01*
X202133406Y-104352584D01*
X202029115Y-104418386D01*
X201947485Y-104510815D01*
X201895077Y-104622440D01*
X201893697Y-104631305D01*
X201893696Y-104631307D01*
X201878418Y-104729432D01*
X201876105Y-104744286D01*
X196952342Y-104744286D01*
X196955624Y-104737511D01*
X196955624Y-104737510D01*
X196959538Y-104729432D01*
X196979997Y-104607826D01*
X196980127Y-104597200D01*
X196978096Y-104583014D01*
X196963918Y-104484017D01*
X196963917Y-104484015D01*
X196962645Y-104475130D01*
X196911605Y-104362874D01*
X196831110Y-104269455D01*
X196727631Y-104202383D01*
X196719029Y-104199811D01*
X196719026Y-104199809D01*
X196618089Y-104169623D01*
X196618090Y-104169623D01*
X196609486Y-104167050D01*
X196600510Y-104166995D01*
X196600509Y-104166995D01*
X196549536Y-104166684D01*
X196486174Y-104166297D01*
X196367606Y-104200184D01*
X196263315Y-104265986D01*
X196181685Y-104358415D01*
X196129277Y-104470040D01*
X196127897Y-104478905D01*
X196127896Y-104478907D01*
X196121663Y-104518941D01*
X196110305Y-104591886D01*
X174401000Y-104591886D01*
X174401000Y-102794686D01*
X193515105Y-102794686D01*
X193516269Y-102803587D01*
X193516269Y-102803591D01*
X193527958Y-102892972D01*
X193531095Y-102916960D01*
X193580759Y-103029832D01*
X193660107Y-103124228D01*
X193762759Y-103192559D01*
X193771329Y-103195236D01*
X193771328Y-103195236D01*
X193871565Y-103226552D01*
X193880463Y-103229332D01*
X193889433Y-103229496D01*
X193889437Y-103229497D01*
X193945133Y-103230517D01*
X194003758Y-103231592D01*
X194077769Y-103211414D01*
X194114067Y-103201518D01*
X194114068Y-103201518D01*
X194122730Y-103199156D01*
X194130382Y-103194458D01*
X194220165Y-103139332D01*
X194220168Y-103139329D01*
X194227817Y-103134633D01*
X194237236Y-103124228D01*
X194304543Y-103049868D01*
X194304544Y-103049866D01*
X194310571Y-103043208D01*
X194315220Y-103033614D01*
X194360424Y-102940311D01*
X194360424Y-102940310D01*
X194364338Y-102932232D01*
X194382393Y-102824915D01*
X194383990Y-102815423D01*
X194383990Y-102815422D01*
X194384797Y-102810626D01*
X194384927Y-102800000D01*
X194384176Y-102794752D01*
X194368718Y-102686817D01*
X194368717Y-102686815D01*
X194367445Y-102677930D01*
X194316405Y-102565674D01*
X194235910Y-102472255D01*
X194132431Y-102405183D01*
X194123829Y-102402611D01*
X194123826Y-102402609D01*
X194022889Y-102372423D01*
X194022890Y-102372423D01*
X194014286Y-102369850D01*
X194005310Y-102369795D01*
X194005309Y-102369795D01*
X193954336Y-102369484D01*
X193890974Y-102369097D01*
X193772406Y-102402984D01*
X193668115Y-102468786D01*
X193586485Y-102561215D01*
X193534077Y-102672840D01*
X193532697Y-102681705D01*
X193532696Y-102681707D01*
X193521692Y-102752384D01*
X193515105Y-102794686D01*
X174401000Y-102794686D01*
X174401000Y-102229686D01*
X196135705Y-102229686D01*
X196136869Y-102238587D01*
X196136869Y-102238591D01*
X196150519Y-102342971D01*
X196151695Y-102351960D01*
X196201359Y-102464832D01*
X196280707Y-102559228D01*
X196383359Y-102627559D01*
X196391929Y-102630236D01*
X196391928Y-102630236D01*
X196489883Y-102660839D01*
X196501063Y-102664332D01*
X196510033Y-102664496D01*
X196510037Y-102664497D01*
X196565733Y-102665517D01*
X196624358Y-102666592D01*
X196743330Y-102634156D01*
X196744093Y-102636954D01*
X196799957Y-102630060D01*
X196863935Y-102660839D01*
X196901116Y-102721321D01*
X196899696Y-102792304D01*
X196891965Y-102808583D01*
X196892885Y-102809015D01*
X196840477Y-102920640D01*
X196839097Y-102929505D01*
X196839096Y-102929507D01*
X196823277Y-103031107D01*
X196821505Y-103042486D01*
X196822669Y-103051387D01*
X196822669Y-103051391D01*
X196832685Y-103127976D01*
X196837495Y-103164760D01*
X196887159Y-103277632D01*
X196966507Y-103372028D01*
X196987653Y-103386104D01*
X197036494Y-103418615D01*
X197069159Y-103440359D01*
X197186863Y-103477132D01*
X197195833Y-103477296D01*
X197195837Y-103477297D01*
X197251533Y-103478317D01*
X197310158Y-103479392D01*
X197398041Y-103455432D01*
X197420467Y-103449318D01*
X197420468Y-103449318D01*
X197429130Y-103446956D01*
X197436782Y-103442258D01*
X197526565Y-103387132D01*
X197526568Y-103387129D01*
X197534217Y-103382433D01*
X197543636Y-103372028D01*
X197610943Y-103297668D01*
X197610944Y-103297666D01*
X197616971Y-103291008D01*
X197625803Y-103272780D01*
X197666824Y-103188111D01*
X197666824Y-103188110D01*
X197670738Y-103180032D01*
X197676786Y-103144086D01*
X198116905Y-103144086D01*
X198118069Y-103152987D01*
X198118069Y-103152991D01*
X198128327Y-103231427D01*
X198132895Y-103266360D01*
X198182559Y-103379232D01*
X198261907Y-103473628D01*
X198364559Y-103541959D01*
X198393235Y-103550918D01*
X198438092Y-103564932D01*
X198482263Y-103578732D01*
X198491233Y-103578896D01*
X198491237Y-103578897D01*
X198546933Y-103579917D01*
X198605558Y-103580992D01*
X198681700Y-103560233D01*
X198715867Y-103550918D01*
X198715868Y-103550918D01*
X198724530Y-103548556D01*
X198732182Y-103543858D01*
X198821965Y-103488732D01*
X198821968Y-103488729D01*
X198829617Y-103484033D01*
X198835715Y-103477297D01*
X198906343Y-103399268D01*
X198906344Y-103399266D01*
X198912371Y-103392608D01*
X198925306Y-103365911D01*
X198962224Y-103289711D01*
X198962224Y-103289710D01*
X198966138Y-103281632D01*
X198976459Y-103220286D01*
X199386905Y-103220286D01*
X199388069Y-103229187D01*
X199388069Y-103229191D01*
X199394004Y-103274575D01*
X199402895Y-103342560D01*
X199452559Y-103455432D01*
X199476601Y-103484033D01*
X199521111Y-103536984D01*
X199531907Y-103549828D01*
X199634559Y-103618159D01*
X199752263Y-103654932D01*
X199761233Y-103655096D01*
X199761237Y-103655097D01*
X199816933Y-103656117D01*
X199875558Y-103657192D01*
X199894286Y-103652086D01*
X200783905Y-103652086D01*
X200785069Y-103660987D01*
X200785069Y-103660991D01*
X200798719Y-103765371D01*
X200799895Y-103774360D01*
X200849559Y-103887232D01*
X200928907Y-103981628D01*
X201031559Y-104049959D01*
X201149263Y-104086732D01*
X201158233Y-104086896D01*
X201158237Y-104086897D01*
X201213933Y-104087917D01*
X201272558Y-104088992D01*
X201332044Y-104072774D01*
X201382867Y-104058918D01*
X201382868Y-104058918D01*
X201391530Y-104056556D01*
X201399182Y-104051858D01*
X201488965Y-103996732D01*
X201488968Y-103996729D01*
X201496617Y-103992033D01*
X201506036Y-103981628D01*
X201573343Y-103907268D01*
X201573344Y-103907266D01*
X201579371Y-103900608D01*
X201633138Y-103789632D01*
X201653597Y-103668026D01*
X201653727Y-103657400D01*
X201651696Y-103643214D01*
X201637518Y-103544217D01*
X201637517Y-103544215D01*
X201636245Y-103535330D01*
X201609784Y-103477132D01*
X201588922Y-103431248D01*
X201588920Y-103431245D01*
X201585205Y-103423074D01*
X201504710Y-103329655D01*
X201401231Y-103262583D01*
X201392629Y-103260011D01*
X201392626Y-103260009D01*
X201312954Y-103236182D01*
X201283086Y-103227250D01*
X201274110Y-103227195D01*
X201274109Y-103227195D01*
X201223136Y-103226884D01*
X201159774Y-103226497D01*
X201041206Y-103260384D01*
X200936915Y-103326186D01*
X200855285Y-103418615D01*
X200802877Y-103530240D01*
X200801497Y-103539105D01*
X200801496Y-103539107D01*
X200787793Y-103627118D01*
X200783905Y-103652086D01*
X199894286Y-103652086D01*
X199935044Y-103640974D01*
X199985867Y-103627118D01*
X199985868Y-103627118D01*
X199994530Y-103624756D01*
X200002182Y-103620058D01*
X200091965Y-103564932D01*
X200091968Y-103564929D01*
X200099617Y-103560233D01*
X200109036Y-103549828D01*
X200176343Y-103475468D01*
X200176344Y-103475466D01*
X200182371Y-103468808D01*
X200194858Y-103443036D01*
X200232224Y-103365911D01*
X200232224Y-103365910D01*
X200236138Y-103357832D01*
X200256597Y-103236226D01*
X200256727Y-103225600D01*
X200254696Y-103211414D01*
X200240518Y-103112417D01*
X200240517Y-103112415D01*
X200239245Y-103103530D01*
X200208861Y-103036704D01*
X200191922Y-102999448D01*
X200191920Y-102999445D01*
X200188205Y-102991274D01*
X200107710Y-102897855D01*
X200004231Y-102830783D01*
X199995629Y-102828211D01*
X199995626Y-102828209D01*
X199915954Y-102804382D01*
X199886086Y-102795450D01*
X199877110Y-102795395D01*
X199877109Y-102795395D01*
X199826136Y-102795084D01*
X199762774Y-102794697D01*
X199644206Y-102828584D01*
X199539915Y-102894386D01*
X199533973Y-102901114D01*
X199533972Y-102901115D01*
X199512723Y-102925175D01*
X199458285Y-102986815D01*
X199405877Y-103098440D01*
X199404497Y-103107305D01*
X199404496Y-103107307D01*
X199390927Y-103194458D01*
X199386905Y-103220286D01*
X198976459Y-103220286D01*
X198986597Y-103160026D01*
X198986727Y-103149400D01*
X198984696Y-103135214D01*
X198970518Y-103036217D01*
X198970517Y-103036215D01*
X198969245Y-103027330D01*
X198927091Y-102934617D01*
X198921922Y-102923248D01*
X198921920Y-102923245D01*
X198918205Y-102915074D01*
X198837710Y-102821655D01*
X198734231Y-102754583D01*
X198725629Y-102752011D01*
X198725626Y-102752009D01*
X198624689Y-102721823D01*
X198624690Y-102721823D01*
X198616086Y-102719250D01*
X198607110Y-102719195D01*
X198607109Y-102719195D01*
X198556136Y-102718884D01*
X198492774Y-102718497D01*
X198374206Y-102752384D01*
X198269915Y-102818186D01*
X198188285Y-102910615D01*
X198135877Y-103022240D01*
X198134497Y-103031105D01*
X198134496Y-103031107D01*
X198118377Y-103134633D01*
X198116905Y-103144086D01*
X197676786Y-103144086D01*
X197691197Y-103058426D01*
X197691327Y-103047800D01*
X197689296Y-103033614D01*
X197675118Y-102934617D01*
X197675117Y-102934615D01*
X197673845Y-102925730D01*
X197630675Y-102830783D01*
X197626522Y-102821648D01*
X197626520Y-102821645D01*
X197622805Y-102813474D01*
X197542310Y-102720055D01*
X197438831Y-102652983D01*
X197430229Y-102650411D01*
X197430226Y-102650409D01*
X197329289Y-102620223D01*
X197329290Y-102620223D01*
X197320686Y-102617650D01*
X197311710Y-102617595D01*
X197311709Y-102617595D01*
X197260736Y-102617284D01*
X197197374Y-102616897D01*
X197081224Y-102650093D01*
X197010229Y-102649581D01*
X196950781Y-102610767D01*
X196921755Y-102545975D01*
X196933206Y-102474009D01*
X196984938Y-102367232D01*
X197005397Y-102245626D01*
X197005527Y-102235000D01*
X197003496Y-102220814D01*
X196989318Y-102121817D01*
X196989317Y-102121815D01*
X196988045Y-102112930D01*
X196945716Y-102019832D01*
X196940722Y-102008848D01*
X196940720Y-102008845D01*
X196937005Y-102000674D01*
X196856510Y-101907255D01*
X196753031Y-101840183D01*
X196744429Y-101837611D01*
X196744426Y-101837609D01*
X196664754Y-101813782D01*
X196634886Y-101804850D01*
X196625910Y-101804795D01*
X196625909Y-101804795D01*
X196574936Y-101804484D01*
X196511574Y-101804097D01*
X196393006Y-101837984D01*
X196288715Y-101903786D01*
X196282773Y-101910514D01*
X196282772Y-101910515D01*
X196265239Y-101930368D01*
X196207085Y-101996215D01*
X196154677Y-102107840D01*
X196153297Y-102116705D01*
X196153296Y-102116707D01*
X196152501Y-102121817D01*
X196135705Y-102229686D01*
X174401000Y-102229686D01*
X174401000Y-101675186D01*
X193665105Y-101675186D01*
X193666269Y-101684087D01*
X193666269Y-101684091D01*
X193679919Y-101788471D01*
X193681095Y-101797460D01*
X193730759Y-101910332D01*
X193810107Y-102004728D01*
X193912759Y-102073059D01*
X193921329Y-102075736D01*
X193921328Y-102075736D01*
X193998087Y-102099717D01*
X194030463Y-102109832D01*
X194039433Y-102109996D01*
X194039437Y-102109997D01*
X194095133Y-102111017D01*
X194153758Y-102112092D01*
X194213244Y-102095874D01*
X194264067Y-102082018D01*
X194264068Y-102082018D01*
X194272730Y-102079656D01*
X194280382Y-102074958D01*
X194370165Y-102019832D01*
X194370168Y-102019829D01*
X194377817Y-102015133D01*
X194387236Y-102004728D01*
X194454543Y-101930368D01*
X194454544Y-101930366D01*
X194460571Y-101923708D01*
X194468543Y-101907255D01*
X194510424Y-101820811D01*
X194510424Y-101820810D01*
X194514338Y-101812732D01*
X194534797Y-101691126D01*
X194534927Y-101680500D01*
X194532896Y-101666314D01*
X194518718Y-101567317D01*
X194518717Y-101567315D01*
X194517445Y-101558430D01*
X194466405Y-101446174D01*
X194385910Y-101352755D01*
X194282431Y-101285683D01*
X194273829Y-101283111D01*
X194273826Y-101283109D01*
X194172889Y-101252923D01*
X194172890Y-101252923D01*
X194164286Y-101250350D01*
X194155310Y-101250295D01*
X194155309Y-101250295D01*
X194104336Y-101249984D01*
X194040974Y-101249597D01*
X193922406Y-101283484D01*
X193818115Y-101349286D01*
X193736485Y-101441715D01*
X193684077Y-101553340D01*
X193682697Y-101562205D01*
X193682696Y-101562207D01*
X193681901Y-101567317D01*
X193665105Y-101675186D01*
X174401000Y-101675186D01*
X174401000Y-100744686D01*
X177215105Y-100744686D01*
X177216269Y-100753587D01*
X177216269Y-100753591D01*
X177222228Y-100799156D01*
X177231095Y-100866960D01*
X177280759Y-100979832D01*
X177360107Y-101074228D01*
X177462759Y-101142559D01*
X177580463Y-101179332D01*
X177589433Y-101179496D01*
X177589437Y-101179497D01*
X177645133Y-101180517D01*
X177703758Y-101181592D01*
X177763244Y-101165374D01*
X177814067Y-101151518D01*
X177814068Y-101151518D01*
X177822730Y-101149156D01*
X177830382Y-101144458D01*
X177920165Y-101089332D01*
X177920168Y-101089329D01*
X177927817Y-101084633D01*
X177937236Y-101074228D01*
X178004543Y-100999868D01*
X178004544Y-100999866D01*
X178010571Y-100993208D01*
X178021109Y-100971459D01*
X178060424Y-100890311D01*
X178060424Y-100890310D01*
X178064338Y-100882232D01*
X178068400Y-100858086D01*
X184629505Y-100858086D01*
X184630669Y-100866987D01*
X184630669Y-100866991D01*
X184633719Y-100890311D01*
X184645495Y-100980360D01*
X184695159Y-101093232D01*
X184774507Y-101187628D01*
X184781985Y-101192605D01*
X184781984Y-101192605D01*
X184867602Y-101249597D01*
X184877159Y-101255959D01*
X184885729Y-101258636D01*
X184885728Y-101258636D01*
X184980591Y-101288273D01*
X184994863Y-101292732D01*
X185003833Y-101292896D01*
X185003837Y-101292897D01*
X185059533Y-101293917D01*
X185118158Y-101294992D01*
X185177644Y-101278774D01*
X185228467Y-101264918D01*
X185228468Y-101264918D01*
X185237130Y-101262556D01*
X185244782Y-101257858D01*
X185334565Y-101202732D01*
X185334568Y-101202729D01*
X185342217Y-101198033D01*
X185351636Y-101187628D01*
X185418943Y-101113268D01*
X185418944Y-101113266D01*
X185424971Y-101106608D01*
X185443991Y-101067352D01*
X185474824Y-101003711D01*
X185474824Y-101003710D01*
X185478738Y-100995632D01*
X185499197Y-100874026D01*
X185499327Y-100863400D01*
X185497296Y-100849214D01*
X185483118Y-100750217D01*
X185483117Y-100750215D01*
X185481845Y-100741330D01*
X185440260Y-100649868D01*
X185434522Y-100637248D01*
X185434520Y-100637245D01*
X185430805Y-100629074D01*
X185350310Y-100535655D01*
X185246831Y-100468583D01*
X185238229Y-100466011D01*
X185238226Y-100466009D01*
X185137289Y-100435823D01*
X185137290Y-100435823D01*
X185128686Y-100433250D01*
X185119710Y-100433195D01*
X185119709Y-100433195D01*
X185068736Y-100432884D01*
X185005374Y-100432497D01*
X184886806Y-100466384D01*
X184782515Y-100532186D01*
X184700885Y-100624615D01*
X184648477Y-100736240D01*
X184647097Y-100745105D01*
X184647096Y-100745107D01*
X184638681Y-100799156D01*
X184629505Y-100858086D01*
X178068400Y-100858086D01*
X178084797Y-100760626D01*
X178084927Y-100750000D01*
X178084227Y-100745107D01*
X178068718Y-100636817D01*
X178068717Y-100636815D01*
X178067445Y-100627930D01*
X178016405Y-100515674D01*
X177935910Y-100422255D01*
X177893376Y-100394686D01*
X183265105Y-100394686D01*
X183266269Y-100403587D01*
X183266269Y-100403591D01*
X183279464Y-100504486D01*
X183281095Y-100516960D01*
X183330759Y-100629832D01*
X183410107Y-100724228D01*
X183512759Y-100792559D01*
X183630463Y-100829332D01*
X183639433Y-100829496D01*
X183639437Y-100829497D01*
X183695133Y-100830517D01*
X183753758Y-100831592D01*
X183813244Y-100815374D01*
X183864067Y-100801518D01*
X183864068Y-100801518D01*
X183872730Y-100799156D01*
X183880382Y-100794458D01*
X183970165Y-100739332D01*
X183970168Y-100739329D01*
X183977817Y-100734633D01*
X183987236Y-100724228D01*
X184054543Y-100649868D01*
X184054544Y-100649866D01*
X184060571Y-100643208D01*
X184065643Y-100632741D01*
X184110424Y-100540311D01*
X184110424Y-100540310D01*
X184114338Y-100532232D01*
X184134797Y-100410626D01*
X184134927Y-100400000D01*
X184132896Y-100385814D01*
X184118718Y-100286817D01*
X184118717Y-100286815D01*
X184117445Y-100277930D01*
X184073643Y-100181592D01*
X184070122Y-100173848D01*
X184070120Y-100173845D01*
X184066405Y-100165674D01*
X183985910Y-100072255D01*
X183882431Y-100005183D01*
X183873829Y-100002611D01*
X183873826Y-100002609D01*
X183772889Y-99972423D01*
X183772890Y-99972423D01*
X183764286Y-99969850D01*
X183755310Y-99969795D01*
X183755309Y-99969795D01*
X183704336Y-99969484D01*
X183640974Y-99969097D01*
X183522406Y-100002984D01*
X183418115Y-100068786D01*
X183412173Y-100075514D01*
X183412172Y-100075515D01*
X183377300Y-100115001D01*
X183336485Y-100161215D01*
X183284077Y-100272840D01*
X183282697Y-100281705D01*
X183282696Y-100281707D01*
X183270853Y-100357773D01*
X183265105Y-100394686D01*
X177893376Y-100394686D01*
X177832431Y-100355183D01*
X177823829Y-100352611D01*
X177823826Y-100352609D01*
X177722889Y-100322423D01*
X177722890Y-100322423D01*
X177714286Y-100319850D01*
X177705310Y-100319795D01*
X177705309Y-100319795D01*
X177654336Y-100319484D01*
X177590974Y-100319097D01*
X177472406Y-100352984D01*
X177368115Y-100418786D01*
X177362173Y-100425514D01*
X177362172Y-100425515D01*
X177328256Y-100463918D01*
X177286485Y-100511215D01*
X177234077Y-100622840D01*
X177232697Y-100631705D01*
X177232696Y-100631707D01*
X177216900Y-100733160D01*
X177215105Y-100744686D01*
X174401000Y-100744686D01*
X174401000Y-99602595D01*
X180110605Y-99602595D01*
X180111769Y-99611496D01*
X180111769Y-99611500D01*
X180123161Y-99698609D01*
X180126595Y-99724869D01*
X180176259Y-99837741D01*
X180255607Y-99932137D01*
X180358259Y-100000468D01*
X180475963Y-100037241D01*
X180484933Y-100037405D01*
X180484937Y-100037406D01*
X180540633Y-100038426D01*
X180599258Y-100039501D01*
X180707212Y-100010069D01*
X180709567Y-100009427D01*
X180709568Y-100009427D01*
X180718230Y-100007065D01*
X180728893Y-100000518D01*
X180815665Y-99947241D01*
X180815668Y-99947238D01*
X180823317Y-99942542D01*
X180832736Y-99932137D01*
X180900043Y-99857777D01*
X180900044Y-99857775D01*
X180906071Y-99851117D01*
X180931815Y-99797982D01*
X180955924Y-99748220D01*
X180955924Y-99748219D01*
X180959838Y-99740141D01*
X180980297Y-99618535D01*
X180980427Y-99607909D01*
X180979174Y-99599156D01*
X180964218Y-99494726D01*
X180964217Y-99494724D01*
X180962945Y-99485839D01*
X180952771Y-99463463D01*
X182414886Y-99463463D01*
X182416050Y-99472364D01*
X182416050Y-99472368D01*
X182427918Y-99563118D01*
X182430876Y-99585737D01*
X182480540Y-99698609D01*
X182559888Y-99793005D01*
X182662540Y-99861336D01*
X182780244Y-99898109D01*
X182789214Y-99898273D01*
X182789218Y-99898274D01*
X182844914Y-99899294D01*
X182903539Y-99900369D01*
X183002532Y-99873380D01*
X183013848Y-99870295D01*
X183013849Y-99870295D01*
X183022511Y-99867933D01*
X183030163Y-99863235D01*
X183119946Y-99808109D01*
X183119949Y-99808106D01*
X183127598Y-99803410D01*
X183137017Y-99793005D01*
X183180753Y-99744686D01*
X192315105Y-99744686D01*
X192316269Y-99753587D01*
X192316269Y-99753591D01*
X192327274Y-99837741D01*
X192331095Y-99866960D01*
X192380759Y-99979832D01*
X192460107Y-100074228D01*
X192562759Y-100142559D01*
X192571329Y-100145236D01*
X192571328Y-100145236D01*
X192662910Y-100173848D01*
X192680463Y-100179332D01*
X192689433Y-100179496D01*
X192689437Y-100179497D01*
X192745133Y-100180517D01*
X192803758Y-100181592D01*
X192878499Y-100161215D01*
X192914067Y-100151518D01*
X192914068Y-100151518D01*
X192922730Y-100149156D01*
X192930382Y-100144458D01*
X193020165Y-100089332D01*
X193020168Y-100089329D01*
X193027817Y-100084633D01*
X193036071Y-100075515D01*
X193104543Y-99999868D01*
X193104544Y-99999866D01*
X193110571Y-99993208D01*
X193120642Y-99972423D01*
X193160424Y-99890311D01*
X193160424Y-99890310D01*
X193164338Y-99882232D01*
X193184797Y-99760626D01*
X193184927Y-99750000D01*
X193182896Y-99735814D01*
X193168718Y-99636817D01*
X193168717Y-99636815D01*
X193167445Y-99627930D01*
X193136903Y-99560756D01*
X193120122Y-99523848D01*
X193120120Y-99523845D01*
X193116405Y-99515674D01*
X193035910Y-99422255D01*
X192932431Y-99355183D01*
X192923829Y-99352611D01*
X192923826Y-99352609D01*
X192844154Y-99328782D01*
X192814286Y-99319850D01*
X192805310Y-99319795D01*
X192805309Y-99319795D01*
X192754336Y-99319484D01*
X192690974Y-99319097D01*
X192572406Y-99352984D01*
X192468115Y-99418786D01*
X192462173Y-99425514D01*
X192462172Y-99425515D01*
X192453686Y-99435124D01*
X192386485Y-99511215D01*
X192334077Y-99622840D01*
X192332697Y-99631705D01*
X192332696Y-99631707D01*
X192318191Y-99724869D01*
X192315105Y-99744686D01*
X183180753Y-99744686D01*
X183204324Y-99718645D01*
X183204325Y-99718643D01*
X183210352Y-99711985D01*
X183226093Y-99679497D01*
X183260205Y-99609088D01*
X183260205Y-99609087D01*
X183264119Y-99601009D01*
X183282860Y-99489616D01*
X183283771Y-99484200D01*
X183283771Y-99484199D01*
X183284578Y-99479403D01*
X183284708Y-99468777D01*
X183283368Y-99459416D01*
X183268499Y-99355594D01*
X183268498Y-99355592D01*
X183267226Y-99346707D01*
X183240062Y-99286964D01*
X183219903Y-99242625D01*
X183219901Y-99242622D01*
X183216186Y-99234451D01*
X183135691Y-99141032D01*
X183032212Y-99073960D01*
X183023610Y-99071388D01*
X183023607Y-99071386D01*
X182943935Y-99047559D01*
X182914067Y-99038627D01*
X182905091Y-99038572D01*
X182905090Y-99038572D01*
X182854117Y-99038261D01*
X182790755Y-99037874D01*
X182672187Y-99071761D01*
X182567896Y-99137563D01*
X182561954Y-99144291D01*
X182561953Y-99144292D01*
X182550930Y-99156773D01*
X182486266Y-99229992D01*
X182433858Y-99341617D01*
X182432478Y-99350482D01*
X182432477Y-99350484D01*
X182417003Y-99449868D01*
X182414886Y-99463463D01*
X180952771Y-99463463D01*
X180934035Y-99422255D01*
X180915622Y-99381757D01*
X180915620Y-99381754D01*
X180911905Y-99373583D01*
X180831410Y-99280164D01*
X180727931Y-99213092D01*
X180719329Y-99210520D01*
X180719326Y-99210518D01*
X180618389Y-99180332D01*
X180618390Y-99180332D01*
X180609786Y-99177759D01*
X180600810Y-99177704D01*
X180600809Y-99177704D01*
X180549836Y-99177393D01*
X180486474Y-99177006D01*
X180367906Y-99210893D01*
X180263615Y-99276695D01*
X180181985Y-99369124D01*
X180129577Y-99480749D01*
X180128197Y-99489614D01*
X180128196Y-99489616D01*
X180112095Y-99593027D01*
X180110605Y-99602595D01*
X174401000Y-99602595D01*
X174401000Y-98944686D01*
X177965105Y-98944686D01*
X177966269Y-98953587D01*
X177966269Y-98953591D01*
X177977383Y-99038572D01*
X177981095Y-99066960D01*
X178030759Y-99179832D01*
X178110107Y-99274228D01*
X178212759Y-99342559D01*
X178246128Y-99352984D01*
X178311412Y-99373380D01*
X178330463Y-99379332D01*
X178339433Y-99379496D01*
X178339437Y-99379497D01*
X178395133Y-99380517D01*
X178453758Y-99381592D01*
X178550624Y-99355183D01*
X178564067Y-99351518D01*
X178564068Y-99351518D01*
X178572730Y-99349156D01*
X178580382Y-99344458D01*
X178670165Y-99289332D01*
X178670168Y-99289329D01*
X178677817Y-99284633D01*
X178685003Y-99276695D01*
X178754543Y-99199868D01*
X178754544Y-99199866D01*
X178760571Y-99193208D01*
X178766810Y-99180332D01*
X178810424Y-99090311D01*
X178810424Y-99090310D01*
X178814338Y-99082232D01*
X178834797Y-98960626D01*
X178834927Y-98950000D01*
X178833955Y-98943208D01*
X178819393Y-98841531D01*
X186415810Y-98841531D01*
X186416974Y-98850432D01*
X186416974Y-98850436D01*
X186428256Y-98936704D01*
X186431800Y-98963805D01*
X186481464Y-99076677D01*
X186560812Y-99171073D01*
X186582957Y-99185814D01*
X186649325Y-99229992D01*
X186663464Y-99239404D01*
X186680371Y-99244686D01*
X186752921Y-99267352D01*
X186781168Y-99276177D01*
X186790138Y-99276341D01*
X186790142Y-99276342D01*
X186845838Y-99277362D01*
X186904463Y-99278437D01*
X186969792Y-99260626D01*
X187014772Y-99248363D01*
X187014773Y-99248363D01*
X187023435Y-99246001D01*
X187025577Y-99244686D01*
X195581205Y-99244686D01*
X195582369Y-99253587D01*
X195582369Y-99253591D01*
X195593353Y-99337584D01*
X195597195Y-99366960D01*
X195646859Y-99479832D01*
X195678398Y-99517352D01*
X195711588Y-99556836D01*
X195726207Y-99574228D01*
X195748897Y-99589332D01*
X195812384Y-99631592D01*
X195828859Y-99642559D01*
X195837429Y-99645236D01*
X195837428Y-99645236D01*
X195914219Y-99669227D01*
X195946563Y-99679332D01*
X195955533Y-99679496D01*
X195955537Y-99679497D01*
X196011233Y-99680517D01*
X196069858Y-99681592D01*
X196132715Y-99664455D01*
X196180167Y-99651518D01*
X196180168Y-99651518D01*
X196188830Y-99649156D01*
X196196482Y-99644458D01*
X196286265Y-99589332D01*
X196286268Y-99589329D01*
X196293917Y-99584633D01*
X196303336Y-99574228D01*
X196370643Y-99499868D01*
X196370644Y-99499866D01*
X196376671Y-99493208D01*
X196381036Y-99484200D01*
X196426524Y-99390311D01*
X196426524Y-99390310D01*
X196430438Y-99382232D01*
X196450897Y-99260626D01*
X196451027Y-99250000D01*
X196450106Y-99243564D01*
X196443106Y-99194686D01*
X197165105Y-99194686D01*
X197166269Y-99203587D01*
X197166269Y-99203591D01*
X197179127Y-99301911D01*
X197181095Y-99316960D01*
X197230759Y-99429832D01*
X197310107Y-99524228D01*
X197317585Y-99529205D01*
X197317584Y-99529205D01*
X197392698Y-99579205D01*
X197412759Y-99592559D01*
X197471611Y-99610946D01*
X197499825Y-99619760D01*
X197530463Y-99629332D01*
X197539433Y-99629496D01*
X197539437Y-99629497D01*
X197595133Y-99630517D01*
X197653758Y-99631592D01*
X197722759Y-99612780D01*
X197764067Y-99601518D01*
X197764068Y-99601518D01*
X197772730Y-99599156D01*
X197781579Y-99593723D01*
X197870165Y-99539332D01*
X197870168Y-99539329D01*
X197877817Y-99534633D01*
X197887236Y-99524228D01*
X197954543Y-99449868D01*
X197954544Y-99449866D01*
X197960571Y-99443208D01*
X197972404Y-99418786D01*
X198010424Y-99340311D01*
X198010424Y-99340310D01*
X198014338Y-99332232D01*
X198031119Y-99232486D01*
X200047305Y-99232486D01*
X200048469Y-99241387D01*
X200048469Y-99241391D01*
X200058730Y-99319850D01*
X200063295Y-99354760D01*
X200112959Y-99467632D01*
X200169279Y-99534633D01*
X200181511Y-99549184D01*
X200192307Y-99562028D01*
X200230699Y-99587584D01*
X200284403Y-99623332D01*
X200294959Y-99630359D01*
X200412663Y-99667132D01*
X200421633Y-99667296D01*
X200421637Y-99667297D01*
X200477333Y-99668317D01*
X200535958Y-99669392D01*
X200624560Y-99645236D01*
X200646267Y-99639318D01*
X200646268Y-99639318D01*
X200654930Y-99636956D01*
X200663479Y-99631707D01*
X200752365Y-99577132D01*
X200752368Y-99577129D01*
X200760017Y-99572433D01*
X200769436Y-99562028D01*
X200836743Y-99487668D01*
X200836744Y-99487666D01*
X200842771Y-99481008D01*
X200847322Y-99471616D01*
X200892624Y-99378111D01*
X200892624Y-99378110D01*
X200896538Y-99370032D01*
X200916997Y-99248426D01*
X200917127Y-99237800D01*
X200915096Y-99223614D01*
X200905454Y-99156286D01*
X201342705Y-99156286D01*
X201343869Y-99165187D01*
X201343869Y-99165191D01*
X201354265Y-99244686D01*
X201358695Y-99278560D01*
X201408359Y-99391432D01*
X201440638Y-99429832D01*
X201476610Y-99472626D01*
X201487707Y-99485828D01*
X201522324Y-99508871D01*
X201561026Y-99534633D01*
X201590359Y-99554159D01*
X201619035Y-99563118D01*
X201697347Y-99587584D01*
X201708063Y-99590932D01*
X201717033Y-99591096D01*
X201717037Y-99591097D01*
X201772733Y-99592117D01*
X201831358Y-99593192D01*
X201926137Y-99567352D01*
X201941667Y-99563118D01*
X201941668Y-99563118D01*
X201950330Y-99560756D01*
X201957982Y-99556058D01*
X202047765Y-99500932D01*
X202047768Y-99500929D01*
X202055417Y-99496233D01*
X202064043Y-99486704D01*
X202132143Y-99411468D01*
X202132144Y-99411466D01*
X202138171Y-99404808D01*
X202150564Y-99379230D01*
X202188024Y-99301911D01*
X202188024Y-99301910D01*
X202191938Y-99293832D01*
X202212397Y-99172226D01*
X202212527Y-99161600D01*
X202210556Y-99147832D01*
X202196318Y-99048417D01*
X202196317Y-99048415D01*
X202195045Y-99039530D01*
X202161465Y-98965674D01*
X202147722Y-98935448D01*
X202147720Y-98935445D01*
X202144005Y-98927274D01*
X202063510Y-98833855D01*
X201960031Y-98766783D01*
X201951429Y-98764211D01*
X201951426Y-98764209D01*
X201850489Y-98734023D01*
X201850490Y-98734023D01*
X201841886Y-98731450D01*
X201832910Y-98731395D01*
X201832909Y-98731395D01*
X201781936Y-98731084D01*
X201718574Y-98730697D01*
X201600006Y-98764584D01*
X201495715Y-98830386D01*
X201489773Y-98837114D01*
X201489772Y-98837115D01*
X201477935Y-98850518D01*
X201414085Y-98922815D01*
X201361677Y-99034440D01*
X201360297Y-99043305D01*
X201360296Y-99043307D01*
X201344573Y-99144292D01*
X201342705Y-99156286D01*
X200905454Y-99156286D01*
X200900918Y-99124617D01*
X200900917Y-99124615D01*
X200899645Y-99115730D01*
X200878153Y-99068461D01*
X200852322Y-99011648D01*
X200852320Y-99011645D01*
X200848605Y-99003474D01*
X200768110Y-98910055D01*
X200664631Y-98842983D01*
X200656029Y-98840411D01*
X200656026Y-98840409D01*
X200555089Y-98810223D01*
X200555090Y-98810223D01*
X200546486Y-98807650D01*
X200537510Y-98807595D01*
X200537509Y-98807595D01*
X200486536Y-98807284D01*
X200423174Y-98806897D01*
X200304606Y-98840784D01*
X200200315Y-98906586D01*
X200194373Y-98913314D01*
X200194372Y-98913315D01*
X200175111Y-98935124D01*
X200118685Y-98999015D01*
X200066277Y-99110640D01*
X200064897Y-99119505D01*
X200064896Y-99119507D01*
X200049962Y-99215423D01*
X200047305Y-99232486D01*
X198031119Y-99232486D01*
X198034797Y-99210626D01*
X198034927Y-99200000D01*
X198033955Y-99193208D01*
X198018718Y-99086817D01*
X198018717Y-99086815D01*
X198017445Y-99077930D01*
X197987308Y-99011648D01*
X197970122Y-98973848D01*
X197970120Y-98973845D01*
X197966405Y-98965674D01*
X197885910Y-98872255D01*
X197782431Y-98805183D01*
X197773829Y-98802611D01*
X197773826Y-98802609D01*
X197672889Y-98772423D01*
X197672890Y-98772423D01*
X197664286Y-98769850D01*
X197655310Y-98769795D01*
X197655309Y-98769795D01*
X197604336Y-98769484D01*
X197540974Y-98769097D01*
X197422406Y-98802984D01*
X197318115Y-98868786D01*
X197236485Y-98961215D01*
X197184077Y-99072840D01*
X197182697Y-99081705D01*
X197182696Y-99081707D01*
X197166594Y-99185124D01*
X197165105Y-99194686D01*
X196443106Y-99194686D01*
X196434818Y-99136817D01*
X196434817Y-99136815D01*
X196433545Y-99127930D01*
X196409006Y-99073960D01*
X196386222Y-99023848D01*
X196386220Y-99023845D01*
X196382505Y-99015674D01*
X196302010Y-98922255D01*
X196198531Y-98855183D01*
X196189929Y-98852611D01*
X196189926Y-98852609D01*
X196110254Y-98828782D01*
X196080386Y-98819850D01*
X196071410Y-98819795D01*
X196071409Y-98819795D01*
X196020436Y-98819484D01*
X195957074Y-98819097D01*
X195838506Y-98852984D01*
X195734215Y-98918786D01*
X195728273Y-98925514D01*
X195728272Y-98925515D01*
X195723480Y-98930941D01*
X195652585Y-99011215D01*
X195600177Y-99122840D01*
X195598797Y-99131705D01*
X195598796Y-99131707D01*
X195582799Y-99234451D01*
X195581205Y-99244686D01*
X187025577Y-99244686D01*
X187031087Y-99241303D01*
X187120870Y-99186177D01*
X187120873Y-99186174D01*
X187128522Y-99181478D01*
X187137941Y-99171073D01*
X187205248Y-99096713D01*
X187205249Y-99096711D01*
X187211276Y-99090053D01*
X187217150Y-99077930D01*
X187261129Y-98987156D01*
X187261129Y-98987155D01*
X187265043Y-98979077D01*
X187285502Y-98857471D01*
X187285632Y-98846845D01*
X187284711Y-98840409D01*
X187269423Y-98733662D01*
X187269422Y-98733660D01*
X187268150Y-98724775D01*
X187254469Y-98694686D01*
X191365105Y-98694686D01*
X191366269Y-98703587D01*
X191366269Y-98703591D01*
X191374533Y-98766783D01*
X191381095Y-98816960D01*
X191430759Y-98929832D01*
X191510107Y-99024228D01*
X191612759Y-99092559D01*
X191633875Y-99099156D01*
X191699825Y-99119760D01*
X191730463Y-99129332D01*
X191739433Y-99129496D01*
X191739437Y-99129497D01*
X191795133Y-99130517D01*
X191853758Y-99131592D01*
X191941905Y-99107560D01*
X191964067Y-99101518D01*
X191964068Y-99101518D01*
X191972730Y-99099156D01*
X191980382Y-99094458D01*
X192070165Y-99039332D01*
X192070168Y-99039329D01*
X192077817Y-99034633D01*
X192085345Y-99026317D01*
X192154543Y-98949868D01*
X192154544Y-98949866D01*
X192160571Y-98943208D01*
X192166515Y-98930941D01*
X192210424Y-98840311D01*
X192210424Y-98840310D01*
X192214338Y-98832232D01*
X192234797Y-98710626D01*
X192234927Y-98700000D01*
X192232896Y-98685814D01*
X192218718Y-98586817D01*
X192218717Y-98586815D01*
X192217445Y-98577930D01*
X192191391Y-98520628D01*
X192170122Y-98473848D01*
X192170120Y-98473845D01*
X192166405Y-98465674D01*
X192085910Y-98372255D01*
X192078372Y-98367369D01*
X192076579Y-98365805D01*
X192038392Y-98305952D01*
X192038627Y-98234956D01*
X192067025Y-98191086D01*
X200707705Y-98191086D01*
X200708869Y-98199987D01*
X200708869Y-98199991D01*
X200718005Y-98269850D01*
X200723695Y-98313360D01*
X200773359Y-98426232D01*
X200852707Y-98520628D01*
X200860185Y-98525605D01*
X200860184Y-98525605D01*
X200947869Y-98583973D01*
X200955359Y-98588959D01*
X200963929Y-98591636D01*
X200963928Y-98591636D01*
X201061934Y-98622255D01*
X201073063Y-98625732D01*
X201082033Y-98625896D01*
X201082037Y-98625897D01*
X201137733Y-98626917D01*
X201196358Y-98627992D01*
X201294148Y-98601331D01*
X201306667Y-98597918D01*
X201306668Y-98597918D01*
X201315330Y-98595556D01*
X201322982Y-98590858D01*
X201412765Y-98535732D01*
X201412768Y-98535729D01*
X201420417Y-98531033D01*
X201428211Y-98522423D01*
X201497143Y-98446268D01*
X201497144Y-98446266D01*
X201503171Y-98439608D01*
X201514273Y-98416695D01*
X201553024Y-98336711D01*
X201553024Y-98336710D01*
X201556938Y-98328632D01*
X201577397Y-98207026D01*
X201577527Y-98196400D01*
X201575824Y-98184504D01*
X201569491Y-98140286D01*
X202003105Y-98140286D01*
X202004269Y-98149187D01*
X202004269Y-98149191D01*
X202015485Y-98234956D01*
X202019095Y-98262560D01*
X202068759Y-98375432D01*
X202148107Y-98469828D01*
X202155585Y-98474805D01*
X202155584Y-98474805D01*
X202232343Y-98525900D01*
X202250759Y-98538159D01*
X202259329Y-98540836D01*
X202259328Y-98540836D01*
X202335767Y-98564717D01*
X202368463Y-98574932D01*
X202377433Y-98575096D01*
X202377437Y-98575097D01*
X202433133Y-98576117D01*
X202491758Y-98577192D01*
X202589596Y-98550518D01*
X202602067Y-98547118D01*
X202602068Y-98547118D01*
X202610730Y-98544756D01*
X202618382Y-98540058D01*
X202708165Y-98484932D01*
X202708168Y-98484929D01*
X202715817Y-98480233D01*
X202725236Y-98469828D01*
X202792543Y-98395468D01*
X202792544Y-98395466D01*
X202798571Y-98388808D01*
X202802902Y-98379870D01*
X202848424Y-98285911D01*
X202848424Y-98285910D01*
X202852338Y-98277832D01*
X202872797Y-98156226D01*
X202872927Y-98145600D01*
X202870896Y-98131414D01*
X202856718Y-98032417D01*
X202856717Y-98032415D01*
X202855445Y-98023530D01*
X202829170Y-97965741D01*
X202808122Y-97919448D01*
X202808120Y-97919445D01*
X202804405Y-97911274D01*
X202723910Y-97817855D01*
X202620431Y-97750783D01*
X202611829Y-97748211D01*
X202611826Y-97748209D01*
X202532154Y-97724382D01*
X202502286Y-97715450D01*
X202493310Y-97715395D01*
X202493309Y-97715395D01*
X202442336Y-97715084D01*
X202378974Y-97714697D01*
X202260406Y-97748584D01*
X202156115Y-97814386D01*
X202150173Y-97821114D01*
X202150172Y-97821115D01*
X202121748Y-97853299D01*
X202074485Y-97906815D01*
X202022077Y-98018440D01*
X202020697Y-98027305D01*
X202020696Y-98027307D01*
X202006267Y-98119981D01*
X202003105Y-98140286D01*
X201569491Y-98140286D01*
X201561318Y-98083217D01*
X201561317Y-98083215D01*
X201560045Y-98074330D01*
X201536948Y-98023530D01*
X201512722Y-97970248D01*
X201512720Y-97970245D01*
X201509005Y-97962074D01*
X201428510Y-97868655D01*
X201325031Y-97801583D01*
X201316429Y-97799011D01*
X201316426Y-97799009D01*
X201236754Y-97775182D01*
X201206886Y-97766250D01*
X201197910Y-97766195D01*
X201197909Y-97766195D01*
X201146936Y-97765884D01*
X201083574Y-97765497D01*
X200965006Y-97799384D01*
X200860715Y-97865186D01*
X200779085Y-97957615D01*
X200726677Y-98069240D01*
X200725297Y-98078105D01*
X200725296Y-98078107D01*
X200712004Y-98163478D01*
X200707705Y-98191086D01*
X192067025Y-98191086D01*
X192077207Y-98175357D01*
X192093477Y-98163478D01*
X192156667Y-98124680D01*
X192156670Y-98124677D01*
X192164319Y-98119981D01*
X192173738Y-98109576D01*
X192241045Y-98035216D01*
X192241046Y-98035214D01*
X192247073Y-98028556D01*
X192252831Y-98016673D01*
X192296926Y-97925659D01*
X192296926Y-97925658D01*
X192300840Y-97917580D01*
X192321299Y-97795974D01*
X192321429Y-97785348D01*
X192319398Y-97771162D01*
X192305220Y-97672165D01*
X192305219Y-97672163D01*
X192303947Y-97663278D01*
X192252907Y-97551022D01*
X192172412Y-97457603D01*
X192068933Y-97390531D01*
X192060331Y-97387959D01*
X192060328Y-97387957D01*
X191959391Y-97357771D01*
X191959392Y-97357771D01*
X191950788Y-97355198D01*
X191941812Y-97355143D01*
X191941811Y-97355143D01*
X191890838Y-97354832D01*
X191827476Y-97354445D01*
X191708908Y-97388332D01*
X191604617Y-97454134D01*
X191522987Y-97546563D01*
X191470579Y-97658188D01*
X191469199Y-97667053D01*
X191469198Y-97667055D01*
X191453353Y-97768823D01*
X191451607Y-97780034D01*
X191452771Y-97788935D01*
X191452771Y-97788939D01*
X191466322Y-97892559D01*
X191467597Y-97902308D01*
X191517261Y-98015180D01*
X191596609Y-98109576D01*
X191604083Y-98114551D01*
X191610685Y-98120454D01*
X191648135Y-98180770D01*
X191647032Y-98251758D01*
X191607724Y-98310880D01*
X191593937Y-98320946D01*
X191543507Y-98352765D01*
X191518115Y-98368786D01*
X191436485Y-98461215D01*
X191384077Y-98572840D01*
X191382697Y-98581705D01*
X191382696Y-98581707D01*
X191373413Y-98641330D01*
X191365105Y-98694686D01*
X187254469Y-98694686D01*
X187240758Y-98664530D01*
X187220827Y-98620693D01*
X187220825Y-98620690D01*
X187217110Y-98612519D01*
X187136615Y-98519100D01*
X187033136Y-98452028D01*
X187024534Y-98449456D01*
X187024531Y-98449454D01*
X186923594Y-98419268D01*
X186923595Y-98419268D01*
X186914991Y-98416695D01*
X186906015Y-98416640D01*
X186906014Y-98416640D01*
X186855041Y-98416329D01*
X186791679Y-98415942D01*
X186673111Y-98449829D01*
X186568820Y-98515631D01*
X186562878Y-98522359D01*
X186562877Y-98522360D01*
X186548924Y-98538159D01*
X186487190Y-98608060D01*
X186434782Y-98719685D01*
X186433402Y-98728550D01*
X186433401Y-98728552D01*
X186417258Y-98832232D01*
X186415810Y-98841531D01*
X178819393Y-98841531D01*
X178818718Y-98836817D01*
X178818717Y-98836815D01*
X178817445Y-98827930D01*
X178791817Y-98771564D01*
X178770122Y-98723848D01*
X178770120Y-98723845D01*
X178766405Y-98715674D01*
X178685910Y-98622255D01*
X178582431Y-98555183D01*
X178573829Y-98552611D01*
X178573826Y-98552609D01*
X178472889Y-98522423D01*
X178472890Y-98522423D01*
X178464286Y-98519850D01*
X178455310Y-98519795D01*
X178455309Y-98519795D01*
X178404336Y-98519484D01*
X178340974Y-98519097D01*
X178222406Y-98552984D01*
X178118115Y-98618786D01*
X178112173Y-98625514D01*
X178112172Y-98625515D01*
X178077716Y-98664530D01*
X178036485Y-98711215D01*
X177984077Y-98822840D01*
X177982697Y-98831705D01*
X177982696Y-98831707D01*
X177966594Y-98935124D01*
X177965105Y-98944686D01*
X174401000Y-98944686D01*
X174401000Y-97615542D01*
X175169615Y-97615542D01*
X175170131Y-97621685D01*
X175185911Y-97809596D01*
X175186526Y-97816925D01*
X175188225Y-97822850D01*
X175230490Y-97970248D01*
X175242229Y-98011188D01*
X175245048Y-98016673D01*
X175331787Y-98185449D01*
X175331790Y-98185454D01*
X175334605Y-98190931D01*
X175338434Y-98195762D01*
X175355541Y-98217346D01*
X175460134Y-98349309D01*
X175464828Y-98353304D01*
X175607290Y-98474549D01*
X175614034Y-98480289D01*
X175619412Y-98483295D01*
X175619414Y-98483296D01*
X175677271Y-98515631D01*
X175790444Y-98578881D01*
X175982645Y-98641330D01*
X176183314Y-98665259D01*
X176189449Y-98664787D01*
X176189451Y-98664787D01*
X176378668Y-98650228D01*
X176378672Y-98650227D01*
X176384810Y-98649755D01*
X176390742Y-98648099D01*
X176390746Y-98648098D01*
X176573513Y-98597068D01*
X176573517Y-98597067D01*
X176579457Y-98595408D01*
X176584961Y-98592628D01*
X176584963Y-98592627D01*
X176754340Y-98507069D01*
X176754342Y-98507068D01*
X176759841Y-98504290D01*
X176919091Y-98379870D01*
X176925664Y-98372255D01*
X177047113Y-98231556D01*
X177047114Y-98231554D01*
X177051142Y-98226888D01*
X177150964Y-98051170D01*
X177214754Y-97859410D01*
X177218725Y-97827976D01*
X177239643Y-97662391D01*
X177239644Y-97662382D01*
X177240082Y-97658912D01*
X177240486Y-97630000D01*
X177220765Y-97428873D01*
X177218337Y-97420829D01*
X177164135Y-97241306D01*
X177162354Y-97235407D01*
X177067478Y-97056971D01*
X176939751Y-96900361D01*
X176784036Y-96771543D01*
X176778617Y-96768613D01*
X176778614Y-96768611D01*
X176611687Y-96678354D01*
X176611682Y-96678352D01*
X176606267Y-96675424D01*
X176576611Y-96666244D01*
X176419100Y-96617486D01*
X176419097Y-96617485D01*
X176413213Y-96615664D01*
X176407088Y-96615020D01*
X176407087Y-96615020D01*
X176218357Y-96595183D01*
X176218356Y-96595183D01*
X176212229Y-96594539D01*
X176127847Y-96602218D01*
X176017108Y-96612296D01*
X176017105Y-96612297D01*
X176010969Y-96612855D01*
X176005063Y-96614593D01*
X176005059Y-96614594D01*
X175864064Y-96656092D01*
X175817100Y-96669914D01*
X175638006Y-96763542D01*
X175480508Y-96890174D01*
X175476550Y-96894891D01*
X175476547Y-96894894D01*
X175469994Y-96902704D01*
X175350607Y-97044985D01*
X175347641Y-97050380D01*
X175347637Y-97050386D01*
X175256220Y-97216672D01*
X175256218Y-97216677D01*
X175253248Y-97222079D01*
X175251385Y-97227953D01*
X175251383Y-97227957D01*
X175199812Y-97390531D01*
X175192142Y-97414710D01*
X175169615Y-97615542D01*
X174401000Y-97615542D01*
X174401000Y-95294686D01*
X178265105Y-95294686D01*
X178266269Y-95303587D01*
X178266269Y-95303591D01*
X178278855Y-95399830D01*
X178281095Y-95416960D01*
X178330759Y-95529832D01*
X178410107Y-95624228D01*
X178417585Y-95629205D01*
X178417584Y-95629205D01*
X178437187Y-95642254D01*
X178482810Y-95696651D01*
X178491781Y-95767079D01*
X178464453Y-95827456D01*
X178401400Y-95903674D01*
X178398025Y-95910847D01*
X178398024Y-95910848D01*
X178391007Y-95925760D01*
X178331421Y-96052387D01*
X178329936Y-96060170D01*
X178329935Y-96060174D01*
X178302492Y-96204036D01*
X178300624Y-96213830D01*
X178302285Y-96240227D01*
X178309242Y-96350801D01*
X178310944Y-96377860D01*
X178361732Y-96534171D01*
X178449798Y-96672940D01*
X178569607Y-96785448D01*
X178576551Y-96789265D01*
X178576553Y-96789267D01*
X178651545Y-96830494D01*
X178713632Y-96864627D01*
X178721304Y-96866597D01*
X178721307Y-96866598D01*
X178861933Y-96902704D01*
X178922939Y-96939019D01*
X178954628Y-97002551D01*
X178950930Y-97062108D01*
X178894467Y-97243949D01*
X178870046Y-97450280D01*
X178883635Y-97657607D01*
X178885056Y-97663203D01*
X178885057Y-97663208D01*
X178922236Y-97809596D01*
X178934779Y-97858985D01*
X178937196Y-97864228D01*
X179006868Y-98015360D01*
X179021764Y-98047671D01*
X179141678Y-98217346D01*
X179145812Y-98221373D01*
X179281243Y-98353304D01*
X179290505Y-98362327D01*
X179295301Y-98365532D01*
X179295304Y-98365534D01*
X179396430Y-98433104D01*
X179463261Y-98477759D01*
X179468569Y-98480040D01*
X179468570Y-98480040D01*
X179648857Y-98557497D01*
X179648860Y-98557498D01*
X179654160Y-98559775D01*
X179659790Y-98561049D01*
X179851172Y-98604355D01*
X179851175Y-98604355D01*
X179856808Y-98605630D01*
X179862579Y-98605857D01*
X179862581Y-98605857D01*
X179918656Y-98608060D01*
X180064419Y-98613787D01*
X180179727Y-98597068D01*
X180264327Y-98584802D01*
X180264332Y-98584801D01*
X180270041Y-98583973D01*
X180275505Y-98582118D01*
X180275510Y-98582117D01*
X180451547Y-98522360D01*
X180466786Y-98517187D01*
X180648065Y-98415666D01*
X180807809Y-98282809D01*
X180921924Y-98145600D01*
X180936975Y-98127503D01*
X180940666Y-98123065D01*
X181042187Y-97941786D01*
X181067012Y-97868655D01*
X181107117Y-97750510D01*
X181107118Y-97750505D01*
X181108973Y-97745041D01*
X181109801Y-97739332D01*
X181109802Y-97739327D01*
X181136573Y-97554689D01*
X181138787Y-97539419D01*
X181139958Y-97494686D01*
X182265105Y-97494686D01*
X182266269Y-97503587D01*
X182266269Y-97503591D01*
X182273541Y-97559196D01*
X182281095Y-97616960D01*
X182330759Y-97729832D01*
X182382270Y-97791112D01*
X182397808Y-97809596D01*
X182410107Y-97824228D01*
X182512759Y-97892559D01*
X182630463Y-97929332D01*
X182639433Y-97929496D01*
X182639437Y-97929497D01*
X182695133Y-97930517D01*
X182753758Y-97931592D01*
X182814832Y-97914941D01*
X182864067Y-97901518D01*
X182864068Y-97901518D01*
X182872730Y-97899156D01*
X182880382Y-97894458D01*
X182970165Y-97839332D01*
X182970168Y-97839329D01*
X182977817Y-97834633D01*
X182987236Y-97824228D01*
X183054543Y-97749868D01*
X183054544Y-97749866D01*
X183060571Y-97743208D01*
X183074047Y-97715395D01*
X183110424Y-97640311D01*
X183110424Y-97640310D01*
X183114338Y-97632232D01*
X183134797Y-97510626D01*
X183134927Y-97500000D01*
X183132896Y-97485814D01*
X183118718Y-97386817D01*
X183118717Y-97386815D01*
X183117445Y-97377930D01*
X183066405Y-97265674D01*
X182985910Y-97172255D01*
X182882431Y-97105183D01*
X182873829Y-97102611D01*
X182873826Y-97102609D01*
X182772889Y-97072423D01*
X182772890Y-97072423D01*
X182764286Y-97069850D01*
X182755310Y-97069795D01*
X182755309Y-97069795D01*
X182704336Y-97069484D01*
X182640974Y-97069097D01*
X182522406Y-97102984D01*
X182418115Y-97168786D01*
X182336485Y-97261215D01*
X182284077Y-97372840D01*
X182282697Y-97381705D01*
X182282696Y-97381707D01*
X182267392Y-97480000D01*
X182265105Y-97494686D01*
X181139958Y-97494686D01*
X181140343Y-97480000D01*
X181121332Y-97273100D01*
X181064934Y-97073129D01*
X180973039Y-96886785D01*
X180848724Y-96720307D01*
X180731878Y-96612296D01*
X180700394Y-96583192D01*
X180700392Y-96583190D01*
X180696153Y-96579272D01*
X180520435Y-96468402D01*
X180327455Y-96391411D01*
X180321795Y-96390285D01*
X180321791Y-96390284D01*
X180129344Y-96352004D01*
X180129339Y-96352004D01*
X180123676Y-96350877D01*
X180117901Y-96350801D01*
X180117897Y-96350801D01*
X180013768Y-96349438D01*
X179915922Y-96348157D01*
X179910225Y-96349136D01*
X179910224Y-96349136D01*
X179754169Y-96375951D01*
X179683645Y-96367774D01*
X179628737Y-96322767D01*
X179607080Y-96259682D01*
X179605867Y-96240392D01*
X179602360Y-96184655D01*
X179599554Y-96140051D01*
X179599554Y-96140049D01*
X179599056Y-96132140D01*
X179548268Y-95975829D01*
X179460202Y-95837060D01*
X179412342Y-95792116D01*
X179346170Y-95729977D01*
X179340393Y-95724552D01*
X179333449Y-95720735D01*
X179333447Y-95720733D01*
X179247561Y-95673517D01*
X179196368Y-95645373D01*
X179188688Y-95643401D01*
X179180814Y-95641379D01*
X179119807Y-95605066D01*
X179099915Y-95565186D01*
X186392603Y-95565186D01*
X186393767Y-95574087D01*
X186393767Y-95574091D01*
X186401854Y-95635930D01*
X186408593Y-95687460D01*
X186458257Y-95800332D01*
X186537605Y-95894728D01*
X186640257Y-95963059D01*
X186757961Y-95999832D01*
X186766931Y-95999996D01*
X186766935Y-95999997D01*
X186822631Y-96001017D01*
X186881256Y-96002092D01*
X186977586Y-95975829D01*
X186991565Y-95972018D01*
X186991566Y-95972018D01*
X187000228Y-95969656D01*
X187007880Y-95964958D01*
X187097663Y-95909832D01*
X187097666Y-95909829D01*
X187105315Y-95905133D01*
X187112165Y-95897566D01*
X187182041Y-95820368D01*
X187182042Y-95820366D01*
X187188069Y-95813708D01*
X187193022Y-95803486D01*
X200707705Y-95803486D01*
X200708869Y-95812387D01*
X200708869Y-95812391D01*
X200712971Y-95843756D01*
X200723695Y-95925760D01*
X200773359Y-96038632D01*
X200852707Y-96133028D01*
X200868338Y-96143433D01*
X200934287Y-96187332D01*
X200955359Y-96201359D01*
X201073063Y-96238132D01*
X201082033Y-96238296D01*
X201082037Y-96238297D01*
X201137733Y-96239317D01*
X201196358Y-96240392D01*
X201293785Y-96213830D01*
X201306667Y-96210318D01*
X201306668Y-96210318D01*
X201315330Y-96207956D01*
X201322982Y-96203258D01*
X201412765Y-96148132D01*
X201412768Y-96148129D01*
X201420417Y-96143433D01*
X201429836Y-96133028D01*
X201497143Y-96058668D01*
X201497144Y-96058666D01*
X201503171Y-96052008D01*
X201524557Y-96007868D01*
X201553024Y-95949111D01*
X201553024Y-95949110D01*
X201556938Y-95941032D01*
X201577397Y-95819426D01*
X201577527Y-95808800D01*
X201576315Y-95800332D01*
X201569491Y-95752686D01*
X202003105Y-95752686D01*
X202004269Y-95761587D01*
X202004269Y-95761591D01*
X202011956Y-95820368D01*
X202019095Y-95874960D01*
X202068759Y-95987832D01*
X202148107Y-96082228D01*
X202155585Y-96087205D01*
X202155584Y-96087205D01*
X202223089Y-96132140D01*
X202250759Y-96150559D01*
X202368463Y-96187332D01*
X202377433Y-96187496D01*
X202377437Y-96187497D01*
X202433133Y-96188517D01*
X202491758Y-96189592D01*
X202551244Y-96173374D01*
X202602067Y-96159518D01*
X202602068Y-96159518D01*
X202610730Y-96157156D01*
X202618382Y-96152458D01*
X202708165Y-96097332D01*
X202708168Y-96097329D01*
X202715817Y-96092633D01*
X202725236Y-96082228D01*
X202792543Y-96007868D01*
X202792544Y-96007866D01*
X202798571Y-96001208D01*
X202812714Y-95972018D01*
X202848424Y-95898311D01*
X202848424Y-95898310D01*
X202852338Y-95890232D01*
X202872797Y-95768626D01*
X202872927Y-95758000D01*
X202870896Y-95743814D01*
X202856718Y-95644817D01*
X202856717Y-95644815D01*
X202855445Y-95635930D01*
X202827910Y-95575371D01*
X202808122Y-95531848D01*
X202808120Y-95531845D01*
X202804405Y-95523674D01*
X202723910Y-95430255D01*
X202620431Y-95363183D01*
X202611829Y-95360611D01*
X202611826Y-95360609D01*
X202527304Y-95335332D01*
X202502286Y-95327850D01*
X202493310Y-95327795D01*
X202493309Y-95327795D01*
X202442336Y-95327484D01*
X202378974Y-95327097D01*
X202260406Y-95360984D01*
X202156115Y-95426786D01*
X202150173Y-95433514D01*
X202150172Y-95433515D01*
X202133664Y-95452207D01*
X202074485Y-95519215D01*
X202022077Y-95630840D01*
X202020697Y-95639705D01*
X202020696Y-95639707D01*
X202006641Y-95729977D01*
X202003105Y-95752686D01*
X201569491Y-95752686D01*
X201561318Y-95695617D01*
X201561317Y-95695615D01*
X201560045Y-95686730D01*
X201528501Y-95617352D01*
X201512722Y-95582648D01*
X201512720Y-95582645D01*
X201509005Y-95574474D01*
X201428510Y-95481055D01*
X201325031Y-95413983D01*
X201316429Y-95411411D01*
X201316426Y-95411409D01*
X201231904Y-95386132D01*
X201206886Y-95378650D01*
X201197910Y-95378595D01*
X201197909Y-95378595D01*
X201146936Y-95378284D01*
X201083574Y-95377897D01*
X200965006Y-95411784D01*
X200860715Y-95477586D01*
X200779085Y-95570015D01*
X200726677Y-95681640D01*
X200725297Y-95690505D01*
X200725296Y-95690507D01*
X200713133Y-95768626D01*
X200707705Y-95803486D01*
X187193022Y-95803486D01*
X187237922Y-95710811D01*
X187237922Y-95710810D01*
X187241836Y-95702732D01*
X187262295Y-95581126D01*
X187262425Y-95570500D01*
X187260394Y-95556314D01*
X187246216Y-95457317D01*
X187246215Y-95457315D01*
X187244943Y-95448430D01*
X187213191Y-95378595D01*
X187197620Y-95344348D01*
X187197618Y-95344345D01*
X187193903Y-95336174D01*
X187113408Y-95242755D01*
X187009929Y-95175683D01*
X187001327Y-95173111D01*
X187001324Y-95173109D01*
X186900387Y-95142923D01*
X186900388Y-95142923D01*
X186891784Y-95140350D01*
X186882808Y-95140295D01*
X186882807Y-95140295D01*
X186831834Y-95139984D01*
X186768472Y-95139597D01*
X186649904Y-95173484D01*
X186545613Y-95239286D01*
X186463983Y-95331715D01*
X186411575Y-95443340D01*
X186410195Y-95452205D01*
X186410194Y-95452207D01*
X186396286Y-95541534D01*
X186392603Y-95565186D01*
X179099915Y-95565186D01*
X179088117Y-95541534D01*
X179098753Y-95464401D01*
X179108038Y-95445236D01*
X179114338Y-95432232D01*
X179132381Y-95324986D01*
X179133990Y-95315423D01*
X179133990Y-95315422D01*
X179134797Y-95310626D01*
X179134927Y-95300000D01*
X179134187Y-95294828D01*
X179118718Y-95186817D01*
X179118717Y-95186815D01*
X179117445Y-95177930D01*
X179066405Y-95065674D01*
X179048321Y-95044686D01*
X181565105Y-95044686D01*
X181566269Y-95053587D01*
X181566269Y-95053591D01*
X181576391Y-95130987D01*
X181581095Y-95166960D01*
X181630759Y-95279832D01*
X181668715Y-95324986D01*
X181700803Y-95363159D01*
X181710107Y-95374228D01*
X181748969Y-95400097D01*
X181790027Y-95427427D01*
X181812759Y-95442559D01*
X181831193Y-95448318D01*
X181919894Y-95476030D01*
X181930463Y-95479332D01*
X181939433Y-95479496D01*
X181939437Y-95479497D01*
X181995133Y-95480517D01*
X182053758Y-95481592D01*
X182116813Y-95464401D01*
X182164067Y-95451518D01*
X182164068Y-95451518D01*
X182172730Y-95449156D01*
X182180382Y-95444458D01*
X182270165Y-95389332D01*
X182270168Y-95389329D01*
X182277817Y-95384633D01*
X182283865Y-95377952D01*
X182354543Y-95299868D01*
X182354544Y-95299866D01*
X182360571Y-95293208D01*
X182365246Y-95283560D01*
X182410424Y-95190311D01*
X182410424Y-95190310D01*
X182414338Y-95182232D01*
X182434797Y-95060626D01*
X182434927Y-95050000D01*
X182433778Y-95041973D01*
X182426433Y-94990686D01*
X182826105Y-94990686D01*
X182827269Y-94999587D01*
X182827269Y-94999591D01*
X182835251Y-95060626D01*
X182842095Y-95112960D01*
X182891759Y-95225832D01*
X182971107Y-95320228D01*
X183073759Y-95388559D01*
X183102435Y-95397518D01*
X183164666Y-95416960D01*
X183191463Y-95425332D01*
X183200433Y-95425496D01*
X183200437Y-95425497D01*
X183256133Y-95426517D01*
X183314758Y-95427592D01*
X183415607Y-95400097D01*
X183425067Y-95397518D01*
X183425068Y-95397518D01*
X183433730Y-95395156D01*
X183441382Y-95390458D01*
X183531165Y-95335332D01*
X183531168Y-95335329D01*
X183538817Y-95330633D01*
X183584574Y-95280082D01*
X183645116Y-95243002D01*
X183716096Y-95244540D01*
X183774436Y-95283560D01*
X183783907Y-95294828D01*
X183798994Y-95304871D01*
X183837381Y-95330423D01*
X183886559Y-95363159D01*
X183941629Y-95380364D01*
X183976429Y-95391236D01*
X184004263Y-95399932D01*
X184013233Y-95400096D01*
X184013237Y-95400097D01*
X184068933Y-95401117D01*
X184127558Y-95402192D01*
X184213908Y-95378650D01*
X184237867Y-95372118D01*
X184237868Y-95372118D01*
X184246530Y-95369756D01*
X184254182Y-95365058D01*
X184343965Y-95309932D01*
X184343968Y-95309929D01*
X184351617Y-95305233D01*
X184361036Y-95294828D01*
X184428343Y-95220468D01*
X184428344Y-95220466D01*
X184434371Y-95213808D01*
X184447306Y-95187111D01*
X184484224Y-95110911D01*
X184484224Y-95110910D01*
X184488138Y-95102832D01*
X184498459Y-95041486D01*
X199158305Y-95041486D01*
X199159469Y-95050387D01*
X199159469Y-95050391D01*
X199166327Y-95102832D01*
X199174295Y-95163760D01*
X199223959Y-95276632D01*
X199274009Y-95336174D01*
X199296713Y-95363183D01*
X199303307Y-95371028D01*
X199325997Y-95386132D01*
X199384887Y-95425332D01*
X199405959Y-95439359D01*
X199523663Y-95476132D01*
X199532633Y-95476296D01*
X199532637Y-95476297D01*
X199588333Y-95477317D01*
X199646958Y-95478392D01*
X199743002Y-95452207D01*
X199757267Y-95448318D01*
X199757268Y-95448318D01*
X199765930Y-95445956D01*
X199773582Y-95441258D01*
X199863365Y-95386132D01*
X199863368Y-95386129D01*
X199871017Y-95381433D01*
X199880436Y-95371028D01*
X199947743Y-95296668D01*
X199947744Y-95296666D01*
X199953771Y-95290008D01*
X199958702Y-95279832D01*
X200003624Y-95187111D01*
X200003624Y-95187110D01*
X200007538Y-95179032D01*
X200027997Y-95057426D01*
X200028127Y-95046800D01*
X200026096Y-95032614D01*
X200011918Y-94933617D01*
X200011917Y-94933615D01*
X200010645Y-94924730D01*
X199986472Y-94871564D01*
X199963322Y-94820648D01*
X199963320Y-94820645D01*
X199959605Y-94812474D01*
X199879110Y-94719055D01*
X199775631Y-94651983D01*
X199767029Y-94649411D01*
X199767026Y-94649409D01*
X199687354Y-94625582D01*
X199657486Y-94616650D01*
X199648510Y-94616595D01*
X199648509Y-94616595D01*
X199597536Y-94616284D01*
X199534174Y-94615897D01*
X199415606Y-94649784D01*
X199311315Y-94715586D01*
X199305373Y-94722314D01*
X199305372Y-94722315D01*
X199302546Y-94725515D01*
X199229685Y-94808015D01*
X199177277Y-94919640D01*
X199175897Y-94928505D01*
X199175896Y-94928507D01*
X199166215Y-94990686D01*
X199158305Y-95041486D01*
X184498459Y-95041486D01*
X184508597Y-94981226D01*
X184508727Y-94970600D01*
X184507782Y-94963996D01*
X184492518Y-94857417D01*
X184492517Y-94857415D01*
X184491245Y-94848530D01*
X184451754Y-94761674D01*
X184443922Y-94744448D01*
X184443920Y-94744445D01*
X184440205Y-94736274D01*
X184393564Y-94682144D01*
X184364250Y-94617483D01*
X184374549Y-94547237D01*
X184395602Y-94515342D01*
X184457952Y-94446459D01*
X184457953Y-94446457D01*
X184463980Y-94439799D01*
X184517747Y-94328823D01*
X184538206Y-94207217D01*
X184538336Y-94196591D01*
X184536305Y-94182405D01*
X184522127Y-94083408D01*
X184522126Y-94083406D01*
X184520854Y-94074521D01*
X184490080Y-94006837D01*
X184473531Y-93970439D01*
X184473529Y-93970436D01*
X184469814Y-93962265D01*
X184389319Y-93868846D01*
X184285840Y-93801774D01*
X184277238Y-93799202D01*
X184277235Y-93799200D01*
X184176298Y-93769014D01*
X184176299Y-93769014D01*
X184167695Y-93766441D01*
X184158719Y-93766386D01*
X184158718Y-93766386D01*
X184107745Y-93766075D01*
X184044383Y-93765688D01*
X183925815Y-93799575D01*
X183821524Y-93865377D01*
X183815582Y-93872105D01*
X183815581Y-93872106D01*
X183780814Y-93911473D01*
X183739894Y-93957806D01*
X183687486Y-94069431D01*
X183686106Y-94078296D01*
X183686105Y-94078298D01*
X183672451Y-94165995D01*
X183668514Y-94191277D01*
X183669678Y-94200178D01*
X183669678Y-94200182D01*
X183683328Y-94304562D01*
X183684504Y-94313551D01*
X183734168Y-94426423D01*
X183739945Y-94433295D01*
X183784188Y-94485929D01*
X183812709Y-94550944D01*
X183801553Y-94621059D01*
X183782180Y-94650409D01*
X183769483Y-94664786D01*
X183750923Y-94685801D01*
X183690836Y-94723619D01*
X183619843Y-94722948D01*
X183561029Y-94684640D01*
X183552773Y-94675058D01*
X183552768Y-94675054D01*
X183546910Y-94668255D01*
X183443431Y-94601183D01*
X183434829Y-94598611D01*
X183434826Y-94598609D01*
X183333889Y-94568423D01*
X183333890Y-94568423D01*
X183325286Y-94565850D01*
X183316310Y-94565795D01*
X183316309Y-94565795D01*
X183265336Y-94565484D01*
X183201974Y-94565097D01*
X183083406Y-94598984D01*
X182979115Y-94664786D01*
X182897485Y-94757215D01*
X182845077Y-94868840D01*
X182843697Y-94877705D01*
X182843696Y-94877707D01*
X182828975Y-94972255D01*
X182826105Y-94990686D01*
X182426433Y-94990686D01*
X182418718Y-94936817D01*
X182418717Y-94936815D01*
X182417445Y-94927930D01*
X182391817Y-94871564D01*
X182370122Y-94823848D01*
X182370120Y-94823845D01*
X182366405Y-94815674D01*
X182285910Y-94722255D01*
X182182431Y-94655183D01*
X182173829Y-94652611D01*
X182173826Y-94652609D01*
X182072889Y-94622423D01*
X182072890Y-94622423D01*
X182064286Y-94619850D01*
X182055310Y-94619795D01*
X182055309Y-94619795D01*
X182004336Y-94619484D01*
X181940974Y-94619097D01*
X181822406Y-94652984D01*
X181718115Y-94718786D01*
X181712173Y-94725514D01*
X181712172Y-94725515D01*
X181706608Y-94731815D01*
X181636485Y-94811215D01*
X181584077Y-94922840D01*
X181582697Y-94931705D01*
X181582696Y-94931707D01*
X181566985Y-95032614D01*
X181565105Y-95044686D01*
X179048321Y-95044686D01*
X178985910Y-94972255D01*
X178882431Y-94905183D01*
X178873829Y-94902611D01*
X178873826Y-94902609D01*
X178772889Y-94872423D01*
X178772890Y-94872423D01*
X178764286Y-94869850D01*
X178755310Y-94869795D01*
X178755309Y-94869795D01*
X178704336Y-94869484D01*
X178640974Y-94869097D01*
X178522406Y-94902984D01*
X178418115Y-94968786D01*
X178336485Y-95061215D01*
X178284077Y-95172840D01*
X178282697Y-95181705D01*
X178282696Y-95181707D01*
X178266594Y-95285124D01*
X178265105Y-95294686D01*
X174401000Y-95294686D01*
X174401000Y-93709583D01*
X187188563Y-93709583D01*
X187189727Y-93718484D01*
X187189727Y-93718488D01*
X187196229Y-93768207D01*
X187204553Y-93831857D01*
X187254217Y-93944729D01*
X187333565Y-94039125D01*
X187436217Y-94107456D01*
X187444787Y-94110133D01*
X187444786Y-94110133D01*
X187528718Y-94136355D01*
X187553921Y-94144229D01*
X187562891Y-94144393D01*
X187562895Y-94144394D01*
X187618591Y-94145414D01*
X187677216Y-94146489D01*
X187759403Y-94124082D01*
X187787525Y-94116415D01*
X187787526Y-94116415D01*
X187796188Y-94114053D01*
X187803840Y-94109355D01*
X187893623Y-94054229D01*
X187893626Y-94054226D01*
X187901275Y-94049530D01*
X187907748Y-94042379D01*
X187908312Y-94042034D01*
X187914206Y-94037140D01*
X187914912Y-94037991D01*
X187968290Y-94005299D01*
X188039270Y-94006837D01*
X188097612Y-94045861D01*
X188110107Y-94060726D01*
X188117585Y-94065703D01*
X188117584Y-94065703D01*
X188172835Y-94102481D01*
X188212759Y-94129057D01*
X188330463Y-94165830D01*
X188339433Y-94165994D01*
X188339437Y-94165995D01*
X188395133Y-94167015D01*
X188453758Y-94168090D01*
X188523199Y-94149158D01*
X188564067Y-94138016D01*
X188564068Y-94138016D01*
X188572730Y-94135654D01*
X188580382Y-94130956D01*
X188670165Y-94075830D01*
X188670168Y-94075827D01*
X188677817Y-94071131D01*
X188686709Y-94061308D01*
X188754543Y-93986366D01*
X188754544Y-93986364D01*
X188760571Y-93979706D01*
X188767245Y-93965932D01*
X188810424Y-93876809D01*
X188810424Y-93876808D01*
X188814338Y-93868730D01*
X188834797Y-93747124D01*
X188834927Y-93736498D01*
X188831073Y-93709583D01*
X188818718Y-93623315D01*
X188818717Y-93623313D01*
X188817445Y-93614428D01*
X188786601Y-93546591D01*
X188784185Y-93541277D01*
X197661314Y-93541277D01*
X197662478Y-93550178D01*
X197662478Y-93550182D01*
X197670880Y-93614428D01*
X197677304Y-93663551D01*
X197726968Y-93776423D01*
X197806316Y-93870819D01*
X197813794Y-93875796D01*
X197813793Y-93875796D01*
X197867390Y-93911473D01*
X197908968Y-93939150D01*
X197961180Y-93955462D01*
X198009119Y-93970439D01*
X198026672Y-93975923D01*
X198035642Y-93976087D01*
X198035646Y-93976088D01*
X198091342Y-93977108D01*
X198149967Y-93978183D01*
X198224708Y-93957806D01*
X198260276Y-93948109D01*
X198260277Y-93948109D01*
X198268939Y-93945747D01*
X198276591Y-93941049D01*
X198366374Y-93885923D01*
X198366377Y-93885920D01*
X198374026Y-93881224D01*
X198382280Y-93872106D01*
X198450752Y-93796459D01*
X198450753Y-93796457D01*
X198456780Y-93789799D01*
X198466851Y-93769014D01*
X198506633Y-93686902D01*
X198506633Y-93686901D01*
X198510547Y-93678823D01*
X198531006Y-93557217D01*
X198531136Y-93546591D01*
X198529105Y-93532405D01*
X198514927Y-93433408D01*
X198514926Y-93433406D01*
X198513654Y-93424521D01*
X198492908Y-93378893D01*
X198466331Y-93320439D01*
X198466329Y-93320436D01*
X198462614Y-93312265D01*
X198382119Y-93218846D01*
X198278640Y-93151774D01*
X198270038Y-93149202D01*
X198270035Y-93149200D01*
X198169098Y-93119014D01*
X198169099Y-93119014D01*
X198160495Y-93116441D01*
X198151519Y-93116386D01*
X198151518Y-93116386D01*
X198100545Y-93116075D01*
X198037183Y-93115688D01*
X197918615Y-93149575D01*
X197814324Y-93215377D01*
X197732694Y-93307806D01*
X197680286Y-93419431D01*
X197678906Y-93428296D01*
X197678905Y-93428298D01*
X197667403Y-93502172D01*
X197661314Y-93541277D01*
X188784185Y-93541277D01*
X188770122Y-93510346D01*
X188770120Y-93510343D01*
X188766405Y-93502172D01*
X188685910Y-93408753D01*
X188582431Y-93341681D01*
X188573829Y-93339109D01*
X188573826Y-93339107D01*
X188472889Y-93308921D01*
X188472890Y-93308921D01*
X188464286Y-93306348D01*
X188455310Y-93306293D01*
X188455309Y-93306293D01*
X188404336Y-93305982D01*
X188340974Y-93305595D01*
X188222406Y-93339482D01*
X188118115Y-93405284D01*
X188112172Y-93412013D01*
X188105336Y-93417831D01*
X188103437Y-93415599D01*
X188055886Y-93445526D01*
X187984893Y-93444855D01*
X187926080Y-93406547D01*
X187909368Y-93387152D01*
X187805889Y-93320080D01*
X187797287Y-93317508D01*
X187797284Y-93317506D01*
X187696347Y-93287320D01*
X187696348Y-93287320D01*
X187687744Y-93284747D01*
X187678768Y-93284692D01*
X187678767Y-93284692D01*
X187627794Y-93284381D01*
X187564432Y-93283994D01*
X187445864Y-93317881D01*
X187341573Y-93383683D01*
X187335631Y-93390411D01*
X187335630Y-93390412D01*
X187313386Y-93415599D01*
X187259943Y-93476112D01*
X187207535Y-93587737D01*
X187206155Y-93596602D01*
X187206154Y-93596604D01*
X187192095Y-93686902D01*
X187188563Y-93709583D01*
X174401000Y-93709583D01*
X174401000Y-91213830D01*
X178300624Y-91213830D01*
X178303226Y-91255183D01*
X178307806Y-91327976D01*
X178310944Y-91377860D01*
X178361732Y-91534171D01*
X178449798Y-91672940D01*
X178569607Y-91785448D01*
X178576551Y-91789265D01*
X178576553Y-91789267D01*
X178641386Y-91824909D01*
X178713632Y-91864627D01*
X178721304Y-91866597D01*
X178721307Y-91866598D01*
X178865145Y-91903529D01*
X178865148Y-91903529D01*
X178872823Y-91905500D01*
X178995925Y-91905500D01*
X179053690Y-91898203D01*
X179110193Y-91891065D01*
X179110196Y-91891064D01*
X179118058Y-91890071D01*
X179125425Y-91887154D01*
X179125426Y-91887154D01*
X179191970Y-91860807D01*
X179270871Y-91829568D01*
X179403837Y-91732963D01*
X179476866Y-91644686D01*
X188865105Y-91644686D01*
X188866269Y-91653587D01*
X188866269Y-91653591D01*
X188879919Y-91757971D01*
X188881095Y-91766960D01*
X188930759Y-91879832D01*
X189010107Y-91974228D01*
X189112759Y-92042559D01*
X189230463Y-92079332D01*
X189239433Y-92079496D01*
X189239437Y-92079497D01*
X189295133Y-92080517D01*
X189353758Y-92081592D01*
X189413244Y-92065374D01*
X189464067Y-92051518D01*
X189464068Y-92051518D01*
X189472730Y-92049156D01*
X189480382Y-92044458D01*
X189570165Y-91989332D01*
X189570168Y-91989329D01*
X189577817Y-91984633D01*
X189587236Y-91974228D01*
X189654543Y-91899868D01*
X189654544Y-91899866D01*
X189660571Y-91893208D01*
X189673464Y-91866598D01*
X189710424Y-91790311D01*
X189710424Y-91790310D01*
X189714338Y-91782232D01*
X189734797Y-91660626D01*
X189734927Y-91650000D01*
X189732896Y-91635814D01*
X189718718Y-91536817D01*
X189718717Y-91536815D01*
X189717445Y-91527930D01*
X189673643Y-91431592D01*
X189670122Y-91423848D01*
X189670120Y-91423845D01*
X189666405Y-91415674D01*
X189585910Y-91322255D01*
X189482431Y-91255183D01*
X189473829Y-91252611D01*
X189473826Y-91252609D01*
X189372889Y-91222423D01*
X189372890Y-91222423D01*
X189364286Y-91219850D01*
X189355310Y-91219795D01*
X189355309Y-91219795D01*
X189304336Y-91219484D01*
X189240974Y-91219097D01*
X189122406Y-91252984D01*
X189018115Y-91318786D01*
X189012173Y-91325514D01*
X189012172Y-91325515D01*
X188977300Y-91365000D01*
X188936485Y-91411215D01*
X188884077Y-91522840D01*
X188882697Y-91531705D01*
X188882696Y-91531707D01*
X188870127Y-91612434D01*
X188865105Y-91644686D01*
X179476866Y-91644686D01*
X179508600Y-91606326D01*
X179578579Y-91457613D01*
X179580064Y-91449830D01*
X179580065Y-91449826D01*
X179607891Y-91303956D01*
X179607891Y-91303954D01*
X179609376Y-91296170D01*
X179607399Y-91264745D01*
X179623084Y-91195503D01*
X179673714Y-91145733D01*
X179743215Y-91131237D01*
X179760956Y-91133941D01*
X179773168Y-91136704D01*
X179851172Y-91154355D01*
X179851175Y-91154355D01*
X179856808Y-91155630D01*
X179862579Y-91155857D01*
X179862581Y-91155857D01*
X179925985Y-91158348D01*
X180064419Y-91163787D01*
X180167230Y-91148880D01*
X180264327Y-91134802D01*
X180264332Y-91134801D01*
X180270041Y-91133973D01*
X180275505Y-91132118D01*
X180275510Y-91132117D01*
X180461318Y-91069043D01*
X180466786Y-91067187D01*
X180596246Y-90994686D01*
X195915105Y-90994686D01*
X195916269Y-91003587D01*
X195916269Y-91003591D01*
X195927253Y-91087584D01*
X195931095Y-91116960D01*
X195980759Y-91229832D01*
X196060107Y-91324228D01*
X196070922Y-91331427D01*
X196128793Y-91369949D01*
X196162759Y-91392559D01*
X196171329Y-91395236D01*
X196171328Y-91395236D01*
X196262910Y-91423848D01*
X196280463Y-91429332D01*
X196289433Y-91429496D01*
X196289437Y-91429497D01*
X196345133Y-91430517D01*
X196403758Y-91431592D01*
X196478499Y-91411215D01*
X196514067Y-91401518D01*
X196514068Y-91401518D01*
X196522730Y-91399156D01*
X196530382Y-91394458D01*
X196620165Y-91339332D01*
X196620168Y-91339329D01*
X196627817Y-91334633D01*
X196635039Y-91326655D01*
X196704543Y-91249868D01*
X196704544Y-91249866D01*
X196710571Y-91243208D01*
X196717356Y-91229205D01*
X196760424Y-91140311D01*
X196760424Y-91140310D01*
X196764338Y-91132232D01*
X196784797Y-91010626D01*
X196784927Y-91000000D01*
X196782896Y-90985814D01*
X196768718Y-90886817D01*
X196768717Y-90886815D01*
X196767445Y-90877930D01*
X196743459Y-90825175D01*
X196720122Y-90773848D01*
X196720120Y-90773845D01*
X196718810Y-90770964D01*
X197021383Y-90770964D01*
X197022547Y-90779865D01*
X197022547Y-90779869D01*
X197035371Y-90877930D01*
X197037373Y-90893238D01*
X197087037Y-91006110D01*
X197166385Y-91100506D01*
X197210441Y-91129832D01*
X197261451Y-91163787D01*
X197269037Y-91168837D01*
X197386741Y-91205610D01*
X197395711Y-91205774D01*
X197395715Y-91205775D01*
X197451411Y-91206795D01*
X197510036Y-91207870D01*
X197569522Y-91191652D01*
X197620345Y-91177796D01*
X197620346Y-91177796D01*
X197629008Y-91175434D01*
X197636660Y-91170736D01*
X197726443Y-91115610D01*
X197726446Y-91115607D01*
X197734095Y-91110911D01*
X197742598Y-91101518D01*
X197810821Y-91026146D01*
X197810822Y-91026144D01*
X197816849Y-91019486D01*
X197822386Y-91008059D01*
X197866702Y-90916589D01*
X197866702Y-90916588D01*
X197870616Y-90908510D01*
X197891075Y-90786904D01*
X197891205Y-90776278D01*
X197889687Y-90765674D01*
X197879520Y-90694686D01*
X198465105Y-90694686D01*
X198466269Y-90703587D01*
X198466269Y-90703591D01*
X198477792Y-90791701D01*
X198481095Y-90816960D01*
X198530759Y-90929832D01*
X198536536Y-90936704D01*
X198603998Y-91016960D01*
X198610107Y-91024228D01*
X198712759Y-91092559D01*
X198762372Y-91108059D01*
X198811412Y-91123380D01*
X198830463Y-91129332D01*
X198839433Y-91129496D01*
X198839437Y-91129497D01*
X198895133Y-91130517D01*
X198953758Y-91131592D01*
X199040075Y-91108059D01*
X199064067Y-91101518D01*
X199064068Y-91101518D01*
X199072730Y-91099156D01*
X199080382Y-91094458D01*
X199170165Y-91039332D01*
X199170168Y-91039329D01*
X199177817Y-91034633D01*
X199187236Y-91024228D01*
X199254543Y-90949868D01*
X199254544Y-90949866D01*
X199260571Y-90943208D01*
X199274466Y-90914530D01*
X199284080Y-90894686D01*
X200565105Y-90894686D01*
X200566269Y-90903587D01*
X200566269Y-90903591D01*
X200574387Y-90965666D01*
X200581095Y-91016960D01*
X200630759Y-91129832D01*
X200671077Y-91177796D01*
X200701367Y-91213830D01*
X200710107Y-91224228D01*
X200812759Y-91292559D01*
X200833875Y-91299156D01*
X200907811Y-91322255D01*
X200930463Y-91329332D01*
X200939433Y-91329496D01*
X200939437Y-91329497D01*
X200995133Y-91330517D01*
X201053758Y-91331592D01*
X201118298Y-91313996D01*
X201164067Y-91301518D01*
X201164068Y-91301518D01*
X201172730Y-91299156D01*
X201180382Y-91294458D01*
X201270165Y-91239332D01*
X201270168Y-91239329D01*
X201277817Y-91234633D01*
X201287236Y-91224228D01*
X201354543Y-91149868D01*
X201354544Y-91149866D01*
X201360571Y-91143208D01*
X201365046Y-91133973D01*
X201410424Y-91040311D01*
X201410424Y-91040310D01*
X201414338Y-91032232D01*
X201434797Y-90910626D01*
X201434927Y-90900000D01*
X201433686Y-90891330D01*
X201418718Y-90786817D01*
X201418717Y-90786815D01*
X201417445Y-90777930D01*
X201382012Y-90700000D01*
X201370122Y-90673848D01*
X201370120Y-90673845D01*
X201366405Y-90665674D01*
X201285910Y-90572255D01*
X201182431Y-90505183D01*
X201173829Y-90502611D01*
X201173826Y-90502609D01*
X201072889Y-90472423D01*
X201072890Y-90472423D01*
X201064286Y-90469850D01*
X201055310Y-90469795D01*
X201055309Y-90469795D01*
X201004336Y-90469484D01*
X200940974Y-90469097D01*
X200822406Y-90502984D01*
X200718115Y-90568786D01*
X200712173Y-90575514D01*
X200712172Y-90575515D01*
X200687630Y-90603304D01*
X200636485Y-90661215D01*
X200584077Y-90772840D01*
X200582697Y-90781705D01*
X200582696Y-90781707D01*
X200567126Y-90881707D01*
X200565105Y-90894686D01*
X199284080Y-90894686D01*
X199310424Y-90840311D01*
X199310424Y-90840310D01*
X199314338Y-90832232D01*
X199334797Y-90710626D01*
X199334927Y-90700000D01*
X199332896Y-90685814D01*
X199318718Y-90586817D01*
X199318717Y-90586815D01*
X199317445Y-90577930D01*
X199286590Y-90510069D01*
X199270122Y-90473848D01*
X199270120Y-90473845D01*
X199266405Y-90465674D01*
X199185910Y-90372255D01*
X199082431Y-90305183D01*
X199073829Y-90302611D01*
X199073826Y-90302609D01*
X198972889Y-90272423D01*
X198972890Y-90272423D01*
X198964286Y-90269850D01*
X198955310Y-90269795D01*
X198955309Y-90269795D01*
X198904336Y-90269484D01*
X198840974Y-90269097D01*
X198722406Y-90302984D01*
X198618115Y-90368786D01*
X198536485Y-90461215D01*
X198484077Y-90572840D01*
X198482697Y-90581705D01*
X198482696Y-90581707D01*
X198467539Y-90679055D01*
X198465105Y-90694686D01*
X197879520Y-90694686D01*
X197874996Y-90663095D01*
X197874995Y-90663093D01*
X197873723Y-90654208D01*
X197850262Y-90602609D01*
X197826400Y-90550126D01*
X197826398Y-90550123D01*
X197822683Y-90541952D01*
X197742188Y-90448533D01*
X197638709Y-90381461D01*
X197630107Y-90378889D01*
X197630104Y-90378887D01*
X197529167Y-90348701D01*
X197529168Y-90348701D01*
X197520564Y-90346128D01*
X197511588Y-90346073D01*
X197511587Y-90346073D01*
X197460614Y-90345762D01*
X197397252Y-90345375D01*
X197278684Y-90379262D01*
X197174393Y-90445064D01*
X197168451Y-90451792D01*
X197168450Y-90451793D01*
X197148972Y-90473848D01*
X197092763Y-90537493D01*
X197040355Y-90649118D01*
X197038975Y-90657983D01*
X197038974Y-90657985D01*
X197023547Y-90757069D01*
X197021383Y-90770964D01*
X196718810Y-90770964D01*
X196716405Y-90765674D01*
X196635910Y-90672255D01*
X196532431Y-90605183D01*
X196523829Y-90602611D01*
X196523826Y-90602609D01*
X196444154Y-90578782D01*
X196414286Y-90569850D01*
X196405310Y-90569795D01*
X196405309Y-90569795D01*
X196354336Y-90569484D01*
X196290974Y-90569097D01*
X196172406Y-90602984D01*
X196068115Y-90668786D01*
X195986485Y-90761215D01*
X195934077Y-90872840D01*
X195932697Y-90881705D01*
X195932696Y-90881707D01*
X195919185Y-90968485D01*
X195915105Y-90994686D01*
X180596246Y-90994686D01*
X180648065Y-90965666D01*
X180807809Y-90832809D01*
X180940666Y-90673065D01*
X181042187Y-90491786D01*
X181070294Y-90408985D01*
X181107117Y-90300510D01*
X181107118Y-90300505D01*
X181108973Y-90295041D01*
X181109801Y-90289332D01*
X181109802Y-90289327D01*
X181138254Y-90093093D01*
X181138787Y-90089419D01*
X181140343Y-90030000D01*
X181121332Y-89823100D01*
X181098365Y-89741667D01*
X187003922Y-89741667D01*
X187005086Y-89750568D01*
X187005086Y-89750572D01*
X187018736Y-89854952D01*
X187019912Y-89863941D01*
X187069576Y-89976813D01*
X187148924Y-90071209D01*
X187251576Y-90139540D01*
X187369280Y-90176313D01*
X187378250Y-90176477D01*
X187378254Y-90176478D01*
X187433950Y-90177498D01*
X187492575Y-90178573D01*
X187552061Y-90162355D01*
X187602884Y-90148499D01*
X187602885Y-90148499D01*
X187611547Y-90146137D01*
X187619199Y-90141439D01*
X187708982Y-90086313D01*
X187708985Y-90086310D01*
X187716634Y-90081614D01*
X187726053Y-90071209D01*
X187793360Y-89996849D01*
X187793361Y-89996847D01*
X187799388Y-89990189D01*
X187853155Y-89879213D01*
X187873614Y-89757607D01*
X187873744Y-89746981D01*
X187871713Y-89732795D01*
X187857535Y-89633798D01*
X187857534Y-89633796D01*
X187856262Y-89624911D01*
X187805222Y-89512655D01*
X187724727Y-89419236D01*
X187621248Y-89352164D01*
X187612646Y-89349592D01*
X187612643Y-89349590D01*
X187511706Y-89319404D01*
X187511707Y-89319404D01*
X187503103Y-89316831D01*
X187494127Y-89316776D01*
X187494126Y-89316776D01*
X187443153Y-89316465D01*
X187379791Y-89316078D01*
X187261223Y-89349965D01*
X187156932Y-89415767D01*
X187075302Y-89508196D01*
X187022894Y-89619821D01*
X187021514Y-89628686D01*
X187021513Y-89628688D01*
X187014952Y-89670829D01*
X187003922Y-89741667D01*
X181098365Y-89741667D01*
X181064934Y-89623129D01*
X180973039Y-89436785D01*
X180906366Y-89347499D01*
X180852177Y-89274931D01*
X180852176Y-89274930D01*
X180848724Y-89270307D01*
X180750034Y-89179079D01*
X180700394Y-89133192D01*
X180700392Y-89133190D01*
X180696153Y-89129272D01*
X180573727Y-89052027D01*
X180525315Y-89021481D01*
X180520435Y-89018402D01*
X180327455Y-88941411D01*
X180321795Y-88940285D01*
X180321791Y-88940284D01*
X180129344Y-88902004D01*
X180129339Y-88902004D01*
X180123676Y-88900877D01*
X180117901Y-88900801D01*
X180117897Y-88900801D01*
X180013768Y-88899438D01*
X179915922Y-88898157D01*
X179910225Y-88899136D01*
X179910224Y-88899136D01*
X179716842Y-88932365D01*
X179716839Y-88932366D01*
X179711152Y-88933343D01*
X179516222Y-89005256D01*
X179337662Y-89111488D01*
X179181451Y-89248481D01*
X179052821Y-89411648D01*
X179050133Y-89416757D01*
X178958769Y-89590411D01*
X178958767Y-89590416D01*
X178956080Y-89595523D01*
X178947508Y-89623129D01*
X178905752Y-89757607D01*
X178894467Y-89793949D01*
X178870046Y-90000280D01*
X178883635Y-90207607D01*
X178885056Y-90213203D01*
X178885057Y-90213208D01*
X178929030Y-90386347D01*
X178934779Y-90408985D01*
X178946804Y-90435070D01*
X178957159Y-90505306D01*
X178927897Y-90569992D01*
X178868308Y-90608588D01*
X178848182Y-90612824D01*
X178791942Y-90619929D01*
X178784575Y-90622846D01*
X178784574Y-90622846D01*
X178766834Y-90629870D01*
X178639129Y-90680432D01*
X178632718Y-90685090D01*
X178632716Y-90685091D01*
X178542696Y-90750494D01*
X178506163Y-90777037D01*
X178401400Y-90903674D01*
X178398025Y-90910847D01*
X178398024Y-90910848D01*
X178395871Y-90915423D01*
X178331421Y-91052387D01*
X178329936Y-91060170D01*
X178329935Y-91060174D01*
X178302109Y-91206044D01*
X178300624Y-91213830D01*
X174401000Y-91213830D01*
X174401000Y-89865542D01*
X175169615Y-89865542D01*
X175172962Y-89905403D01*
X175180930Y-90000280D01*
X175186526Y-90066925D01*
X175188225Y-90072850D01*
X175218493Y-90178408D01*
X175242229Y-90261188D01*
X175245048Y-90266673D01*
X175331787Y-90435449D01*
X175331790Y-90435454D01*
X175334605Y-90440931D01*
X175460134Y-90599309D01*
X175464828Y-90603304D01*
X175596567Y-90715423D01*
X175614034Y-90730289D01*
X175619412Y-90733295D01*
X175619414Y-90733296D01*
X175687685Y-90771451D01*
X175790444Y-90828881D01*
X175982645Y-90891330D01*
X176183314Y-90915259D01*
X176189449Y-90914787D01*
X176189451Y-90914787D01*
X176378668Y-90900228D01*
X176378672Y-90900227D01*
X176384810Y-90899755D01*
X176390742Y-90898099D01*
X176390746Y-90898098D01*
X176573513Y-90847068D01*
X176573517Y-90847067D01*
X176579457Y-90845408D01*
X176584961Y-90842628D01*
X176584963Y-90842627D01*
X176754340Y-90757069D01*
X176754342Y-90757068D01*
X176759841Y-90754290D01*
X176919091Y-90629870D01*
X176942022Y-90603304D01*
X177047113Y-90481556D01*
X177047114Y-90481554D01*
X177051142Y-90476888D01*
X177150964Y-90301170D01*
X177214754Y-90109410D01*
X177219106Y-90074957D01*
X177239643Y-89912391D01*
X177239644Y-89912382D01*
X177240082Y-89908912D01*
X177240486Y-89880000D01*
X177220765Y-89678873D01*
X177218337Y-89670829D01*
X177164135Y-89491306D01*
X177162354Y-89485407D01*
X177067478Y-89306971D01*
X176939751Y-89150361D01*
X176784036Y-89021543D01*
X176778617Y-89018613D01*
X176778614Y-89018611D01*
X176611687Y-88928354D01*
X176611682Y-88928352D01*
X176606267Y-88925424D01*
X176582849Y-88918175D01*
X176419100Y-88867486D01*
X176419097Y-88867485D01*
X176413213Y-88865664D01*
X176407088Y-88865020D01*
X176407087Y-88865020D01*
X176218357Y-88845183D01*
X176218356Y-88845183D01*
X176212229Y-88844539D01*
X176127847Y-88852218D01*
X176017108Y-88862296D01*
X176017105Y-88862297D01*
X176010969Y-88862855D01*
X176005063Y-88864593D01*
X176005059Y-88864594D01*
X175890765Y-88898233D01*
X175817100Y-88919914D01*
X175779957Y-88939332D01*
X175653856Y-89005256D01*
X175638006Y-89013542D01*
X175480508Y-89140174D01*
X175476550Y-89144891D01*
X175476547Y-89144894D01*
X175471960Y-89150361D01*
X175350607Y-89294985D01*
X175347641Y-89300380D01*
X175347637Y-89300386D01*
X175256220Y-89466672D01*
X175256218Y-89466677D01*
X175253248Y-89472079D01*
X175251385Y-89477953D01*
X175251383Y-89477957D01*
X175201948Y-89633798D01*
X175192142Y-89664710D01*
X175169615Y-89865542D01*
X174401000Y-89865542D01*
X174401000Y-88244686D01*
X183265105Y-88244686D01*
X183266269Y-88253587D01*
X183266269Y-88253591D01*
X183273016Y-88305183D01*
X183281095Y-88366960D01*
X183330759Y-88479832D01*
X183410107Y-88574228D01*
X183429019Y-88586817D01*
X183479771Y-88620600D01*
X183512759Y-88642559D01*
X183630463Y-88679332D01*
X183639433Y-88679496D01*
X183639437Y-88679497D01*
X183695133Y-88680517D01*
X183753758Y-88681592D01*
X183813244Y-88665374D01*
X183864067Y-88651518D01*
X183864068Y-88651518D01*
X183872730Y-88649156D01*
X183880382Y-88644458D01*
X183927894Y-88615286D01*
X184807305Y-88615286D01*
X184808469Y-88624187D01*
X184808469Y-88624191D01*
X184811734Y-88649156D01*
X184823295Y-88737560D01*
X184872959Y-88850432D01*
X184916310Y-88902004D01*
X184939175Y-88929205D01*
X184952307Y-88944828D01*
X184967938Y-88955233D01*
X185043087Y-89005256D01*
X185054959Y-89013159D01*
X185106726Y-89029332D01*
X185123694Y-89034633D01*
X185172663Y-89049932D01*
X185181633Y-89050096D01*
X185181637Y-89050097D01*
X185237333Y-89051117D01*
X185295958Y-89052192D01*
X185379806Y-89029332D01*
X185406267Y-89022118D01*
X185406268Y-89022118D01*
X185414930Y-89019756D01*
X185425051Y-89013542D01*
X185512365Y-88959932D01*
X185512368Y-88959929D01*
X185520017Y-88955233D01*
X185529436Y-88944828D01*
X185596743Y-88870468D01*
X185596744Y-88870466D01*
X185602771Y-88863808D01*
X185616669Y-88835124D01*
X185652624Y-88760911D01*
X185652624Y-88760910D01*
X185656538Y-88752832D01*
X185676997Y-88631226D01*
X185677127Y-88620600D01*
X185675096Y-88606414D01*
X185673416Y-88594686D01*
X188615105Y-88594686D01*
X188616269Y-88603587D01*
X188616269Y-88603591D01*
X188622228Y-88649156D01*
X188631095Y-88716960D01*
X188680759Y-88829832D01*
X188760107Y-88924228D01*
X188862759Y-88992559D01*
X188903400Y-89005256D01*
X188968108Y-89025472D01*
X188980463Y-89029332D01*
X188989433Y-89029496D01*
X188989437Y-89029497D01*
X189045133Y-89030517D01*
X189103758Y-89031592D01*
X189189525Y-89008209D01*
X189214067Y-89001518D01*
X189214068Y-89001518D01*
X189222730Y-88999156D01*
X189230382Y-88994458D01*
X189320165Y-88939332D01*
X189320168Y-88939329D01*
X189327817Y-88934633D01*
X189337236Y-88924228D01*
X189404543Y-88849868D01*
X189404544Y-88849866D01*
X189410571Y-88843208D01*
X189427601Y-88808059D01*
X189460424Y-88740311D01*
X189460424Y-88740310D01*
X189464338Y-88732232D01*
X189470655Y-88694686D01*
X192965105Y-88694686D01*
X192966269Y-88703587D01*
X192966269Y-88703591D01*
X192971071Y-88740311D01*
X192981095Y-88816960D01*
X193030759Y-88929832D01*
X193085083Y-88994458D01*
X193100803Y-89013159D01*
X193110107Y-89024228D01*
X193212759Y-89092559D01*
X193221329Y-89095236D01*
X193221328Y-89095236D01*
X193285543Y-89115298D01*
X193330463Y-89129332D01*
X193339433Y-89129496D01*
X193339437Y-89129497D01*
X193395133Y-89130517D01*
X193453758Y-89131592D01*
X193513523Y-89115298D01*
X193564067Y-89101518D01*
X193564068Y-89101518D01*
X193572730Y-89099156D01*
X193580382Y-89094458D01*
X193670165Y-89039332D01*
X193670168Y-89039329D01*
X193677817Y-89034633D01*
X193685039Y-89026655D01*
X193754543Y-88949868D01*
X193754544Y-88949866D01*
X193760571Y-88943208D01*
X193765825Y-88932365D01*
X193810424Y-88840311D01*
X193810424Y-88840310D01*
X193814338Y-88832232D01*
X193834797Y-88710626D01*
X193834927Y-88700000D01*
X193832896Y-88685814D01*
X193818718Y-88586817D01*
X193818717Y-88586815D01*
X193817445Y-88577930D01*
X193796921Y-88532791D01*
X193770122Y-88473848D01*
X193770120Y-88473845D01*
X193766405Y-88465674D01*
X193685910Y-88372255D01*
X193582431Y-88305183D01*
X193573829Y-88302611D01*
X193573826Y-88302609D01*
X193472889Y-88272423D01*
X193472890Y-88272423D01*
X193464286Y-88269850D01*
X193455310Y-88269795D01*
X193455309Y-88269795D01*
X193404336Y-88269484D01*
X193340974Y-88269097D01*
X193222406Y-88302984D01*
X193118115Y-88368786D01*
X193036485Y-88461215D01*
X192984077Y-88572840D01*
X192982697Y-88581705D01*
X192982696Y-88581707D01*
X192967144Y-88681592D01*
X192965105Y-88694686D01*
X189470655Y-88694686D01*
X189484797Y-88610626D01*
X189484927Y-88600000D01*
X189482896Y-88585814D01*
X189468718Y-88486817D01*
X189468717Y-88486815D01*
X189467445Y-88477930D01*
X189427439Y-88389941D01*
X189420122Y-88373848D01*
X189420120Y-88373845D01*
X189416405Y-88365674D01*
X189335910Y-88272255D01*
X189232431Y-88205183D01*
X189223829Y-88202611D01*
X189223826Y-88202609D01*
X189122889Y-88172423D01*
X189122890Y-88172423D01*
X189114286Y-88169850D01*
X189105310Y-88169795D01*
X189105309Y-88169795D01*
X189054336Y-88169484D01*
X188990974Y-88169097D01*
X188872406Y-88202984D01*
X188768115Y-88268786D01*
X188762173Y-88275514D01*
X188762172Y-88275515D01*
X188735970Y-88305183D01*
X188686485Y-88361215D01*
X188634077Y-88472840D01*
X188632697Y-88481705D01*
X188632696Y-88481707D01*
X188617126Y-88581707D01*
X188615105Y-88594686D01*
X185673416Y-88594686D01*
X185660918Y-88507417D01*
X185660917Y-88507415D01*
X185659645Y-88498530D01*
X185608605Y-88386274D01*
X185528110Y-88292855D01*
X185424631Y-88225783D01*
X185416029Y-88223211D01*
X185416026Y-88223209D01*
X185315089Y-88193023D01*
X185315090Y-88193023D01*
X185306486Y-88190450D01*
X185297510Y-88190395D01*
X185297509Y-88190395D01*
X185246536Y-88190084D01*
X185183174Y-88189697D01*
X185064606Y-88223584D01*
X184960315Y-88289386D01*
X184954373Y-88296114D01*
X184954372Y-88296115D01*
X184919500Y-88335601D01*
X184878685Y-88381815D01*
X184826277Y-88493440D01*
X184824897Y-88502305D01*
X184824896Y-88502307D01*
X184808788Y-88605764D01*
X184807305Y-88615286D01*
X183927894Y-88615286D01*
X183970165Y-88589332D01*
X183970168Y-88589329D01*
X183977817Y-88584633D01*
X183983885Y-88577930D01*
X184054543Y-88499868D01*
X184054544Y-88499866D01*
X184060571Y-88493208D01*
X184066144Y-88481707D01*
X184110424Y-88390311D01*
X184110424Y-88390310D01*
X184114338Y-88382232D01*
X184134797Y-88260626D01*
X184134927Y-88250000D01*
X184132896Y-88235814D01*
X184118718Y-88136817D01*
X184118717Y-88136815D01*
X184117445Y-88127930D01*
X184066405Y-88015674D01*
X183985910Y-87922255D01*
X183882431Y-87855183D01*
X183873829Y-87852611D01*
X183873826Y-87852609D01*
X183772889Y-87822423D01*
X183772890Y-87822423D01*
X183764286Y-87819850D01*
X183755310Y-87819795D01*
X183755309Y-87819795D01*
X183704336Y-87819484D01*
X183640974Y-87819097D01*
X183522406Y-87852984D01*
X183418115Y-87918786D01*
X183336485Y-88011215D01*
X183284077Y-88122840D01*
X183282697Y-88131705D01*
X183282696Y-88131707D01*
X183267288Y-88230669D01*
X183265105Y-88244686D01*
X174401000Y-88244686D01*
X174401000Y-86827000D01*
X174421002Y-86758879D01*
X174474658Y-86712386D01*
X174527000Y-86701000D01*
X202345596Y-86701000D01*
X202413717Y-86721002D01*
G37*
%TD.AperFunction*%
%TD*%
M02*
