%TF.GenerationSoftware,KiCad,Pcbnew,6.0.5-a6ca702e91~116~ubuntu20.04.1*%
%TF.CreationDate,2022-07-26T15:57:37+01:00*%
%TF.ProjectId,sd-mux,73642d6d-7578-42e6-9b69-6361645f7063,rev?*%
%TF.SameCoordinates,Original*%
%TF.FileFunction,Copper,L3,Inr*%
%TF.FilePolarity,Positive*%
%FSLAX46Y46*%
G04 Gerber Fmt 4.6, Leading zero omitted, Abs format (unit mm)*
G04 Created by KiCad (PCBNEW 6.0.5-a6ca702e91~116~ubuntu20.04.1) date 2022-07-26 15:57:37*
%MOMM*%
%LPD*%
G01*
G04 APERTURE LIST*
%TA.AperFunction,ComponentPad*%
%ADD10C,2.000000*%
%TD*%
%TA.AperFunction,ComponentPad*%
%ADD11C,1.800000*%
%TD*%
%TA.AperFunction,ViaPad*%
%ADD12C,0.600000*%
%TD*%
G04 APERTURE END LIST*
D10*
%TO.N,Net-(C8-Pad1)*%
%TO.C,J1*%
X180005000Y-90030000D03*
D11*
X176205000Y-89880000D03*
X176205000Y-97630000D03*
D10*
X180005000Y-97480000D03*
%TD*%
D12*
%TO.N,GND*%
X190575000Y-100900000D03*
X180950000Y-96075000D03*
X177700000Y-96075000D03*
X192225000Y-87250000D03*
%TO.N,/VD33*%
X185175000Y-88625000D03*
%TO.N,GND*%
X184875000Y-90300000D03*
X186875000Y-93750000D03*
X179375000Y-110925000D03*
X179650000Y-112450000D03*
X179675000Y-113325000D03*
X178925000Y-114850000D03*
X195800000Y-112800000D03*
%TO.N,Net-(R12-Pad2)*%
X189475000Y-108200000D03*
X192550000Y-111575000D03*
%TO.N,Net-(R11-Pad2)*%
X189520541Y-107427641D03*
X192600000Y-110775000D03*
%TO.N,/VCCIO*%
X189725000Y-105550000D03*
X192650000Y-109975000D03*
%TO.N,GND*%
X195875000Y-98279500D03*
X198425000Y-96550000D03*
%TO.N,/VD33*%
X208375000Y-94875000D03*
X198175000Y-87625000D03*
%TO.N,/SD_MUX_SEL*%
X198350000Y-90750000D03*
%TO.N,GND*%
X200625000Y-93025000D03*
X207650000Y-99425000D03*
X204725000Y-97225000D03*
X192350000Y-118350000D03*
%TO.N,/SD_nCD*%
X189125000Y-117150000D03*
%TO.N,GND*%
X204375000Y-112575000D03*
%TO.N,Net-(R4-Pad2)*%
X207675000Y-100250000D03*
X199400000Y-99200000D03*
%TO.N,/VD33*%
X204375000Y-108175000D03*
%TO.N,Net-(R16-Pad1)*%
X193925000Y-99525000D03*
%TO.N,/SD_nCD*%
X194475000Y-99000000D03*
%TO.N,GND*%
X195554500Y-100650000D03*
%TO.N,Net-(C13-Pad1)*%
X191927498Y-98025000D03*
%TO.N,/VD33*%
X188600000Y-104575000D03*
%TO.N,GND*%
X186925000Y-104675000D03*
%TO.N,Net-(C11-Pad1)*%
X188625000Y-100825000D03*
%TO.N,GND*%
X182775000Y-87775000D03*
X178000000Y-88925000D03*
X181075000Y-98725000D03*
X179875000Y-100050000D03*
%TO.N,/XTAL1*%
X179900000Y-103275000D03*
%TO.N,/XTAL2*%
X182100000Y-100325000D03*
%TO.N,/XTAL1*%
X183887088Y-97445372D03*
%TO.N,/XTAL2*%
X183395586Y-95879414D03*
%TO.N,GND*%
X196100000Y-88600000D03*
%TO.N,/VBUS*%
X182650000Y-114075000D03*
%TO.N,GND*%
X182525000Y-104100000D03*
%TO.N,/VD33*%
X201237134Y-108125000D03*
%TO.N,Net-(FB2-Pad2)*%
X182000000Y-95050000D03*
%TO.N,GND*%
X208400000Y-107000000D03*
X183375000Y-115850000D03*
X184103409Y-94196591D03*
X178300000Y-112675000D03*
X187550000Y-106950000D03*
X199150000Y-108250000D03*
X202150000Y-119400000D03*
X186450000Y-110300000D03*
X191929951Y-98820165D03*
X198800000Y-119900000D03*
X190850000Y-119650000D03*
%TO.N,/VD33*%
X196600000Y-120000000D03*
X178450000Y-110750000D03*
X191100000Y-113350000D03*
%TO.N,/VBUS*%
X176250000Y-116150000D03*
X188209700Y-109250000D03*
%TO.N,/SD_MUX_SEL*%
X196570600Y-102235000D03*
X198551800Y-105304100D03*
%TO.N,/SD_D1_DUT*%
X222478600Y-109118400D03*
X196545200Y-104597200D03*
%TO.N,/SD_D0_DUT*%
X202311000Y-104749600D03*
X205079600Y-104749600D03*
%TO.N,/SD_D0*%
X198500000Y-107850000D03*
%TO.N,/SD_D1*%
X200900000Y-117650000D03*
X200150000Y-111550000D03*
X200900000Y-119850000D03*
%TO.N,/SD_D2*%
X199250000Y-113600000D03*
%TO.N,/SD_D3*%
X199250000Y-114600000D03*
%TO.N,/SD_CLK*%
X197700000Y-119900000D03*
%TO.N,/SD_CMD*%
X199100000Y-116650000D03*
X203775000Y-108750000D03*
X201872500Y-113400000D03*
%TO.N,/SD_D2_HUB*%
X202438000Y-95758000D03*
X188400000Y-93736498D03*
X197456278Y-90776278D03*
X202438000Y-98145600D03*
%TO.N,/SD_CMD_HUB*%
X201777600Y-99161600D03*
X198096209Y-93546591D03*
%TO.N,/SD_D3_HUB*%
X201142600Y-95808800D03*
X196350000Y-91000000D03*
X189300000Y-91650000D03*
X201142600Y-98196400D03*
%TO.N,/SD_CLK_HUB*%
X200482200Y-99237800D03*
X199593200Y-95046800D03*
%TO.N,/SD_CLK_DUT*%
X222377000Y-105867200D03*
X199821800Y-103225600D03*
%TO.N,/SD_D3_DUT*%
X222326200Y-102565200D03*
X198551800Y-103149400D03*
%TO.N,/SD_CMD_DUT*%
X201218800Y-103657400D03*
X222351600Y-103657400D03*
%TO.N,/SD_D2_DUT*%
X222351600Y-101447600D03*
X197256400Y-103047800D03*
%TO.N,Net-(C13-Pad1)*%
X192750000Y-99750000D03*
X187623458Y-93714897D03*
%TO.N,/USBUP_D_N*%
X183261000Y-94996000D03*
%TO.N,/USBUP_D_P*%
X184073800Y-94970600D03*
%TO.N,/USBDN_D_P2*%
X183792509Y-108380837D03*
X185064400Y-100863400D03*
%TD*%
%TA.AperFunction,Conductor*%
%TO.N,/VD33*%
G36*
X191926639Y-86721002D02*
G01*
X191973132Y-86774658D01*
X191983236Y-86844932D01*
X191953742Y-86909512D01*
X191946613Y-86916579D01*
X191943115Y-86918786D01*
X191861485Y-87011215D01*
X191809077Y-87122840D01*
X191807697Y-87131705D01*
X191807696Y-87131707D01*
X191806901Y-87136817D01*
X191790105Y-87244686D01*
X191791269Y-87253587D01*
X191791269Y-87253591D01*
X191803105Y-87344097D01*
X191806095Y-87366960D01*
X191855759Y-87479832D01*
X191935107Y-87574228D01*
X192037759Y-87642559D01*
X192046329Y-87645236D01*
X192046328Y-87645236D01*
X192099401Y-87661817D01*
X192155463Y-87679332D01*
X192164433Y-87679496D01*
X192164437Y-87679497D01*
X192220133Y-87680517D01*
X192278758Y-87681592D01*
X192370034Y-87656707D01*
X192389067Y-87651518D01*
X192389068Y-87651518D01*
X192397730Y-87649156D01*
X192405382Y-87644458D01*
X192495165Y-87589332D01*
X192495168Y-87589329D01*
X192502817Y-87584633D01*
X192512236Y-87574228D01*
X192579543Y-87499868D01*
X192579544Y-87499866D01*
X192585571Y-87493208D01*
X192604541Y-87454055D01*
X192635424Y-87390311D01*
X192635424Y-87390310D01*
X192639338Y-87382232D01*
X192659797Y-87260626D01*
X192659927Y-87250000D01*
X192657896Y-87235814D01*
X192643718Y-87136817D01*
X192643717Y-87136815D01*
X192642445Y-87127930D01*
X192591405Y-87015674D01*
X192510910Y-86922255D01*
X192507345Y-86919944D01*
X192470439Y-86862098D01*
X192470674Y-86791102D01*
X192509255Y-86731503D01*
X192573933Y-86702224D01*
X192591452Y-86701000D01*
X202345596Y-86701000D01*
X202413717Y-86721002D01*
X202436808Y-86740073D01*
X209401949Y-94048565D01*
X209434466Y-94111677D01*
X209436734Y-94136355D01*
X209362436Y-104979615D01*
X209290151Y-115529055D01*
X209289189Y-115669400D01*
X209268721Y-115737382D01*
X209263943Y-115744203D01*
X207186655Y-118510158D01*
X207174999Y-118523587D01*
X202736491Y-122962095D01*
X202674179Y-122996121D01*
X202647396Y-122999000D01*
X179852604Y-122999000D01*
X179784483Y-122978998D01*
X179763509Y-122962095D01*
X176446100Y-119644686D01*
X190415105Y-119644686D01*
X190416269Y-119653587D01*
X190416269Y-119653591D01*
X190427153Y-119736817D01*
X190431095Y-119766960D01*
X190480759Y-119879832D01*
X190540329Y-119950699D01*
X190553998Y-119966960D01*
X190560107Y-119974228D01*
X190662759Y-120042559D01*
X190780463Y-120079332D01*
X190789433Y-120079496D01*
X190789437Y-120079497D01*
X190845133Y-120080517D01*
X190903758Y-120081592D01*
X190963244Y-120065374D01*
X191014067Y-120051518D01*
X191014068Y-120051518D01*
X191022730Y-120049156D01*
X191030382Y-120044458D01*
X191120165Y-119989332D01*
X191120168Y-119989329D01*
X191127817Y-119984633D01*
X191137236Y-119974228D01*
X191204543Y-119899868D01*
X191204544Y-119899866D01*
X191209233Y-119894686D01*
X197265105Y-119894686D01*
X197266269Y-119903587D01*
X197266269Y-119903591D01*
X197277482Y-119989332D01*
X197281095Y-120016960D01*
X197330759Y-120129832D01*
X197410107Y-120224228D01*
X197432797Y-120239332D01*
X197496284Y-120281592D01*
X197512759Y-120292559D01*
X197630463Y-120329332D01*
X197639433Y-120329496D01*
X197639437Y-120329497D01*
X197695133Y-120330517D01*
X197753758Y-120331592D01*
X197813244Y-120315374D01*
X197864067Y-120301518D01*
X197864068Y-120301518D01*
X197872730Y-120299156D01*
X197880382Y-120294458D01*
X197970165Y-120239332D01*
X197970168Y-120239329D01*
X197977817Y-120234633D01*
X197987236Y-120224228D01*
X198054543Y-120149868D01*
X198054544Y-120149866D01*
X198060571Y-120143208D01*
X198088713Y-120085124D01*
X198110424Y-120040311D01*
X198110424Y-120040310D01*
X198114338Y-120032232D01*
X198121391Y-119990311D01*
X198125682Y-119964805D01*
X198156709Y-119900947D01*
X198156747Y-119900924D01*
X198340351Y-119900924D01*
X198347104Y-119905495D01*
X198374872Y-119969371D01*
X198381095Y-120016960D01*
X198430759Y-120129832D01*
X198510107Y-120224228D01*
X198532797Y-120239332D01*
X198596284Y-120281592D01*
X198612759Y-120292559D01*
X198730463Y-120329332D01*
X198739433Y-120329496D01*
X198739437Y-120329497D01*
X198795133Y-120330517D01*
X198853758Y-120331592D01*
X198913244Y-120315374D01*
X198964067Y-120301518D01*
X198964068Y-120301518D01*
X198972730Y-120299156D01*
X198980382Y-120294458D01*
X199070165Y-120239332D01*
X199070168Y-120239329D01*
X199077817Y-120234633D01*
X199087236Y-120224228D01*
X199154543Y-120149868D01*
X199154544Y-120149866D01*
X199160571Y-120143208D01*
X199188713Y-120085124D01*
X199210424Y-120040311D01*
X199210424Y-120040310D01*
X199214338Y-120032232D01*
X199234797Y-119910626D01*
X199234927Y-119900000D01*
X199233955Y-119893208D01*
X199227006Y-119844686D01*
X200465105Y-119844686D01*
X200466269Y-119853587D01*
X200466269Y-119853591D01*
X200473057Y-119905495D01*
X200481095Y-119966960D01*
X200530759Y-120079832D01*
X200610107Y-120174228D01*
X200617585Y-120179205D01*
X200617584Y-120179205D01*
X200692698Y-120229205D01*
X200712759Y-120242559D01*
X200830463Y-120279332D01*
X200839433Y-120279496D01*
X200839437Y-120279497D01*
X200895133Y-120280517D01*
X200953758Y-120281592D01*
X201013244Y-120265374D01*
X201064067Y-120251518D01*
X201064068Y-120251518D01*
X201072730Y-120249156D01*
X201080382Y-120244458D01*
X201170165Y-120189332D01*
X201170168Y-120189329D01*
X201177817Y-120184633D01*
X201187236Y-120174228D01*
X201254543Y-120099868D01*
X201254544Y-120099866D01*
X201260571Y-120093208D01*
X201267344Y-120079230D01*
X201310424Y-119990311D01*
X201310424Y-119990310D01*
X201314338Y-119982232D01*
X201334797Y-119860626D01*
X201334927Y-119850000D01*
X201332896Y-119835814D01*
X201318718Y-119736817D01*
X201318717Y-119736815D01*
X201317445Y-119727930D01*
X201289025Y-119665423D01*
X201270122Y-119623848D01*
X201270120Y-119623845D01*
X201266405Y-119615674D01*
X201185910Y-119522255D01*
X201082431Y-119455183D01*
X201073829Y-119452611D01*
X201073826Y-119452609D01*
X200972889Y-119422423D01*
X200972890Y-119422423D01*
X200964286Y-119419850D01*
X200955310Y-119419795D01*
X200955309Y-119419795D01*
X200904336Y-119419484D01*
X200840974Y-119419097D01*
X200722406Y-119452984D01*
X200618115Y-119518786D01*
X200612173Y-119525514D01*
X200612172Y-119525515D01*
X200606240Y-119532232D01*
X200536485Y-119611215D01*
X200484077Y-119722840D01*
X200482697Y-119731705D01*
X200482696Y-119731707D01*
X200467144Y-119831592D01*
X200465105Y-119844686D01*
X199227006Y-119844686D01*
X199218718Y-119786817D01*
X199218717Y-119786815D01*
X199217445Y-119777930D01*
X199166405Y-119665674D01*
X199085910Y-119572255D01*
X198982431Y-119505183D01*
X198973829Y-119502611D01*
X198973826Y-119502609D01*
X198872889Y-119472423D01*
X198872890Y-119472423D01*
X198864286Y-119469850D01*
X198855310Y-119469795D01*
X198855309Y-119469795D01*
X198804336Y-119469484D01*
X198740974Y-119469097D01*
X198622406Y-119502984D01*
X198518115Y-119568786D01*
X198436485Y-119661215D01*
X198384077Y-119772840D01*
X198382697Y-119781705D01*
X198382696Y-119781707D01*
X198380711Y-119794458D01*
X198374755Y-119832713D01*
X198374518Y-119834234D01*
X198344274Y-119898467D01*
X198340351Y-119900924D01*
X198156747Y-119900924D01*
X198158922Y-119899598D01*
X198153838Y-119896247D01*
X198125291Y-119832713D01*
X198118718Y-119786817D01*
X198118717Y-119786815D01*
X198117445Y-119777930D01*
X198066405Y-119665674D01*
X197985910Y-119572255D01*
X197882431Y-119505183D01*
X197873829Y-119502611D01*
X197873826Y-119502609D01*
X197772889Y-119472423D01*
X197772890Y-119472423D01*
X197764286Y-119469850D01*
X197755310Y-119469795D01*
X197755309Y-119469795D01*
X197704336Y-119469484D01*
X197640974Y-119469097D01*
X197522406Y-119502984D01*
X197418115Y-119568786D01*
X197336485Y-119661215D01*
X197284077Y-119772840D01*
X197282697Y-119781705D01*
X197282696Y-119781707D01*
X197266594Y-119885124D01*
X197265105Y-119894686D01*
X191209233Y-119894686D01*
X191210571Y-119893208D01*
X191228713Y-119855764D01*
X191260424Y-119790311D01*
X191260424Y-119790310D01*
X191264338Y-119782232D01*
X191284797Y-119660626D01*
X191284927Y-119650000D01*
X191283955Y-119643208D01*
X191268718Y-119536817D01*
X191268717Y-119536815D01*
X191267445Y-119527930D01*
X191241817Y-119471564D01*
X191220122Y-119423848D01*
X191220120Y-119423845D01*
X191216405Y-119415674D01*
X191198321Y-119394686D01*
X201715105Y-119394686D01*
X201716269Y-119403587D01*
X201716269Y-119403591D01*
X201723016Y-119455183D01*
X201731095Y-119516960D01*
X201780759Y-119629832D01*
X201860107Y-119724228D01*
X201962759Y-119792559D01*
X202080463Y-119829332D01*
X202089433Y-119829496D01*
X202089437Y-119829497D01*
X202145133Y-119830517D01*
X202203758Y-119831592D01*
X202263244Y-119815374D01*
X202314067Y-119801518D01*
X202314068Y-119801518D01*
X202322730Y-119799156D01*
X202330382Y-119794458D01*
X202420165Y-119739332D01*
X202420168Y-119739329D01*
X202427817Y-119734633D01*
X202433885Y-119727930D01*
X202504543Y-119649868D01*
X202504544Y-119649866D01*
X202510571Y-119643208D01*
X202522135Y-119619341D01*
X202560424Y-119540311D01*
X202560424Y-119540310D01*
X202564338Y-119532232D01*
X202584797Y-119410626D01*
X202584927Y-119400000D01*
X202582896Y-119385814D01*
X202568718Y-119286817D01*
X202568717Y-119286815D01*
X202567445Y-119277930D01*
X202541817Y-119221564D01*
X202520122Y-119173848D01*
X202520120Y-119173845D01*
X202516405Y-119165674D01*
X202435910Y-119072255D01*
X202332431Y-119005183D01*
X202323829Y-119002611D01*
X202323826Y-119002609D01*
X202222889Y-118972423D01*
X202222890Y-118972423D01*
X202214286Y-118969850D01*
X202205310Y-118969795D01*
X202205309Y-118969795D01*
X202154336Y-118969484D01*
X202090974Y-118969097D01*
X201972406Y-119002984D01*
X201868115Y-119068786D01*
X201786485Y-119161215D01*
X201734077Y-119272840D01*
X201732697Y-119281705D01*
X201732696Y-119281707D01*
X201726383Y-119322255D01*
X201715105Y-119394686D01*
X191198321Y-119394686D01*
X191135910Y-119322255D01*
X191032431Y-119255183D01*
X191023829Y-119252611D01*
X191023826Y-119252609D01*
X190922889Y-119222423D01*
X190922890Y-119222423D01*
X190914286Y-119219850D01*
X190905310Y-119219795D01*
X190905309Y-119219795D01*
X190854336Y-119219484D01*
X190790974Y-119219097D01*
X190672406Y-119252984D01*
X190568115Y-119318786D01*
X190486485Y-119411215D01*
X190434077Y-119522840D01*
X190432697Y-119531705D01*
X190432696Y-119531707D01*
X190416594Y-119635124D01*
X190415105Y-119644686D01*
X176446100Y-119644686D01*
X175146100Y-118344686D01*
X191915105Y-118344686D01*
X191916269Y-118353587D01*
X191916269Y-118353591D01*
X191929919Y-118457971D01*
X191931095Y-118466960D01*
X191980759Y-118579832D01*
X192060107Y-118674228D01*
X192162759Y-118742559D01*
X192280463Y-118779332D01*
X192289433Y-118779496D01*
X192289437Y-118779497D01*
X192345133Y-118780517D01*
X192403758Y-118781592D01*
X192463244Y-118765374D01*
X192514067Y-118751518D01*
X192514068Y-118751518D01*
X192522730Y-118749156D01*
X192530382Y-118744458D01*
X192620165Y-118689332D01*
X192620168Y-118689329D01*
X192627817Y-118684633D01*
X192637236Y-118674228D01*
X192704543Y-118599868D01*
X192704544Y-118599866D01*
X192710571Y-118593208D01*
X192764338Y-118482232D01*
X192784797Y-118360626D01*
X192784927Y-118350000D01*
X192782896Y-118335814D01*
X192768718Y-118236817D01*
X192768717Y-118236815D01*
X192767445Y-118227930D01*
X192716405Y-118115674D01*
X192635910Y-118022255D01*
X192532431Y-117955183D01*
X192523829Y-117952611D01*
X192523826Y-117952609D01*
X192422889Y-117922423D01*
X192422890Y-117922423D01*
X192414286Y-117919850D01*
X192405310Y-117919795D01*
X192405309Y-117919795D01*
X192354336Y-117919484D01*
X192290974Y-117919097D01*
X192172406Y-117952984D01*
X192068115Y-118018786D01*
X192062173Y-118025514D01*
X192062172Y-118025515D01*
X192045442Y-118044458D01*
X191986485Y-118111215D01*
X191934077Y-118222840D01*
X191932697Y-118231705D01*
X191932696Y-118231707D01*
X191931901Y-118236817D01*
X191915105Y-118344686D01*
X175146100Y-118344686D01*
X174446100Y-117644686D01*
X200465105Y-117644686D01*
X200466269Y-117653587D01*
X200466269Y-117653591D01*
X200479919Y-117757971D01*
X200481095Y-117766960D01*
X200530759Y-117879832D01*
X200610107Y-117974228D01*
X200712759Y-118042559D01*
X200830463Y-118079332D01*
X200839433Y-118079496D01*
X200839437Y-118079497D01*
X200895133Y-118080517D01*
X200953758Y-118081592D01*
X201013244Y-118065374D01*
X201064067Y-118051518D01*
X201064068Y-118051518D01*
X201072730Y-118049156D01*
X201080382Y-118044458D01*
X201170165Y-117989332D01*
X201170168Y-117989329D01*
X201177817Y-117984633D01*
X201187236Y-117974228D01*
X201254543Y-117899868D01*
X201254544Y-117899866D01*
X201260571Y-117893208D01*
X201314338Y-117782232D01*
X201334797Y-117660626D01*
X201334927Y-117650000D01*
X201332993Y-117636491D01*
X201318718Y-117536817D01*
X201318717Y-117536815D01*
X201317445Y-117527930D01*
X201266405Y-117415674D01*
X201185910Y-117322255D01*
X201082431Y-117255183D01*
X201073829Y-117252611D01*
X201073826Y-117252609D01*
X200972889Y-117222423D01*
X200972890Y-117222423D01*
X200964286Y-117219850D01*
X200955310Y-117219795D01*
X200955309Y-117219795D01*
X200904336Y-117219484D01*
X200840974Y-117219097D01*
X200722406Y-117252984D01*
X200618115Y-117318786D01*
X200536485Y-117411215D01*
X200484077Y-117522840D01*
X200482697Y-117531705D01*
X200482696Y-117531707D01*
X200471944Y-117600765D01*
X200465105Y-117644686D01*
X174446100Y-117644686D01*
X174437905Y-117636491D01*
X174403879Y-117574179D01*
X174401000Y-117547396D01*
X174401000Y-117144686D01*
X188690105Y-117144686D01*
X188691269Y-117153587D01*
X188691269Y-117153591D01*
X188699836Y-117219097D01*
X188706095Y-117266960D01*
X188755759Y-117379832D01*
X188835107Y-117474228D01*
X188937759Y-117542559D01*
X189055463Y-117579332D01*
X189064433Y-117579496D01*
X189064437Y-117579497D01*
X189120133Y-117580517D01*
X189178758Y-117581592D01*
X189238244Y-117565374D01*
X189289067Y-117551518D01*
X189289068Y-117551518D01*
X189297730Y-117549156D01*
X189305382Y-117544458D01*
X189395165Y-117489332D01*
X189395168Y-117489329D01*
X189402817Y-117484633D01*
X189412236Y-117474228D01*
X189479543Y-117399868D01*
X189479544Y-117399866D01*
X189485571Y-117393208D01*
X189539338Y-117282232D01*
X189559797Y-117160626D01*
X189559927Y-117150000D01*
X189557896Y-117135814D01*
X189543718Y-117036817D01*
X189543717Y-117036815D01*
X189542445Y-117027930D01*
X189491405Y-116915674D01*
X189410910Y-116822255D01*
X189307431Y-116755183D01*
X189298829Y-116752611D01*
X189298826Y-116752609D01*
X189197889Y-116722423D01*
X189197890Y-116722423D01*
X189189286Y-116719850D01*
X189180310Y-116719795D01*
X189180309Y-116719795D01*
X189129336Y-116719484D01*
X189065974Y-116719097D01*
X188947406Y-116752984D01*
X188843115Y-116818786D01*
X188761485Y-116911215D01*
X188709077Y-117022840D01*
X188707697Y-117031705D01*
X188707696Y-117031707D01*
X188699955Y-117081427D01*
X188690105Y-117144686D01*
X174401000Y-117144686D01*
X174401000Y-116644686D01*
X198665105Y-116644686D01*
X198666269Y-116653587D01*
X198666269Y-116653591D01*
X198674836Y-116719097D01*
X198681095Y-116766960D01*
X198730759Y-116879832D01*
X198810107Y-116974228D01*
X198912759Y-117042559D01*
X199030463Y-117079332D01*
X199039433Y-117079496D01*
X199039437Y-117079497D01*
X199095133Y-117080517D01*
X199153758Y-117081592D01*
X199213244Y-117065374D01*
X199264067Y-117051518D01*
X199264068Y-117051518D01*
X199272730Y-117049156D01*
X199280382Y-117044458D01*
X199370165Y-116989332D01*
X199370168Y-116989329D01*
X199377817Y-116984633D01*
X199387236Y-116974228D01*
X199454543Y-116899868D01*
X199454544Y-116899866D01*
X199460571Y-116893208D01*
X199514338Y-116782232D01*
X199534797Y-116660626D01*
X199534927Y-116650000D01*
X199532896Y-116635814D01*
X199518718Y-116536817D01*
X199518717Y-116536815D01*
X199517445Y-116527930D01*
X199466405Y-116415674D01*
X199385910Y-116322255D01*
X199282431Y-116255183D01*
X199273829Y-116252611D01*
X199273826Y-116252609D01*
X199172889Y-116222423D01*
X199172890Y-116222423D01*
X199164286Y-116219850D01*
X199155310Y-116219795D01*
X199155309Y-116219795D01*
X199104336Y-116219484D01*
X199040974Y-116219097D01*
X198922406Y-116252984D01*
X198818115Y-116318786D01*
X198736485Y-116411215D01*
X198684077Y-116522840D01*
X198682697Y-116531705D01*
X198682696Y-116531707D01*
X198674955Y-116581427D01*
X198665105Y-116644686D01*
X174401000Y-116644686D01*
X174401000Y-116144686D01*
X175815105Y-116144686D01*
X175816269Y-116153587D01*
X175816269Y-116153591D01*
X175822449Y-116200847D01*
X175831095Y-116266960D01*
X175880759Y-116379832D01*
X175960107Y-116474228D01*
X176062759Y-116542559D01*
X176180463Y-116579332D01*
X176189433Y-116579496D01*
X176189437Y-116579497D01*
X176245133Y-116580517D01*
X176303758Y-116581592D01*
X176363244Y-116565374D01*
X176414067Y-116551518D01*
X176414068Y-116551518D01*
X176422730Y-116549156D01*
X176430382Y-116544458D01*
X176520165Y-116489332D01*
X176520168Y-116489329D01*
X176527817Y-116484633D01*
X176537236Y-116474228D01*
X176604543Y-116399868D01*
X176604544Y-116399866D01*
X176610571Y-116393208D01*
X176664338Y-116282232D01*
X176684797Y-116160626D01*
X176684927Y-116150000D01*
X176682896Y-116135814D01*
X176668718Y-116036817D01*
X176668717Y-116036815D01*
X176667445Y-116027930D01*
X176643459Y-115975175D01*
X176620122Y-115923848D01*
X176620120Y-115923845D01*
X176616405Y-115915674D01*
X176555238Y-115844686D01*
X182940105Y-115844686D01*
X182941269Y-115853587D01*
X182941269Y-115853591D01*
X182948805Y-115911215D01*
X182956095Y-115966960D01*
X183005759Y-116079832D01*
X183085107Y-116174228D01*
X183187759Y-116242559D01*
X183221128Y-116252984D01*
X183286412Y-116273380D01*
X183305463Y-116279332D01*
X183314433Y-116279496D01*
X183314437Y-116279497D01*
X183370133Y-116280517D01*
X183428758Y-116281592D01*
X183525624Y-116255183D01*
X183539067Y-116251518D01*
X183539068Y-116251518D01*
X183547730Y-116249156D01*
X183555382Y-116244458D01*
X183645165Y-116189332D01*
X183645168Y-116189329D01*
X183652817Y-116184633D01*
X183662236Y-116174228D01*
X183729543Y-116099868D01*
X183729544Y-116099866D01*
X183735571Y-116093208D01*
X183773600Y-116014717D01*
X183785424Y-115990311D01*
X183785424Y-115990310D01*
X183789338Y-115982232D01*
X183809797Y-115860626D01*
X183809927Y-115850000D01*
X183807896Y-115835814D01*
X183793718Y-115736817D01*
X183793717Y-115736815D01*
X183792445Y-115727930D01*
X183741405Y-115615674D01*
X183660910Y-115522255D01*
X183557431Y-115455183D01*
X183548829Y-115452611D01*
X183548826Y-115452609D01*
X183447889Y-115422423D01*
X183447890Y-115422423D01*
X183439286Y-115419850D01*
X183430310Y-115419795D01*
X183430309Y-115419795D01*
X183379336Y-115419484D01*
X183315974Y-115419097D01*
X183197406Y-115452984D01*
X183093115Y-115518786D01*
X183011485Y-115611215D01*
X182959077Y-115722840D01*
X182957697Y-115731705D01*
X182957696Y-115731707D01*
X182942539Y-115829055D01*
X182940105Y-115844686D01*
X176555238Y-115844686D01*
X176535910Y-115822255D01*
X176432431Y-115755183D01*
X176423829Y-115752611D01*
X176423826Y-115752609D01*
X176344154Y-115728782D01*
X176314286Y-115719850D01*
X176305310Y-115719795D01*
X176305309Y-115719795D01*
X176254336Y-115719484D01*
X176190974Y-115719097D01*
X176072406Y-115752984D01*
X175968115Y-115818786D01*
X175886485Y-115911215D01*
X175834077Y-116022840D01*
X175832697Y-116031705D01*
X175832696Y-116031707D01*
X175831901Y-116036817D01*
X175815105Y-116144686D01*
X174401000Y-116144686D01*
X174401000Y-114844686D01*
X178490105Y-114844686D01*
X178491269Y-114853587D01*
X178491269Y-114853591D01*
X178502482Y-114939332D01*
X178506095Y-114966960D01*
X178555759Y-115079832D01*
X178635107Y-115174228D01*
X178737759Y-115242559D01*
X178855463Y-115279332D01*
X178864433Y-115279496D01*
X178864437Y-115279497D01*
X178920133Y-115280517D01*
X178978758Y-115281592D01*
X179038244Y-115265374D01*
X179089067Y-115251518D01*
X179089068Y-115251518D01*
X179097730Y-115249156D01*
X179105382Y-115244458D01*
X179195165Y-115189332D01*
X179195168Y-115189329D01*
X179202817Y-115184633D01*
X179212236Y-115174228D01*
X179279543Y-115099868D01*
X179279544Y-115099866D01*
X179285571Y-115093208D01*
X179315424Y-115031592D01*
X179335424Y-114990311D01*
X179335424Y-114990310D01*
X179339338Y-114982232D01*
X179359797Y-114860626D01*
X179359927Y-114850000D01*
X179358955Y-114843208D01*
X179343718Y-114736817D01*
X179343717Y-114736815D01*
X179342445Y-114727930D01*
X179291405Y-114615674D01*
X179273321Y-114594686D01*
X198815105Y-114594686D01*
X198816269Y-114603587D01*
X198816269Y-114603591D01*
X198829919Y-114707971D01*
X198831095Y-114716960D01*
X198880759Y-114829832D01*
X198960107Y-114924228D01*
X199062759Y-114992559D01*
X199180463Y-115029332D01*
X199189433Y-115029496D01*
X199189437Y-115029497D01*
X199245133Y-115030517D01*
X199303758Y-115031592D01*
X199363244Y-115015374D01*
X199414067Y-115001518D01*
X199414068Y-115001518D01*
X199422730Y-114999156D01*
X199430382Y-114994458D01*
X199520165Y-114939332D01*
X199520168Y-114939329D01*
X199527817Y-114934633D01*
X199537236Y-114924228D01*
X199604543Y-114849868D01*
X199604544Y-114849866D01*
X199610571Y-114843208D01*
X199664338Y-114732232D01*
X199684797Y-114610626D01*
X199684927Y-114600000D01*
X199682896Y-114585814D01*
X199668718Y-114486817D01*
X199668717Y-114486815D01*
X199667445Y-114477930D01*
X199641817Y-114421564D01*
X199620122Y-114373848D01*
X199620120Y-114373845D01*
X199616405Y-114365674D01*
X199535910Y-114272255D01*
X199432431Y-114205183D01*
X199434454Y-114202062D01*
X199394251Y-114166942D01*
X199374522Y-114098742D01*
X199394797Y-114030702D01*
X199434590Y-113991874D01*
X199527817Y-113934633D01*
X199537236Y-113924228D01*
X199604543Y-113849868D01*
X199604544Y-113849866D01*
X199610571Y-113843208D01*
X199617220Y-113829486D01*
X199660424Y-113740311D01*
X199660424Y-113740310D01*
X199664338Y-113732232D01*
X199684797Y-113610626D01*
X199684927Y-113600000D01*
X199682896Y-113585814D01*
X199668718Y-113486817D01*
X199668717Y-113486815D01*
X199667445Y-113477930D01*
X199632012Y-113400000D01*
X199629596Y-113394686D01*
X201437605Y-113394686D01*
X201438769Y-113403587D01*
X201438769Y-113403591D01*
X201447825Y-113472840D01*
X201453595Y-113516960D01*
X201503259Y-113629832D01*
X201562829Y-113700699D01*
X201576498Y-113716960D01*
X201582607Y-113724228D01*
X201685259Y-113792559D01*
X201802963Y-113829332D01*
X201811933Y-113829496D01*
X201811937Y-113829497D01*
X201867633Y-113830517D01*
X201926258Y-113831592D01*
X201985744Y-113815374D01*
X202036567Y-113801518D01*
X202036568Y-113801518D01*
X202045230Y-113799156D01*
X202052882Y-113794458D01*
X202142665Y-113739332D01*
X202142668Y-113739329D01*
X202150317Y-113734633D01*
X202157663Y-113726518D01*
X202227043Y-113649868D01*
X202227044Y-113649866D01*
X202233071Y-113643208D01*
X202251213Y-113605764D01*
X202282924Y-113540311D01*
X202282924Y-113540310D01*
X202286838Y-113532232D01*
X202307297Y-113410626D01*
X202307427Y-113400000D01*
X202305396Y-113385814D01*
X202291218Y-113286817D01*
X202291217Y-113286815D01*
X202289945Y-113277930D01*
X202259090Y-113210069D01*
X202242622Y-113173848D01*
X202242620Y-113173845D01*
X202238905Y-113165674D01*
X202158410Y-113072255D01*
X202054931Y-113005183D01*
X202046329Y-113002611D01*
X202046326Y-113002609D01*
X201945389Y-112972423D01*
X201945390Y-112972423D01*
X201936786Y-112969850D01*
X201927810Y-112969795D01*
X201927809Y-112969795D01*
X201876836Y-112969484D01*
X201813474Y-112969097D01*
X201694906Y-113002984D01*
X201590615Y-113068786D01*
X201508985Y-113161215D01*
X201456577Y-113272840D01*
X201455197Y-113281705D01*
X201455196Y-113281707D01*
X201440850Y-113373848D01*
X201437605Y-113394686D01*
X199629596Y-113394686D01*
X199620122Y-113373848D01*
X199620120Y-113373845D01*
X199616405Y-113365674D01*
X199535910Y-113272255D01*
X199432431Y-113205183D01*
X199423829Y-113202611D01*
X199423826Y-113202609D01*
X199322889Y-113172423D01*
X199322890Y-113172423D01*
X199314286Y-113169850D01*
X199305310Y-113169795D01*
X199305309Y-113169795D01*
X199254336Y-113169484D01*
X199190974Y-113169097D01*
X199072406Y-113202984D01*
X198968115Y-113268786D01*
X198962173Y-113275514D01*
X198962172Y-113275515D01*
X198952191Y-113286817D01*
X198886485Y-113361215D01*
X198834077Y-113472840D01*
X198832697Y-113481705D01*
X198832696Y-113481707D01*
X198818191Y-113574868D01*
X198815105Y-113594686D01*
X198816269Y-113603587D01*
X198816269Y-113603591D01*
X198829919Y-113707971D01*
X198831095Y-113716960D01*
X198880759Y-113829832D01*
X198960107Y-113924228D01*
X199016576Y-113961817D01*
X199062759Y-113992559D01*
X199061680Y-113994180D01*
X199106095Y-114033976D01*
X199124964Y-114102419D01*
X199103833Y-114170198D01*
X199066216Y-114206889D01*
X198994194Y-114252332D01*
X198968115Y-114268786D01*
X198962173Y-114275514D01*
X198962172Y-114275515D01*
X198936280Y-114304832D01*
X198886485Y-114361215D01*
X198834077Y-114472840D01*
X198832697Y-114481705D01*
X198832696Y-114481707D01*
X198826383Y-114522255D01*
X198815105Y-114594686D01*
X179273321Y-114594686D01*
X179210910Y-114522255D01*
X179107431Y-114455183D01*
X179098829Y-114452611D01*
X179098826Y-114452609D01*
X178997889Y-114422423D01*
X178997890Y-114422423D01*
X178989286Y-114419850D01*
X178980310Y-114419795D01*
X178980309Y-114419795D01*
X178929336Y-114419484D01*
X178865974Y-114419097D01*
X178747406Y-114452984D01*
X178643115Y-114518786D01*
X178561485Y-114611215D01*
X178509077Y-114722840D01*
X178507697Y-114731705D01*
X178507696Y-114731707D01*
X178491594Y-114835124D01*
X178490105Y-114844686D01*
X174401000Y-114844686D01*
X174401000Y-114069686D01*
X182215105Y-114069686D01*
X182216269Y-114078587D01*
X182216269Y-114078591D01*
X182227823Y-114166942D01*
X182231095Y-114191960D01*
X182280759Y-114304832D01*
X182360107Y-114399228D01*
X182462759Y-114467559D01*
X182471329Y-114470236D01*
X182471328Y-114470236D01*
X182524401Y-114486817D01*
X182580463Y-114504332D01*
X182589433Y-114504496D01*
X182589437Y-114504497D01*
X182645133Y-114505517D01*
X182703758Y-114506592D01*
X182795034Y-114481707D01*
X182814067Y-114476518D01*
X182814068Y-114476518D01*
X182822730Y-114474156D01*
X182830382Y-114469458D01*
X182920165Y-114414332D01*
X182920168Y-114414329D01*
X182927817Y-114409633D01*
X182937236Y-114399228D01*
X183004543Y-114324868D01*
X183004544Y-114324866D01*
X183010571Y-114318208D01*
X183029541Y-114279055D01*
X183060424Y-114215311D01*
X183060424Y-114215310D01*
X183064338Y-114207232D01*
X183084797Y-114085626D01*
X183084927Y-114075000D01*
X183082896Y-114060814D01*
X183068718Y-113961817D01*
X183068717Y-113961815D01*
X183067445Y-113952930D01*
X183046921Y-113907791D01*
X183020122Y-113848848D01*
X183020120Y-113848845D01*
X183016405Y-113840674D01*
X182935910Y-113747255D01*
X182832431Y-113680183D01*
X182823829Y-113677611D01*
X182823826Y-113677609D01*
X182722889Y-113647423D01*
X182722890Y-113647423D01*
X182714286Y-113644850D01*
X182705310Y-113644795D01*
X182705309Y-113644795D01*
X182654336Y-113644484D01*
X182590974Y-113644097D01*
X182472406Y-113677984D01*
X182368115Y-113743786D01*
X182286485Y-113836215D01*
X182234077Y-113947840D01*
X182232697Y-113956705D01*
X182232696Y-113956707D01*
X182226087Y-113999156D01*
X182215105Y-114069686D01*
X174401000Y-114069686D01*
X174401000Y-112669686D01*
X177865105Y-112669686D01*
X177866269Y-112678587D01*
X177866269Y-112678591D01*
X177868181Y-112693208D01*
X177881095Y-112791960D01*
X177930759Y-112904832D01*
X178010107Y-112999228D01*
X178112759Y-113067559D01*
X178121329Y-113070236D01*
X178121328Y-113070236D01*
X178212910Y-113098848D01*
X178230463Y-113104332D01*
X178239433Y-113104496D01*
X178239437Y-113104497D01*
X178295133Y-113105517D01*
X178353758Y-113106592D01*
X178428499Y-113086215D01*
X178464067Y-113076518D01*
X178464068Y-113076518D01*
X178472730Y-113074156D01*
X178481476Y-113068786D01*
X178570165Y-113014332D01*
X178570168Y-113014329D01*
X178577817Y-113009633D01*
X178585039Y-113001655D01*
X178654543Y-112924868D01*
X178654544Y-112924866D01*
X178660571Y-112918208D01*
X178667356Y-112904205D01*
X178710424Y-112815311D01*
X178710424Y-112815310D01*
X178714338Y-112807232D01*
X178734797Y-112685626D01*
X178734927Y-112675000D01*
X178733455Y-112664717D01*
X178718718Y-112561817D01*
X178718717Y-112561815D01*
X178717445Y-112552930D01*
X178683856Y-112479055D01*
X178670122Y-112448848D01*
X178670120Y-112448845D01*
X178668229Y-112444686D01*
X179215105Y-112444686D01*
X179216269Y-112453587D01*
X179216269Y-112453591D01*
X179219599Y-112479055D01*
X179231095Y-112566960D01*
X179280759Y-112679832D01*
X179360107Y-112774228D01*
X179385425Y-112791081D01*
X179431048Y-112845478D01*
X179440019Y-112915905D01*
X179409490Y-112980003D01*
X179399467Y-112989778D01*
X179393115Y-112993786D01*
X179387173Y-113000514D01*
X179387172Y-113000515D01*
X179361280Y-113029832D01*
X179311485Y-113086215D01*
X179259077Y-113197840D01*
X179257697Y-113206705D01*
X179257696Y-113206707D01*
X179245223Y-113286817D01*
X179240105Y-113319686D01*
X179241269Y-113328587D01*
X179241269Y-113328591D01*
X179251997Y-113410626D01*
X179256095Y-113441960D01*
X179305759Y-113554832D01*
X179385107Y-113649228D01*
X179487759Y-113717559D01*
X179516435Y-113726518D01*
X179582811Y-113747255D01*
X179605463Y-113754332D01*
X179614433Y-113754496D01*
X179614437Y-113754497D01*
X179670133Y-113755517D01*
X179728758Y-113756592D01*
X179793298Y-113738996D01*
X179839067Y-113726518D01*
X179839068Y-113726518D01*
X179847730Y-113724156D01*
X179855382Y-113719458D01*
X179945165Y-113664332D01*
X179945168Y-113664329D01*
X179952817Y-113659633D01*
X179962236Y-113649228D01*
X180029543Y-113574868D01*
X180029544Y-113574866D01*
X180035571Y-113568208D01*
X180060401Y-113516960D01*
X180085424Y-113465311D01*
X180085424Y-113465310D01*
X180089338Y-113457232D01*
X180109797Y-113335626D01*
X180109927Y-113325000D01*
X180107896Y-113310814D01*
X180093718Y-113211817D01*
X180093717Y-113211815D01*
X180092445Y-113202930D01*
X180058924Y-113129205D01*
X180045122Y-113098848D01*
X180045120Y-113098845D01*
X180041405Y-113090674D01*
X179960910Y-112997255D01*
X179953378Y-112992373D01*
X179953377Y-112992372D01*
X179941190Y-112984473D01*
X179894907Y-112930637D01*
X179885077Y-112860324D01*
X179914822Y-112795859D01*
X179916025Y-112794686D01*
X195365105Y-112794686D01*
X195366269Y-112803587D01*
X195366269Y-112803591D01*
X195376174Y-112879332D01*
X195381095Y-112916960D01*
X195430759Y-113029832D01*
X195510107Y-113124228D01*
X195612759Y-113192559D01*
X195645955Y-113202930D01*
X195674401Y-113211817D01*
X195730463Y-113229332D01*
X195739433Y-113229496D01*
X195739437Y-113229497D01*
X195795133Y-113230517D01*
X195853758Y-113231592D01*
X195950624Y-113205183D01*
X195964067Y-113201518D01*
X195964068Y-113201518D01*
X195972730Y-113199156D01*
X195980382Y-113194458D01*
X196070165Y-113139332D01*
X196070168Y-113139329D01*
X196077817Y-113134633D01*
X196087236Y-113124228D01*
X196154543Y-113049868D01*
X196154544Y-113049866D01*
X196160571Y-113043208D01*
X196174562Y-113014332D01*
X196210424Y-112940311D01*
X196210424Y-112940310D01*
X196214338Y-112932232D01*
X196234797Y-112810626D01*
X196234927Y-112800000D01*
X196232896Y-112785814D01*
X196218718Y-112686817D01*
X196218717Y-112686815D01*
X196217445Y-112677930D01*
X196170725Y-112575175D01*
X196170122Y-112573848D01*
X196170120Y-112573845D01*
X196168229Y-112569686D01*
X203940105Y-112569686D01*
X203941269Y-112578587D01*
X203941269Y-112578591D01*
X203952022Y-112660814D01*
X203956095Y-112691960D01*
X204005759Y-112804832D01*
X204085107Y-112899228D01*
X204187759Y-112967559D01*
X204203328Y-112972423D01*
X204282811Y-112997255D01*
X204305463Y-113004332D01*
X204314433Y-113004496D01*
X204314437Y-113004497D01*
X204370133Y-113005517D01*
X204428758Y-113006592D01*
X204488244Y-112990374D01*
X204539067Y-112976518D01*
X204539068Y-112976518D01*
X204547730Y-112974156D01*
X204555880Y-112969152D01*
X204645165Y-112914332D01*
X204645168Y-112914329D01*
X204652817Y-112909633D01*
X204662236Y-112899228D01*
X204729543Y-112824868D01*
X204729544Y-112824866D01*
X204735571Y-112818208D01*
X204746732Y-112795173D01*
X204785424Y-112715311D01*
X204785424Y-112715310D01*
X204789338Y-112707232D01*
X204809797Y-112585626D01*
X204809927Y-112575000D01*
X204808592Y-112565674D01*
X204793718Y-112461817D01*
X204793717Y-112461815D01*
X204792445Y-112452930D01*
X204768615Y-112400518D01*
X204745122Y-112348848D01*
X204745120Y-112348845D01*
X204741405Y-112340674D01*
X204660910Y-112247255D01*
X204557431Y-112180183D01*
X204548829Y-112177611D01*
X204548826Y-112177609D01*
X204447889Y-112147423D01*
X204447890Y-112147423D01*
X204439286Y-112144850D01*
X204430310Y-112144795D01*
X204430309Y-112144795D01*
X204379336Y-112144484D01*
X204315974Y-112144097D01*
X204197406Y-112177984D01*
X204093115Y-112243786D01*
X204087173Y-112250514D01*
X204087172Y-112250515D01*
X204060970Y-112280183D01*
X204011485Y-112336215D01*
X203959077Y-112447840D01*
X203957697Y-112456705D01*
X203957696Y-112456707D01*
X203942126Y-112556707D01*
X203940105Y-112569686D01*
X196168229Y-112569686D01*
X196166405Y-112565674D01*
X196085910Y-112472255D01*
X195982431Y-112405183D01*
X195973829Y-112402611D01*
X195973826Y-112402609D01*
X195872889Y-112372423D01*
X195872890Y-112372423D01*
X195864286Y-112369850D01*
X195855310Y-112369795D01*
X195855309Y-112369795D01*
X195804336Y-112369484D01*
X195740974Y-112369097D01*
X195622406Y-112402984D01*
X195518115Y-112468786D01*
X195436485Y-112561215D01*
X195384077Y-112672840D01*
X195382697Y-112681705D01*
X195382696Y-112681707D01*
X195367112Y-112781797D01*
X195365105Y-112794686D01*
X179916025Y-112794686D01*
X179923809Y-112787094D01*
X179927817Y-112784633D01*
X180010571Y-112693208D01*
X180016144Y-112681707D01*
X180060424Y-112590311D01*
X180060424Y-112590310D01*
X180064338Y-112582232D01*
X180084797Y-112460626D01*
X180084927Y-112450000D01*
X180083592Y-112440674D01*
X180068718Y-112336817D01*
X180068717Y-112336815D01*
X180067445Y-112327930D01*
X180033856Y-112254055D01*
X180020122Y-112223848D01*
X180020120Y-112223845D01*
X180016405Y-112215674D01*
X179935910Y-112122255D01*
X179832431Y-112055183D01*
X179823829Y-112052611D01*
X179823826Y-112052609D01*
X179722889Y-112022423D01*
X179722890Y-112022423D01*
X179714286Y-112019850D01*
X179705310Y-112019795D01*
X179705309Y-112019795D01*
X179654336Y-112019484D01*
X179590974Y-112019097D01*
X179472406Y-112052984D01*
X179368115Y-112118786D01*
X179286485Y-112211215D01*
X179234077Y-112322840D01*
X179232697Y-112331705D01*
X179232696Y-112331707D01*
X179217472Y-112429486D01*
X179215105Y-112444686D01*
X178668229Y-112444686D01*
X178666405Y-112440674D01*
X178585910Y-112347255D01*
X178482431Y-112280183D01*
X178473829Y-112277611D01*
X178473826Y-112277609D01*
X178372889Y-112247423D01*
X178372890Y-112247423D01*
X178364286Y-112244850D01*
X178355310Y-112244795D01*
X178355309Y-112244795D01*
X178304336Y-112244484D01*
X178240974Y-112244097D01*
X178122406Y-112277984D01*
X178018115Y-112343786D01*
X177936485Y-112436215D01*
X177884077Y-112547840D01*
X177882697Y-112556705D01*
X177882696Y-112556707D01*
X177877447Y-112590423D01*
X177865105Y-112669686D01*
X174401000Y-112669686D01*
X174401000Y-111569686D01*
X192115105Y-111569686D01*
X192116269Y-111578587D01*
X192116269Y-111578591D01*
X192126662Y-111658059D01*
X192131095Y-111691960D01*
X192180759Y-111804832D01*
X192239092Y-111874228D01*
X192251789Y-111889332D01*
X192260107Y-111899228D01*
X192362759Y-111967559D01*
X192480463Y-112004332D01*
X192489433Y-112004496D01*
X192489437Y-112004497D01*
X192545133Y-112005517D01*
X192603758Y-112006592D01*
X192663244Y-111990374D01*
X192714067Y-111976518D01*
X192714068Y-111976518D01*
X192722730Y-111974156D01*
X192730382Y-111969458D01*
X192820165Y-111914332D01*
X192820168Y-111914329D01*
X192827817Y-111909633D01*
X192837236Y-111899228D01*
X192904543Y-111824868D01*
X192904544Y-111824866D01*
X192910571Y-111818208D01*
X192922684Y-111793208D01*
X192960424Y-111715311D01*
X192960424Y-111715310D01*
X192964338Y-111707232D01*
X192984797Y-111585626D01*
X192984927Y-111575000D01*
X192983556Y-111565423D01*
X192980586Y-111544686D01*
X199715105Y-111544686D01*
X199716269Y-111553587D01*
X199716269Y-111553591D01*
X199721086Y-111590423D01*
X199731095Y-111666960D01*
X199780759Y-111779832D01*
X199860107Y-111874228D01*
X199962759Y-111942559D01*
X199971329Y-111945236D01*
X199971328Y-111945236D01*
X200071456Y-111976518D01*
X200080463Y-111979332D01*
X200089433Y-111979496D01*
X200089437Y-111979497D01*
X200145133Y-111980517D01*
X200203758Y-111981592D01*
X200263244Y-111965374D01*
X200314067Y-111951518D01*
X200314068Y-111951518D01*
X200322730Y-111949156D01*
X200330382Y-111944458D01*
X200420165Y-111889332D01*
X200420168Y-111889329D01*
X200427817Y-111884633D01*
X200437236Y-111874228D01*
X200504543Y-111799868D01*
X200504544Y-111799866D01*
X200510571Y-111793208D01*
X200548312Y-111715311D01*
X200560424Y-111690311D01*
X200560424Y-111690310D01*
X200564338Y-111682232D01*
X200584797Y-111560626D01*
X200584927Y-111550000D01*
X200582896Y-111535814D01*
X200568718Y-111436817D01*
X200568717Y-111436815D01*
X200567445Y-111427930D01*
X200546921Y-111382791D01*
X200520122Y-111323848D01*
X200520120Y-111323845D01*
X200516405Y-111315674D01*
X200435910Y-111222255D01*
X200332431Y-111155183D01*
X200323829Y-111152611D01*
X200323826Y-111152609D01*
X200222889Y-111122423D01*
X200222890Y-111122423D01*
X200214286Y-111119850D01*
X200205310Y-111119795D01*
X200205309Y-111119795D01*
X200154336Y-111119484D01*
X200090974Y-111119097D01*
X199972406Y-111152984D01*
X199868115Y-111218786D01*
X199786485Y-111311215D01*
X199734077Y-111422840D01*
X199732697Y-111431705D01*
X199732696Y-111431707D01*
X199728804Y-111456707D01*
X199715105Y-111544686D01*
X192980586Y-111544686D01*
X192968718Y-111461817D01*
X192968717Y-111461815D01*
X192967445Y-111452930D01*
X192923643Y-111356592D01*
X192920122Y-111348848D01*
X192920120Y-111348845D01*
X192916405Y-111340674D01*
X192867195Y-111283563D01*
X192837881Y-111218900D01*
X192848180Y-111148655D01*
X192877998Y-111109797D01*
X192877817Y-111109633D01*
X192879832Y-111107407D01*
X192879833Y-111107406D01*
X192887236Y-111099228D01*
X192954543Y-111024868D01*
X192954544Y-111024866D01*
X192960571Y-111018208D01*
X193000582Y-110935626D01*
X193010424Y-110915311D01*
X193010424Y-110915310D01*
X193014338Y-110907232D01*
X193034797Y-110785626D01*
X193034927Y-110775000D01*
X193032896Y-110760814D01*
X193018718Y-110661817D01*
X193018717Y-110661815D01*
X193017445Y-110652930D01*
X192988376Y-110588996D01*
X192970122Y-110548848D01*
X192970120Y-110548845D01*
X192966405Y-110540674D01*
X192917195Y-110483563D01*
X192887881Y-110418900D01*
X192898180Y-110348655D01*
X192927998Y-110309797D01*
X192927817Y-110309633D01*
X192929832Y-110307407D01*
X192929833Y-110307406D01*
X192936537Y-110300000D01*
X193004543Y-110224868D01*
X193004544Y-110224866D01*
X193010571Y-110218208D01*
X193019764Y-110199235D01*
X193060424Y-110115311D01*
X193060424Y-110115310D01*
X193064338Y-110107232D01*
X193084797Y-109985626D01*
X193084927Y-109975000D01*
X193082896Y-109960814D01*
X193068718Y-109861817D01*
X193068717Y-109861815D01*
X193067445Y-109852930D01*
X193016405Y-109740674D01*
X192935910Y-109647255D01*
X192832431Y-109580183D01*
X192823829Y-109577611D01*
X192823826Y-109577609D01*
X192722889Y-109547423D01*
X192722890Y-109547423D01*
X192714286Y-109544850D01*
X192705310Y-109544795D01*
X192705309Y-109544795D01*
X192654336Y-109544484D01*
X192590974Y-109544097D01*
X192472406Y-109577984D01*
X192368115Y-109643786D01*
X192286485Y-109736215D01*
X192234077Y-109847840D01*
X192232697Y-109856705D01*
X192232696Y-109856707D01*
X192224388Y-109910069D01*
X192215105Y-109969686D01*
X192216269Y-109978587D01*
X192216269Y-109978591D01*
X192228137Y-110069341D01*
X192231095Y-110091960D01*
X192280759Y-110204832D01*
X192286536Y-110211704D01*
X192333669Y-110267776D01*
X192362190Y-110332791D01*
X192351034Y-110402906D01*
X192321116Y-110441892D01*
X192318115Y-110443786D01*
X192236485Y-110536215D01*
X192184077Y-110647840D01*
X192182697Y-110656705D01*
X192182696Y-110656707D01*
X192171363Y-110729497D01*
X192165105Y-110769686D01*
X192166269Y-110778587D01*
X192166269Y-110778591D01*
X192179919Y-110882971D01*
X192181095Y-110891960D01*
X192230759Y-111004832D01*
X192267365Y-111048380D01*
X192283669Y-111067776D01*
X192312190Y-111132791D01*
X192301034Y-111202906D01*
X192271116Y-111241892D01*
X192268115Y-111243786D01*
X192262173Y-111250514D01*
X192243153Y-111272050D01*
X192186485Y-111336215D01*
X192134077Y-111447840D01*
X192132697Y-111456705D01*
X192132696Y-111456707D01*
X192116516Y-111560626D01*
X192115105Y-111569686D01*
X174401000Y-111569686D01*
X174401000Y-110919686D01*
X178940105Y-110919686D01*
X178941269Y-110928587D01*
X178941269Y-110928591D01*
X178950165Y-110996616D01*
X178956095Y-111041960D01*
X179005759Y-111154832D01*
X179085107Y-111249228D01*
X179092585Y-111254205D01*
X179092584Y-111254205D01*
X179178229Y-111311215D01*
X179187759Y-111317559D01*
X179196329Y-111320236D01*
X179196328Y-111320236D01*
X179287910Y-111348848D01*
X179305463Y-111354332D01*
X179314433Y-111354496D01*
X179314437Y-111354497D01*
X179370133Y-111355517D01*
X179428758Y-111356592D01*
X179503499Y-111336215D01*
X179539067Y-111326518D01*
X179539068Y-111326518D01*
X179547730Y-111324156D01*
X179555382Y-111319458D01*
X179645165Y-111264332D01*
X179645168Y-111264329D01*
X179652817Y-111259633D01*
X179662236Y-111249228D01*
X179729543Y-111174868D01*
X179729544Y-111174866D01*
X179735571Y-111168208D01*
X179739515Y-111160069D01*
X179785424Y-111065311D01*
X179785424Y-111065310D01*
X179789338Y-111057232D01*
X179809797Y-110935626D01*
X179809927Y-110925000D01*
X179808540Y-110915311D01*
X179793718Y-110811817D01*
X179793717Y-110811815D01*
X179792445Y-110802930D01*
X179771921Y-110757791D01*
X179745122Y-110698848D01*
X179745120Y-110698845D01*
X179741405Y-110690674D01*
X179660910Y-110597255D01*
X179557431Y-110530183D01*
X179548829Y-110527611D01*
X179548826Y-110527609D01*
X179447889Y-110497423D01*
X179447890Y-110497423D01*
X179439286Y-110494850D01*
X179430310Y-110494795D01*
X179430309Y-110494795D01*
X179379336Y-110494484D01*
X179315974Y-110494097D01*
X179197406Y-110527984D01*
X179093115Y-110593786D01*
X179011485Y-110686215D01*
X178959077Y-110797840D01*
X178957697Y-110806705D01*
X178957696Y-110806707D01*
X178956901Y-110811817D01*
X178940105Y-110919686D01*
X174401000Y-110919686D01*
X174401000Y-110294686D01*
X186015105Y-110294686D01*
X186016269Y-110303587D01*
X186016269Y-110303591D01*
X186024533Y-110366784D01*
X186031095Y-110416960D01*
X186080759Y-110529832D01*
X186160107Y-110624228D01*
X186167585Y-110629205D01*
X186167584Y-110629205D01*
X186253229Y-110686215D01*
X186262759Y-110692559D01*
X186380463Y-110729332D01*
X186389433Y-110729496D01*
X186389437Y-110729497D01*
X186445133Y-110730517D01*
X186503758Y-110731592D01*
X186563244Y-110715374D01*
X186614067Y-110701518D01*
X186614068Y-110701518D01*
X186622730Y-110699156D01*
X186630382Y-110694458D01*
X186720165Y-110639332D01*
X186720168Y-110639329D01*
X186727817Y-110634633D01*
X186737236Y-110624228D01*
X186804543Y-110549868D01*
X186804544Y-110549866D01*
X186810571Y-110543208D01*
X186814515Y-110535069D01*
X186860424Y-110440311D01*
X186860424Y-110440310D01*
X186864338Y-110432232D01*
X186884797Y-110310626D01*
X186884927Y-110300000D01*
X186882896Y-110285814D01*
X186868718Y-110186817D01*
X186868717Y-110186815D01*
X186867445Y-110177930D01*
X186838974Y-110115311D01*
X186820122Y-110073848D01*
X186820120Y-110073845D01*
X186816405Y-110065674D01*
X186735910Y-109972255D01*
X186632431Y-109905183D01*
X186623829Y-109902611D01*
X186623826Y-109902609D01*
X186522889Y-109872423D01*
X186522890Y-109872423D01*
X186514286Y-109869850D01*
X186505310Y-109869795D01*
X186505309Y-109869795D01*
X186454336Y-109869484D01*
X186390974Y-109869097D01*
X186272406Y-109902984D01*
X186168115Y-109968786D01*
X186162173Y-109975514D01*
X186162172Y-109975515D01*
X186149006Y-109990423D01*
X186086485Y-110061215D01*
X186034077Y-110172840D01*
X186032697Y-110181705D01*
X186032696Y-110181707D01*
X186028026Y-110211704D01*
X186015105Y-110294686D01*
X174401000Y-110294686D01*
X174401000Y-109244686D01*
X187774805Y-109244686D01*
X187775969Y-109253587D01*
X187775969Y-109253591D01*
X187789619Y-109357971D01*
X187790795Y-109366960D01*
X187840459Y-109479832D01*
X187919807Y-109574228D01*
X188022459Y-109642559D01*
X188140163Y-109679332D01*
X188149133Y-109679496D01*
X188149137Y-109679497D01*
X188204833Y-109680517D01*
X188263458Y-109681592D01*
X188364461Y-109654055D01*
X188373767Y-109651518D01*
X188373768Y-109651518D01*
X188382430Y-109649156D01*
X188391176Y-109643786D01*
X188479865Y-109589332D01*
X188479868Y-109589329D01*
X188487517Y-109584633D01*
X188496936Y-109574228D01*
X188564243Y-109499868D01*
X188564244Y-109499866D01*
X188570271Y-109493208D01*
X188624038Y-109382232D01*
X188644497Y-109260626D01*
X188644627Y-109250000D01*
X188642596Y-109235814D01*
X188628418Y-109136817D01*
X188628417Y-109136815D01*
X188627145Y-109127930D01*
X188576105Y-109015674D01*
X188495610Y-108922255D01*
X188392131Y-108855183D01*
X188383529Y-108852611D01*
X188383526Y-108852609D01*
X188282589Y-108822423D01*
X188282590Y-108822423D01*
X188273986Y-108819850D01*
X188265010Y-108819795D01*
X188265009Y-108819795D01*
X188214036Y-108819484D01*
X188150674Y-108819097D01*
X188032106Y-108852984D01*
X187927815Y-108918786D01*
X187846185Y-109011215D01*
X187793777Y-109122840D01*
X187792397Y-109131705D01*
X187792396Y-109131707D01*
X187784655Y-109181427D01*
X187774805Y-109244686D01*
X174401000Y-109244686D01*
X174401000Y-108375523D01*
X183357614Y-108375523D01*
X183358778Y-108384424D01*
X183358778Y-108384428D01*
X183366465Y-108443208D01*
X183373604Y-108497797D01*
X183423268Y-108610669D01*
X183502616Y-108705065D01*
X183605268Y-108773396D01*
X183722972Y-108810169D01*
X183731942Y-108810333D01*
X183731946Y-108810334D01*
X183787642Y-108811354D01*
X183846267Y-108812429D01*
X183905753Y-108796211D01*
X183956576Y-108782355D01*
X183956577Y-108782355D01*
X183965239Y-108779993D01*
X183972891Y-108775295D01*
X184022743Y-108744686D01*
X203340105Y-108744686D01*
X203341269Y-108753587D01*
X203341269Y-108753591D01*
X203344722Y-108779993D01*
X203356095Y-108866960D01*
X203405759Y-108979832D01*
X203485107Y-109074228D01*
X203587759Y-109142559D01*
X203705463Y-109179332D01*
X203714433Y-109179496D01*
X203714437Y-109179497D01*
X203770133Y-109180517D01*
X203828758Y-109181592D01*
X203888244Y-109165374D01*
X203939067Y-109151518D01*
X203939068Y-109151518D01*
X203947730Y-109149156D01*
X203955382Y-109144458D01*
X204045165Y-109089332D01*
X204045168Y-109089329D01*
X204052817Y-109084633D01*
X204062236Y-109074228D01*
X204129543Y-108999868D01*
X204129544Y-108999866D01*
X204135571Y-108993208D01*
X204189338Y-108882232D01*
X204209797Y-108760626D01*
X204209927Y-108750000D01*
X204207896Y-108735814D01*
X204193718Y-108636817D01*
X204193717Y-108636815D01*
X204192445Y-108627930D01*
X204152162Y-108539332D01*
X204145122Y-108523848D01*
X204145120Y-108523845D01*
X204141405Y-108515674D01*
X204060910Y-108422255D01*
X203957431Y-108355183D01*
X203948829Y-108352611D01*
X203948826Y-108352609D01*
X203869154Y-108328782D01*
X203839286Y-108319850D01*
X203830310Y-108319795D01*
X203830309Y-108319795D01*
X203779336Y-108319484D01*
X203715974Y-108319097D01*
X203597406Y-108352984D01*
X203493115Y-108418786D01*
X203487173Y-108425514D01*
X203487172Y-108425515D01*
X203478686Y-108435124D01*
X203411485Y-108511215D01*
X203359077Y-108622840D01*
X203357697Y-108631705D01*
X203357696Y-108631707D01*
X203345691Y-108708813D01*
X203340105Y-108744686D01*
X184022743Y-108744686D01*
X184062674Y-108720169D01*
X184062677Y-108720166D01*
X184070326Y-108715470D01*
X184079745Y-108705065D01*
X184147052Y-108630705D01*
X184147053Y-108630703D01*
X184153080Y-108624045D01*
X184157600Y-108614717D01*
X184202933Y-108521148D01*
X184202933Y-108521147D01*
X184206847Y-108513069D01*
X184227306Y-108391463D01*
X184227436Y-108380837D01*
X184225405Y-108366651D01*
X184211227Y-108267654D01*
X184211226Y-108267652D01*
X184209954Y-108258767D01*
X184189430Y-108213628D01*
X184180818Y-108194686D01*
X189040105Y-108194686D01*
X189041269Y-108203587D01*
X189041269Y-108203591D01*
X189048092Y-108255764D01*
X189056095Y-108316960D01*
X189105759Y-108429832D01*
X189185107Y-108524228D01*
X189192585Y-108529205D01*
X189192584Y-108529205D01*
X189267698Y-108579205D01*
X189287759Y-108592559D01*
X189296329Y-108595236D01*
X189296328Y-108595236D01*
X189374825Y-108619760D01*
X189405463Y-108629332D01*
X189414433Y-108629496D01*
X189414437Y-108629497D01*
X189470133Y-108630517D01*
X189528758Y-108631592D01*
X189590654Y-108614717D01*
X189639067Y-108601518D01*
X189639068Y-108601518D01*
X189647730Y-108599156D01*
X189655382Y-108594458D01*
X189745165Y-108539332D01*
X189745168Y-108539329D01*
X189752817Y-108534633D01*
X189762236Y-108524228D01*
X189829543Y-108449868D01*
X189829544Y-108449866D01*
X189835571Y-108443208D01*
X189847404Y-108418786D01*
X189885424Y-108340311D01*
X189885424Y-108340310D01*
X189889338Y-108332232D01*
X189909797Y-108210626D01*
X189909927Y-108200000D01*
X189907896Y-108185814D01*
X189893718Y-108086817D01*
X189893717Y-108086815D01*
X189892445Y-108077930D01*
X189861046Y-108008871D01*
X189845122Y-107973848D01*
X189845120Y-107973845D01*
X189841405Y-107965674D01*
X189803262Y-107921407D01*
X189773948Y-107856744D01*
X189775716Y-107844686D01*
X198065105Y-107844686D01*
X198066269Y-107853587D01*
X198066269Y-107853591D01*
X198068595Y-107871374D01*
X198081095Y-107966960D01*
X198130759Y-108079832D01*
X198210107Y-108174228D01*
X198312759Y-108242559D01*
X198338487Y-108250597D01*
X198376728Y-108262544D01*
X198430463Y-108279332D01*
X198439433Y-108279496D01*
X198439437Y-108279497D01*
X198495133Y-108280517D01*
X198553758Y-108281592D01*
X198576807Y-108275308D01*
X198647787Y-108276687D01*
X198706757Y-108316223D01*
X198730333Y-108361134D01*
X198731095Y-108366960D01*
X198780759Y-108479832D01*
X198860107Y-108574228D01*
X198882797Y-108589332D01*
X198946284Y-108631592D01*
X198962759Y-108642559D01*
X199080463Y-108679332D01*
X199089433Y-108679496D01*
X199089437Y-108679497D01*
X199145133Y-108680517D01*
X199203758Y-108681592D01*
X199263244Y-108665374D01*
X199314067Y-108651518D01*
X199314068Y-108651518D01*
X199322730Y-108649156D01*
X199330382Y-108644458D01*
X199420165Y-108589332D01*
X199420168Y-108589329D01*
X199427817Y-108584633D01*
X199437236Y-108574228D01*
X199504543Y-108499868D01*
X199504544Y-108499866D01*
X199510571Y-108493208D01*
X199538713Y-108435124D01*
X199560424Y-108390311D01*
X199560424Y-108390310D01*
X199564338Y-108382232D01*
X199584797Y-108260626D01*
X199584927Y-108250000D01*
X199583862Y-108242559D01*
X199568718Y-108136817D01*
X199568717Y-108136815D01*
X199567445Y-108127930D01*
X199542397Y-108072840D01*
X199520122Y-108023848D01*
X199520120Y-108023845D01*
X199516405Y-108015674D01*
X199435910Y-107922255D01*
X199332431Y-107855183D01*
X199323829Y-107852611D01*
X199323826Y-107852609D01*
X199237515Y-107826797D01*
X199214286Y-107819850D01*
X199205310Y-107819795D01*
X199205309Y-107819795D01*
X199154336Y-107819484D01*
X199090974Y-107819097D01*
X199074620Y-107823771D01*
X199003625Y-107823259D01*
X198944177Y-107784445D01*
X198919059Y-107737984D01*
X198918718Y-107736817D01*
X198917445Y-107727930D01*
X198891492Y-107670849D01*
X198870122Y-107623848D01*
X198870120Y-107623845D01*
X198866405Y-107615674D01*
X198785910Y-107522255D01*
X198682431Y-107455183D01*
X198673829Y-107452611D01*
X198673826Y-107452609D01*
X198587040Y-107426655D01*
X198564286Y-107419850D01*
X198555310Y-107419795D01*
X198555309Y-107419795D01*
X198504336Y-107419484D01*
X198440974Y-107419097D01*
X198322406Y-107452984D01*
X198218115Y-107518786D01*
X198136485Y-107611215D01*
X198084077Y-107722840D01*
X198082697Y-107731705D01*
X198082696Y-107731707D01*
X198067816Y-107827276D01*
X198065105Y-107844686D01*
X189775716Y-107844686D01*
X189784247Y-107786499D01*
X189805296Y-107754609D01*
X189881112Y-107670849D01*
X189906068Y-107619341D01*
X189930965Y-107567952D01*
X189930965Y-107567951D01*
X189934879Y-107559873D01*
X189955338Y-107438267D01*
X189955468Y-107427641D01*
X189954353Y-107419850D01*
X189939259Y-107314458D01*
X189939258Y-107314456D01*
X189937986Y-107305571D01*
X189905956Y-107235124D01*
X189890663Y-107201489D01*
X189890661Y-107201486D01*
X189886946Y-107193315D01*
X189806451Y-107099896D01*
X189702972Y-107032824D01*
X189694370Y-107030252D01*
X189694367Y-107030250D01*
X189593430Y-107000064D01*
X189593431Y-107000064D01*
X189584827Y-106997491D01*
X189575851Y-106997436D01*
X189575850Y-106997436D01*
X189524877Y-106997125D01*
X189461515Y-106996738D01*
X189342947Y-107030625D01*
X189238656Y-107096427D01*
X189157026Y-107188856D01*
X189104618Y-107300481D01*
X189103238Y-107309346D01*
X189103237Y-107309348D01*
X189089254Y-107399156D01*
X189085646Y-107422327D01*
X189086810Y-107431228D01*
X189086810Y-107431232D01*
X189097634Y-107513996D01*
X189101636Y-107544601D01*
X189151300Y-107657473D01*
X189157077Y-107664345D01*
X189192840Y-107706891D01*
X189221361Y-107771907D01*
X189210205Y-107842021D01*
X189190832Y-107871371D01*
X189111485Y-107961215D01*
X189059077Y-108072840D01*
X189057697Y-108081705D01*
X189057696Y-108081707D01*
X189056901Y-108086817D01*
X189040105Y-108194686D01*
X184180818Y-108194686D01*
X184162631Y-108154685D01*
X184162629Y-108154682D01*
X184158914Y-108146511D01*
X184078419Y-108053092D01*
X183974940Y-107986020D01*
X183966338Y-107983448D01*
X183966335Y-107983446D01*
X183865398Y-107953260D01*
X183865399Y-107953260D01*
X183856795Y-107950687D01*
X183847819Y-107950632D01*
X183847818Y-107950632D01*
X183796845Y-107950321D01*
X183733483Y-107949934D01*
X183614915Y-107983821D01*
X183510624Y-108049623D01*
X183504682Y-108056351D01*
X183504681Y-108056352D01*
X183477875Y-108086704D01*
X183428994Y-108142052D01*
X183376586Y-108253677D01*
X183375206Y-108262542D01*
X183375205Y-108262544D01*
X183360378Y-108357773D01*
X183357614Y-108375523D01*
X174401000Y-108375523D01*
X174401000Y-106944686D01*
X187115105Y-106944686D01*
X187116269Y-106953587D01*
X187116269Y-106953591D01*
X187123092Y-107005764D01*
X187131095Y-107066960D01*
X187180759Y-107179832D01*
X187260107Y-107274228D01*
X187267585Y-107279205D01*
X187267584Y-107279205D01*
X187342698Y-107329205D01*
X187362759Y-107342559D01*
X187480463Y-107379332D01*
X187489433Y-107379496D01*
X187489437Y-107379497D01*
X187545133Y-107380517D01*
X187603758Y-107381592D01*
X187663244Y-107365374D01*
X187714067Y-107351518D01*
X187714068Y-107351518D01*
X187722730Y-107349156D01*
X187730382Y-107344458D01*
X187820165Y-107289332D01*
X187820168Y-107289329D01*
X187827817Y-107284633D01*
X187837236Y-107274228D01*
X187904543Y-107199868D01*
X187904544Y-107199866D01*
X187910571Y-107193208D01*
X187940114Y-107132232D01*
X187960424Y-107090311D01*
X187960424Y-107090310D01*
X187964338Y-107082232D01*
X187979067Y-106994686D01*
X207965105Y-106994686D01*
X207966269Y-107003587D01*
X207966269Y-107003591D01*
X207979290Y-107103156D01*
X207981095Y-107116960D01*
X208030759Y-107229832D01*
X208110107Y-107324228D01*
X208132797Y-107339332D01*
X208196284Y-107381592D01*
X208212759Y-107392559D01*
X208221329Y-107395236D01*
X208221328Y-107395236D01*
X208299937Y-107419795D01*
X208330463Y-107429332D01*
X208339433Y-107429496D01*
X208339437Y-107429497D01*
X208395133Y-107430517D01*
X208453758Y-107431592D01*
X208520283Y-107413455D01*
X208564067Y-107401518D01*
X208564068Y-107401518D01*
X208572730Y-107399156D01*
X208580382Y-107394458D01*
X208670165Y-107339332D01*
X208670168Y-107339329D01*
X208677817Y-107334633D01*
X208687236Y-107324228D01*
X208754543Y-107249868D01*
X208754544Y-107249866D01*
X208760571Y-107243208D01*
X208788713Y-107185124D01*
X208810424Y-107140311D01*
X208810424Y-107140310D01*
X208814338Y-107132232D01*
X208834797Y-107010626D01*
X208834927Y-107000000D01*
X208832896Y-106985814D01*
X208818718Y-106886817D01*
X208818717Y-106886815D01*
X208817445Y-106877930D01*
X208766405Y-106765674D01*
X208685910Y-106672255D01*
X208582431Y-106605183D01*
X208573829Y-106602611D01*
X208573826Y-106602609D01*
X208472889Y-106572423D01*
X208472890Y-106572423D01*
X208464286Y-106569850D01*
X208455310Y-106569795D01*
X208455309Y-106569795D01*
X208404336Y-106569484D01*
X208340974Y-106569097D01*
X208222406Y-106602984D01*
X208118115Y-106668786D01*
X208036485Y-106761215D01*
X207984077Y-106872840D01*
X207982697Y-106881705D01*
X207982696Y-106881707D01*
X207971504Y-106953591D01*
X207965105Y-106994686D01*
X187979067Y-106994686D01*
X187984797Y-106960626D01*
X187984927Y-106950000D01*
X187982896Y-106935814D01*
X187968718Y-106836817D01*
X187968717Y-106836815D01*
X187967445Y-106827930D01*
X187939139Y-106765674D01*
X187920122Y-106723848D01*
X187920120Y-106723845D01*
X187916405Y-106715674D01*
X187835910Y-106622255D01*
X187732431Y-106555183D01*
X187723829Y-106552611D01*
X187723826Y-106552609D01*
X187622889Y-106522423D01*
X187622890Y-106522423D01*
X187614286Y-106519850D01*
X187605310Y-106519795D01*
X187605309Y-106519795D01*
X187554336Y-106519484D01*
X187490974Y-106519097D01*
X187372406Y-106552984D01*
X187268115Y-106618786D01*
X187186485Y-106711215D01*
X187134077Y-106822840D01*
X187132697Y-106831705D01*
X187132696Y-106831707D01*
X187126292Y-106872840D01*
X187115105Y-106944686D01*
X174401000Y-106944686D01*
X174401000Y-105544686D01*
X189290105Y-105544686D01*
X189291269Y-105553587D01*
X189291269Y-105553591D01*
X189300144Y-105621452D01*
X189306095Y-105666960D01*
X189355759Y-105779832D01*
X189435107Y-105874228D01*
X189537759Y-105942559D01*
X189655463Y-105979332D01*
X189664433Y-105979496D01*
X189664437Y-105979497D01*
X189720133Y-105980517D01*
X189778758Y-105981592D01*
X189838244Y-105965374D01*
X189889067Y-105951518D01*
X189889068Y-105951518D01*
X189897730Y-105949156D01*
X189905382Y-105944458D01*
X189995165Y-105889332D01*
X189995168Y-105889329D01*
X190002817Y-105884633D01*
X190012236Y-105874228D01*
X190079543Y-105799868D01*
X190079544Y-105799866D01*
X190085571Y-105793208D01*
X190114582Y-105733330D01*
X190135424Y-105690311D01*
X190135424Y-105690310D01*
X190139338Y-105682232D01*
X190159797Y-105560626D01*
X190159927Y-105550000D01*
X190157896Y-105535814D01*
X190143718Y-105436817D01*
X190143717Y-105436815D01*
X190142445Y-105427930D01*
X190091405Y-105315674D01*
X190076853Y-105298786D01*
X198116905Y-105298786D01*
X198118069Y-105307687D01*
X198118069Y-105307691D01*
X198120182Y-105323848D01*
X198132895Y-105421060D01*
X198182559Y-105533932D01*
X198261907Y-105628328D01*
X198269385Y-105633305D01*
X198269384Y-105633305D01*
X198355023Y-105690311D01*
X198364559Y-105696659D01*
X198482263Y-105733432D01*
X198491233Y-105733596D01*
X198491237Y-105733597D01*
X198546933Y-105734617D01*
X198605558Y-105735692D01*
X198665044Y-105719474D01*
X198715867Y-105705618D01*
X198715868Y-105705618D01*
X198724530Y-105703256D01*
X198732182Y-105698558D01*
X198821965Y-105643432D01*
X198821968Y-105643429D01*
X198829617Y-105638733D01*
X198839036Y-105628328D01*
X198906343Y-105553968D01*
X198906344Y-105553966D01*
X198912371Y-105547308D01*
X198966138Y-105436332D01*
X198986597Y-105314726D01*
X198986727Y-105304100D01*
X198984696Y-105289914D01*
X198970518Y-105190917D01*
X198970517Y-105190915D01*
X198969245Y-105182030D01*
X198933918Y-105104332D01*
X198921922Y-105077948D01*
X198921920Y-105077945D01*
X198918205Y-105069774D01*
X198837710Y-104976355D01*
X198734231Y-104909283D01*
X198725629Y-104906711D01*
X198725626Y-104906709D01*
X198645954Y-104882882D01*
X198616086Y-104873950D01*
X198607110Y-104873895D01*
X198607109Y-104873895D01*
X198556136Y-104873584D01*
X198492774Y-104873197D01*
X198374206Y-104907084D01*
X198269915Y-104972886D01*
X198263973Y-104979614D01*
X198263972Y-104979615D01*
X198249187Y-104996356D01*
X198188285Y-105065315D01*
X198135877Y-105176940D01*
X198134497Y-105185805D01*
X198134496Y-105185807D01*
X198128314Y-105225515D01*
X198116905Y-105298786D01*
X190076853Y-105298786D01*
X190010910Y-105222255D01*
X189907431Y-105155183D01*
X189898829Y-105152611D01*
X189898826Y-105152609D01*
X189797889Y-105122423D01*
X189797890Y-105122423D01*
X189789286Y-105119850D01*
X189780310Y-105119795D01*
X189780309Y-105119795D01*
X189729336Y-105119484D01*
X189665974Y-105119097D01*
X189547406Y-105152984D01*
X189443115Y-105218786D01*
X189361485Y-105311215D01*
X189309077Y-105422840D01*
X189307697Y-105431705D01*
X189307696Y-105431707D01*
X189293059Y-105525716D01*
X189290105Y-105544686D01*
X174401000Y-105544686D01*
X174401000Y-104669686D01*
X186490105Y-104669686D01*
X186491269Y-104678587D01*
X186491269Y-104678591D01*
X186501025Y-104753191D01*
X186506095Y-104791960D01*
X186555759Y-104904832D01*
X186611776Y-104971472D01*
X186622966Y-104984784D01*
X186635107Y-104999228D01*
X186737759Y-105067559D01*
X186855463Y-105104332D01*
X186864433Y-105104496D01*
X186864437Y-105104497D01*
X186920133Y-105105517D01*
X186978758Y-105106592D01*
X187080678Y-105078805D01*
X187089067Y-105076518D01*
X187089068Y-105076518D01*
X187097730Y-105074156D01*
X187105382Y-105069458D01*
X187195165Y-105014332D01*
X187195168Y-105014329D01*
X187202817Y-105009633D01*
X187212236Y-104999228D01*
X187279543Y-104924868D01*
X187279544Y-104924866D01*
X187285571Y-104918208D01*
X187290961Y-104907084D01*
X187335424Y-104815311D01*
X187335424Y-104815310D01*
X187339338Y-104807232D01*
X187359797Y-104685626D01*
X187359927Y-104675000D01*
X187357896Y-104660814D01*
X187348024Y-104591886D01*
X196110305Y-104591886D01*
X196111469Y-104600787D01*
X196111469Y-104600791D01*
X196123191Y-104690423D01*
X196126295Y-104714160D01*
X196175959Y-104827032D01*
X196255307Y-104921428D01*
X196357959Y-104989759D01*
X196475663Y-105026532D01*
X196484633Y-105026696D01*
X196484637Y-105026697D01*
X196540333Y-105027717D01*
X196598958Y-105028792D01*
X196693649Y-105002976D01*
X196709267Y-104998718D01*
X196709268Y-104998718D01*
X196717930Y-104996356D01*
X196725582Y-104991658D01*
X196815365Y-104936532D01*
X196815368Y-104936529D01*
X196823017Y-104931833D01*
X196829322Y-104924868D01*
X196899743Y-104847068D01*
X196899744Y-104847066D01*
X196905771Y-104840408D01*
X196917931Y-104815311D01*
X196952342Y-104744286D01*
X201876105Y-104744286D01*
X201877269Y-104753187D01*
X201877269Y-104753191D01*
X201888675Y-104840408D01*
X201892095Y-104866560D01*
X201941759Y-104979432D01*
X202021107Y-105073828D01*
X202028585Y-105078805D01*
X202028584Y-105078805D01*
X202089114Y-105119097D01*
X202123759Y-105142159D01*
X202132329Y-105144836D01*
X202132328Y-105144836D01*
X202209087Y-105168817D01*
X202241463Y-105178932D01*
X202250433Y-105179096D01*
X202250437Y-105179097D01*
X202306133Y-105180117D01*
X202364758Y-105181192D01*
X202450657Y-105157773D01*
X202475067Y-105151118D01*
X202475068Y-105151118D01*
X202483730Y-105148756D01*
X202491382Y-105144058D01*
X202581165Y-105088932D01*
X202581168Y-105088929D01*
X202588817Y-105084233D01*
X202595801Y-105076518D01*
X202665543Y-104999468D01*
X202665544Y-104999466D01*
X202671571Y-104992808D01*
X202679543Y-104976355D01*
X202721424Y-104889911D01*
X202721424Y-104889910D01*
X202725338Y-104881832D01*
X202745797Y-104760226D01*
X202745927Y-104749600D01*
X202745166Y-104744286D01*
X204644705Y-104744286D01*
X204645869Y-104753187D01*
X204645869Y-104753191D01*
X204657275Y-104840408D01*
X204660695Y-104866560D01*
X204710359Y-104979432D01*
X204789707Y-105073828D01*
X204797185Y-105078805D01*
X204797184Y-105078805D01*
X204857714Y-105119097D01*
X204892359Y-105142159D01*
X204900929Y-105144836D01*
X204900928Y-105144836D01*
X204977687Y-105168817D01*
X205010063Y-105178932D01*
X205019033Y-105179096D01*
X205019037Y-105179097D01*
X205074733Y-105180117D01*
X205133358Y-105181192D01*
X205219257Y-105157773D01*
X205243667Y-105151118D01*
X205243668Y-105151118D01*
X205252330Y-105148756D01*
X205259982Y-105144058D01*
X205349765Y-105088932D01*
X205349768Y-105088929D01*
X205357417Y-105084233D01*
X205364401Y-105076518D01*
X205434143Y-104999468D01*
X205434144Y-104999466D01*
X205440171Y-104992808D01*
X205448143Y-104976355D01*
X205490024Y-104889911D01*
X205490024Y-104889910D01*
X205493938Y-104881832D01*
X205514397Y-104760226D01*
X205514527Y-104749600D01*
X205512496Y-104735414D01*
X205498318Y-104636417D01*
X205498317Y-104636415D01*
X205497045Y-104627530D01*
X205457119Y-104539717D01*
X205449722Y-104523448D01*
X205449720Y-104523445D01*
X205446005Y-104515274D01*
X205365510Y-104421855D01*
X205262031Y-104354783D01*
X205253429Y-104352211D01*
X205253426Y-104352209D01*
X205152489Y-104322023D01*
X205152490Y-104322023D01*
X205143886Y-104319450D01*
X205134910Y-104319395D01*
X205134909Y-104319395D01*
X205083936Y-104319084D01*
X205020574Y-104318697D01*
X204902006Y-104352584D01*
X204797715Y-104418386D01*
X204716085Y-104510815D01*
X204663677Y-104622440D01*
X204662297Y-104631305D01*
X204662296Y-104631307D01*
X204647018Y-104729432D01*
X204644705Y-104744286D01*
X202745166Y-104744286D01*
X202743896Y-104735414D01*
X202729718Y-104636417D01*
X202729717Y-104636415D01*
X202728445Y-104627530D01*
X202688519Y-104539717D01*
X202681122Y-104523448D01*
X202681120Y-104523445D01*
X202677405Y-104515274D01*
X202596910Y-104421855D01*
X202493431Y-104354783D01*
X202484829Y-104352211D01*
X202484826Y-104352209D01*
X202383889Y-104322023D01*
X202383890Y-104322023D01*
X202375286Y-104319450D01*
X202366310Y-104319395D01*
X202366309Y-104319395D01*
X202315336Y-104319084D01*
X202251974Y-104318697D01*
X202133406Y-104352584D01*
X202029115Y-104418386D01*
X201947485Y-104510815D01*
X201895077Y-104622440D01*
X201893697Y-104631305D01*
X201893696Y-104631307D01*
X201878418Y-104729432D01*
X201876105Y-104744286D01*
X196952342Y-104744286D01*
X196955624Y-104737511D01*
X196955624Y-104737510D01*
X196959538Y-104729432D01*
X196979997Y-104607826D01*
X196980127Y-104597200D01*
X196978096Y-104583014D01*
X196963918Y-104484017D01*
X196963917Y-104484015D01*
X196962645Y-104475130D01*
X196911605Y-104362874D01*
X196831110Y-104269455D01*
X196727631Y-104202383D01*
X196719029Y-104199811D01*
X196719026Y-104199809D01*
X196618089Y-104169623D01*
X196618090Y-104169623D01*
X196609486Y-104167050D01*
X196600510Y-104166995D01*
X196600509Y-104166995D01*
X196549536Y-104166684D01*
X196486174Y-104166297D01*
X196367606Y-104200184D01*
X196263315Y-104265986D01*
X196257373Y-104272714D01*
X196257372Y-104272715D01*
X196222500Y-104312200D01*
X196181685Y-104358415D01*
X196129277Y-104470040D01*
X196127897Y-104478905D01*
X196127896Y-104478907D01*
X196114987Y-104561817D01*
X196110305Y-104591886D01*
X187348024Y-104591886D01*
X187343718Y-104561817D01*
X187343717Y-104561815D01*
X187342445Y-104552930D01*
X187308789Y-104478907D01*
X187295122Y-104448848D01*
X187295120Y-104448845D01*
X187291405Y-104440674D01*
X187210910Y-104347255D01*
X187107431Y-104280183D01*
X187098829Y-104277611D01*
X187098826Y-104277609D01*
X186997889Y-104247423D01*
X186997890Y-104247423D01*
X186989286Y-104244850D01*
X186980310Y-104244795D01*
X186980309Y-104244795D01*
X186929336Y-104244484D01*
X186865974Y-104244097D01*
X186747406Y-104277984D01*
X186643115Y-104343786D01*
X186637173Y-104350514D01*
X186637172Y-104350515D01*
X186619038Y-104371048D01*
X186561485Y-104436215D01*
X186509077Y-104547840D01*
X186507697Y-104556705D01*
X186507696Y-104556707D01*
X186496081Y-104631307D01*
X186490105Y-104669686D01*
X174401000Y-104669686D01*
X174401000Y-104094686D01*
X182090105Y-104094686D01*
X182091269Y-104103587D01*
X182091269Y-104103591D01*
X182103579Y-104197718D01*
X182106095Y-104216960D01*
X182155759Y-104329832D01*
X182235107Y-104424228D01*
X182265322Y-104444341D01*
X182324927Y-104484017D01*
X182337759Y-104492559D01*
X182455463Y-104529332D01*
X182464433Y-104529496D01*
X182464437Y-104529497D01*
X182520133Y-104530517D01*
X182578758Y-104531592D01*
X182663564Y-104508471D01*
X182689067Y-104501518D01*
X182689068Y-104501518D01*
X182697730Y-104499156D01*
X182705382Y-104494458D01*
X182795165Y-104439332D01*
X182795168Y-104439329D01*
X182802817Y-104434633D01*
X182811433Y-104425115D01*
X182879543Y-104349868D01*
X182879544Y-104349866D01*
X182885571Y-104343208D01*
X182897109Y-104319395D01*
X182935424Y-104240311D01*
X182935424Y-104240310D01*
X182939338Y-104232232D01*
X182959797Y-104110626D01*
X182959927Y-104100000D01*
X182958051Y-104086897D01*
X182943718Y-103986817D01*
X182943717Y-103986815D01*
X182942445Y-103977930D01*
X182907289Y-103900608D01*
X182895122Y-103873848D01*
X182895120Y-103873845D01*
X182891405Y-103865674D01*
X182810910Y-103772255D01*
X182707431Y-103705183D01*
X182698829Y-103702611D01*
X182698826Y-103702609D01*
X182597889Y-103672423D01*
X182597890Y-103672423D01*
X182589286Y-103669850D01*
X182580310Y-103669795D01*
X182580309Y-103669795D01*
X182529336Y-103669484D01*
X182465974Y-103669097D01*
X182347406Y-103702984D01*
X182243115Y-103768786D01*
X182237173Y-103775514D01*
X182237172Y-103775515D01*
X182217569Y-103797711D01*
X182161485Y-103861215D01*
X182109077Y-103972840D01*
X182107697Y-103981705D01*
X182107696Y-103981707D01*
X182096774Y-104051858D01*
X182090105Y-104094686D01*
X174401000Y-104094686D01*
X174401000Y-103269686D01*
X179465105Y-103269686D01*
X179466269Y-103278587D01*
X179466269Y-103278591D01*
X179478356Y-103371016D01*
X179481095Y-103391960D01*
X179530759Y-103504832D01*
X179610107Y-103599228D01*
X179660868Y-103633017D01*
X179693637Y-103654830D01*
X179712759Y-103667559D01*
X179830463Y-103704332D01*
X179839433Y-103704496D01*
X179839437Y-103704497D01*
X179895133Y-103705517D01*
X179953758Y-103706592D01*
X180013244Y-103690374D01*
X180064067Y-103676518D01*
X180064068Y-103676518D01*
X180072730Y-103674156D01*
X180080880Y-103669152D01*
X180170165Y-103614332D01*
X180170168Y-103614329D01*
X180177817Y-103609633D01*
X180187236Y-103599228D01*
X180254543Y-103524868D01*
X180254544Y-103524866D01*
X180260571Y-103518208D01*
X180279759Y-103478605D01*
X180310424Y-103415311D01*
X180310424Y-103415310D01*
X180314338Y-103407232D01*
X180334797Y-103285626D01*
X180334927Y-103275000D01*
X180334128Y-103269416D01*
X180318718Y-103161817D01*
X180318717Y-103161815D01*
X180317445Y-103152930D01*
X180291269Y-103095360D01*
X180270122Y-103048848D01*
X180270120Y-103048845D01*
X180266405Y-103040674D01*
X180185910Y-102947255D01*
X180082431Y-102880183D01*
X180073829Y-102877611D01*
X180073826Y-102877609D01*
X179972889Y-102847423D01*
X179972890Y-102847423D01*
X179964286Y-102844850D01*
X179955310Y-102844795D01*
X179955309Y-102844795D01*
X179904336Y-102844484D01*
X179840974Y-102844097D01*
X179722406Y-102877984D01*
X179618115Y-102943786D01*
X179536485Y-103036215D01*
X179484077Y-103147840D01*
X179482697Y-103156705D01*
X179482696Y-103156707D01*
X179466612Y-103260009D01*
X179465105Y-103269686D01*
X174401000Y-103269686D01*
X174401000Y-102229686D01*
X196135705Y-102229686D01*
X196136869Y-102238587D01*
X196136869Y-102238591D01*
X196150519Y-102342971D01*
X196151695Y-102351960D01*
X196201359Y-102464832D01*
X196280707Y-102559228D01*
X196383359Y-102627559D01*
X196391929Y-102630236D01*
X196391928Y-102630236D01*
X196489883Y-102660839D01*
X196501063Y-102664332D01*
X196510033Y-102664496D01*
X196510037Y-102664497D01*
X196565733Y-102665517D01*
X196624358Y-102666592D01*
X196743330Y-102634156D01*
X196744093Y-102636954D01*
X196799957Y-102630060D01*
X196863935Y-102660839D01*
X196901116Y-102721321D01*
X196899696Y-102792304D01*
X196891965Y-102808583D01*
X196892885Y-102809015D01*
X196840477Y-102920640D01*
X196839097Y-102929505D01*
X196839096Y-102929507D01*
X196823277Y-103031107D01*
X196821505Y-103042486D01*
X196822669Y-103051387D01*
X196822669Y-103051391D01*
X196827760Y-103090317D01*
X196837495Y-103164760D01*
X196887159Y-103277632D01*
X196966507Y-103372028D01*
X196987653Y-103386104D01*
X197036494Y-103418615D01*
X197069159Y-103440359D01*
X197186863Y-103477132D01*
X197195833Y-103477296D01*
X197195837Y-103477297D01*
X197251533Y-103478317D01*
X197310158Y-103479392D01*
X197398041Y-103455432D01*
X197420467Y-103449318D01*
X197420468Y-103449318D01*
X197429130Y-103446956D01*
X197436782Y-103442258D01*
X197526565Y-103387132D01*
X197526568Y-103387129D01*
X197534217Y-103382433D01*
X197543636Y-103372028D01*
X197610943Y-103297668D01*
X197610944Y-103297666D01*
X197616971Y-103291008D01*
X197625803Y-103272780D01*
X197666824Y-103188111D01*
X197666824Y-103188110D01*
X197670738Y-103180032D01*
X197676786Y-103144086D01*
X198116905Y-103144086D01*
X198118069Y-103152987D01*
X198118069Y-103152991D01*
X198128954Y-103236226D01*
X198132895Y-103266360D01*
X198182559Y-103379232D01*
X198261907Y-103473628D01*
X198364559Y-103541959D01*
X198393235Y-103550918D01*
X198438092Y-103564932D01*
X198482263Y-103578732D01*
X198491233Y-103578896D01*
X198491237Y-103578897D01*
X198546933Y-103579917D01*
X198605558Y-103580992D01*
X198681700Y-103560233D01*
X198715867Y-103550918D01*
X198715868Y-103550918D01*
X198724530Y-103548556D01*
X198732182Y-103543858D01*
X198821965Y-103488732D01*
X198821968Y-103488729D01*
X198829617Y-103484033D01*
X198835715Y-103477297D01*
X198906343Y-103399268D01*
X198906344Y-103399266D01*
X198912371Y-103392608D01*
X198916998Y-103383059D01*
X198962224Y-103289711D01*
X198962224Y-103289710D01*
X198966138Y-103281632D01*
X198976459Y-103220286D01*
X199386905Y-103220286D01*
X199388069Y-103229187D01*
X199388069Y-103229191D01*
X199395984Y-103289711D01*
X199402895Y-103342560D01*
X199452559Y-103455432D01*
X199505328Y-103518208D01*
X199521111Y-103536984D01*
X199531907Y-103549828D01*
X199539385Y-103554805D01*
X199539384Y-103554805D01*
X199621751Y-103609633D01*
X199634559Y-103618159D01*
X199752263Y-103654932D01*
X199761233Y-103655096D01*
X199761237Y-103655097D01*
X199816933Y-103656117D01*
X199875558Y-103657192D01*
X199894286Y-103652086D01*
X200783905Y-103652086D01*
X200785069Y-103660987D01*
X200785069Y-103660991D01*
X200798540Y-103763996D01*
X200799895Y-103774360D01*
X200849559Y-103887232D01*
X200928907Y-103981628D01*
X201031559Y-104049959D01*
X201149263Y-104086732D01*
X201158233Y-104086896D01*
X201158237Y-104086897D01*
X201213933Y-104087917D01*
X201272558Y-104088992D01*
X201332044Y-104072774D01*
X201382867Y-104058918D01*
X201382868Y-104058918D01*
X201391530Y-104056556D01*
X201399182Y-104051858D01*
X201488965Y-103996732D01*
X201488968Y-103996729D01*
X201496617Y-103992033D01*
X201506036Y-103981628D01*
X201573343Y-103907268D01*
X201573344Y-103907266D01*
X201579371Y-103900608D01*
X201596297Y-103865674D01*
X201629224Y-103797711D01*
X201629224Y-103797710D01*
X201633138Y-103789632D01*
X201653597Y-103668026D01*
X201653727Y-103657400D01*
X201651696Y-103643214D01*
X201637518Y-103544217D01*
X201637517Y-103544215D01*
X201636245Y-103535330D01*
X201609784Y-103477132D01*
X201588922Y-103431248D01*
X201588920Y-103431245D01*
X201585205Y-103423074D01*
X201504710Y-103329655D01*
X201401231Y-103262583D01*
X201392629Y-103260011D01*
X201392626Y-103260009D01*
X201291689Y-103229823D01*
X201291690Y-103229823D01*
X201283086Y-103227250D01*
X201274110Y-103227195D01*
X201274109Y-103227195D01*
X201223136Y-103226884D01*
X201159774Y-103226497D01*
X201041206Y-103260384D01*
X200936915Y-103326186D01*
X200855285Y-103418615D01*
X200802877Y-103530240D01*
X200801497Y-103539105D01*
X200801496Y-103539107D01*
X200787793Y-103627118D01*
X200783905Y-103652086D01*
X199894286Y-103652086D01*
X199935044Y-103640974D01*
X199985867Y-103627118D01*
X199985868Y-103627118D01*
X199994530Y-103624756D01*
X200002182Y-103620058D01*
X200091965Y-103564932D01*
X200091968Y-103564929D01*
X200099617Y-103560233D01*
X200109036Y-103549828D01*
X200176343Y-103475468D01*
X200176344Y-103475466D01*
X200182371Y-103468808D01*
X200194858Y-103443036D01*
X200232224Y-103365911D01*
X200232224Y-103365910D01*
X200236138Y-103357832D01*
X200256597Y-103236226D01*
X200256727Y-103225600D01*
X200254696Y-103211414D01*
X200240518Y-103112417D01*
X200240517Y-103112415D01*
X200239245Y-103103530D01*
X200215539Y-103051391D01*
X200191922Y-102999448D01*
X200191920Y-102999445D01*
X200188205Y-102991274D01*
X200107710Y-102897855D01*
X200004231Y-102830783D01*
X199995629Y-102828211D01*
X199995626Y-102828209D01*
X199894689Y-102798023D01*
X199894690Y-102798023D01*
X199886086Y-102795450D01*
X199877110Y-102795395D01*
X199877109Y-102795395D01*
X199826136Y-102795084D01*
X199762774Y-102794697D01*
X199644206Y-102828584D01*
X199539915Y-102894386D01*
X199533973Y-102901114D01*
X199533972Y-102901115D01*
X199516728Y-102920640D01*
X199458285Y-102986815D01*
X199405877Y-103098440D01*
X199404497Y-103107305D01*
X199404496Y-103107307D01*
X199391915Y-103188111D01*
X199386905Y-103220286D01*
X198976459Y-103220286D01*
X198986597Y-103160026D01*
X198986727Y-103149400D01*
X198985341Y-103139717D01*
X198978988Y-103095360D01*
X198969245Y-103027330D01*
X198927091Y-102934617D01*
X198921922Y-102923248D01*
X198921920Y-102923245D01*
X198918205Y-102915074D01*
X198837710Y-102821655D01*
X198734231Y-102754583D01*
X198725629Y-102752011D01*
X198725626Y-102752009D01*
X198624689Y-102721823D01*
X198624690Y-102721823D01*
X198616086Y-102719250D01*
X198607110Y-102719195D01*
X198607109Y-102719195D01*
X198556136Y-102718884D01*
X198492774Y-102718497D01*
X198374206Y-102752384D01*
X198269915Y-102818186D01*
X198263973Y-102824914D01*
X198263972Y-102824915D01*
X198244094Y-102847423D01*
X198188285Y-102910615D01*
X198135877Y-103022240D01*
X198134497Y-103031105D01*
X198134496Y-103031107D01*
X198122632Y-103107307D01*
X198116905Y-103144086D01*
X197676786Y-103144086D01*
X197691197Y-103058426D01*
X197691327Y-103047800D01*
X197690307Y-103040674D01*
X197675118Y-102934617D01*
X197675117Y-102934615D01*
X197673845Y-102925730D01*
X197630675Y-102830783D01*
X197626522Y-102821648D01*
X197626520Y-102821645D01*
X197622805Y-102813474D01*
X197542310Y-102720055D01*
X197438831Y-102652983D01*
X197430229Y-102650411D01*
X197430226Y-102650409D01*
X197329289Y-102620223D01*
X197329290Y-102620223D01*
X197320686Y-102617650D01*
X197311710Y-102617595D01*
X197311709Y-102617595D01*
X197260736Y-102617284D01*
X197197374Y-102616897D01*
X197081224Y-102650093D01*
X197010229Y-102649581D01*
X196950781Y-102610767D01*
X196921755Y-102545975D01*
X196933206Y-102474009D01*
X196984938Y-102367232D01*
X197005397Y-102245626D01*
X197005527Y-102235000D01*
X197003496Y-102220814D01*
X196989318Y-102121817D01*
X196989317Y-102121815D01*
X196988045Y-102112930D01*
X196937005Y-102000674D01*
X196856510Y-101907255D01*
X196753031Y-101840183D01*
X196744429Y-101837611D01*
X196744426Y-101837609D01*
X196643489Y-101807423D01*
X196643490Y-101807423D01*
X196634886Y-101804850D01*
X196625910Y-101804795D01*
X196625909Y-101804795D01*
X196574936Y-101804484D01*
X196511574Y-101804097D01*
X196393006Y-101837984D01*
X196288715Y-101903786D01*
X196207085Y-101996215D01*
X196154677Y-102107840D01*
X196153297Y-102116705D01*
X196153296Y-102116707D01*
X196152501Y-102121817D01*
X196135705Y-102229686D01*
X174401000Y-102229686D01*
X174401000Y-100858086D01*
X184629505Y-100858086D01*
X184630669Y-100866987D01*
X184630669Y-100866991D01*
X184643527Y-100965311D01*
X184645495Y-100980360D01*
X184695159Y-101093232D01*
X184774507Y-101187628D01*
X184781985Y-101192605D01*
X184781984Y-101192605D01*
X184832931Y-101226518D01*
X184877159Y-101255959D01*
X184994863Y-101292732D01*
X185003833Y-101292896D01*
X185003837Y-101292897D01*
X185059533Y-101293917D01*
X185118158Y-101294992D01*
X185177644Y-101278774D01*
X185228467Y-101264918D01*
X185228468Y-101264918D01*
X185237130Y-101262556D01*
X185244782Y-101257858D01*
X185334565Y-101202732D01*
X185334568Y-101202729D01*
X185342217Y-101198033D01*
X185351636Y-101187628D01*
X185418943Y-101113268D01*
X185418944Y-101113266D01*
X185424971Y-101106608D01*
X185438236Y-101079230D01*
X185474824Y-101003711D01*
X185474824Y-101003710D01*
X185478738Y-100995632D01*
X185499197Y-100874026D01*
X185499327Y-100863400D01*
X185497296Y-100849214D01*
X185493067Y-100819686D01*
X188190105Y-100819686D01*
X188191269Y-100828587D01*
X188191269Y-100828591D01*
X188201997Y-100910626D01*
X188206095Y-100941960D01*
X188255759Y-101054832D01*
X188335107Y-101149228D01*
X188342585Y-101154205D01*
X188342584Y-101154205D01*
X188408426Y-101198033D01*
X188437759Y-101217559D01*
X188466435Y-101226518D01*
X188544747Y-101250984D01*
X188555463Y-101254332D01*
X188564433Y-101254496D01*
X188564437Y-101254497D01*
X188620133Y-101255517D01*
X188678758Y-101256592D01*
X188742066Y-101239332D01*
X188789067Y-101226518D01*
X188789068Y-101226518D01*
X188797730Y-101224156D01*
X188805382Y-101219458D01*
X188895165Y-101164332D01*
X188895168Y-101164329D01*
X188902817Y-101159633D01*
X188912236Y-101149228D01*
X188979543Y-101074868D01*
X188979544Y-101074866D01*
X188985571Y-101068208D01*
X188993658Y-101051518D01*
X189035424Y-100965311D01*
X189035424Y-100965310D01*
X189039338Y-100957232D01*
X189049861Y-100894686D01*
X190140105Y-100894686D01*
X190141269Y-100903587D01*
X190141269Y-100903591D01*
X190152148Y-100986780D01*
X190156095Y-101016960D01*
X190205759Y-101129832D01*
X190285107Y-101224228D01*
X190387759Y-101292559D01*
X190505463Y-101329332D01*
X190514433Y-101329496D01*
X190514437Y-101329497D01*
X190570133Y-101330517D01*
X190628758Y-101331592D01*
X190688244Y-101315374D01*
X190739067Y-101301518D01*
X190739068Y-101301518D01*
X190747730Y-101299156D01*
X190758359Y-101292630D01*
X190845165Y-101239332D01*
X190845168Y-101239329D01*
X190852817Y-101234633D01*
X190860163Y-101226518D01*
X190929543Y-101149868D01*
X190929544Y-101149866D01*
X190935571Y-101143208D01*
X190953304Y-101106608D01*
X190985424Y-101040311D01*
X190985424Y-101040310D01*
X190989338Y-101032232D01*
X191009797Y-100910626D01*
X191009927Y-100900000D01*
X191008955Y-100893208D01*
X190993718Y-100786817D01*
X190993717Y-100786815D01*
X190992445Y-100777930D01*
X190960062Y-100706707D01*
X190945122Y-100673848D01*
X190945120Y-100673845D01*
X190941405Y-100665674D01*
X190923321Y-100644686D01*
X195119605Y-100644686D01*
X195120769Y-100653587D01*
X195120769Y-100653591D01*
X195128384Y-100711817D01*
X195135595Y-100766960D01*
X195185259Y-100879832D01*
X195264607Y-100974228D01*
X195367259Y-101042559D01*
X195375829Y-101045236D01*
X195375828Y-101045236D01*
X195470675Y-101074868D01*
X195484963Y-101079332D01*
X195493933Y-101079496D01*
X195493937Y-101079497D01*
X195549633Y-101080517D01*
X195608258Y-101081592D01*
X195681205Y-101061704D01*
X195718567Y-101051518D01*
X195718568Y-101051518D01*
X195727230Y-101049156D01*
X195734882Y-101044458D01*
X195824665Y-100989332D01*
X195824668Y-100989329D01*
X195832317Y-100984633D01*
X195841736Y-100974228D01*
X195909043Y-100899868D01*
X195909044Y-100899866D01*
X195915071Y-100893208D01*
X195922041Y-100878823D01*
X195964924Y-100790311D01*
X195964924Y-100790310D01*
X195968838Y-100782232D01*
X195989297Y-100660626D01*
X195989427Y-100650000D01*
X195988634Y-100644458D01*
X195973218Y-100536817D01*
X195973217Y-100536815D01*
X195971945Y-100527930D01*
X195946707Y-100472423D01*
X195924622Y-100423848D01*
X195924620Y-100423845D01*
X195920905Y-100415674D01*
X195840410Y-100322255D01*
X195736931Y-100255183D01*
X195728329Y-100252611D01*
X195728326Y-100252609D01*
X195627389Y-100222423D01*
X195627390Y-100222423D01*
X195618786Y-100219850D01*
X195609810Y-100219795D01*
X195609809Y-100219795D01*
X195558836Y-100219484D01*
X195495474Y-100219097D01*
X195376906Y-100252984D01*
X195272615Y-100318786D01*
X195266673Y-100325514D01*
X195266672Y-100325515D01*
X195253506Y-100340423D01*
X195190985Y-100411215D01*
X195138577Y-100522840D01*
X195137197Y-100531705D01*
X195137196Y-100531707D01*
X195121465Y-100632741D01*
X195119605Y-100644686D01*
X190923321Y-100644686D01*
X190860910Y-100572255D01*
X190757431Y-100505183D01*
X190748829Y-100502611D01*
X190748826Y-100502609D01*
X190647889Y-100472423D01*
X190647890Y-100472423D01*
X190639286Y-100469850D01*
X190630310Y-100469795D01*
X190630309Y-100469795D01*
X190579336Y-100469484D01*
X190515974Y-100469097D01*
X190397406Y-100502984D01*
X190293115Y-100568786D01*
X190287173Y-100575514D01*
X190287172Y-100575515D01*
X190273784Y-100590674D01*
X190211485Y-100661215D01*
X190159077Y-100772840D01*
X190157697Y-100781705D01*
X190157696Y-100781707D01*
X190141594Y-100885124D01*
X190140105Y-100894686D01*
X189049861Y-100894686D01*
X189059797Y-100835626D01*
X189059927Y-100825000D01*
X189057896Y-100810814D01*
X189043718Y-100711817D01*
X189043717Y-100711815D01*
X189042445Y-100702930D01*
X189006837Y-100624615D01*
X188995122Y-100598848D01*
X188995120Y-100598845D01*
X188991405Y-100590674D01*
X188910910Y-100497255D01*
X188807431Y-100430183D01*
X188798829Y-100427611D01*
X188798826Y-100427609D01*
X188697889Y-100397423D01*
X188697890Y-100397423D01*
X188689286Y-100394850D01*
X188680310Y-100394795D01*
X188680309Y-100394795D01*
X188629336Y-100394484D01*
X188565974Y-100394097D01*
X188447406Y-100427984D01*
X188343115Y-100493786D01*
X188337173Y-100500514D01*
X188337172Y-100500515D01*
X188309201Y-100532186D01*
X188261485Y-100586215D01*
X188209077Y-100697840D01*
X188207697Y-100706705D01*
X188207696Y-100706707D01*
X188194679Y-100790311D01*
X188190105Y-100819686D01*
X185493067Y-100819686D01*
X185483118Y-100750217D01*
X185483117Y-100750215D01*
X185481845Y-100741330D01*
X185451163Y-100673848D01*
X185434522Y-100637248D01*
X185434520Y-100637245D01*
X185430805Y-100629074D01*
X185350310Y-100535655D01*
X185246831Y-100468583D01*
X185238229Y-100466011D01*
X185238226Y-100466009D01*
X185157810Y-100441960D01*
X185128686Y-100433250D01*
X185119710Y-100433195D01*
X185119709Y-100433195D01*
X185068736Y-100432884D01*
X185005374Y-100432497D01*
X184886806Y-100466384D01*
X184782515Y-100532186D01*
X184776573Y-100538914D01*
X184776572Y-100538915D01*
X184751458Y-100567352D01*
X184700885Y-100624615D01*
X184648477Y-100736240D01*
X184647097Y-100745105D01*
X184647096Y-100745107D01*
X184634098Y-100828591D01*
X184629505Y-100858086D01*
X174401000Y-100858086D01*
X174401000Y-100044686D01*
X179440105Y-100044686D01*
X179441269Y-100053587D01*
X179441269Y-100053591D01*
X179450325Y-100122840D01*
X179456095Y-100166960D01*
X179505759Y-100279832D01*
X179511536Y-100286704D01*
X179578998Y-100366960D01*
X179585107Y-100374228D01*
X179687759Y-100442559D01*
X179716435Y-100451518D01*
X179786697Y-100473469D01*
X179805463Y-100479332D01*
X179814433Y-100479496D01*
X179814437Y-100479497D01*
X179870133Y-100480517D01*
X179928758Y-100481592D01*
X179988475Y-100465311D01*
X180039067Y-100451518D01*
X180039068Y-100451518D01*
X180047730Y-100449156D01*
X180055382Y-100444458D01*
X180145165Y-100389332D01*
X180145168Y-100389329D01*
X180152817Y-100384633D01*
X180162236Y-100374228D01*
X180211605Y-100319686D01*
X181665105Y-100319686D01*
X181666269Y-100328587D01*
X181666269Y-100328591D01*
X181678137Y-100419341D01*
X181681095Y-100441960D01*
X181730759Y-100554832D01*
X181810107Y-100649228D01*
X181912759Y-100717559D01*
X181962695Y-100733160D01*
X182017292Y-100750217D01*
X182030463Y-100754332D01*
X182039433Y-100754496D01*
X182039437Y-100754497D01*
X182095133Y-100755517D01*
X182153758Y-100756592D01*
X182228407Y-100736240D01*
X182264067Y-100726518D01*
X182264068Y-100726518D01*
X182272730Y-100724156D01*
X182280382Y-100719458D01*
X182370165Y-100664332D01*
X182370168Y-100664329D01*
X182377817Y-100659633D01*
X182385163Y-100651518D01*
X182454543Y-100574868D01*
X182454544Y-100574866D01*
X182460571Y-100568208D01*
X182474764Y-100538915D01*
X182510424Y-100465311D01*
X182510424Y-100465310D01*
X182514338Y-100457232D01*
X182534797Y-100335626D01*
X182534927Y-100325000D01*
X182532896Y-100310814D01*
X182518718Y-100211817D01*
X182518717Y-100211815D01*
X182517445Y-100202930D01*
X182485062Y-100131707D01*
X182470122Y-100098848D01*
X182470120Y-100098845D01*
X182466405Y-100090674D01*
X182385910Y-99997255D01*
X182282431Y-99930183D01*
X182273829Y-99927611D01*
X182273826Y-99927609D01*
X182172889Y-99897423D01*
X182172890Y-99897423D01*
X182164286Y-99894850D01*
X182155310Y-99894795D01*
X182155309Y-99894795D01*
X182104336Y-99894484D01*
X182040974Y-99894097D01*
X181922406Y-99927984D01*
X181818115Y-99993786D01*
X181736485Y-100086215D01*
X181684077Y-100197840D01*
X181682697Y-100206705D01*
X181682696Y-100206707D01*
X181668191Y-100299868D01*
X181665105Y-100319686D01*
X180211605Y-100319686D01*
X180229543Y-100299868D01*
X180229544Y-100299866D01*
X180235571Y-100293208D01*
X180253713Y-100255764D01*
X180285424Y-100190311D01*
X180285424Y-100190310D01*
X180289338Y-100182232D01*
X180309797Y-100060626D01*
X180309927Y-100050000D01*
X180307896Y-100035814D01*
X180293718Y-99936817D01*
X180293717Y-99936815D01*
X180292445Y-99927930D01*
X180268459Y-99875175D01*
X180245122Y-99823848D01*
X180245120Y-99823845D01*
X180241405Y-99815674D01*
X180180238Y-99744686D01*
X192315105Y-99744686D01*
X192316269Y-99753587D01*
X192316269Y-99753591D01*
X192323805Y-99811215D01*
X192331095Y-99866960D01*
X192380759Y-99979832D01*
X192460107Y-100074228D01*
X192562759Y-100142559D01*
X192571329Y-100145236D01*
X192571328Y-100145236D01*
X192661412Y-100173380D01*
X192680463Y-100179332D01*
X192689433Y-100179496D01*
X192689437Y-100179497D01*
X192745133Y-100180517D01*
X192803758Y-100181592D01*
X192890075Y-100158059D01*
X192914067Y-100151518D01*
X192914068Y-100151518D01*
X192922730Y-100149156D01*
X192930382Y-100144458D01*
X193020165Y-100089332D01*
X193020168Y-100089329D01*
X193027817Y-100084633D01*
X193037236Y-100074228D01*
X193104543Y-99999868D01*
X193104544Y-99999866D01*
X193110571Y-99993208D01*
X193139852Y-99932773D01*
X193160424Y-99890311D01*
X193160424Y-99890310D01*
X193164338Y-99882232D01*
X193184797Y-99760626D01*
X193184927Y-99750000D01*
X193183833Y-99742356D01*
X193168718Y-99636817D01*
X193168717Y-99636815D01*
X193167445Y-99627930D01*
X193136903Y-99560756D01*
X193120122Y-99523848D01*
X193120120Y-99523845D01*
X193118229Y-99519686D01*
X193490105Y-99519686D01*
X193491269Y-99528587D01*
X193491269Y-99528591D01*
X193499883Y-99594458D01*
X193506095Y-99641960D01*
X193555759Y-99754832D01*
X193635107Y-99849228D01*
X193737759Y-99917559D01*
X193770955Y-99927930D01*
X193799401Y-99936817D01*
X193855463Y-99954332D01*
X193864433Y-99954496D01*
X193864437Y-99954497D01*
X193920133Y-99955517D01*
X193978758Y-99956592D01*
X194079765Y-99929054D01*
X194089067Y-99926518D01*
X194089068Y-99926518D01*
X194097730Y-99924156D01*
X194106476Y-99918786D01*
X194195165Y-99864332D01*
X194195168Y-99864329D01*
X194202817Y-99859633D01*
X194212236Y-99849228D01*
X194279543Y-99774868D01*
X194279544Y-99774866D01*
X194285571Y-99768208D01*
X194291434Y-99756108D01*
X194335424Y-99665311D01*
X194335424Y-99665310D01*
X194339338Y-99657232D01*
X194359753Y-99535888D01*
X194390780Y-99472030D01*
X194451406Y-99435084D01*
X194486316Y-99430814D01*
X194528758Y-99431592D01*
X194604970Y-99410814D01*
X194639067Y-99401518D01*
X194639068Y-99401518D01*
X194647730Y-99399156D01*
X194660310Y-99391432D01*
X194745165Y-99339332D01*
X194745168Y-99339329D01*
X194752817Y-99334633D01*
X194764647Y-99321564D01*
X194829543Y-99249868D01*
X194829544Y-99249866D01*
X194835571Y-99243208D01*
X194840143Y-99233773D01*
X194859080Y-99194686D01*
X198965105Y-99194686D01*
X198966269Y-99203587D01*
X198966269Y-99203591D01*
X198978137Y-99294341D01*
X198981095Y-99316960D01*
X199030759Y-99429832D01*
X199110107Y-99524228D01*
X199117585Y-99529205D01*
X199117584Y-99529205D01*
X199168531Y-99563118D01*
X199212759Y-99592559D01*
X199221329Y-99595236D01*
X199221328Y-99595236D01*
X199299937Y-99619795D01*
X199330463Y-99629332D01*
X199339433Y-99629496D01*
X199339437Y-99629497D01*
X199395133Y-99630517D01*
X199453758Y-99631592D01*
X199515654Y-99614717D01*
X199564067Y-99601518D01*
X199564068Y-99601518D01*
X199572730Y-99599156D01*
X199580382Y-99594458D01*
X199670165Y-99539332D01*
X199670168Y-99539329D01*
X199677817Y-99534633D01*
X199686537Y-99525000D01*
X199754543Y-99449868D01*
X199754544Y-99449866D01*
X199760571Y-99443208D01*
X199767344Y-99429230D01*
X199800851Y-99360069D01*
X199814338Y-99332232D01*
X199815827Y-99323384D01*
X199816727Y-99320563D01*
X199856495Y-99261750D01*
X199921747Y-99233773D01*
X199991765Y-99245515D01*
X200044321Y-99293248D01*
X200061697Y-99342537D01*
X200063295Y-99354760D01*
X200112959Y-99467632D01*
X200167956Y-99533059D01*
X200182344Y-99550175D01*
X200192307Y-99562028D01*
X200199785Y-99567005D01*
X200199784Y-99567005D01*
X200279172Y-99619850D01*
X200294959Y-99630359D01*
X200315630Y-99636817D01*
X200390232Y-99660124D01*
X200412663Y-99667132D01*
X200421633Y-99667296D01*
X200421637Y-99667297D01*
X200477333Y-99668317D01*
X200535958Y-99669392D01*
X200636576Y-99641960D01*
X200646267Y-99639318D01*
X200646268Y-99639318D01*
X200654930Y-99636956D01*
X200663479Y-99631707D01*
X200752365Y-99577132D01*
X200752368Y-99577129D01*
X200760017Y-99572433D01*
X200769436Y-99562028D01*
X200836743Y-99487668D01*
X200836744Y-99487666D01*
X200842771Y-99481008D01*
X200864759Y-99435626D01*
X200892624Y-99378111D01*
X200892624Y-99378110D01*
X200896538Y-99370032D01*
X200916997Y-99248426D01*
X200917127Y-99237800D01*
X200913236Y-99210626D01*
X200905454Y-99156286D01*
X201342705Y-99156286D01*
X201343869Y-99165187D01*
X201343869Y-99165191D01*
X201354374Y-99245515D01*
X201358695Y-99278560D01*
X201408359Y-99391432D01*
X201487707Y-99485828D01*
X201522324Y-99508871D01*
X201561026Y-99534633D01*
X201590359Y-99554159D01*
X201619035Y-99563118D01*
X201697347Y-99587584D01*
X201708063Y-99590932D01*
X201717033Y-99591096D01*
X201717037Y-99591097D01*
X201772733Y-99592117D01*
X201831358Y-99593192D01*
X201907500Y-99572433D01*
X201941667Y-99563118D01*
X201941668Y-99563118D01*
X201950330Y-99560756D01*
X201957982Y-99556058D01*
X202047765Y-99500932D01*
X202047768Y-99500929D01*
X202055417Y-99496233D01*
X202064836Y-99485828D01*
X202124704Y-99419686D01*
X207215105Y-99419686D01*
X207216269Y-99428587D01*
X207216269Y-99428591D01*
X207227877Y-99517352D01*
X207231095Y-99541960D01*
X207280759Y-99654832D01*
X207360107Y-99749228D01*
X207367579Y-99754202D01*
X207369711Y-99756108D01*
X207407161Y-99816424D01*
X207406056Y-99887412D01*
X207380169Y-99933444D01*
X207359726Y-99956592D01*
X207311485Y-100011215D01*
X207259077Y-100122840D01*
X207257697Y-100131705D01*
X207257696Y-100131707D01*
X207243981Y-100219795D01*
X207240105Y-100244686D01*
X207241269Y-100253587D01*
X207241269Y-100253591D01*
X207251997Y-100335626D01*
X207256095Y-100366960D01*
X207305759Y-100479832D01*
X207385107Y-100574228D01*
X207487759Y-100642559D01*
X207516435Y-100651518D01*
X207587910Y-100673848D01*
X207605463Y-100679332D01*
X207614433Y-100679496D01*
X207614437Y-100679497D01*
X207670133Y-100680517D01*
X207728758Y-100681592D01*
X207805659Y-100660626D01*
X207839067Y-100651518D01*
X207839068Y-100651518D01*
X207847730Y-100649156D01*
X207855382Y-100644458D01*
X207945165Y-100589332D01*
X207945168Y-100589329D01*
X207952817Y-100584633D01*
X207961071Y-100575515D01*
X208029543Y-100499868D01*
X208029544Y-100499866D01*
X208035571Y-100493208D01*
X208042344Y-100479230D01*
X208085424Y-100390311D01*
X208085424Y-100390310D01*
X208089338Y-100382232D01*
X208109797Y-100260626D01*
X208109927Y-100250000D01*
X208107896Y-100235814D01*
X208093718Y-100136817D01*
X208093717Y-100136815D01*
X208092445Y-100127930D01*
X208057012Y-100050000D01*
X208045122Y-100023848D01*
X208045120Y-100023845D01*
X208041405Y-100015674D01*
X207990497Y-99956592D01*
X207966769Y-99929054D01*
X207966767Y-99929052D01*
X207960910Y-99922255D01*
X207955374Y-99918667D01*
X207917833Y-99859823D01*
X207918070Y-99788827D01*
X207945430Y-99740174D01*
X208010571Y-99668208D01*
X208014515Y-99660069D01*
X208060424Y-99565311D01*
X208060424Y-99565310D01*
X208064338Y-99557232D01*
X208084797Y-99435626D01*
X208084927Y-99425000D01*
X208082896Y-99410814D01*
X208068718Y-99311817D01*
X208068717Y-99311815D01*
X208067445Y-99302930D01*
X208046921Y-99257791D01*
X208020122Y-99198848D01*
X208020120Y-99198845D01*
X208016405Y-99190674D01*
X207935910Y-99097255D01*
X207832431Y-99030183D01*
X207823829Y-99027611D01*
X207823826Y-99027609D01*
X207731506Y-99000000D01*
X207714286Y-98994850D01*
X207705310Y-98994795D01*
X207705309Y-98994795D01*
X207654336Y-98994484D01*
X207590974Y-98994097D01*
X207472406Y-99027984D01*
X207368115Y-99093786D01*
X207362173Y-99100514D01*
X207362172Y-99100515D01*
X207334161Y-99132232D01*
X207286485Y-99186215D01*
X207234077Y-99297840D01*
X207232697Y-99306705D01*
X207232696Y-99306707D01*
X207216620Y-99409958D01*
X207215105Y-99419686D01*
X202124704Y-99419686D01*
X202132143Y-99411468D01*
X202132144Y-99411466D01*
X202138171Y-99404808D01*
X202143186Y-99394458D01*
X202188024Y-99301911D01*
X202188024Y-99301910D01*
X202191938Y-99293832D01*
X202209576Y-99188996D01*
X202211590Y-99177023D01*
X202211590Y-99177022D01*
X202212397Y-99172226D01*
X202212527Y-99161600D01*
X202210600Y-99148141D01*
X202196318Y-99048417D01*
X202196317Y-99048415D01*
X202195045Y-99039530D01*
X202161465Y-98965674D01*
X202147722Y-98935448D01*
X202147720Y-98935445D01*
X202144005Y-98927274D01*
X202063510Y-98833855D01*
X201960031Y-98766783D01*
X201951429Y-98764211D01*
X201951426Y-98764209D01*
X201871754Y-98740382D01*
X201841886Y-98731450D01*
X201832910Y-98731395D01*
X201832909Y-98731395D01*
X201781936Y-98731084D01*
X201718574Y-98730697D01*
X201600006Y-98764584D01*
X201495715Y-98830386D01*
X201489773Y-98837114D01*
X201489772Y-98837115D01*
X201466032Y-98863996D01*
X201414085Y-98922815D01*
X201361677Y-99034440D01*
X201360297Y-99043305D01*
X201360296Y-99043307D01*
X201344094Y-99147366D01*
X201342705Y-99156286D01*
X200905454Y-99156286D01*
X200900918Y-99124617D01*
X200900917Y-99124615D01*
X200899645Y-99115730D01*
X200869408Y-99049228D01*
X200852322Y-99011648D01*
X200852320Y-99011645D01*
X200848605Y-99003474D01*
X200768110Y-98910055D01*
X200664631Y-98842983D01*
X200656029Y-98840411D01*
X200656026Y-98840409D01*
X200555089Y-98810223D01*
X200555090Y-98810223D01*
X200546486Y-98807650D01*
X200537510Y-98807595D01*
X200537509Y-98807595D01*
X200486536Y-98807284D01*
X200423174Y-98806897D01*
X200304606Y-98840784D01*
X200200315Y-98906586D01*
X200194373Y-98913314D01*
X200194372Y-98913315D01*
X200174825Y-98935448D01*
X200118685Y-98999015D01*
X200066277Y-99110640D01*
X200065141Y-99117935D01*
X200026539Y-99176560D01*
X199961635Y-99205335D01*
X199891477Y-99194452D01*
X199838341Y-99147366D01*
X199820361Y-99098291D01*
X199819131Y-99089706D01*
X199817445Y-99077930D01*
X199782012Y-99000000D01*
X199770122Y-98973848D01*
X199770120Y-98973845D01*
X199766405Y-98965674D01*
X199685910Y-98872255D01*
X199582431Y-98805183D01*
X199573829Y-98802611D01*
X199573826Y-98802609D01*
X199472889Y-98772423D01*
X199472890Y-98772423D01*
X199464286Y-98769850D01*
X199455310Y-98769795D01*
X199455309Y-98769795D01*
X199404336Y-98769484D01*
X199340974Y-98769097D01*
X199222406Y-98802984D01*
X199118115Y-98868786D01*
X199112173Y-98875514D01*
X199112172Y-98875515D01*
X199102191Y-98886817D01*
X199036485Y-98961215D01*
X198984077Y-99072840D01*
X198982697Y-99081705D01*
X198982696Y-99081707D01*
X198967472Y-99179486D01*
X198965105Y-99194686D01*
X194859080Y-99194686D01*
X194885424Y-99140311D01*
X194885424Y-99140310D01*
X194889338Y-99132232D01*
X194909797Y-99010626D01*
X194909927Y-99000000D01*
X194909190Y-98994850D01*
X194893718Y-98886817D01*
X194893717Y-98886815D01*
X194892445Y-98877930D01*
X194870185Y-98828972D01*
X194845122Y-98773848D01*
X194845120Y-98773845D01*
X194841405Y-98765674D01*
X194760910Y-98672255D01*
X194657431Y-98605183D01*
X194648829Y-98602611D01*
X194648826Y-98602609D01*
X194559429Y-98575874D01*
X194539286Y-98569850D01*
X194530310Y-98569795D01*
X194530309Y-98569795D01*
X194479336Y-98569484D01*
X194415974Y-98569097D01*
X194297406Y-98602984D01*
X194193115Y-98668786D01*
X194187173Y-98675514D01*
X194187172Y-98675515D01*
X194174446Y-98689925D01*
X194111485Y-98761215D01*
X194059077Y-98872840D01*
X194057697Y-98881705D01*
X194057696Y-98881707D01*
X194041179Y-98987789D01*
X194010935Y-99052022D01*
X193950765Y-99089706D01*
X193915910Y-99094402D01*
X193865974Y-99094097D01*
X193747406Y-99127984D01*
X193643115Y-99193786D01*
X193637173Y-99200514D01*
X193637172Y-99200515D01*
X193624025Y-99215401D01*
X193561485Y-99286215D01*
X193509077Y-99397840D01*
X193507697Y-99406705D01*
X193507696Y-99406707D01*
X193492472Y-99504486D01*
X193490105Y-99519686D01*
X193118229Y-99519686D01*
X193116405Y-99515674D01*
X193035910Y-99422255D01*
X192932431Y-99355183D01*
X192923829Y-99352611D01*
X192923826Y-99352609D01*
X192841457Y-99327976D01*
X192814286Y-99319850D01*
X192805310Y-99319795D01*
X192805309Y-99319795D01*
X192754336Y-99319484D01*
X192690974Y-99319097D01*
X192572406Y-99352984D01*
X192468115Y-99418786D01*
X192462173Y-99425514D01*
X192462172Y-99425515D01*
X192452290Y-99436704D01*
X192386485Y-99511215D01*
X192334077Y-99622840D01*
X192332697Y-99631705D01*
X192332696Y-99631707D01*
X192317539Y-99729055D01*
X192315105Y-99744686D01*
X180180238Y-99744686D01*
X180160910Y-99722255D01*
X180057431Y-99655183D01*
X180048829Y-99652611D01*
X180048826Y-99652609D01*
X179969154Y-99628782D01*
X179939286Y-99619850D01*
X179930310Y-99619795D01*
X179930309Y-99619795D01*
X179879336Y-99619484D01*
X179815974Y-99619097D01*
X179697406Y-99652984D01*
X179593115Y-99718786D01*
X179587173Y-99725514D01*
X179587172Y-99725515D01*
X179557040Y-99759633D01*
X179511485Y-99811215D01*
X179459077Y-99922840D01*
X179457697Y-99931705D01*
X179457696Y-99931707D01*
X179443350Y-100023848D01*
X179440105Y-100044686D01*
X174401000Y-100044686D01*
X174401000Y-97615542D01*
X175169615Y-97615542D01*
X175171062Y-97632773D01*
X175185911Y-97809596D01*
X175186526Y-97816925D01*
X175188225Y-97822850D01*
X175230490Y-97970248D01*
X175242229Y-98011188D01*
X175245048Y-98016673D01*
X175331787Y-98185449D01*
X175331790Y-98185454D01*
X175334605Y-98190931D01*
X175460134Y-98349309D01*
X175464828Y-98353304D01*
X175607290Y-98474549D01*
X175614034Y-98480289D01*
X175619412Y-98483295D01*
X175619414Y-98483296D01*
X175654175Y-98502723D01*
X175790444Y-98578881D01*
X175982645Y-98641330D01*
X176183314Y-98665259D01*
X176189449Y-98664787D01*
X176189451Y-98664787D01*
X176378668Y-98650228D01*
X176378672Y-98650227D01*
X176384810Y-98649755D01*
X176390742Y-98648099D01*
X176390746Y-98648098D01*
X176573513Y-98597068D01*
X176573517Y-98597067D01*
X176579457Y-98595408D01*
X176584961Y-98592628D01*
X176584963Y-98592627D01*
X176754340Y-98507069D01*
X176754342Y-98507068D01*
X176759841Y-98504290D01*
X176919091Y-98379870D01*
X176957027Y-98335921D01*
X177047113Y-98231556D01*
X177047114Y-98231554D01*
X177051142Y-98226888D01*
X177150964Y-98051170D01*
X177214754Y-97859410D01*
X177217129Y-97840608D01*
X177239643Y-97662391D01*
X177239644Y-97662382D01*
X177240082Y-97658912D01*
X177240486Y-97630000D01*
X177220765Y-97428873D01*
X177218337Y-97420829D01*
X177164135Y-97241306D01*
X177162354Y-97235407D01*
X177067478Y-97056971D01*
X176939751Y-96900361D01*
X176784036Y-96771543D01*
X176778617Y-96768613D01*
X176778614Y-96768611D01*
X176611687Y-96678354D01*
X176611682Y-96678352D01*
X176606267Y-96675424D01*
X176529624Y-96651699D01*
X176419100Y-96617486D01*
X176419097Y-96617485D01*
X176413213Y-96615664D01*
X176407088Y-96615020D01*
X176407087Y-96615020D01*
X176218357Y-96595183D01*
X176218356Y-96595183D01*
X176212229Y-96594539D01*
X176127847Y-96602218D01*
X176017108Y-96612296D01*
X176017105Y-96612297D01*
X176010969Y-96612855D01*
X176005063Y-96614593D01*
X176005059Y-96614594D01*
X175878989Y-96651699D01*
X175817100Y-96669914D01*
X175638006Y-96763542D01*
X175480508Y-96890174D01*
X175476550Y-96894891D01*
X175476547Y-96894894D01*
X175407942Y-96976655D01*
X175350607Y-97044985D01*
X175347641Y-97050380D01*
X175347637Y-97050386D01*
X175256220Y-97216672D01*
X175256218Y-97216677D01*
X175253248Y-97222079D01*
X175251385Y-97227953D01*
X175251383Y-97227957D01*
X175210375Y-97357232D01*
X175192142Y-97414710D01*
X175169615Y-97615542D01*
X174401000Y-97615542D01*
X174401000Y-96069686D01*
X177265105Y-96069686D01*
X177266269Y-96078587D01*
X177266269Y-96078591D01*
X177279919Y-96182971D01*
X177281095Y-96191960D01*
X177330759Y-96304832D01*
X177410107Y-96399228D01*
X177512759Y-96467559D01*
X177630463Y-96504332D01*
X177639433Y-96504496D01*
X177639437Y-96504497D01*
X177695133Y-96505517D01*
X177753758Y-96506592D01*
X177813244Y-96490374D01*
X177864067Y-96476518D01*
X177864068Y-96476518D01*
X177872730Y-96474156D01*
X177880382Y-96469458D01*
X177970165Y-96414332D01*
X177970168Y-96414329D01*
X177977817Y-96409633D01*
X177987236Y-96399228D01*
X178054543Y-96324868D01*
X178054544Y-96324866D01*
X178060571Y-96318208D01*
X178069807Y-96299145D01*
X178117507Y-96246562D01*
X178186065Y-96228115D01*
X178253713Y-96249661D01*
X178298974Y-96304361D01*
X178308950Y-96346169D01*
X178309242Y-96350801D01*
X178310944Y-96377860D01*
X178313393Y-96385396D01*
X178313393Y-96385398D01*
X178322794Y-96414332D01*
X178361732Y-96534171D01*
X178449798Y-96672940D01*
X178569607Y-96785448D01*
X178576551Y-96789265D01*
X178576553Y-96789267D01*
X178646297Y-96827609D01*
X178713632Y-96864627D01*
X178721304Y-96866597D01*
X178721307Y-96866598D01*
X178861933Y-96902704D01*
X178922939Y-96939019D01*
X178954628Y-97002551D01*
X178950930Y-97062108D01*
X178894467Y-97243949D01*
X178870046Y-97450280D01*
X178883635Y-97657607D01*
X178885056Y-97663203D01*
X178885057Y-97663208D01*
X178922236Y-97809596D01*
X178934779Y-97858985D01*
X178937196Y-97864228D01*
X178942102Y-97874869D01*
X179021764Y-98047671D01*
X179141678Y-98217346D01*
X179193889Y-98268208D01*
X179281243Y-98353304D01*
X179290505Y-98362327D01*
X179295301Y-98365532D01*
X179295304Y-98365534D01*
X179396430Y-98433104D01*
X179463261Y-98477759D01*
X179468569Y-98480040D01*
X179468570Y-98480040D01*
X179648857Y-98557497D01*
X179648860Y-98557498D01*
X179654160Y-98559775D01*
X179659790Y-98561049D01*
X179851172Y-98604355D01*
X179851175Y-98604355D01*
X179856808Y-98605630D01*
X179862579Y-98605857D01*
X179862581Y-98605857D01*
X179925985Y-98608348D01*
X180064419Y-98613787D01*
X180181217Y-98596852D01*
X180264327Y-98584802D01*
X180264332Y-98584801D01*
X180270041Y-98583973D01*
X180275505Y-98582118D01*
X180275510Y-98582117D01*
X180445608Y-98524376D01*
X180466786Y-98517187D01*
X180471829Y-98514363D01*
X180475654Y-98512660D01*
X180546022Y-98503229D01*
X180610318Y-98533337D01*
X180648129Y-98593427D01*
X180651399Y-98647152D01*
X180640105Y-98719686D01*
X180641269Y-98728587D01*
X180641269Y-98728591D01*
X180651945Y-98810223D01*
X180656095Y-98841960D01*
X180705759Y-98954832D01*
X180785107Y-99049228D01*
X180887759Y-99117559D01*
X180916435Y-99126518D01*
X180985647Y-99148141D01*
X181005463Y-99154332D01*
X181014433Y-99154496D01*
X181014437Y-99154497D01*
X181070133Y-99155517D01*
X181128758Y-99156592D01*
X181218108Y-99132232D01*
X181239067Y-99126518D01*
X181239068Y-99126518D01*
X181247730Y-99124156D01*
X181255382Y-99119458D01*
X181345165Y-99064332D01*
X181345168Y-99064329D01*
X181352817Y-99059633D01*
X181359707Y-99052022D01*
X181429543Y-98974868D01*
X181429544Y-98974866D01*
X181435571Y-98968208D01*
X181442220Y-98954486D01*
X181485424Y-98865311D01*
X181485424Y-98865310D01*
X181489338Y-98857232D01*
X181509797Y-98735626D01*
X181509927Y-98725000D01*
X181502374Y-98672255D01*
X181493718Y-98611817D01*
X181493717Y-98611815D01*
X181492445Y-98602930D01*
X181465995Y-98544756D01*
X181445122Y-98498848D01*
X181445120Y-98498845D01*
X181441405Y-98490674D01*
X181360910Y-98397255D01*
X181257431Y-98330183D01*
X181248829Y-98327611D01*
X181248826Y-98327609D01*
X181147889Y-98297423D01*
X181147890Y-98297423D01*
X181139286Y-98294850D01*
X181130309Y-98294795D01*
X181130308Y-98294795D01*
X181058942Y-98294359D01*
X180990945Y-98273941D01*
X180944781Y-98220002D01*
X180935106Y-98149667D01*
X180949778Y-98106794D01*
X180975359Y-98061117D01*
X180998561Y-98019686D01*
X191492603Y-98019686D01*
X191493767Y-98028587D01*
X191493767Y-98028591D01*
X191496720Y-98051170D01*
X191508593Y-98141960D01*
X191558257Y-98254832D01*
X191614360Y-98321575D01*
X191633023Y-98343777D01*
X191661544Y-98408792D01*
X191650388Y-98478907D01*
X191631013Y-98508260D01*
X191566436Y-98581380D01*
X191514028Y-98693005D01*
X191512648Y-98701870D01*
X191512647Y-98701872D01*
X191496904Y-98802984D01*
X191495056Y-98814851D01*
X191496220Y-98823752D01*
X191496220Y-98823756D01*
X191502563Y-98872255D01*
X191511046Y-98937125D01*
X191560710Y-99049997D01*
X191609097Y-99107560D01*
X191625033Y-99126518D01*
X191640058Y-99144393D01*
X191658384Y-99156592D01*
X191725221Y-99201082D01*
X191742710Y-99212724D01*
X191751280Y-99215401D01*
X191751279Y-99215401D01*
X191814409Y-99235124D01*
X191860414Y-99249497D01*
X191869384Y-99249661D01*
X191869388Y-99249662D01*
X191925084Y-99250682D01*
X191983709Y-99251757D01*
X192054393Y-99232486D01*
X192094018Y-99221683D01*
X192094019Y-99221683D01*
X192102681Y-99219321D01*
X192110333Y-99214623D01*
X192200116Y-99159497D01*
X192200119Y-99159494D01*
X192207768Y-99154798D01*
X192217187Y-99144393D01*
X192284494Y-99070033D01*
X192284495Y-99070031D01*
X192290522Y-99063373D01*
X192295560Y-99052976D01*
X192340375Y-98960476D01*
X192340375Y-98960475D01*
X192344289Y-98952397D01*
X192363067Y-98840784D01*
X192363941Y-98835588D01*
X192363941Y-98835587D01*
X192364748Y-98830791D01*
X192364878Y-98820165D01*
X192363104Y-98807773D01*
X192348669Y-98706982D01*
X192348668Y-98706980D01*
X192347396Y-98698095D01*
X192315447Y-98627827D01*
X192300073Y-98594013D01*
X192300071Y-98594010D01*
X192296356Y-98585839D01*
X192290496Y-98579038D01*
X192290492Y-98579032D01*
X192224740Y-98502723D01*
X192195426Y-98438061D01*
X192205725Y-98367815D01*
X192226778Y-98335921D01*
X192282041Y-98274868D01*
X192282042Y-98274866D01*
X192282658Y-98274186D01*
X195440105Y-98274186D01*
X195441269Y-98283087D01*
X195441269Y-98283091D01*
X195449297Y-98344478D01*
X195456095Y-98396460D01*
X195505759Y-98509332D01*
X195585107Y-98603728D01*
X195618010Y-98625630D01*
X195677544Y-98665259D01*
X195687759Y-98672059D01*
X195696329Y-98674736D01*
X195696328Y-98674736D01*
X195754804Y-98693005D01*
X195805463Y-98708832D01*
X195814433Y-98708996D01*
X195814437Y-98708997D01*
X195870133Y-98710017D01*
X195928758Y-98711092D01*
X195995099Y-98693005D01*
X196039067Y-98681018D01*
X196039068Y-98681018D01*
X196047730Y-98678656D01*
X196055382Y-98673958D01*
X196145165Y-98618832D01*
X196145168Y-98618829D01*
X196152817Y-98614133D01*
X196160919Y-98605183D01*
X196229543Y-98529368D01*
X196229544Y-98529366D01*
X196235571Y-98522708D01*
X196240440Y-98512660D01*
X196285424Y-98419811D01*
X196285424Y-98419810D01*
X196289338Y-98411732D01*
X196309797Y-98290126D01*
X196309927Y-98279500D01*
X196308678Y-98270775D01*
X196297265Y-98191086D01*
X200707705Y-98191086D01*
X200708869Y-98199987D01*
X200708869Y-98199991D01*
X200715888Y-98253659D01*
X200723695Y-98313360D01*
X200773359Y-98426232D01*
X200852707Y-98520628D01*
X200875397Y-98535732D01*
X200947869Y-98583973D01*
X200955359Y-98588959D01*
X200999050Y-98602609D01*
X201035937Y-98614133D01*
X201073063Y-98625732D01*
X201082033Y-98625896D01*
X201082037Y-98625897D01*
X201137733Y-98626917D01*
X201196358Y-98627992D01*
X201288283Y-98602930D01*
X201306667Y-98597918D01*
X201306668Y-98597918D01*
X201315330Y-98595556D01*
X201322982Y-98590858D01*
X201412765Y-98535732D01*
X201412768Y-98535729D01*
X201420417Y-98531033D01*
X201427953Y-98522708D01*
X201497143Y-98446268D01*
X201497144Y-98446266D01*
X201503171Y-98439608D01*
X201511146Y-98423149D01*
X201553024Y-98336711D01*
X201553024Y-98336710D01*
X201556938Y-98328632D01*
X201577397Y-98207026D01*
X201577527Y-98196400D01*
X201575496Y-98182214D01*
X201569491Y-98140286D01*
X202003105Y-98140286D01*
X202004269Y-98149187D01*
X202004269Y-98149191D01*
X202017010Y-98246616D01*
X202019095Y-98262560D01*
X202068759Y-98375432D01*
X202148107Y-98469828D01*
X202182046Y-98492420D01*
X202217777Y-98516204D01*
X202250759Y-98538159D01*
X202259329Y-98540836D01*
X202259328Y-98540836D01*
X202357683Y-98571564D01*
X202368463Y-98574932D01*
X202377433Y-98575096D01*
X202377437Y-98575097D01*
X202433133Y-98576117D01*
X202491758Y-98577192D01*
X202563997Y-98557497D01*
X202602067Y-98547118D01*
X202602068Y-98547118D01*
X202610730Y-98544756D01*
X202618382Y-98540058D01*
X202708165Y-98484932D01*
X202708168Y-98484929D01*
X202715817Y-98480233D01*
X202725236Y-98469828D01*
X202792543Y-98395468D01*
X202792544Y-98395466D01*
X202798571Y-98388808D01*
X202802902Y-98379870D01*
X202848424Y-98285911D01*
X202848424Y-98285910D01*
X202852338Y-98277832D01*
X202872797Y-98156226D01*
X202872927Y-98145600D01*
X202870896Y-98131414D01*
X202856718Y-98032417D01*
X202856717Y-98032415D01*
X202855445Y-98023530D01*
X202829170Y-97965741D01*
X202808122Y-97919448D01*
X202808120Y-97919445D01*
X202804405Y-97911274D01*
X202723910Y-97817855D01*
X202620431Y-97750783D01*
X202611829Y-97748211D01*
X202611826Y-97748209D01*
X202510889Y-97718023D01*
X202510890Y-97718023D01*
X202502286Y-97715450D01*
X202493310Y-97715395D01*
X202493309Y-97715395D01*
X202442336Y-97715084D01*
X202378974Y-97714697D01*
X202260406Y-97748584D01*
X202156115Y-97814386D01*
X202074485Y-97906815D01*
X202022077Y-98018440D01*
X202020697Y-98027305D01*
X202020696Y-98027307D01*
X202008320Y-98106794D01*
X202003105Y-98140286D01*
X201569491Y-98140286D01*
X201561318Y-98083217D01*
X201561317Y-98083215D01*
X201560045Y-98074330D01*
X201509005Y-97962074D01*
X201428510Y-97868655D01*
X201325031Y-97801583D01*
X201316429Y-97799011D01*
X201316426Y-97799009D01*
X201230620Y-97773348D01*
X201206886Y-97766250D01*
X201197910Y-97766195D01*
X201197909Y-97766195D01*
X201146936Y-97765884D01*
X201083574Y-97765497D01*
X200965006Y-97799384D01*
X200860715Y-97865186D01*
X200854773Y-97871914D01*
X200854772Y-97871915D01*
X200839181Y-97889569D01*
X200779085Y-97957615D01*
X200726677Y-98069240D01*
X200725297Y-98078105D01*
X200725296Y-98078107D01*
X200711562Y-98166317D01*
X200707705Y-98191086D01*
X196297265Y-98191086D01*
X196293718Y-98166317D01*
X196293717Y-98166315D01*
X196292445Y-98157430D01*
X196254662Y-98074330D01*
X196245122Y-98053348D01*
X196245120Y-98053345D01*
X196241405Y-98045174D01*
X196160910Y-97951755D01*
X196057431Y-97884683D01*
X196048829Y-97882111D01*
X196048826Y-97882109D01*
X195969154Y-97858282D01*
X195939286Y-97849350D01*
X195930310Y-97849295D01*
X195930309Y-97849295D01*
X195879336Y-97848984D01*
X195815974Y-97848597D01*
X195697406Y-97882484D01*
X195593115Y-97948286D01*
X195511485Y-98040715D01*
X195459077Y-98152340D01*
X195457697Y-98161205D01*
X195457696Y-98161207D01*
X195442049Y-98261704D01*
X195440105Y-98274186D01*
X192282658Y-98274186D01*
X192288069Y-98268208D01*
X192308089Y-98226888D01*
X192337922Y-98165311D01*
X192337922Y-98165310D01*
X192341836Y-98157232D01*
X192362295Y-98035626D01*
X192362425Y-98025000D01*
X192361233Y-98016673D01*
X192346216Y-97911817D01*
X192346215Y-97911815D01*
X192344943Y-97902930D01*
X192313128Y-97832956D01*
X192297620Y-97798848D01*
X192297618Y-97798845D01*
X192293903Y-97790674D01*
X192213408Y-97697255D01*
X192109929Y-97630183D01*
X192101327Y-97627611D01*
X192101324Y-97627609D01*
X192000387Y-97597423D01*
X192000388Y-97597423D01*
X191991784Y-97594850D01*
X191982808Y-97594795D01*
X191982807Y-97594795D01*
X191931834Y-97594484D01*
X191868472Y-97594097D01*
X191749904Y-97627984D01*
X191645613Y-97693786D01*
X191639671Y-97700514D01*
X191639670Y-97700515D01*
X191626529Y-97715395D01*
X191563983Y-97786215D01*
X191511575Y-97897840D01*
X191510195Y-97906705D01*
X191510194Y-97906707D01*
X191494062Y-98010317D01*
X191492603Y-98019686D01*
X180998561Y-98019686D01*
X181003808Y-98010317D01*
X181039366Y-97946824D01*
X181039368Y-97946820D01*
X181042187Y-97941786D01*
X181067012Y-97868655D01*
X181107117Y-97750510D01*
X181107118Y-97750505D01*
X181108973Y-97745041D01*
X181109801Y-97739332D01*
X181109802Y-97739327D01*
X181133250Y-97577604D01*
X181138787Y-97539419D01*
X181140343Y-97480000D01*
X181136673Y-97440058D01*
X183452193Y-97440058D01*
X183453357Y-97448959D01*
X183453357Y-97448963D01*
X183464702Y-97535710D01*
X183468183Y-97562332D01*
X183517847Y-97675204D01*
X183597195Y-97769600D01*
X183699847Y-97837931D01*
X183744633Y-97851923D01*
X183787086Y-97865186D01*
X183817551Y-97874704D01*
X183826521Y-97874868D01*
X183826525Y-97874869D01*
X183882221Y-97875889D01*
X183940846Y-97876964D01*
X184035845Y-97851064D01*
X184051155Y-97846890D01*
X184051156Y-97846890D01*
X184059818Y-97844528D01*
X184067470Y-97839830D01*
X184157253Y-97784704D01*
X184157256Y-97784701D01*
X184164905Y-97780005D01*
X184174324Y-97769600D01*
X184241631Y-97695240D01*
X184241632Y-97695238D01*
X184247659Y-97688580D01*
X184260348Y-97662391D01*
X184297512Y-97585683D01*
X184297512Y-97585682D01*
X184301426Y-97577604D01*
X184321885Y-97455998D01*
X184322015Y-97445372D01*
X184319984Y-97431186D01*
X184305806Y-97332189D01*
X184305805Y-97332187D01*
X184304533Y-97323302D01*
X184268453Y-97243949D01*
X184257422Y-97219686D01*
X204290105Y-97219686D01*
X204291269Y-97228587D01*
X204291269Y-97228591D01*
X204301927Y-97310089D01*
X204306095Y-97341960D01*
X204355759Y-97454832D01*
X204435107Y-97549228D01*
X204537759Y-97617559D01*
X204655463Y-97654332D01*
X204664433Y-97654496D01*
X204664437Y-97654497D01*
X204720133Y-97655517D01*
X204778758Y-97656592D01*
X204857702Y-97635069D01*
X204889067Y-97626518D01*
X204889068Y-97626518D01*
X204897730Y-97624156D01*
X204905382Y-97619458D01*
X204995165Y-97564332D01*
X204995168Y-97564329D01*
X205002817Y-97559633D01*
X205012236Y-97549228D01*
X205079543Y-97474868D01*
X205079544Y-97474866D01*
X205085571Y-97468208D01*
X205091464Y-97456046D01*
X205135424Y-97365311D01*
X205135424Y-97365310D01*
X205139338Y-97357232D01*
X205159797Y-97235626D01*
X205159927Y-97225000D01*
X205159100Y-97219220D01*
X205143718Y-97111817D01*
X205143717Y-97111815D01*
X205142445Y-97102930D01*
X205116510Y-97045890D01*
X205095122Y-96998848D01*
X205095120Y-96998845D01*
X205091405Y-96990674D01*
X205010910Y-96897255D01*
X204907431Y-96830183D01*
X204898829Y-96827611D01*
X204898826Y-96827609D01*
X204797889Y-96797423D01*
X204797890Y-96797423D01*
X204789286Y-96794850D01*
X204780310Y-96794795D01*
X204780309Y-96794795D01*
X204729336Y-96794484D01*
X204665974Y-96794097D01*
X204547406Y-96827984D01*
X204443115Y-96893786D01*
X204437173Y-96900514D01*
X204437172Y-96900515D01*
X204404434Y-96937584D01*
X204361485Y-96986215D01*
X204309077Y-97097840D01*
X204307697Y-97106705D01*
X204307696Y-97106707D01*
X204292145Y-97206587D01*
X204290105Y-97219686D01*
X184257422Y-97219686D01*
X184257210Y-97219220D01*
X184257208Y-97219217D01*
X184253493Y-97211046D01*
X184172998Y-97117627D01*
X184069519Y-97050555D01*
X184060917Y-97047983D01*
X184060914Y-97047981D01*
X183959977Y-97017795D01*
X183959978Y-97017795D01*
X183951374Y-97015222D01*
X183942398Y-97015167D01*
X183942397Y-97015167D01*
X183891424Y-97014856D01*
X183828062Y-97014469D01*
X183709494Y-97048356D01*
X183605203Y-97114158D01*
X183523573Y-97206587D01*
X183471165Y-97318212D01*
X183469785Y-97327077D01*
X183469784Y-97327079D01*
X183453935Y-97428873D01*
X183452193Y-97440058D01*
X181136673Y-97440058D01*
X181121332Y-97273100D01*
X181100676Y-97199858D01*
X181075845Y-97111817D01*
X181064934Y-97073129D01*
X180973039Y-96886785D01*
X180848724Y-96720307D01*
X180844489Y-96716392D01*
X180843872Y-96715707D01*
X180813156Y-96651699D01*
X180821922Y-96581246D01*
X180852404Y-96544686D01*
X197990105Y-96544686D01*
X197991269Y-96553587D01*
X197991269Y-96553591D01*
X197999387Y-96615664D01*
X198006095Y-96666960D01*
X198055759Y-96779832D01*
X198115329Y-96850699D01*
X198127037Y-96864627D01*
X198135107Y-96874228D01*
X198237759Y-96942559D01*
X198355463Y-96979332D01*
X198364433Y-96979496D01*
X198364437Y-96979497D01*
X198420133Y-96980517D01*
X198478758Y-96981592D01*
X198538244Y-96965374D01*
X198589067Y-96951518D01*
X198589068Y-96951518D01*
X198597730Y-96949156D01*
X198605382Y-96944458D01*
X198695165Y-96889332D01*
X198695168Y-96889329D01*
X198702817Y-96884633D01*
X198712236Y-96874228D01*
X198779543Y-96799868D01*
X198779544Y-96799866D01*
X198785571Y-96793208D01*
X198839338Y-96682232D01*
X198859797Y-96560626D01*
X198859927Y-96550000D01*
X198857896Y-96535814D01*
X198843718Y-96436817D01*
X198843717Y-96436815D01*
X198842445Y-96427930D01*
X198819679Y-96377860D01*
X198795122Y-96323848D01*
X198795120Y-96323845D01*
X198791405Y-96315674D01*
X198710910Y-96222255D01*
X198607431Y-96155183D01*
X198598829Y-96152611D01*
X198598826Y-96152609D01*
X198510358Y-96126152D01*
X198489286Y-96119850D01*
X198480310Y-96119795D01*
X198480309Y-96119795D01*
X198429336Y-96119484D01*
X198365974Y-96119097D01*
X198247406Y-96152984D01*
X198143115Y-96218786D01*
X198137173Y-96225514D01*
X198137172Y-96225515D01*
X198124179Y-96240227D01*
X198061485Y-96311215D01*
X198009077Y-96422840D01*
X198007697Y-96431705D01*
X198007696Y-96431707D01*
X197992917Y-96526629D01*
X197990105Y-96544686D01*
X180852404Y-96544686D01*
X180867386Y-96526716D01*
X180939819Y-96505420D01*
X181003758Y-96506592D01*
X181063244Y-96490374D01*
X181114067Y-96476518D01*
X181114068Y-96476518D01*
X181122730Y-96474156D01*
X181130382Y-96469458D01*
X181220165Y-96414332D01*
X181220168Y-96414329D01*
X181227817Y-96409633D01*
X181237236Y-96399228D01*
X181304543Y-96324868D01*
X181304544Y-96324866D01*
X181310571Y-96318208D01*
X181315076Y-96308911D01*
X181360424Y-96215311D01*
X181360424Y-96215310D01*
X181364338Y-96207232D01*
X181384797Y-96085626D01*
X181384927Y-96075000D01*
X181384145Y-96069536D01*
X181368718Y-95961817D01*
X181368717Y-95961815D01*
X181367445Y-95952930D01*
X181338938Y-95890232D01*
X181320122Y-95848848D01*
X181320120Y-95848845D01*
X181316405Y-95840674D01*
X181235910Y-95747255D01*
X181132431Y-95680183D01*
X181123829Y-95677611D01*
X181123826Y-95677609D01*
X181022889Y-95647423D01*
X181022890Y-95647423D01*
X181014286Y-95644850D01*
X181005310Y-95644795D01*
X181005309Y-95644795D01*
X180954336Y-95644484D01*
X180890974Y-95644097D01*
X180772406Y-95677984D01*
X180668115Y-95743786D01*
X180586485Y-95836215D01*
X180534077Y-95947840D01*
X180532697Y-95956705D01*
X180532696Y-95956707D01*
X180516821Y-96058668D01*
X180515105Y-96069686D01*
X180516269Y-96078587D01*
X180516269Y-96078591D01*
X180529919Y-96182971D01*
X180531095Y-96191960D01*
X180542881Y-96218746D01*
X180556862Y-96250521D01*
X180565988Y-96320928D01*
X180535601Y-96385093D01*
X180475348Y-96422644D01*
X180404358Y-96421657D01*
X180394858Y-96418302D01*
X180327455Y-96391411D01*
X180321795Y-96390285D01*
X180321791Y-96390284D01*
X180129344Y-96352004D01*
X180129339Y-96352004D01*
X180123676Y-96350877D01*
X180117901Y-96350801D01*
X180117897Y-96350801D01*
X180013768Y-96349438D01*
X179915922Y-96348157D01*
X179910225Y-96349136D01*
X179910224Y-96349136D01*
X179754169Y-96375951D01*
X179683645Y-96367774D01*
X179628737Y-96322767D01*
X179607080Y-96259682D01*
X179605867Y-96240392D01*
X179600813Y-96160069D01*
X179599554Y-96140051D01*
X179599554Y-96140049D01*
X179599056Y-96132140D01*
X179595964Y-96122622D01*
X179571963Y-96048757D01*
X179548268Y-95975829D01*
X179460202Y-95837060D01*
X179452137Y-95829486D01*
X179346170Y-95729977D01*
X179340393Y-95724552D01*
X179333449Y-95720735D01*
X179333447Y-95720733D01*
X179247561Y-95673517D01*
X179196368Y-95645373D01*
X179188696Y-95643403D01*
X179188693Y-95643402D01*
X179044855Y-95606471D01*
X179044852Y-95606471D01*
X179037177Y-95604500D01*
X178914075Y-95604500D01*
X178856310Y-95611797D01*
X178799807Y-95618935D01*
X178799804Y-95618936D01*
X178791942Y-95619929D01*
X178784575Y-95622846D01*
X178784574Y-95622846D01*
X178772163Y-95627760D01*
X178639129Y-95680432D01*
X178632718Y-95685090D01*
X178632716Y-95685091D01*
X178540274Y-95752254D01*
X178506163Y-95777037D01*
X178401400Y-95903674D01*
X178398025Y-95910847D01*
X178398024Y-95910848D01*
X178391007Y-95925760D01*
X178363898Y-95983371D01*
X178357394Y-95997192D01*
X178310292Y-96050313D01*
X178241947Y-96069536D01*
X178174059Y-96048757D01*
X178128182Y-95994574D01*
X178121249Y-95970425D01*
X178121236Y-95970429D01*
X178118718Y-95961817D01*
X178117445Y-95952930D01*
X178088938Y-95890232D01*
X178070122Y-95848848D01*
X178070120Y-95848845D01*
X178066405Y-95840674D01*
X177985910Y-95747255D01*
X177882431Y-95680183D01*
X177873829Y-95677611D01*
X177873826Y-95677609D01*
X177772889Y-95647423D01*
X177772890Y-95647423D01*
X177764286Y-95644850D01*
X177755310Y-95644795D01*
X177755309Y-95644795D01*
X177704336Y-95644484D01*
X177640974Y-95644097D01*
X177522406Y-95677984D01*
X177418115Y-95743786D01*
X177336485Y-95836215D01*
X177284077Y-95947840D01*
X177282697Y-95956705D01*
X177282696Y-95956707D01*
X177266821Y-96058668D01*
X177265105Y-96069686D01*
X174401000Y-96069686D01*
X174401000Y-95044686D01*
X181565105Y-95044686D01*
X181566269Y-95053587D01*
X181566269Y-95053591D01*
X181576391Y-95130987D01*
X181581095Y-95166960D01*
X181630759Y-95279832D01*
X181668899Y-95325205D01*
X181700803Y-95363159D01*
X181710107Y-95374228D01*
X181748969Y-95400097D01*
X181789064Y-95426786D01*
X181812759Y-95442559D01*
X181833875Y-95449156D01*
X181919894Y-95476030D01*
X181930463Y-95479332D01*
X181939433Y-95479496D01*
X181939437Y-95479497D01*
X181995133Y-95480517D01*
X182053758Y-95481592D01*
X182113244Y-95465374D01*
X182164067Y-95451518D01*
X182164068Y-95451518D01*
X182172730Y-95449156D01*
X182180382Y-95444458D01*
X182270165Y-95389332D01*
X182270168Y-95389329D01*
X182277817Y-95384633D01*
X182283865Y-95377952D01*
X182354543Y-95299868D01*
X182354544Y-95299866D01*
X182360571Y-95293208D01*
X182365246Y-95283560D01*
X182410424Y-95190311D01*
X182410424Y-95190310D01*
X182414338Y-95182232D01*
X182434797Y-95060626D01*
X182434927Y-95050000D01*
X182433778Y-95041973D01*
X182426433Y-94990686D01*
X182826105Y-94990686D01*
X182827269Y-94999587D01*
X182827269Y-94999591D01*
X182835251Y-95060626D01*
X182842095Y-95112960D01*
X182891759Y-95225832D01*
X182971107Y-95320228D01*
X182978585Y-95325205D01*
X182978584Y-95325205D01*
X183067470Y-95384373D01*
X183113093Y-95438770D01*
X183122064Y-95509198D01*
X183092092Y-95572667D01*
X183032071Y-95640629D01*
X182979663Y-95752254D01*
X182978283Y-95761119D01*
X182978282Y-95761121D01*
X182964623Y-95848848D01*
X182960691Y-95874100D01*
X182961855Y-95883001D01*
X182961855Y-95883005D01*
X182974981Y-95983371D01*
X182976681Y-95996374D01*
X183026345Y-96109246D01*
X183105693Y-96203642D01*
X183133655Y-96222255D01*
X183189881Y-96259682D01*
X183208345Y-96271973D01*
X183326049Y-96308746D01*
X183335019Y-96308910D01*
X183335023Y-96308911D01*
X183390719Y-96309931D01*
X183449344Y-96311006D01*
X183508830Y-96294788D01*
X183559653Y-96280932D01*
X183559654Y-96280932D01*
X183568316Y-96278570D01*
X183575968Y-96273872D01*
X183665751Y-96218746D01*
X183665754Y-96218743D01*
X183673403Y-96214047D01*
X183682822Y-96203642D01*
X183750129Y-96129282D01*
X183750130Y-96129280D01*
X183756157Y-96122622D01*
X183770687Y-96092633D01*
X183806010Y-96019725D01*
X183806010Y-96019724D01*
X183809924Y-96011646D01*
X183828089Y-95903674D01*
X183829576Y-95894837D01*
X183829576Y-95894836D01*
X183830383Y-95890040D01*
X183830513Y-95879414D01*
X183828601Y-95866059D01*
X183819640Y-95803486D01*
X200707705Y-95803486D01*
X200708869Y-95812387D01*
X200708869Y-95812391D01*
X200713637Y-95848848D01*
X200723695Y-95925760D01*
X200773359Y-96038632D01*
X200825810Y-96101030D01*
X200843793Y-96122423D01*
X200852707Y-96133028D01*
X200868338Y-96143433D01*
X200934287Y-96187332D01*
X200955359Y-96201359D01*
X201073063Y-96238132D01*
X201082033Y-96238296D01*
X201082037Y-96238297D01*
X201137733Y-96239317D01*
X201196358Y-96240392D01*
X201275607Y-96218786D01*
X201306667Y-96210318D01*
X201306668Y-96210318D01*
X201315330Y-96207956D01*
X201322982Y-96203258D01*
X201412765Y-96148132D01*
X201412768Y-96148129D01*
X201420417Y-96143433D01*
X201429836Y-96133028D01*
X201497143Y-96058668D01*
X201497144Y-96058666D01*
X201503171Y-96052008D01*
X201524557Y-96007868D01*
X201553024Y-95949111D01*
X201553024Y-95949110D01*
X201556938Y-95941032D01*
X201577397Y-95819426D01*
X201577527Y-95808800D01*
X201575496Y-95794614D01*
X201569491Y-95752686D01*
X202003105Y-95752686D01*
X202004269Y-95761587D01*
X202004269Y-95761591D01*
X202012460Y-95824223D01*
X202019095Y-95874960D01*
X202068759Y-95987832D01*
X202148107Y-96082228D01*
X202196646Y-96114538D01*
X202223089Y-96132140D01*
X202250759Y-96150559D01*
X202368463Y-96187332D01*
X202377433Y-96187496D01*
X202377437Y-96187497D01*
X202433133Y-96188517D01*
X202491758Y-96189592D01*
X202551244Y-96173374D01*
X202602067Y-96159518D01*
X202602068Y-96159518D01*
X202610730Y-96157156D01*
X202618382Y-96152458D01*
X202708165Y-96097332D01*
X202708168Y-96097329D01*
X202715817Y-96092633D01*
X202722160Y-96085626D01*
X202792543Y-96007868D01*
X202792544Y-96007866D01*
X202798571Y-96001208D01*
X202805226Y-95987473D01*
X202848424Y-95898311D01*
X202848424Y-95898310D01*
X202852338Y-95890232D01*
X202872797Y-95768626D01*
X202872927Y-95758000D01*
X202870896Y-95743814D01*
X202856718Y-95644817D01*
X202856717Y-95644815D01*
X202855445Y-95635930D01*
X202829170Y-95578141D01*
X202808122Y-95531848D01*
X202808120Y-95531845D01*
X202804405Y-95523674D01*
X202723910Y-95430255D01*
X202620431Y-95363183D01*
X202611829Y-95360611D01*
X202611826Y-95360609D01*
X202532154Y-95336782D01*
X202502286Y-95327850D01*
X202493310Y-95327795D01*
X202493309Y-95327795D01*
X202442336Y-95327484D01*
X202378974Y-95327097D01*
X202260406Y-95360984D01*
X202156115Y-95426786D01*
X202150173Y-95433514D01*
X202150172Y-95433515D01*
X202115481Y-95472796D01*
X202074485Y-95519215D01*
X202022077Y-95630840D01*
X202020697Y-95639705D01*
X202020696Y-95639707D01*
X202004491Y-95743786D01*
X202003105Y-95752686D01*
X201569491Y-95752686D01*
X201561318Y-95695617D01*
X201561317Y-95695615D01*
X201560045Y-95686730D01*
X201529220Y-95618935D01*
X201512722Y-95582648D01*
X201512720Y-95582645D01*
X201509005Y-95574474D01*
X201428510Y-95481055D01*
X201325031Y-95413983D01*
X201316429Y-95411411D01*
X201316426Y-95411409D01*
X201231904Y-95386132D01*
X201206886Y-95378650D01*
X201197910Y-95378595D01*
X201197909Y-95378595D01*
X201146936Y-95378284D01*
X201083574Y-95377897D01*
X200965006Y-95411784D01*
X200860715Y-95477586D01*
X200779085Y-95570015D01*
X200726677Y-95681640D01*
X200725297Y-95690505D01*
X200725296Y-95690507D01*
X200712549Y-95772377D01*
X200707705Y-95803486D01*
X183819640Y-95803486D01*
X183814304Y-95766231D01*
X183814303Y-95766229D01*
X183813031Y-95757344D01*
X183780925Y-95686730D01*
X183765708Y-95653262D01*
X183765706Y-95653259D01*
X183761991Y-95645088D01*
X183681496Y-95551669D01*
X183589713Y-95492178D01*
X183543431Y-95438343D01*
X183533600Y-95368030D01*
X183564833Y-95301891D01*
X183584573Y-95280083D01*
X183645116Y-95243002D01*
X183716096Y-95244540D01*
X183774436Y-95283560D01*
X183783907Y-95294828D01*
X183794518Y-95301891D01*
X183837381Y-95330423D01*
X183886559Y-95363159D01*
X183941629Y-95380364D01*
X183960092Y-95386132D01*
X184004263Y-95399932D01*
X184013233Y-95400096D01*
X184013237Y-95400097D01*
X184068933Y-95401117D01*
X184127558Y-95402192D01*
X184213908Y-95378650D01*
X184237867Y-95372118D01*
X184237868Y-95372118D01*
X184246530Y-95369756D01*
X184254182Y-95365058D01*
X184343965Y-95309932D01*
X184343968Y-95309929D01*
X184351617Y-95305233D01*
X184361036Y-95294828D01*
X184428343Y-95220468D01*
X184428344Y-95220466D01*
X184434371Y-95213808D01*
X184447306Y-95187111D01*
X184484224Y-95110911D01*
X184484224Y-95110910D01*
X184488138Y-95102832D01*
X184498459Y-95041486D01*
X199158305Y-95041486D01*
X199159469Y-95050387D01*
X199159469Y-95050391D01*
X199166327Y-95102832D01*
X199174295Y-95163760D01*
X199223959Y-95276632D01*
X199266966Y-95327795D01*
X199296713Y-95363183D01*
X199303307Y-95371028D01*
X199325997Y-95386132D01*
X199384887Y-95425332D01*
X199405959Y-95439359D01*
X199523663Y-95476132D01*
X199532633Y-95476296D01*
X199532637Y-95476297D01*
X199588333Y-95477317D01*
X199646958Y-95478392D01*
X199706444Y-95462174D01*
X199757267Y-95448318D01*
X199757268Y-95448318D01*
X199765930Y-95445956D01*
X199773582Y-95441258D01*
X199863365Y-95386132D01*
X199863368Y-95386129D01*
X199871017Y-95381433D01*
X199880436Y-95371028D01*
X199947743Y-95296668D01*
X199947744Y-95296666D01*
X199953771Y-95290008D01*
X199958702Y-95279832D01*
X200003624Y-95187111D01*
X200003624Y-95187110D01*
X200007538Y-95179032D01*
X200027997Y-95057426D01*
X200028127Y-95046800D01*
X200026096Y-95032614D01*
X200011918Y-94933617D01*
X200011917Y-94933615D01*
X200010645Y-94924730D01*
X199981540Y-94860717D01*
X199963322Y-94820648D01*
X199963320Y-94820645D01*
X199959605Y-94812474D01*
X199879110Y-94719055D01*
X199775631Y-94651983D01*
X199767029Y-94649411D01*
X199767026Y-94649409D01*
X199687354Y-94625582D01*
X199657486Y-94616650D01*
X199648510Y-94616595D01*
X199648509Y-94616595D01*
X199597536Y-94616284D01*
X199534174Y-94615897D01*
X199415606Y-94649784D01*
X199311315Y-94715586D01*
X199305373Y-94722314D01*
X199305372Y-94722315D01*
X199302546Y-94725515D01*
X199229685Y-94808015D01*
X199177277Y-94919640D01*
X199175897Y-94928505D01*
X199175896Y-94928507D01*
X199166215Y-94990686D01*
X199158305Y-95041486D01*
X184498459Y-95041486D01*
X184508597Y-94981226D01*
X184508727Y-94970600D01*
X184492991Y-94860717D01*
X184492518Y-94857417D01*
X184492517Y-94857415D01*
X184491245Y-94848530D01*
X184451754Y-94761674D01*
X184443922Y-94744448D01*
X184443920Y-94744445D01*
X184440205Y-94736274D01*
X184393564Y-94682144D01*
X184364250Y-94617483D01*
X184374549Y-94547237D01*
X184395602Y-94515342D01*
X184457952Y-94446459D01*
X184457953Y-94446457D01*
X184463980Y-94439799D01*
X184517747Y-94328823D01*
X184538206Y-94207217D01*
X184538336Y-94196591D01*
X184536305Y-94182405D01*
X184522127Y-94083408D01*
X184522126Y-94083406D01*
X184520854Y-94074521D01*
X184490080Y-94006837D01*
X184473531Y-93970439D01*
X184473529Y-93970436D01*
X184469814Y-93962265D01*
X184389319Y-93868846D01*
X184285840Y-93801774D01*
X184277238Y-93799202D01*
X184277235Y-93799200D01*
X184176298Y-93769014D01*
X184176299Y-93769014D01*
X184167695Y-93766441D01*
X184158719Y-93766386D01*
X184158718Y-93766386D01*
X184107745Y-93766075D01*
X184044383Y-93765688D01*
X183925815Y-93799575D01*
X183821524Y-93865377D01*
X183815582Y-93872105D01*
X183815581Y-93872106D01*
X183780814Y-93911473D01*
X183739894Y-93957806D01*
X183687486Y-94069431D01*
X183686106Y-94078296D01*
X183686105Y-94078298D01*
X183670048Y-94181427D01*
X183668514Y-94191277D01*
X183669678Y-94200178D01*
X183669678Y-94200182D01*
X183683328Y-94304562D01*
X183684504Y-94313551D01*
X183734168Y-94426423D01*
X183739945Y-94433295D01*
X183784188Y-94485929D01*
X183812709Y-94550944D01*
X183801553Y-94621059D01*
X183782180Y-94650409D01*
X183769483Y-94664786D01*
X183750923Y-94685801D01*
X183690836Y-94723619D01*
X183619843Y-94722948D01*
X183561029Y-94684640D01*
X183552773Y-94675058D01*
X183552768Y-94675054D01*
X183546910Y-94668255D01*
X183443431Y-94601183D01*
X183434829Y-94598611D01*
X183434826Y-94598609D01*
X183333889Y-94568423D01*
X183333890Y-94568423D01*
X183325286Y-94565850D01*
X183316310Y-94565795D01*
X183316309Y-94565795D01*
X183265336Y-94565484D01*
X183201974Y-94565097D01*
X183083406Y-94598984D01*
X182979115Y-94664786D01*
X182897485Y-94757215D01*
X182845077Y-94868840D01*
X182843697Y-94877705D01*
X182843696Y-94877707D01*
X182834493Y-94936817D01*
X182826105Y-94990686D01*
X182426433Y-94990686D01*
X182418718Y-94936817D01*
X182418717Y-94936815D01*
X182417445Y-94927930D01*
X182386885Y-94860717D01*
X182370122Y-94823848D01*
X182370120Y-94823845D01*
X182366405Y-94815674D01*
X182285910Y-94722255D01*
X182182431Y-94655183D01*
X182173829Y-94652611D01*
X182173826Y-94652609D01*
X182072889Y-94622423D01*
X182072890Y-94622423D01*
X182064286Y-94619850D01*
X182055310Y-94619795D01*
X182055309Y-94619795D01*
X182004336Y-94619484D01*
X181940974Y-94619097D01*
X181822406Y-94652984D01*
X181718115Y-94718786D01*
X181712173Y-94725514D01*
X181712172Y-94725515D01*
X181706608Y-94731815D01*
X181636485Y-94811215D01*
X181584077Y-94922840D01*
X181582697Y-94931705D01*
X181582696Y-94931707D01*
X181566985Y-95032614D01*
X181565105Y-95044686D01*
X174401000Y-95044686D01*
X174401000Y-93744686D01*
X186440105Y-93744686D01*
X186441269Y-93753587D01*
X186441269Y-93753591D01*
X186447909Y-93804364D01*
X186456095Y-93866960D01*
X186505759Y-93979832D01*
X186585107Y-94074228D01*
X186592585Y-94079205D01*
X186592584Y-94079205D01*
X186648484Y-94116415D01*
X186687759Y-94142559D01*
X186709128Y-94149235D01*
X186762774Y-94165995D01*
X186805463Y-94179332D01*
X186814433Y-94179496D01*
X186814437Y-94179497D01*
X186870133Y-94180517D01*
X186928758Y-94181592D01*
X186996390Y-94163153D01*
X187039067Y-94151518D01*
X187039068Y-94151518D01*
X187047730Y-94149156D01*
X187055486Y-94144394D01*
X187145165Y-94089332D01*
X187145168Y-94089329D01*
X187152817Y-94084633D01*
X187165039Y-94071131D01*
X187173622Y-94061648D01*
X187234165Y-94024566D01*
X187305145Y-94026104D01*
X187336856Y-94041316D01*
X187408990Y-94089332D01*
X187436217Y-94107456D01*
X187444787Y-94110133D01*
X187444786Y-94110133D01*
X187532652Y-94137584D01*
X187553921Y-94144229D01*
X187562891Y-94144393D01*
X187562895Y-94144394D01*
X187618591Y-94145414D01*
X187677216Y-94146489D01*
X187759403Y-94124082D01*
X187787525Y-94116415D01*
X187787526Y-94116415D01*
X187796188Y-94114053D01*
X187803840Y-94109355D01*
X187893623Y-94054229D01*
X187893626Y-94054226D01*
X187901275Y-94049530D01*
X187907748Y-94042379D01*
X187908312Y-94042034D01*
X187914206Y-94037140D01*
X187914912Y-94037991D01*
X187968290Y-94005299D01*
X188039270Y-94006837D01*
X188097612Y-94045861D01*
X188110107Y-94060726D01*
X188117585Y-94065703D01*
X188117584Y-94065703D01*
X188172835Y-94102481D01*
X188212759Y-94129057D01*
X188330463Y-94165830D01*
X188339433Y-94165994D01*
X188339437Y-94165995D01*
X188395133Y-94167015D01*
X188453758Y-94168090D01*
X188523206Y-94149156D01*
X188564067Y-94138016D01*
X188564068Y-94138016D01*
X188572730Y-94135654D01*
X188580382Y-94130956D01*
X188670165Y-94075830D01*
X188670168Y-94075827D01*
X188677817Y-94071131D01*
X188686709Y-94061308D01*
X188754543Y-93986366D01*
X188754544Y-93986364D01*
X188760571Y-93979706D01*
X188767245Y-93965932D01*
X188810424Y-93876809D01*
X188810424Y-93876808D01*
X188814338Y-93868730D01*
X188834797Y-93747124D01*
X188834927Y-93736498D01*
X188825400Y-93669971D01*
X188818718Y-93623315D01*
X188818717Y-93623313D01*
X188817445Y-93614428D01*
X188786601Y-93546591D01*
X188784185Y-93541277D01*
X197661314Y-93541277D01*
X197662478Y-93550178D01*
X197662478Y-93550182D01*
X197670880Y-93614428D01*
X197677304Y-93663551D01*
X197726968Y-93776423D01*
X197806316Y-93870819D01*
X197813794Y-93875796D01*
X197813793Y-93875796D01*
X197867390Y-93911473D01*
X197908968Y-93939150D01*
X197917538Y-93941827D01*
X197917537Y-93941827D01*
X198009119Y-93970439D01*
X198026672Y-93975923D01*
X198035642Y-93976087D01*
X198035646Y-93976088D01*
X198091342Y-93977108D01*
X198149967Y-93978183D01*
X198224708Y-93957806D01*
X198260276Y-93948109D01*
X198260277Y-93948109D01*
X198268939Y-93945747D01*
X198276591Y-93941049D01*
X198366374Y-93885923D01*
X198366377Y-93885920D01*
X198374026Y-93881224D01*
X198382280Y-93872106D01*
X198450752Y-93796459D01*
X198450753Y-93796457D01*
X198456780Y-93789799D01*
X198466851Y-93769014D01*
X198506633Y-93686902D01*
X198506633Y-93686901D01*
X198510547Y-93678823D01*
X198531006Y-93557217D01*
X198531136Y-93546591D01*
X198529105Y-93532405D01*
X198514927Y-93433408D01*
X198514926Y-93433406D01*
X198513654Y-93424521D01*
X198484151Y-93359633D01*
X198466331Y-93320439D01*
X198466329Y-93320436D01*
X198462614Y-93312265D01*
X198382119Y-93218846D01*
X198278640Y-93151774D01*
X198270038Y-93149202D01*
X198270035Y-93149200D01*
X198169098Y-93119014D01*
X198169099Y-93119014D01*
X198160495Y-93116441D01*
X198151519Y-93116386D01*
X198151518Y-93116386D01*
X198100545Y-93116075D01*
X198037183Y-93115688D01*
X197918615Y-93149575D01*
X197814324Y-93215377D01*
X197732694Y-93307806D01*
X197680286Y-93419431D01*
X197678906Y-93428296D01*
X197678905Y-93428298D01*
X197664730Y-93519341D01*
X197661314Y-93541277D01*
X188784185Y-93541277D01*
X188770122Y-93510346D01*
X188770120Y-93510343D01*
X188766405Y-93502172D01*
X188685910Y-93408753D01*
X188582431Y-93341681D01*
X188573829Y-93339109D01*
X188573826Y-93339107D01*
X188472889Y-93308921D01*
X188472890Y-93308921D01*
X188464286Y-93306348D01*
X188455310Y-93306293D01*
X188455309Y-93306293D01*
X188404336Y-93305982D01*
X188340974Y-93305595D01*
X188222406Y-93339482D01*
X188118115Y-93405284D01*
X188112172Y-93412013D01*
X188105336Y-93417831D01*
X188103437Y-93415599D01*
X188055886Y-93445526D01*
X187984893Y-93444855D01*
X187926080Y-93406547D01*
X187909368Y-93387152D01*
X187805889Y-93320080D01*
X187797287Y-93317508D01*
X187797284Y-93317506D01*
X187696347Y-93287320D01*
X187696348Y-93287320D01*
X187687744Y-93284747D01*
X187678768Y-93284692D01*
X187678767Y-93284692D01*
X187627794Y-93284381D01*
X187564432Y-93283994D01*
X187445864Y-93317881D01*
X187341573Y-93383683D01*
X187325771Y-93401576D01*
X187265687Y-93439394D01*
X187194693Y-93438725D01*
X187161986Y-93420595D01*
X187160910Y-93422255D01*
X187057431Y-93355183D01*
X187048829Y-93352611D01*
X187048826Y-93352609D01*
X186969154Y-93328782D01*
X186939286Y-93319850D01*
X186930310Y-93319795D01*
X186930309Y-93319795D01*
X186879336Y-93319484D01*
X186815974Y-93319097D01*
X186697406Y-93352984D01*
X186593115Y-93418786D01*
X186587173Y-93425514D01*
X186587172Y-93425515D01*
X186574915Y-93439394D01*
X186511485Y-93511215D01*
X186459077Y-93622840D01*
X186440105Y-93744686D01*
X174401000Y-93744686D01*
X174401000Y-93019686D01*
X200190105Y-93019686D01*
X200191269Y-93028587D01*
X200191269Y-93028591D01*
X200202751Y-93116386D01*
X200206095Y-93141960D01*
X200255759Y-93254832D01*
X200335107Y-93349228D01*
X200342585Y-93354205D01*
X200342584Y-93354205D01*
X200419319Y-93405284D01*
X200437759Y-93417559D01*
X200446329Y-93420236D01*
X200446328Y-93420236D01*
X200527277Y-93445526D01*
X200555463Y-93454332D01*
X200564433Y-93454496D01*
X200564437Y-93454497D01*
X200620133Y-93455517D01*
X200678758Y-93456592D01*
X200782538Y-93428298D01*
X200789067Y-93426518D01*
X200789068Y-93426518D01*
X200797730Y-93424156D01*
X200805382Y-93419458D01*
X200895165Y-93364332D01*
X200895168Y-93364329D01*
X200902817Y-93359633D01*
X200912236Y-93349228D01*
X200979543Y-93274868D01*
X200979544Y-93274866D01*
X200985571Y-93268208D01*
X201011853Y-93213963D01*
X201035424Y-93165311D01*
X201035424Y-93165310D01*
X201039338Y-93157232D01*
X201059797Y-93035626D01*
X201059927Y-93025000D01*
X201057896Y-93010814D01*
X201043718Y-92911817D01*
X201043717Y-92911815D01*
X201042445Y-92902930D01*
X200991405Y-92790674D01*
X200910910Y-92697255D01*
X200807431Y-92630183D01*
X200798829Y-92627611D01*
X200798826Y-92627609D01*
X200697889Y-92597423D01*
X200697890Y-92597423D01*
X200689286Y-92594850D01*
X200680310Y-92594795D01*
X200680309Y-92594795D01*
X200629336Y-92594484D01*
X200565974Y-92594097D01*
X200447406Y-92627984D01*
X200343115Y-92693786D01*
X200261485Y-92786215D01*
X200209077Y-92897840D01*
X200207697Y-92906705D01*
X200207696Y-92906707D01*
X200206901Y-92911817D01*
X200190105Y-93019686D01*
X174401000Y-93019686D01*
X174401000Y-91213830D01*
X178300624Y-91213830D01*
X178303226Y-91255183D01*
X178307806Y-91327976D01*
X178310944Y-91377860D01*
X178361732Y-91534171D01*
X178449798Y-91672940D01*
X178569607Y-91785448D01*
X178576551Y-91789265D01*
X178576553Y-91789267D01*
X178641386Y-91824909D01*
X178713632Y-91864627D01*
X178721304Y-91866597D01*
X178721307Y-91866598D01*
X178865145Y-91903529D01*
X178865148Y-91903529D01*
X178872823Y-91905500D01*
X178995925Y-91905500D01*
X179053690Y-91898203D01*
X179110193Y-91891065D01*
X179110196Y-91891064D01*
X179118058Y-91890071D01*
X179125425Y-91887154D01*
X179125426Y-91887154D01*
X179191970Y-91860807D01*
X179270871Y-91829568D01*
X179403837Y-91732963D01*
X179476866Y-91644686D01*
X188865105Y-91644686D01*
X188866269Y-91653587D01*
X188866269Y-91653591D01*
X188879919Y-91757971D01*
X188881095Y-91766960D01*
X188930759Y-91879832D01*
X189010107Y-91974228D01*
X189112759Y-92042559D01*
X189230463Y-92079332D01*
X189239433Y-92079496D01*
X189239437Y-92079497D01*
X189295133Y-92080517D01*
X189353758Y-92081592D01*
X189413244Y-92065374D01*
X189464067Y-92051518D01*
X189464068Y-92051518D01*
X189472730Y-92049156D01*
X189480382Y-92044458D01*
X189570165Y-91989332D01*
X189570168Y-91989329D01*
X189577817Y-91984633D01*
X189587236Y-91974228D01*
X189654543Y-91899868D01*
X189654544Y-91899866D01*
X189660571Y-91893208D01*
X189673464Y-91866598D01*
X189710424Y-91790311D01*
X189710424Y-91790310D01*
X189714338Y-91782232D01*
X189734797Y-91660626D01*
X189734927Y-91650000D01*
X189732896Y-91635814D01*
X189718718Y-91536817D01*
X189718717Y-91536815D01*
X189717445Y-91527930D01*
X189673643Y-91431592D01*
X189670122Y-91423848D01*
X189670120Y-91423845D01*
X189666405Y-91415674D01*
X189585910Y-91322255D01*
X189482431Y-91255183D01*
X189473829Y-91252611D01*
X189473826Y-91252609D01*
X189372889Y-91222423D01*
X189372890Y-91222423D01*
X189364286Y-91219850D01*
X189355310Y-91219795D01*
X189355309Y-91219795D01*
X189304336Y-91219484D01*
X189240974Y-91219097D01*
X189122406Y-91252984D01*
X189018115Y-91318786D01*
X189012173Y-91325514D01*
X189012172Y-91325515D01*
X188977300Y-91365000D01*
X188936485Y-91411215D01*
X188884077Y-91522840D01*
X188882697Y-91531705D01*
X188882696Y-91531707D01*
X188870127Y-91612434D01*
X188865105Y-91644686D01*
X179476866Y-91644686D01*
X179508600Y-91606326D01*
X179578579Y-91457613D01*
X179580064Y-91449830D01*
X179580065Y-91449826D01*
X179607891Y-91303956D01*
X179607891Y-91303954D01*
X179609376Y-91296170D01*
X179607399Y-91264745D01*
X179623084Y-91195503D01*
X179673714Y-91145733D01*
X179743215Y-91131237D01*
X179760956Y-91133941D01*
X179777057Y-91137584D01*
X179851172Y-91154355D01*
X179851175Y-91154355D01*
X179856808Y-91155630D01*
X179862579Y-91155857D01*
X179862581Y-91155857D01*
X179925985Y-91158348D01*
X180064419Y-91163787D01*
X180167230Y-91148880D01*
X180264327Y-91134802D01*
X180264332Y-91134801D01*
X180270041Y-91133973D01*
X180275505Y-91132118D01*
X180275510Y-91132117D01*
X180461318Y-91069043D01*
X180466786Y-91067187D01*
X180596246Y-90994686D01*
X195915105Y-90994686D01*
X195916269Y-91003587D01*
X195916269Y-91003591D01*
X195927482Y-91089332D01*
X195931095Y-91116960D01*
X195980759Y-91229832D01*
X196060107Y-91324228D01*
X196067585Y-91329205D01*
X196067584Y-91329205D01*
X196128793Y-91369949D01*
X196162759Y-91392559D01*
X196171329Y-91395236D01*
X196171328Y-91395236D01*
X196262910Y-91423848D01*
X196280463Y-91429332D01*
X196289433Y-91429496D01*
X196289437Y-91429497D01*
X196345133Y-91430517D01*
X196403758Y-91431592D01*
X196478499Y-91411215D01*
X196514067Y-91401518D01*
X196514068Y-91401518D01*
X196522730Y-91399156D01*
X196530382Y-91394458D01*
X196620165Y-91339332D01*
X196620168Y-91339329D01*
X196627817Y-91334633D01*
X196636071Y-91325515D01*
X196704543Y-91249868D01*
X196704544Y-91249866D01*
X196710571Y-91243208D01*
X196720642Y-91222423D01*
X196760424Y-91140311D01*
X196760424Y-91140310D01*
X196764338Y-91132232D01*
X196784797Y-91010626D01*
X196784927Y-91000000D01*
X196783955Y-90993208D01*
X196768718Y-90886817D01*
X196768717Y-90886815D01*
X196767445Y-90877930D01*
X196724349Y-90783146D01*
X196720122Y-90773848D01*
X196720120Y-90773845D01*
X196718810Y-90770964D01*
X197021383Y-90770964D01*
X197022547Y-90779865D01*
X197022547Y-90779869D01*
X197034776Y-90873380D01*
X197037373Y-90893238D01*
X197087037Y-91006110D01*
X197166385Y-91100506D01*
X197200748Y-91123380D01*
X197261451Y-91163787D01*
X197269037Y-91168837D01*
X197386741Y-91205610D01*
X197395711Y-91205774D01*
X197395715Y-91205775D01*
X197451411Y-91206795D01*
X197510036Y-91207870D01*
X197606421Y-91181592D01*
X197620345Y-91177796D01*
X197620346Y-91177796D01*
X197629008Y-91175434D01*
X197636660Y-91170736D01*
X197726443Y-91115610D01*
X197726446Y-91115607D01*
X197734095Y-91110911D01*
X197743514Y-91100506D01*
X197816849Y-91019486D01*
X197817973Y-91020503D01*
X197865067Y-90981494D01*
X197935548Y-90972954D01*
X197999457Y-91003874D01*
X198011300Y-91016166D01*
X198048293Y-91060174D01*
X198060107Y-91074228D01*
X198162759Y-91142559D01*
X198183875Y-91149156D01*
X198252949Y-91170736D01*
X198280463Y-91179332D01*
X198289433Y-91179496D01*
X198289437Y-91179497D01*
X198345133Y-91180517D01*
X198403758Y-91181592D01*
X198472106Y-91162958D01*
X198514067Y-91151518D01*
X198514068Y-91151518D01*
X198522730Y-91149156D01*
X198530382Y-91144458D01*
X198620165Y-91089332D01*
X198620168Y-91089329D01*
X198627817Y-91084633D01*
X198637236Y-91074228D01*
X198704543Y-90999868D01*
X198704544Y-90999866D01*
X198710571Y-90993208D01*
X198716247Y-90981494D01*
X198760424Y-90890311D01*
X198760424Y-90890310D01*
X198764338Y-90882232D01*
X198784797Y-90760626D01*
X198784927Y-90750000D01*
X198781953Y-90729230D01*
X198768718Y-90636817D01*
X198768717Y-90636815D01*
X198767445Y-90627930D01*
X198741102Y-90569992D01*
X198720122Y-90523848D01*
X198720120Y-90523845D01*
X198716405Y-90515674D01*
X198635910Y-90422255D01*
X198532431Y-90355183D01*
X198523829Y-90352611D01*
X198523826Y-90352609D01*
X198422889Y-90322423D01*
X198422890Y-90322423D01*
X198414286Y-90319850D01*
X198405310Y-90319795D01*
X198405309Y-90319795D01*
X198354336Y-90319484D01*
X198290974Y-90319097D01*
X198172406Y-90352984D01*
X198068115Y-90418786D01*
X198062173Y-90425514D01*
X198062172Y-90425515D01*
X198038964Y-90451793D01*
X197986485Y-90511215D01*
X197983826Y-90508866D01*
X197942697Y-90543828D01*
X197872331Y-90553266D01*
X197808032Y-90523163D01*
X197795989Y-90510972D01*
X197748047Y-90455333D01*
X197742188Y-90448533D01*
X197638709Y-90381461D01*
X197630107Y-90378889D01*
X197630104Y-90378887D01*
X197529167Y-90348701D01*
X197529168Y-90348701D01*
X197520564Y-90346128D01*
X197511588Y-90346073D01*
X197511587Y-90346073D01*
X197460614Y-90345762D01*
X197397252Y-90345375D01*
X197278684Y-90379262D01*
X197174393Y-90445064D01*
X197092763Y-90537493D01*
X197040355Y-90649118D01*
X197038975Y-90657983D01*
X197038974Y-90657985D01*
X197022993Y-90760626D01*
X197021383Y-90770964D01*
X196718810Y-90770964D01*
X196716405Y-90765674D01*
X196635910Y-90672255D01*
X196532431Y-90605183D01*
X196523829Y-90602611D01*
X196523826Y-90602609D01*
X196422889Y-90572423D01*
X196422890Y-90572423D01*
X196414286Y-90569850D01*
X196405310Y-90569795D01*
X196405309Y-90569795D01*
X196354336Y-90569484D01*
X196290974Y-90569097D01*
X196172406Y-90602984D01*
X196068115Y-90668786D01*
X196062173Y-90675514D01*
X196062172Y-90675515D01*
X196045442Y-90694458D01*
X195986485Y-90761215D01*
X195934077Y-90872840D01*
X195932697Y-90881705D01*
X195932696Y-90881707D01*
X195916594Y-90985124D01*
X195915105Y-90994686D01*
X180596246Y-90994686D01*
X180648065Y-90965666D01*
X180807809Y-90832809D01*
X180940666Y-90673065D01*
X181042187Y-90491786D01*
X181070609Y-90408059D01*
X181107117Y-90300510D01*
X181107118Y-90300505D01*
X181108973Y-90295041D01*
X181109024Y-90294686D01*
X184440105Y-90294686D01*
X184441269Y-90303587D01*
X184441269Y-90303591D01*
X184448016Y-90355183D01*
X184456095Y-90416960D01*
X184505759Y-90529832D01*
X184585107Y-90624228D01*
X184687759Y-90692559D01*
X184805463Y-90729332D01*
X184814433Y-90729496D01*
X184814437Y-90729497D01*
X184870133Y-90730517D01*
X184928758Y-90731592D01*
X184988244Y-90715374D01*
X185039067Y-90701518D01*
X185039068Y-90701518D01*
X185047730Y-90699156D01*
X185055382Y-90694458D01*
X185145165Y-90639332D01*
X185145168Y-90639329D01*
X185152817Y-90634633D01*
X185158885Y-90627930D01*
X185229543Y-90549868D01*
X185229544Y-90549866D01*
X185235571Y-90543208D01*
X185251072Y-90511215D01*
X185285424Y-90440311D01*
X185285424Y-90440310D01*
X185289338Y-90432232D01*
X185309797Y-90310626D01*
X185309927Y-90300000D01*
X185308399Y-90289327D01*
X185293718Y-90186817D01*
X185293717Y-90186815D01*
X185292445Y-90177930D01*
X185253872Y-90093093D01*
X185245122Y-90073848D01*
X185245120Y-90073845D01*
X185241405Y-90065674D01*
X185160910Y-89972255D01*
X185057431Y-89905183D01*
X185048829Y-89902611D01*
X185048826Y-89902609D01*
X184947889Y-89872423D01*
X184947890Y-89872423D01*
X184939286Y-89869850D01*
X184930310Y-89869795D01*
X184930309Y-89869795D01*
X184879336Y-89869484D01*
X184815974Y-89869097D01*
X184697406Y-89902984D01*
X184593115Y-89968786D01*
X184587173Y-89975514D01*
X184587172Y-89975515D01*
X184565301Y-90000280D01*
X184511485Y-90061215D01*
X184459077Y-90172840D01*
X184457697Y-90181705D01*
X184457696Y-90181707D01*
X184444467Y-90266673D01*
X184440105Y-90294686D01*
X181109024Y-90294686D01*
X181109801Y-90289332D01*
X181109802Y-90289327D01*
X181138254Y-90093093D01*
X181138787Y-90089419D01*
X181140343Y-90030000D01*
X181125623Y-89869795D01*
X181121861Y-89828854D01*
X181121860Y-89828851D01*
X181121332Y-89823100D01*
X181064934Y-89623129D01*
X180973039Y-89436785D01*
X180848724Y-89270307D01*
X180729529Y-89160124D01*
X180700394Y-89133192D01*
X180700392Y-89133190D01*
X180696153Y-89129272D01*
X180541078Y-89031427D01*
X180525315Y-89021481D01*
X180520435Y-89018402D01*
X180327455Y-88941411D01*
X180321795Y-88940285D01*
X180321791Y-88940284D01*
X180129344Y-88902004D01*
X180129339Y-88902004D01*
X180123676Y-88900877D01*
X180117901Y-88900801D01*
X180117897Y-88900801D01*
X180013768Y-88899438D01*
X179915922Y-88898157D01*
X179910225Y-88899136D01*
X179910224Y-88899136D01*
X179716842Y-88932365D01*
X179716839Y-88932366D01*
X179711152Y-88933343D01*
X179516222Y-89005256D01*
X179337662Y-89111488D01*
X179181451Y-89248481D01*
X179144790Y-89294985D01*
X179096354Y-89356427D01*
X179052821Y-89411648D01*
X179050133Y-89416757D01*
X178958769Y-89590411D01*
X178958767Y-89590416D01*
X178956080Y-89595523D01*
X178894467Y-89793949D01*
X178870046Y-90000280D01*
X178883635Y-90207607D01*
X178885056Y-90213203D01*
X178885057Y-90213208D01*
X178929030Y-90386347D01*
X178934779Y-90408985D01*
X178946804Y-90435070D01*
X178957159Y-90505306D01*
X178927897Y-90569992D01*
X178868308Y-90608588D01*
X178848182Y-90612824D01*
X178791942Y-90619929D01*
X178784575Y-90622846D01*
X178784574Y-90622846D01*
X178766834Y-90629870D01*
X178639129Y-90680432D01*
X178632718Y-90685090D01*
X178632716Y-90685091D01*
X178550020Y-90745173D01*
X178506163Y-90777037D01*
X178401400Y-90903674D01*
X178398025Y-90910847D01*
X178398024Y-90910848D01*
X178384624Y-90939325D01*
X178331421Y-91052387D01*
X178329936Y-91060170D01*
X178329935Y-91060174D01*
X178302109Y-91206044D01*
X178300624Y-91213830D01*
X174401000Y-91213830D01*
X174401000Y-89865542D01*
X175169615Y-89865542D01*
X175170131Y-89871685D01*
X175185850Y-90058871D01*
X175186526Y-90066925D01*
X175188225Y-90072850D01*
X175219439Y-90181707D01*
X175242229Y-90261188D01*
X175245048Y-90266673D01*
X175331787Y-90435449D01*
X175331790Y-90435454D01*
X175334605Y-90440931D01*
X175460134Y-90599309D01*
X175464828Y-90603304D01*
X175569702Y-90692559D01*
X175614034Y-90730289D01*
X175619412Y-90733295D01*
X175619414Y-90733296D01*
X175689342Y-90772377D01*
X175790444Y-90828881D01*
X175982645Y-90891330D01*
X176183314Y-90915259D01*
X176189449Y-90914787D01*
X176189451Y-90914787D01*
X176378668Y-90900228D01*
X176378672Y-90900227D01*
X176384810Y-90899755D01*
X176390742Y-90898099D01*
X176390746Y-90898098D01*
X176573513Y-90847068D01*
X176573517Y-90847067D01*
X176579457Y-90845408D01*
X176584961Y-90842628D01*
X176584963Y-90842627D01*
X176754340Y-90757069D01*
X176754342Y-90757068D01*
X176759841Y-90754290D01*
X176919091Y-90629870D01*
X176942022Y-90603304D01*
X177047113Y-90481556D01*
X177047114Y-90481554D01*
X177051142Y-90476888D01*
X177150964Y-90301170D01*
X177214754Y-90109410D01*
X177219246Y-90073848D01*
X177239643Y-89912391D01*
X177239644Y-89912382D01*
X177240082Y-89908912D01*
X177240486Y-89880000D01*
X177220765Y-89678873D01*
X177218337Y-89670829D01*
X177164135Y-89491306D01*
X177162354Y-89485407D01*
X177067478Y-89306971D01*
X176939751Y-89150361D01*
X176784036Y-89021543D01*
X176778617Y-89018613D01*
X176778614Y-89018611D01*
X176611687Y-88928354D01*
X176611682Y-88928352D01*
X176606267Y-88925424D01*
X176587730Y-88919686D01*
X177565105Y-88919686D01*
X177566269Y-88928587D01*
X177566269Y-88928591D01*
X177577884Y-89017404D01*
X177581095Y-89041960D01*
X177630759Y-89154832D01*
X177710107Y-89249228D01*
X177812759Y-89317559D01*
X177930463Y-89354332D01*
X177939433Y-89354496D01*
X177939437Y-89354497D01*
X177995133Y-89355517D01*
X178053758Y-89356592D01*
X178113244Y-89340374D01*
X178164067Y-89326518D01*
X178164068Y-89326518D01*
X178172730Y-89324156D01*
X178180382Y-89319458D01*
X178270165Y-89264332D01*
X178270168Y-89264329D01*
X178277817Y-89259633D01*
X178287236Y-89249228D01*
X178354543Y-89174868D01*
X178354544Y-89174866D01*
X178360571Y-89168208D01*
X178371120Y-89146436D01*
X178410424Y-89065311D01*
X178410424Y-89065310D01*
X178414338Y-89057232D01*
X178434797Y-88935626D01*
X178434927Y-88925000D01*
X178432896Y-88910814D01*
X178418718Y-88811817D01*
X178418717Y-88811815D01*
X178417445Y-88802930D01*
X178388974Y-88740311D01*
X178370122Y-88698848D01*
X178370120Y-88698845D01*
X178366405Y-88690674D01*
X178285910Y-88597255D01*
X178281947Y-88594686D01*
X195665105Y-88594686D01*
X195666269Y-88603587D01*
X195666269Y-88603591D01*
X195678137Y-88694341D01*
X195681095Y-88716960D01*
X195730759Y-88829832D01*
X195810107Y-88924228D01*
X195912759Y-88992559D01*
X195953400Y-89005256D01*
X196018108Y-89025472D01*
X196030463Y-89029332D01*
X196039433Y-89029496D01*
X196039437Y-89029497D01*
X196095133Y-89030517D01*
X196153758Y-89031592D01*
X196257688Y-89003257D01*
X196264067Y-89001518D01*
X196264068Y-89001518D01*
X196272730Y-88999156D01*
X196280382Y-88994458D01*
X196370165Y-88939332D01*
X196370168Y-88939329D01*
X196377817Y-88934633D01*
X196386537Y-88925000D01*
X196454543Y-88849868D01*
X196454544Y-88849866D01*
X196460571Y-88843208D01*
X196478256Y-88806707D01*
X196510424Y-88740311D01*
X196510424Y-88740310D01*
X196514338Y-88732232D01*
X196534797Y-88610626D01*
X196534927Y-88600000D01*
X196532896Y-88585814D01*
X196518718Y-88486817D01*
X196518717Y-88486815D01*
X196517445Y-88477930D01*
X196466405Y-88365674D01*
X196385910Y-88272255D01*
X196282431Y-88205183D01*
X196273829Y-88202611D01*
X196273826Y-88202609D01*
X196172889Y-88172423D01*
X196172890Y-88172423D01*
X196164286Y-88169850D01*
X196155310Y-88169795D01*
X196155309Y-88169795D01*
X196104336Y-88169484D01*
X196040974Y-88169097D01*
X195922406Y-88202984D01*
X195818115Y-88268786D01*
X195736485Y-88361215D01*
X195684077Y-88472840D01*
X195682697Y-88481705D01*
X195682696Y-88481707D01*
X195674388Y-88535069D01*
X195665105Y-88594686D01*
X178281947Y-88594686D01*
X178182431Y-88530183D01*
X178173829Y-88527611D01*
X178173826Y-88527609D01*
X178072889Y-88497423D01*
X178072890Y-88497423D01*
X178064286Y-88494850D01*
X178055310Y-88494795D01*
X178055309Y-88494795D01*
X178004336Y-88494484D01*
X177940974Y-88494097D01*
X177822406Y-88527984D01*
X177718115Y-88593786D01*
X177712173Y-88600514D01*
X177712172Y-88600515D01*
X177699006Y-88615423D01*
X177636485Y-88686215D01*
X177584077Y-88797840D01*
X177582697Y-88806705D01*
X177582696Y-88806707D01*
X177568034Y-88900877D01*
X177565105Y-88919686D01*
X176587730Y-88919686D01*
X176582849Y-88918175D01*
X176419100Y-88867486D01*
X176419097Y-88867485D01*
X176413213Y-88865664D01*
X176407088Y-88865020D01*
X176407087Y-88865020D01*
X176218357Y-88845183D01*
X176218356Y-88845183D01*
X176212229Y-88844539D01*
X176127847Y-88852218D01*
X176017108Y-88862296D01*
X176017105Y-88862297D01*
X176010969Y-88862855D01*
X176005063Y-88864593D01*
X176005059Y-88864594D01*
X175890765Y-88898233D01*
X175817100Y-88919914D01*
X175791413Y-88933343D01*
X175653856Y-89005256D01*
X175638006Y-89013542D01*
X175480508Y-89140174D01*
X175476550Y-89144891D01*
X175476547Y-89144894D01*
X175451396Y-89174868D01*
X175350607Y-89294985D01*
X175347641Y-89300380D01*
X175347637Y-89300386D01*
X175256220Y-89466672D01*
X175256218Y-89466677D01*
X175253248Y-89472079D01*
X175251385Y-89477953D01*
X175251383Y-89477957D01*
X175194004Y-89658840D01*
X175192142Y-89664710D01*
X175169615Y-89865542D01*
X174401000Y-89865542D01*
X174401000Y-87769686D01*
X182340105Y-87769686D01*
X182341269Y-87778587D01*
X182341269Y-87778591D01*
X182354919Y-87882971D01*
X182356095Y-87891960D01*
X182405759Y-88004832D01*
X182485107Y-88099228D01*
X182587759Y-88167559D01*
X182705463Y-88204332D01*
X182714433Y-88204496D01*
X182714437Y-88204497D01*
X182770133Y-88205517D01*
X182828758Y-88206592D01*
X182888244Y-88190374D01*
X182939067Y-88176518D01*
X182939068Y-88176518D01*
X182947730Y-88174156D01*
X182955880Y-88169152D01*
X183045165Y-88114332D01*
X183045168Y-88114329D01*
X183052817Y-88109633D01*
X183062236Y-88099228D01*
X183129543Y-88024868D01*
X183129544Y-88024866D01*
X183135571Y-88018208D01*
X183189338Y-87907232D01*
X183209797Y-87785626D01*
X183209927Y-87775000D01*
X183207896Y-87760814D01*
X183193718Y-87661817D01*
X183193717Y-87661815D01*
X183192445Y-87652930D01*
X183158924Y-87579205D01*
X183145122Y-87548848D01*
X183145120Y-87548845D01*
X183141405Y-87540674D01*
X183060910Y-87447255D01*
X182957431Y-87380183D01*
X182948829Y-87377611D01*
X182948826Y-87377609D01*
X182847889Y-87347423D01*
X182847890Y-87347423D01*
X182839286Y-87344850D01*
X182830310Y-87344795D01*
X182830309Y-87344795D01*
X182779336Y-87344484D01*
X182715974Y-87344097D01*
X182597406Y-87377984D01*
X182493115Y-87443786D01*
X182487173Y-87450514D01*
X182487172Y-87450515D01*
X182461280Y-87479832D01*
X182411485Y-87536215D01*
X182359077Y-87647840D01*
X182357697Y-87656705D01*
X182357696Y-87656707D01*
X182353822Y-87681592D01*
X182340105Y-87769686D01*
X174401000Y-87769686D01*
X174401000Y-86827000D01*
X174421002Y-86758879D01*
X174474658Y-86712386D01*
X174527000Y-86701000D01*
X191858518Y-86701000D01*
X191926639Y-86721002D01*
G37*
%TD.AperFunction*%
%TD*%
M02*
