%TF.GenerationSoftware,KiCad,Pcbnew,6.0.5-a6ca702e91~116~ubuntu20.04.1*%
%TF.CreationDate,2022-07-26T15:57:37+01:00*%
%TF.ProjectId,sd-mux,73642d6d-7578-42e6-9b69-6361645f7063,rev?*%
%TF.SameCoordinates,Original*%
%TF.FileFunction,Legend,Bot*%
%TF.FilePolarity,Positive*%
%FSLAX46Y46*%
G04 Gerber Fmt 4.6, Leading zero omitted, Abs format (unit mm)*
G04 Created by KiCad (PCBNEW 6.0.5-a6ca702e91~116~ubuntu20.04.1) date 2022-07-26 15:57:37*
%MOMM*%
%LPD*%
G01*
G04 APERTURE LIST*
%ADD10C,0.150000*%
%ADD11C,0.120000*%
%ADD12C,0.200000*%
G04 APERTURE END LIST*
D10*
%TO.C,R16*%
X193120714Y-96841428D02*
X193390714Y-96455714D01*
X193583571Y-96841428D02*
X193583571Y-96031428D01*
X193275000Y-96031428D01*
X193197857Y-96070000D01*
X193159285Y-96108571D01*
X193120714Y-96185714D01*
X193120714Y-96301428D01*
X193159285Y-96378571D01*
X193197857Y-96417142D01*
X193275000Y-96455714D01*
X193583571Y-96455714D01*
X192349285Y-96841428D02*
X192812142Y-96841428D01*
X192580714Y-96841428D02*
X192580714Y-96031428D01*
X192657857Y-96147142D01*
X192735000Y-96224285D01*
X192812142Y-96262857D01*
X191655000Y-96031428D02*
X191809285Y-96031428D01*
X191886428Y-96070000D01*
X191925000Y-96108571D01*
X192002142Y-96224285D01*
X192040714Y-96378571D01*
X192040714Y-96687142D01*
X192002142Y-96764285D01*
X191963571Y-96802857D01*
X191886428Y-96841428D01*
X191732142Y-96841428D01*
X191655000Y-96802857D01*
X191616428Y-96764285D01*
X191577857Y-96687142D01*
X191577857Y-96494285D01*
X191616428Y-96417142D01*
X191655000Y-96378571D01*
X191732142Y-96340000D01*
X191886428Y-96340000D01*
X191963571Y-96378571D01*
X192002142Y-96417142D01*
X192040714Y-96494285D01*
%TO.C,FB3*%
X188517142Y-104700000D02*
X188517142Y-104430000D01*
X188941428Y-104430000D02*
X188131428Y-104430000D01*
X188131428Y-104815714D01*
X188517142Y-105394285D02*
X188555714Y-105510000D01*
X188594285Y-105548571D01*
X188671428Y-105587142D01*
X188787142Y-105587142D01*
X188864285Y-105548571D01*
X188902857Y-105510000D01*
X188941428Y-105432857D01*
X188941428Y-105124285D01*
X188131428Y-105124285D01*
X188131428Y-105394285D01*
X188170000Y-105471428D01*
X188208571Y-105510000D01*
X188285714Y-105548571D01*
X188362857Y-105548571D01*
X188440000Y-105510000D01*
X188478571Y-105471428D01*
X188517142Y-105394285D01*
X188517142Y-105124285D01*
X188131428Y-105857142D02*
X188131428Y-106358571D01*
X188440000Y-106088571D01*
X188440000Y-106204285D01*
X188478571Y-106281428D01*
X188517142Y-106320000D01*
X188594285Y-106358571D01*
X188787142Y-106358571D01*
X188864285Y-106320000D01*
X188902857Y-106281428D01*
X188941428Y-106204285D01*
X188941428Y-105972857D01*
X188902857Y-105895714D01*
X188864285Y-105857142D01*
%TO.C,FB1*%
X184830933Y-93858571D02*
X185164266Y-93858571D01*
X185164266Y-94382380D02*
X185164266Y-93382380D01*
X184688076Y-93382380D01*
X183973790Y-93858571D02*
X183830933Y-93906190D01*
X183783314Y-93953809D01*
X183735695Y-94049047D01*
X183735695Y-94191904D01*
X183783314Y-94287142D01*
X183830933Y-94334761D01*
X183926171Y-94382380D01*
X184307123Y-94382380D01*
X184307123Y-93382380D01*
X183973790Y-93382380D01*
X183878552Y-93430000D01*
X183830933Y-93477619D01*
X183783314Y-93572857D01*
X183783314Y-93668095D01*
X183830933Y-93763333D01*
X183878552Y-93810952D01*
X183973790Y-93858571D01*
X184307123Y-93858571D01*
X182783314Y-94382380D02*
X183354742Y-94382380D01*
X183069028Y-94382380D02*
X183069028Y-93382380D01*
X183164266Y-93525238D01*
X183259504Y-93620476D01*
X183354742Y-93668095D01*
%TO.C,C5*%
X192489285Y-104265000D02*
X192527857Y-104226428D01*
X192566428Y-104110714D01*
X192566428Y-104033571D01*
X192527857Y-103917857D01*
X192450714Y-103840714D01*
X192373571Y-103802142D01*
X192219285Y-103763571D01*
X192103571Y-103763571D01*
X191949285Y-103802142D01*
X191872142Y-103840714D01*
X191795000Y-103917857D01*
X191756428Y-104033571D01*
X191756428Y-104110714D01*
X191795000Y-104226428D01*
X191833571Y-104265000D01*
X191756428Y-104997857D02*
X191756428Y-104612142D01*
X192142142Y-104573571D01*
X192103571Y-104612142D01*
X192065000Y-104689285D01*
X192065000Y-104882142D01*
X192103571Y-104959285D01*
X192142142Y-104997857D01*
X192219285Y-105036428D01*
X192412142Y-105036428D01*
X192489285Y-104997857D01*
X192527857Y-104959285D01*
X192566428Y-104882142D01*
X192566428Y-104689285D01*
X192527857Y-104612142D01*
X192489285Y-104573571D01*
%TO.C,C16*%
X190295714Y-95814285D02*
X190334285Y-95852857D01*
X190450000Y-95891428D01*
X190527142Y-95891428D01*
X190642857Y-95852857D01*
X190720000Y-95775714D01*
X190758571Y-95698571D01*
X190797142Y-95544285D01*
X190797142Y-95428571D01*
X190758571Y-95274285D01*
X190720000Y-95197142D01*
X190642857Y-95120000D01*
X190527142Y-95081428D01*
X190450000Y-95081428D01*
X190334285Y-95120000D01*
X190295714Y-95158571D01*
X189524285Y-95891428D02*
X189987142Y-95891428D01*
X189755714Y-95891428D02*
X189755714Y-95081428D01*
X189832857Y-95197142D01*
X189910000Y-95274285D01*
X189987142Y-95312857D01*
X188830000Y-95081428D02*
X188984285Y-95081428D01*
X189061428Y-95120000D01*
X189100000Y-95158571D01*
X189177142Y-95274285D01*
X189215714Y-95428571D01*
X189215714Y-95737142D01*
X189177142Y-95814285D01*
X189138571Y-95852857D01*
X189061428Y-95891428D01*
X188907142Y-95891428D01*
X188830000Y-95852857D01*
X188791428Y-95814285D01*
X188752857Y-95737142D01*
X188752857Y-95544285D01*
X188791428Y-95467142D01*
X188830000Y-95428571D01*
X188907142Y-95390000D01*
X189061428Y-95390000D01*
X189138571Y-95428571D01*
X189177142Y-95467142D01*
X189215714Y-95544285D01*
%TO.C,C6*%
X187160000Y-98794285D02*
X187198571Y-98832857D01*
X187314285Y-98871428D01*
X187391428Y-98871428D01*
X187507142Y-98832857D01*
X187584285Y-98755714D01*
X187622857Y-98678571D01*
X187661428Y-98524285D01*
X187661428Y-98408571D01*
X187622857Y-98254285D01*
X187584285Y-98177142D01*
X187507142Y-98100000D01*
X187391428Y-98061428D01*
X187314285Y-98061428D01*
X187198571Y-98100000D01*
X187160000Y-98138571D01*
X186465714Y-98061428D02*
X186620000Y-98061428D01*
X186697142Y-98100000D01*
X186735714Y-98138571D01*
X186812857Y-98254285D01*
X186851428Y-98408571D01*
X186851428Y-98717142D01*
X186812857Y-98794285D01*
X186774285Y-98832857D01*
X186697142Y-98871428D01*
X186542857Y-98871428D01*
X186465714Y-98832857D01*
X186427142Y-98794285D01*
X186388571Y-98717142D01*
X186388571Y-98524285D01*
X186427142Y-98447142D01*
X186465714Y-98408571D01*
X186542857Y-98370000D01*
X186697142Y-98370000D01*
X186774285Y-98408571D01*
X186812857Y-98447142D01*
X186851428Y-98524285D01*
%TO.C,C19*%
X185889285Y-102154285D02*
X185927857Y-102115714D01*
X185966428Y-102000000D01*
X185966428Y-101922857D01*
X185927857Y-101807142D01*
X185850714Y-101730000D01*
X185773571Y-101691428D01*
X185619285Y-101652857D01*
X185503571Y-101652857D01*
X185349285Y-101691428D01*
X185272142Y-101730000D01*
X185195000Y-101807142D01*
X185156428Y-101922857D01*
X185156428Y-102000000D01*
X185195000Y-102115714D01*
X185233571Y-102154285D01*
X185966428Y-102925714D02*
X185966428Y-102462857D01*
X185966428Y-102694285D02*
X185156428Y-102694285D01*
X185272142Y-102617142D01*
X185349285Y-102540000D01*
X185387857Y-102462857D01*
X185966428Y-103311428D02*
X185966428Y-103465714D01*
X185927857Y-103542857D01*
X185889285Y-103581428D01*
X185773571Y-103658571D01*
X185619285Y-103697142D01*
X185310714Y-103697142D01*
X185233571Y-103658571D01*
X185195000Y-103620000D01*
X185156428Y-103542857D01*
X185156428Y-103388571D01*
X185195000Y-103311428D01*
X185233571Y-103272857D01*
X185310714Y-103234285D01*
X185503571Y-103234285D01*
X185580714Y-103272857D01*
X185619285Y-103311428D01*
X185657857Y-103388571D01*
X185657857Y-103542857D01*
X185619285Y-103620000D01*
X185580714Y-103658571D01*
X185503571Y-103697142D01*
%TO.C,C11*%
X191339285Y-98354285D02*
X191377857Y-98315714D01*
X191416428Y-98200000D01*
X191416428Y-98122857D01*
X191377857Y-98007142D01*
X191300714Y-97930000D01*
X191223571Y-97891428D01*
X191069285Y-97852857D01*
X190953571Y-97852857D01*
X190799285Y-97891428D01*
X190722142Y-97930000D01*
X190645000Y-98007142D01*
X190606428Y-98122857D01*
X190606428Y-98200000D01*
X190645000Y-98315714D01*
X190683571Y-98354285D01*
X191416428Y-99125714D02*
X191416428Y-98662857D01*
X191416428Y-98894285D02*
X190606428Y-98894285D01*
X190722142Y-98817142D01*
X190799285Y-98740000D01*
X190837857Y-98662857D01*
X191416428Y-99897142D02*
X191416428Y-99434285D01*
X191416428Y-99665714D02*
X190606428Y-99665714D01*
X190722142Y-99588571D01*
X190799285Y-99511428D01*
X190837857Y-99434285D01*
%TO.C,J1*%
X174491071Y-99231380D02*
X174491071Y-99945666D01*
X174538690Y-100088523D01*
X174633928Y-100183761D01*
X174776785Y-100231380D01*
X174872023Y-100231380D01*
X173491071Y-100231380D02*
X174062499Y-100231380D01*
X173776785Y-100231380D02*
X173776785Y-99231380D01*
X173872023Y-99374238D01*
X173967261Y-99469476D01*
X174062499Y-99517095D01*
%TO.C,J2*%
X188983333Y-121102380D02*
X188983333Y-121816666D01*
X189030952Y-121959523D01*
X189126190Y-122054761D01*
X189269047Y-122102380D01*
X189364285Y-122102380D01*
X188554761Y-121197619D02*
X188507142Y-121150000D01*
X188411904Y-121102380D01*
X188173809Y-121102380D01*
X188078571Y-121150000D01*
X188030952Y-121197619D01*
X187983333Y-121292857D01*
X187983333Y-121388095D01*
X188030952Y-121530952D01*
X188602380Y-122102380D01*
X187983333Y-122102380D01*
%TO.C,U2*%
X183117142Y-116956428D02*
X183117142Y-117612142D01*
X183078571Y-117689285D01*
X183040000Y-117727857D01*
X182962857Y-117766428D01*
X182808571Y-117766428D01*
X182731428Y-117727857D01*
X182692857Y-117689285D01*
X182654285Y-117612142D01*
X182654285Y-116956428D01*
X182307142Y-117033571D02*
X182268571Y-116995000D01*
X182191428Y-116956428D01*
X181998571Y-116956428D01*
X181921428Y-116995000D01*
X181882857Y-117033571D01*
X181844285Y-117110714D01*
X181844285Y-117187857D01*
X181882857Y-117303571D01*
X182345714Y-117766428D01*
X181844285Y-117766428D01*
D11*
%TO.C,R16*%
X194002500Y-97212258D02*
X194002500Y-96737742D01*
X195047500Y-97212258D02*
X195047500Y-96737742D01*
%TO.C,FB3*%
X188077500Y-102937258D02*
X188077500Y-102462742D01*
X189122500Y-102937258D02*
X189122500Y-102462742D01*
%TO.C,FB1*%
X183760342Y-91977500D02*
X184234858Y-91977500D01*
X183760342Y-93022500D02*
X184234858Y-93022500D01*
%TO.C,C5*%
X191615000Y-101959420D02*
X191615000Y-102240580D01*
X192635000Y-101959420D02*
X192635000Y-102240580D01*
%TO.C,C16*%
X186884420Y-94890000D02*
X187165580Y-94890000D01*
X186884420Y-95910000D02*
X187165580Y-95910000D01*
%TO.C,C6*%
X186884420Y-96565000D02*
X187165580Y-96565000D01*
X186884420Y-97585000D02*
X187165580Y-97585000D01*
%TO.C,C19*%
X187435000Y-102559420D02*
X187435000Y-102840580D01*
X186415000Y-102559420D02*
X186415000Y-102840580D01*
%TO.C,C11*%
X190260000Y-98940580D02*
X190260000Y-98659420D01*
X189240000Y-98940580D02*
X189240000Y-98659420D01*
D10*
%TO.C,J1*%
X175005000Y-97905000D02*
X174855000Y-97905000D01*
X180555000Y-95555000D02*
X180555000Y-96280000D01*
X180980000Y-95555000D02*
X180555000Y-95555000D01*
X174405000Y-89905000D02*
X174855000Y-89905000D01*
X178805000Y-97905000D02*
X177405000Y-97905000D01*
X174855000Y-97905000D02*
X174855000Y-97605000D01*
X174855000Y-97605000D02*
X174405000Y-97605000D01*
X180555000Y-91955000D02*
X180555000Y-91230000D01*
X180980000Y-94830000D02*
X180980000Y-95555000D01*
X174855000Y-89605000D02*
X175005000Y-89605000D01*
X174855000Y-89905000D02*
X174855000Y-89605000D01*
X177405000Y-89605000D02*
X178805000Y-89605000D01*
D11*
%TO.C,J2*%
X190330000Y-110600000D02*
X190330000Y-109880000D01*
X190330000Y-109880000D02*
X193010000Y-109880000D01*
X195310000Y-109880000D02*
X198980000Y-109880000D01*
X190330000Y-120150000D02*
X190330000Y-115700000D01*
X190330000Y-114300000D02*
X190330000Y-112000000D01*
X191810000Y-121520000D02*
X192670000Y-121520000D01*
X202510000Y-109880000D02*
X202510000Y-119700000D01*
X201280000Y-109880000D02*
X202510000Y-109880000D01*
D12*
%TO.C,U2*%
X182170000Y-105991000D02*
X182170000Y-112086000D01*
X181185000Y-116138000D02*
X181185000Y-116138000D01*
X181185000Y-116238000D02*
X181185000Y-116238000D01*
X175630000Y-112086000D02*
X175630000Y-105991000D01*
X181185000Y-116138000D02*
X181185000Y-116138000D01*
X182170000Y-112086000D02*
X175630000Y-112086000D01*
X181185000Y-116238000D02*
G75*
G03*
X181185000Y-116138000I0J50000D01*
G01*
X181185000Y-116238000D02*
G75*
G03*
X181185000Y-116138000I0J50000D01*
G01*
X181185000Y-116138000D02*
G75*
G03*
X181185000Y-116238000I0J-50000D01*
G01*
%TD*%
M02*
