%TF.GenerationSoftware,KiCad,Pcbnew,6.0.5-a6ca702e91~116~ubuntu20.04.1*%
%TF.CreationDate,2022-07-26T15:57:37+01:00*%
%TF.ProjectId,sd-mux,73642d6d-7578-42e6-9b69-6361645f7063,rev?*%
%TF.SameCoordinates,Original*%
%TF.FileFunction,Paste,Top*%
%TF.FilePolarity,Positive*%
%FSLAX46Y46*%
G04 Gerber Fmt 4.6, Leading zero omitted, Abs format (unit mm)*
G04 Created by KiCad (PCBNEW 6.0.5-a6ca702e91~116~ubuntu20.04.1) date 2022-07-26 15:57:37*
%MOMM*%
%LPD*%
G01*
G04 APERTURE LIST*
G04 Aperture macros list*
%AMRoundRect*
0 Rectangle with rounded corners*
0 $1 Rounding radius*
0 $2 $3 $4 $5 $6 $7 $8 $9 X,Y pos of 4 corners*
0 Add a 4 corners polygon primitive as box body*
4,1,4,$2,$3,$4,$5,$6,$7,$8,$9,$2,$3,0*
0 Add four circle primitives for the rounded corners*
1,1,$1+$1,$2,$3*
1,1,$1+$1,$4,$5*
1,1,$1+$1,$6,$7*
1,1,$1+$1,$8,$9*
0 Add four rect primitives between the rounded corners*
20,1,$1+$1,$2,$3,$4,$5,0*
20,1,$1+$1,$4,$5,$6,$7,0*
20,1,$1+$1,$6,$7,$8,$9,0*
20,1,$1+$1,$8,$9,$2,$3,0*%
G04 Aperture macros list end*
%ADD10R,0.900000X0.800000*%
%ADD11RoundRect,0.218750X0.335876X0.026517X0.026517X0.335876X-0.335876X-0.026517X-0.026517X-0.335876X0*%
%ADD12RoundRect,0.200000X-0.275000X0.200000X-0.275000X-0.200000X0.275000X-0.200000X0.275000X0.200000X0*%
%ADD13RoundRect,0.200000X-0.200000X-0.275000X0.200000X-0.275000X0.200000X0.275000X-0.200000X0.275000X0*%
%ADD14RoundRect,0.200000X0.335876X0.053033X0.053033X0.335876X-0.335876X-0.053033X-0.053033X-0.335876X0*%
%ADD15RoundRect,0.200000X-0.335876X-0.053033X-0.053033X-0.335876X0.335876X0.053033X0.053033X0.335876X0*%
%ADD16RoundRect,0.200000X0.200000X0.275000X-0.200000X0.275000X-0.200000X-0.275000X0.200000X-0.275000X0*%
%ADD17RoundRect,0.200000X0.275000X-0.200000X0.275000X0.200000X-0.275000X0.200000X-0.275000X-0.200000X0*%
%ADD18RoundRect,0.225000X-0.225000X-0.250000X0.225000X-0.250000X0.225000X0.250000X-0.225000X0.250000X0*%
%ADD19RoundRect,0.225000X0.225000X0.250000X-0.225000X0.250000X-0.225000X-0.250000X0.225000X-0.250000X0*%
%ADD20RoundRect,0.225000X0.250000X-0.225000X0.250000X0.225000X-0.250000X0.225000X-0.250000X-0.225000X0*%
%ADD21RoundRect,0.225000X-0.250000X0.225000X-0.250000X-0.225000X0.250000X-0.225000X0.250000X0.225000X0*%
%ADD22RoundRect,0.100000X0.100000X-0.637500X0.100000X0.637500X-0.100000X0.637500X-0.100000X-0.637500X0*%
%ADD23R,4.200000X4.200000*%
%ADD24R,0.900000X0.300000*%
%ADD25R,0.300000X0.900000*%
%ADD26R,1.475000X0.450000*%
G04 APERTURE END LIST*
D10*
%TO.C,Y1*%
X181000000Y-102925000D03*
X182400000Y-102925000D03*
X182400000Y-101825000D03*
X181000000Y-101825000D03*
%TD*%
D11*
%TO.C,D1*%
X206863694Y-95138694D03*
X205750000Y-94025000D03*
%TD*%
%TO.C,D2*%
X203731847Y-92181847D03*
X202618153Y-91068153D03*
%TD*%
%TO.C,D3*%
X201481847Y-89931847D03*
X200368153Y-88818153D03*
%TD*%
D12*
%TO.C,R4*%
X205375000Y-99475000D03*
X205375000Y-101125000D03*
%TD*%
%TO.C,R11*%
X193800000Y-110025000D03*
X193800000Y-111675000D03*
%TD*%
D13*
%TO.C,R13*%
X188225000Y-113050000D03*
X189875000Y-113050000D03*
%TD*%
D12*
%TO.C,R12*%
X195800000Y-110025000D03*
X195800000Y-111675000D03*
%TD*%
D13*
%TO.C,R14*%
X177200000Y-103625000D03*
X178850000Y-103625000D03*
%TD*%
D14*
%TO.C,R19*%
X199216637Y-90016637D03*
X200383363Y-91183363D03*
%TD*%
D13*
%TO.C,R5*%
X186350000Y-88625000D03*
X188000000Y-88625000D03*
%TD*%
%TO.C,R6*%
X176350000Y-87800000D03*
X178000000Y-87800000D03*
%TD*%
D15*
%TO.C,R17*%
X204566637Y-95166637D03*
X205733363Y-96333363D03*
%TD*%
D13*
%TO.C,R3*%
X190700000Y-117175000D03*
X192350000Y-117175000D03*
%TD*%
D16*
%TO.C,R15*%
X183850000Y-99225000D03*
X182200000Y-99225000D03*
%TD*%
D17*
%TO.C,R7*%
X183325000Y-93125000D03*
X183325000Y-91475000D03*
%TD*%
D12*
%TO.C,FB2*%
X179475000Y-93275000D03*
X179475000Y-94925000D03*
%TD*%
D16*
%TO.C,FB4*%
X191225000Y-88625000D03*
X189575000Y-88625000D03*
%TD*%
D12*
%TO.C,R9*%
X195150000Y-105850000D03*
X195150000Y-107500000D03*
%TD*%
%TO.C,R8*%
X193500000Y-105850000D03*
X193500000Y-107500000D03*
%TD*%
D13*
%TO.C,R10*%
X184525000Y-114200000D03*
X186175000Y-114200000D03*
%TD*%
%TO.C,R2*%
X177200000Y-101700000D03*
X178850000Y-101700000D03*
%TD*%
D17*
%TO.C,R1*%
X181725000Y-93125000D03*
X181725000Y-91475000D03*
%TD*%
D14*
%TO.C,R18*%
X202608363Y-93383363D03*
X201441637Y-92216637D03*
%TD*%
D18*
%TO.C,C18*%
X193350000Y-88575000D03*
X194900000Y-88575000D03*
%TD*%
D19*
%TO.C,C4*%
X198975000Y-97875000D03*
X197425000Y-97875000D03*
%TD*%
D18*
%TO.C,C8*%
X180000000Y-87800000D03*
X181550000Y-87800000D03*
%TD*%
%TO.C,C20*%
X195650000Y-96200000D03*
X197200000Y-96200000D03*
%TD*%
D19*
%TO.C,C15*%
X186125000Y-115800000D03*
X184575000Y-115800000D03*
%TD*%
D18*
%TO.C,C14*%
X177375000Y-116225000D03*
X178925000Y-116225000D03*
%TD*%
D20*
%TO.C,C26*%
X180950000Y-109125000D03*
X180950000Y-107575000D03*
%TD*%
D21*
%TO.C,C3*%
X182300000Y-96100000D03*
X182300000Y-97650000D03*
%TD*%
D18*
%TO.C,C1*%
X177250000Y-105225000D03*
X178800000Y-105225000D03*
%TD*%
%TO.C,C9*%
X193350000Y-90200000D03*
X194900000Y-90200000D03*
%TD*%
D19*
%TO.C,C23*%
X181650000Y-110975000D03*
X183200000Y-110975000D03*
%TD*%
D18*
%TO.C,C13*%
X189625000Y-90200000D03*
X191175000Y-90200000D03*
%TD*%
D21*
%TO.C,C10*%
X177925000Y-93325000D03*
X177925000Y-94875000D03*
%TD*%
D20*
%TO.C,C24*%
X195150000Y-103475000D03*
X195150000Y-101925000D03*
%TD*%
%TO.C,C22*%
X193525000Y-103475000D03*
X193525000Y-101925000D03*
%TD*%
%TO.C,C21*%
X182525000Y-109125000D03*
X182525000Y-107575000D03*
%TD*%
D21*
%TO.C,C17*%
X204375000Y-111425000D03*
X204375000Y-109875000D03*
%TD*%
D19*
%TO.C,C7*%
X187950000Y-90200000D03*
X186400000Y-90200000D03*
%TD*%
D18*
%TO.C,C2*%
X177250000Y-100075000D03*
X178800000Y-100075000D03*
%TD*%
D21*
%TO.C,C12*%
X177000000Y-111075000D03*
X177000000Y-112625000D03*
%TD*%
D19*
%TO.C,C25*%
X183200000Y-112625000D03*
X181650000Y-112625000D03*
%TD*%
D22*
%TO.C,U4*%
X196577000Y-106494500D03*
X197227000Y-106494500D03*
X197877000Y-106494500D03*
X198527000Y-106494500D03*
X199177000Y-106494500D03*
X199827000Y-106494500D03*
X200477000Y-106494500D03*
X201127000Y-106494500D03*
X201777000Y-106494500D03*
X202427000Y-106494500D03*
X203077000Y-106494500D03*
X203727000Y-106494500D03*
X203727000Y-100769500D03*
X203077000Y-100769500D03*
X202427000Y-100769500D03*
X201777000Y-100769500D03*
X201127000Y-100769500D03*
X200477000Y-100769500D03*
X199827000Y-100769500D03*
X199177000Y-100769500D03*
X198527000Y-100769500D03*
X197877000Y-100769500D03*
X197227000Y-100769500D03*
X196577000Y-100769500D03*
%TD*%
D23*
%TO.C,U1*%
X189357000Y-96266000D03*
D24*
X185907000Y-99016000D03*
X185907000Y-98516000D03*
X185907000Y-98016000D03*
X185907000Y-97516000D03*
X185907000Y-97016000D03*
X185907000Y-96516000D03*
X185907000Y-96016000D03*
X185907000Y-95516000D03*
X185907000Y-95016000D03*
X185907000Y-94516000D03*
X185907000Y-94016000D03*
X185907000Y-93516000D03*
D25*
X186607000Y-92816000D03*
X187107000Y-92816000D03*
X187607000Y-92816000D03*
X188107000Y-92816000D03*
X188607000Y-92816000D03*
X189107000Y-92816000D03*
X189607000Y-92816000D03*
X190107000Y-92816000D03*
X190607000Y-92816000D03*
X191107000Y-92816000D03*
X191607000Y-92816000D03*
X192107000Y-92816000D03*
D24*
X192807000Y-93516000D03*
X192807000Y-94016000D03*
X192807000Y-94516000D03*
X192807000Y-95016000D03*
X192807000Y-95516000D03*
X192807000Y-96016000D03*
X192807000Y-96516000D03*
X192807000Y-97016000D03*
X192807000Y-97516000D03*
X192807000Y-98016000D03*
X192807000Y-98516000D03*
X192807000Y-99016000D03*
D25*
X192107000Y-99716000D03*
X191607000Y-99716000D03*
X191107000Y-99716000D03*
X190607000Y-99716000D03*
X190107000Y-99716000D03*
X189607000Y-99716000D03*
X189107000Y-99716000D03*
X188607000Y-99716000D03*
X188107000Y-99716000D03*
X187607000Y-99716000D03*
X187107000Y-99716000D03*
X186607000Y-99716000D03*
%TD*%
D26*
%TO.C,U3*%
X191126600Y-110752600D03*
X191126600Y-110102600D03*
X191126600Y-109452600D03*
X191126600Y-108802600D03*
X191126600Y-108152600D03*
X191126600Y-107502600D03*
X191126600Y-106852600D03*
X191126600Y-106202600D03*
X191126600Y-105552600D03*
X191126600Y-104902600D03*
X191126600Y-104252600D03*
X191126600Y-103602600D03*
X191126600Y-102952600D03*
X191126600Y-102302600D03*
X185250600Y-102302600D03*
X185250600Y-102952600D03*
X185250600Y-103602600D03*
X185250600Y-104252600D03*
X185250600Y-104902600D03*
X185250600Y-105552600D03*
X185250600Y-106202600D03*
X185250600Y-106852600D03*
X185250600Y-107502600D03*
X185250600Y-108152600D03*
X185250600Y-108802600D03*
X185250600Y-109452600D03*
X185250600Y-110102600D03*
X185250600Y-110752600D03*
%TD*%
M02*
